G75*
%MOIN*%
%OFA0B0*%
%FSLAX25Y25*%
%IPPOS*%
%LPD*%
%AMOC8*
5,1,8,0,0,1.08239X$1,22.5*
%
%ADD10C,0.00000*%
%ADD11OC8,0.05200*%
%ADD12C,0.05200*%
%ADD13C,0.05200*%
%ADD14C,0.06000*%
%ADD15C,0.09449*%
%ADD16OC8,0.15748*%
%ADD17C,0.07677*%
%ADD18C,0.01600*%
%ADD19C,0.03600*%
%ADD20C,0.02000*%
%ADD21C,0.01200*%
%ADD22C,0.03200*%
D10*
X0001800Y0001800D02*
X0001800Y0198650D01*
X0198650Y0198650D01*
X0198650Y0001800D01*
X0001800Y0001800D01*
D11*
X0014300Y0121800D03*
X0024300Y0121800D03*
X0034300Y0121800D03*
X0044300Y0121800D03*
X0054300Y0121800D03*
X0064300Y0121800D03*
X0074300Y0121800D03*
X0084300Y0121800D03*
X0094300Y0121800D03*
X0111800Y0131800D03*
X0121800Y0131800D03*
X0120800Y0151800D03*
X0131800Y0169300D03*
X0101800Y0169300D03*
X0089300Y0161800D03*
X0079300Y0161800D03*
X0069300Y0161800D03*
X0059300Y0161800D03*
X0049300Y0161800D03*
X0039300Y0161800D03*
X0029300Y0161800D03*
X0019300Y0161800D03*
X0014300Y0151800D03*
X0024300Y0151800D03*
X0034300Y0151800D03*
X0044300Y0151800D03*
X0054300Y0151800D03*
X0064300Y0151800D03*
X0074300Y0151800D03*
X0084300Y0151800D03*
X0094300Y0151800D03*
X0089300Y0191800D03*
X0079300Y0191800D03*
X0069300Y0191800D03*
X0059300Y0191800D03*
X0049300Y0191800D03*
X0039300Y0191800D03*
X0029300Y0191800D03*
X0019300Y0191800D03*
D12*
X0112800Y0151800D03*
D13*
X0106800Y0079400D02*
X0106800Y0074200D01*
X0096800Y0074200D02*
X0096800Y0079400D01*
X0086800Y0079400D02*
X0086800Y0074200D01*
X0076800Y0074200D02*
X0076800Y0079400D01*
X0066800Y0079400D02*
X0066800Y0074200D01*
X0056800Y0074200D02*
X0056800Y0079400D01*
X0046800Y0079400D02*
X0046800Y0074200D01*
X0036800Y0074200D02*
X0036800Y0079400D01*
X0026800Y0079400D02*
X0026800Y0074200D01*
X0016800Y0074200D02*
X0016800Y0079400D01*
X0016800Y0049400D02*
X0016800Y0044200D01*
X0026800Y0044200D02*
X0026800Y0049400D01*
X0036800Y0049400D02*
X0036800Y0044200D01*
X0046800Y0044200D02*
X0046800Y0049400D01*
X0056800Y0049400D02*
X0056800Y0044200D01*
X0066800Y0044200D02*
X0066800Y0049400D01*
X0076800Y0049400D02*
X0076800Y0044200D01*
X0086800Y0044200D02*
X0086800Y0049400D01*
X0096800Y0049400D02*
X0096800Y0044200D01*
X0106800Y0044200D02*
X0106800Y0049400D01*
X0126800Y0049400D02*
X0126800Y0044200D01*
X0136800Y0044200D02*
X0136800Y0049400D01*
X0146800Y0049400D02*
X0146800Y0044200D01*
X0156800Y0044200D02*
X0156800Y0049400D01*
X0166800Y0049400D02*
X0166800Y0044200D01*
X0176800Y0044200D02*
X0176800Y0049400D01*
X0186800Y0049400D02*
X0186800Y0044200D01*
X0186800Y0074200D02*
X0186800Y0079400D01*
X0176800Y0079400D02*
X0176800Y0074200D01*
X0166800Y0074200D02*
X0166800Y0079400D01*
X0156800Y0079400D02*
X0156800Y0074200D01*
X0146800Y0074200D02*
X0146800Y0079400D01*
X0136800Y0079400D02*
X0136800Y0074200D01*
X0126800Y0074200D02*
X0126800Y0079400D01*
D14*
X0136300Y0106800D02*
X0142300Y0106800D01*
X0142300Y0116800D02*
X0136300Y0116800D01*
X0121800Y0183800D02*
X0121800Y0189800D01*
X0111800Y0189800D02*
X0111800Y0183800D01*
X0111800Y0019800D02*
X0111800Y0013800D01*
X0121800Y0013800D02*
X0121800Y0019800D01*
X0131800Y0019800D02*
X0131800Y0013800D01*
X0156800Y0013800D02*
X0156800Y0019800D01*
X0166800Y0019800D02*
X0166800Y0013800D01*
X0176800Y0013800D02*
X0176800Y0019800D01*
X0186800Y0019800D02*
X0186800Y0013800D01*
X0086800Y0013800D02*
X0086800Y0019800D01*
X0076800Y0019800D02*
X0076800Y0013800D01*
X0066800Y0013800D02*
X0066800Y0019800D01*
X0056800Y0019800D02*
X0056800Y0013800D01*
X0046800Y0013800D02*
X0046800Y0019800D01*
X0036800Y0019800D02*
X0036800Y0013800D01*
X0026800Y0013800D02*
X0026800Y0019800D01*
X0016800Y0019800D02*
X0016800Y0013800D01*
D15*
X0157036Y0149280D03*
X0163729Y0159123D03*
X0189713Y0168965D03*
X0175934Y0186682D03*
X0146013Y0185501D03*
D16*
X0169674Y0130304D03*
X0157863Y0111800D03*
X0181485Y0111800D03*
D17*
X0181485Y0108650D03*
X0181485Y0114950D03*
X0172824Y0130304D03*
X0166524Y0130304D03*
X0157863Y0114950D03*
X0157863Y0108650D03*
D18*
X0162533Y0102506D02*
X0177098Y0102506D01*
X0177478Y0102126D02*
X0171811Y0107793D01*
X0171811Y0111320D01*
X0176517Y0111320D01*
X0176662Y0111606D01*
X0176804Y0111800D01*
X0176662Y0111994D01*
X0176517Y0112280D01*
X0171811Y0112280D01*
X0171811Y0115807D01*
X0177478Y0121474D01*
X0181005Y0121474D01*
X0181005Y0115429D01*
X0181965Y0115429D01*
X0181965Y0121474D01*
X0185492Y0121474D01*
X0191159Y0115807D01*
X0191159Y0112280D01*
X0186453Y0112280D01*
X0186308Y0111994D01*
X0186166Y0111800D01*
X0186308Y0111606D01*
X0186453Y0111320D01*
X0191159Y0111320D01*
X0191159Y0107793D01*
X0185492Y0102126D01*
X0181965Y0102126D01*
X0181965Y0108171D01*
X0181005Y0108171D01*
X0181005Y0102126D01*
X0177478Y0102126D01*
X0175499Y0104105D02*
X0164132Y0104105D01*
X0165730Y0105703D02*
X0173901Y0105703D01*
X0172302Y0107302D02*
X0167329Y0107302D01*
X0167737Y0107710D02*
X0167737Y0115890D01*
X0161953Y0121674D01*
X0153773Y0121674D01*
X0147989Y0115890D01*
X0147989Y0114504D01*
X0147601Y0114343D01*
X0146757Y0113499D01*
X0144541Y0111284D01*
X0143295Y0111800D01*
X0135305Y0111800D01*
X0133468Y0111039D01*
X0132061Y0109632D01*
X0131300Y0107795D01*
X0131300Y0105805D01*
X0132061Y0103968D01*
X0133468Y0102561D01*
X0135305Y0101800D01*
X0135357Y0101800D01*
X0130294Y0096737D01*
X0130252Y0096839D01*
X0129800Y0097291D01*
X0129800Y0107317D01*
X0129404Y0108273D01*
X0110277Y0127400D01*
X0111800Y0127400D01*
X0113623Y0127400D01*
X0116200Y0129977D01*
X0116200Y0131800D01*
X0116200Y0133623D01*
X0113623Y0136200D01*
X0111800Y0136200D01*
X0111800Y0131800D01*
X0111800Y0131800D01*
X0116200Y0131800D01*
X0111800Y0131800D01*
X0111800Y0131800D01*
X0111800Y0131800D01*
X0107400Y0131800D01*
X0107400Y0133623D01*
X0109977Y0136200D01*
X0111800Y0136200D01*
X0111800Y0131800D01*
X0111800Y0127400D01*
X0111800Y0131800D01*
X0111800Y0131800D01*
X0107400Y0131800D01*
X0107400Y0130277D01*
X0100004Y0137673D01*
X0099273Y0138404D01*
X0098317Y0138800D01*
X0041483Y0138800D01*
X0040527Y0138404D01*
X0027364Y0125241D01*
X0026205Y0126400D01*
X0022395Y0126400D01*
X0019700Y0123705D01*
X0019700Y0119895D01*
X0020259Y0119336D01*
X0004996Y0104073D01*
X0004600Y0103117D01*
X0004600Y0074117D01*
X0003961Y0073852D01*
X0003600Y0073491D01*
X0003600Y0196850D01*
X0196850Y0196850D01*
X0196850Y0003600D01*
X0176200Y0003600D01*
X0176673Y0003796D01*
X0176877Y0004000D01*
X0176917Y0004000D01*
X0177873Y0004396D01*
X0178604Y0005127D01*
X0183503Y0010026D01*
X0183968Y0009561D01*
X0185805Y0008800D01*
X0187795Y0008800D01*
X0189632Y0009561D01*
X0191039Y0010968D01*
X0191800Y0012805D01*
X0191800Y0020795D01*
X0191645Y0021168D01*
X0196004Y0025527D01*
X0196400Y0026483D01*
X0196400Y0070117D01*
X0196004Y0071073D01*
X0195273Y0071804D01*
X0191400Y0075677D01*
X0191400Y0080315D01*
X0190700Y0082006D01*
X0189406Y0083300D01*
X0187715Y0084000D01*
X0185885Y0084000D01*
X0184194Y0083300D01*
X0182900Y0082006D01*
X0182200Y0080315D01*
X0182200Y0073285D01*
X0182900Y0071594D01*
X0184194Y0070300D01*
X0185885Y0069600D01*
X0187715Y0069600D01*
X0189406Y0070300D01*
X0189414Y0070309D01*
X0191200Y0068523D01*
X0191200Y0028077D01*
X0187885Y0024762D01*
X0187795Y0024800D01*
X0185805Y0024800D01*
X0183968Y0024039D01*
X0183503Y0023574D01*
X0183377Y0023700D01*
X0184004Y0024327D01*
X0184400Y0025283D01*
X0184400Y0039517D01*
X0184004Y0040473D01*
X0183273Y0041204D01*
X0181339Y0043138D01*
X0181400Y0043285D01*
X0181400Y0050315D01*
X0180700Y0052006D01*
X0179406Y0053300D01*
X0177715Y0054000D01*
X0175885Y0054000D01*
X0174194Y0053300D01*
X0172900Y0052006D01*
X0172200Y0050315D01*
X0172200Y0043285D01*
X0172900Y0041594D01*
X0174194Y0040300D01*
X0175885Y0039600D01*
X0177523Y0039600D01*
X0179200Y0037923D01*
X0179200Y0026877D01*
X0178527Y0026204D01*
X0177796Y0025473D01*
X0177600Y0025000D01*
X0177404Y0025473D01*
X0164804Y0038073D01*
X0164073Y0038804D01*
X0163117Y0039200D01*
X0143877Y0039200D01*
X0140929Y0042148D01*
X0141400Y0043285D01*
X0141400Y0050315D01*
X0140700Y0052006D01*
X0139406Y0053300D01*
X0137715Y0054000D01*
X0135885Y0054000D01*
X0134194Y0053300D01*
X0132900Y0052006D01*
X0132200Y0050315D01*
X0132200Y0049400D01*
X0131400Y0049400D01*
X0131400Y0050315D01*
X0130700Y0052006D01*
X0129406Y0053300D01*
X0128254Y0053777D01*
X0128877Y0054400D01*
X0148323Y0054400D01*
X0152261Y0050462D01*
X0152200Y0050315D01*
X0152200Y0043285D01*
X0152900Y0041594D01*
X0154194Y0040300D01*
X0155885Y0039600D01*
X0157715Y0039600D01*
X0159406Y0040300D01*
X0160700Y0041594D01*
X0161400Y0043285D01*
X0161400Y0050315D01*
X0160700Y0052006D01*
X0159406Y0053300D01*
X0157715Y0054000D01*
X0156077Y0054000D01*
X0153277Y0056800D01*
X0163117Y0056800D01*
X0164073Y0057196D01*
X0164804Y0057927D01*
X0176477Y0069600D01*
X0177715Y0069600D01*
X0179406Y0070300D01*
X0180700Y0071594D01*
X0181400Y0073285D01*
X0181400Y0080315D01*
X0180700Y0082006D01*
X0179406Y0083300D01*
X0177715Y0084000D01*
X0175885Y0084000D01*
X0174194Y0083300D01*
X0172900Y0082006D01*
X0172200Y0080315D01*
X0172200Y0073285D01*
X0172378Y0072855D01*
X0161523Y0062000D01*
X0126083Y0062000D01*
X0125127Y0061604D01*
X0117600Y0054077D01*
X0117600Y0063597D01*
X0117143Y0064699D01*
X0115243Y0066600D01*
X0122200Y0073557D01*
X0122200Y0073285D01*
X0122900Y0071594D01*
X0124194Y0070300D01*
X0125885Y0069600D01*
X0127715Y0069600D01*
X0129406Y0070300D01*
X0130700Y0071594D01*
X0131400Y0073285D01*
X0131400Y0080315D01*
X0130700Y0082006D01*
X0129905Y0082800D01*
X0130316Y0082800D01*
X0131639Y0083348D01*
X0132652Y0084361D01*
X0132668Y0084400D01*
X0158523Y0084400D01*
X0162320Y0080604D01*
X0162200Y0080315D01*
X0162200Y0073285D01*
X0162900Y0071594D01*
X0164194Y0070300D01*
X0165885Y0069600D01*
X0167715Y0069600D01*
X0169406Y0070300D01*
X0170700Y0071594D01*
X0171400Y0073285D01*
X0171400Y0080315D01*
X0170700Y0082006D01*
X0169406Y0083300D01*
X0167715Y0084000D01*
X0166277Y0084000D01*
X0161804Y0088473D01*
X0161073Y0089204D01*
X0160117Y0089600D01*
X0131643Y0089600D01*
X0141143Y0099101D01*
X0141600Y0100203D01*
X0141600Y0101800D01*
X0143295Y0101800D01*
X0145132Y0102561D01*
X0146539Y0103968D01*
X0147125Y0105382D01*
X0148721Y0106978D01*
X0153773Y0101926D01*
X0161953Y0101926D01*
X0167737Y0107710D01*
X0167737Y0108900D02*
X0171811Y0108900D01*
X0171811Y0110499D02*
X0167737Y0110499D01*
X0167737Y0112097D02*
X0176610Y0112097D01*
X0181005Y0112280D02*
X0181005Y0114470D01*
X0181965Y0114470D01*
X0181965Y0112280D01*
X0181005Y0112280D01*
X0181005Y0111320D02*
X0181005Y0109130D01*
X0181965Y0109130D01*
X0181965Y0111320D01*
X0181005Y0111320D01*
X0181005Y0110499D02*
X0181965Y0110499D01*
X0181965Y0113696D02*
X0181005Y0113696D01*
X0181005Y0116893D02*
X0181965Y0116893D01*
X0181965Y0118491D02*
X0181005Y0118491D01*
X0181005Y0120090D02*
X0181965Y0120090D01*
X0176094Y0120090D02*
X0163537Y0120090D01*
X0164608Y0121688D02*
X0115989Y0121688D01*
X0117587Y0120090D02*
X0132802Y0120090D01*
X0132639Y0119927D02*
X0132195Y0119316D01*
X0131852Y0118643D01*
X0131618Y0117924D01*
X0131500Y0117178D01*
X0131500Y0117000D01*
X0139100Y0117000D01*
X0139100Y0121600D01*
X0135922Y0121600D01*
X0135176Y0121482D01*
X0134457Y0121248D01*
X0133784Y0120905D01*
X0133173Y0120461D01*
X0132639Y0119927D01*
X0131803Y0118491D02*
X0119186Y0118491D01*
X0120784Y0116893D02*
X0139100Y0116893D01*
X0139100Y0117000D02*
X0139100Y0116600D01*
X0139500Y0116600D01*
X0139500Y0117000D01*
X0139100Y0117000D01*
X0139500Y0117000D02*
X0139500Y0121600D01*
X0142678Y0121600D01*
X0143424Y0121482D01*
X0144143Y0121248D01*
X0144816Y0120905D01*
X0145427Y0120461D01*
X0145961Y0119927D01*
X0146405Y0119316D01*
X0146748Y0118643D01*
X0146982Y0117924D01*
X0147100Y0117178D01*
X0147100Y0117000D01*
X0139500Y0117000D01*
X0139500Y0116893D02*
X0148992Y0116893D01*
X0147989Y0115294D02*
X0146858Y0115294D01*
X0146748Y0114957D02*
X0146982Y0115676D01*
X0147100Y0116422D01*
X0147100Y0116600D01*
X0139500Y0116600D01*
X0139500Y0112000D01*
X0142678Y0112000D01*
X0143424Y0112118D01*
X0144143Y0112352D01*
X0144816Y0112695D01*
X0145427Y0113139D01*
X0145961Y0113673D01*
X0146405Y0114284D01*
X0146748Y0114957D01*
X0146953Y0113696D02*
X0145978Y0113696D01*
X0145355Y0112097D02*
X0143292Y0112097D01*
X0139500Y0112097D02*
X0139100Y0112097D01*
X0139100Y0112000D02*
X0139100Y0116600D01*
X0131500Y0116600D01*
X0131500Y0116422D01*
X0131618Y0115676D01*
X0131852Y0114957D01*
X0132195Y0114284D01*
X0132639Y0113673D01*
X0133173Y0113139D01*
X0133784Y0112695D01*
X0134457Y0112352D01*
X0135176Y0112118D01*
X0135922Y0112000D01*
X0139100Y0112000D01*
X0139100Y0113696D02*
X0139500Y0113696D01*
X0139500Y0115294D02*
X0139100Y0115294D01*
X0139100Y0118491D02*
X0139500Y0118491D01*
X0139500Y0120090D02*
X0139100Y0120090D01*
X0145798Y0120090D02*
X0152189Y0120090D01*
X0150590Y0118491D02*
X0146797Y0118491D01*
X0135308Y0112097D02*
X0125580Y0112097D01*
X0127178Y0110499D02*
X0132928Y0110499D01*
X0131758Y0108900D02*
X0128777Y0108900D01*
X0129800Y0107302D02*
X0131300Y0107302D01*
X0131342Y0105703D02*
X0129800Y0105703D01*
X0129800Y0104105D02*
X0132004Y0104105D01*
X0133600Y0102506D02*
X0129800Y0102506D01*
X0129800Y0100908D02*
X0134465Y0100908D01*
X0132867Y0099309D02*
X0129800Y0099309D01*
X0129800Y0097711D02*
X0131268Y0097711D01*
X0134958Y0092915D02*
X0196850Y0092915D01*
X0196850Y0091317D02*
X0133359Y0091317D01*
X0131761Y0089718D02*
X0196850Y0089718D01*
X0196850Y0088120D02*
X0162157Y0088120D01*
X0163756Y0086521D02*
X0196850Y0086521D01*
X0196850Y0084923D02*
X0165354Y0084923D01*
X0169347Y0083324D02*
X0174253Y0083324D01*
X0172784Y0081726D02*
X0170816Y0081726D01*
X0171400Y0080127D02*
X0172200Y0080127D01*
X0172200Y0078529D02*
X0171400Y0078529D01*
X0171400Y0076930D02*
X0172200Y0076930D01*
X0172200Y0075332D02*
X0171400Y0075332D01*
X0171400Y0073733D02*
X0172200Y0073733D01*
X0171658Y0072134D02*
X0170923Y0072134D01*
X0170059Y0070536D02*
X0169641Y0070536D01*
X0168461Y0068937D02*
X0117580Y0068937D01*
X0115982Y0067339D02*
X0166862Y0067339D01*
X0165264Y0065740D02*
X0116102Y0065740D01*
X0117374Y0064142D02*
X0163665Y0064142D01*
X0162066Y0062543D02*
X0117600Y0062543D01*
X0117600Y0060945D02*
X0124468Y0060945D01*
X0122869Y0059346D02*
X0117600Y0059346D01*
X0117600Y0057748D02*
X0121271Y0057748D01*
X0119672Y0056149D02*
X0117600Y0056149D01*
X0117600Y0054551D02*
X0118074Y0054551D01*
X0111600Y0054551D02*
X0104600Y0054551D01*
X0104600Y0054083D02*
X0104600Y0059909D01*
X0105052Y0060361D01*
X0105600Y0061684D01*
X0105600Y0063116D01*
X0105400Y0063600D01*
X0109757Y0063600D01*
X0111600Y0061757D01*
X0111600Y0045003D01*
X0111760Y0044617D01*
X0111361Y0044452D01*
X0111200Y0044291D01*
X0111200Y0046800D01*
X0111200Y0049746D01*
X0111092Y0050430D01*
X0110878Y0051089D01*
X0110563Y0051706D01*
X0110156Y0052266D01*
X0109666Y0052756D01*
X0109106Y0053163D01*
X0108489Y0053478D01*
X0107830Y0053692D01*
X0107146Y0053800D01*
X0106800Y0053800D01*
X0106800Y0046800D01*
X0106800Y0046800D01*
X0111200Y0046800D01*
X0106800Y0046800D01*
X0106800Y0046800D01*
X0106800Y0039800D01*
X0107146Y0039800D01*
X0107830Y0039908D01*
X0108489Y0040122D01*
X0109106Y0040437D01*
X0109666Y0040844D01*
X0109800Y0040977D01*
X0109800Y0040684D01*
X0110348Y0039361D01*
X0111361Y0038348D01*
X0112684Y0037800D01*
X0113323Y0037800D01*
X0125200Y0025923D01*
X0125200Y0025883D01*
X0125596Y0024927D01*
X0127600Y0022923D01*
X0127600Y0022671D01*
X0127561Y0022632D01*
X0126800Y0020795D01*
X0126800Y0012805D01*
X0127561Y0010968D01*
X0128968Y0009561D01*
X0130805Y0008800D01*
X0132795Y0008800D01*
X0134632Y0009561D01*
X0136039Y0010968D01*
X0136800Y0012805D01*
X0136800Y0020795D01*
X0136039Y0022632D01*
X0134632Y0024039D01*
X0132795Y0024800D01*
X0132683Y0024800D01*
X0132404Y0025473D01*
X0131673Y0026204D01*
X0130400Y0027477D01*
X0130400Y0027517D01*
X0130004Y0028473D01*
X0129273Y0029204D01*
X0124877Y0033600D01*
X0125357Y0033600D01*
X0144701Y0014257D01*
X0145803Y0013800D01*
X0151800Y0013800D01*
X0151800Y0012805D01*
X0152561Y0010968D01*
X0153968Y0009561D01*
X0155805Y0008800D01*
X0157795Y0008800D01*
X0159632Y0009561D01*
X0161039Y0010968D01*
X0161800Y0012805D01*
X0162561Y0010968D01*
X0163968Y0009561D01*
X0165805Y0008800D01*
X0167795Y0008800D01*
X0169632Y0009561D01*
X0171039Y0010968D01*
X0171800Y0012805D01*
X0171800Y0020795D01*
X0171039Y0022632D01*
X0169632Y0024039D01*
X0167795Y0024800D01*
X0167277Y0024800D01*
X0162273Y0029804D01*
X0161317Y0030200D01*
X0140877Y0030200D01*
X0130091Y0040986D01*
X0130700Y0041594D01*
X0131400Y0043285D01*
X0131400Y0044200D01*
X0132200Y0044200D01*
X0132200Y0043285D01*
X0132900Y0041594D01*
X0134194Y0040300D01*
X0135885Y0039600D01*
X0136123Y0039600D01*
X0141327Y0034396D01*
X0142283Y0034000D01*
X0143317Y0034000D01*
X0161523Y0034000D01*
X0172600Y0022923D01*
X0172600Y0022883D01*
X0172662Y0022733D01*
X0172561Y0022632D01*
X0171800Y0020795D01*
X0171800Y0012805D01*
X0172561Y0010968D01*
X0173968Y0009561D01*
X0175061Y0009108D01*
X0174900Y0009041D01*
X0174517Y0009200D01*
X0169283Y0009200D01*
X0168327Y0008804D01*
X0168123Y0008600D01*
X0165477Y0008600D01*
X0165273Y0008804D01*
X0164317Y0009200D01*
X0159083Y0009200D01*
X0158127Y0008804D01*
X0157923Y0008600D01*
X0155877Y0008600D01*
X0155673Y0008804D01*
X0154717Y0009200D01*
X0133883Y0009200D01*
X0132927Y0008804D01*
X0132723Y0008600D01*
X0130677Y0008600D01*
X0130473Y0008804D01*
X0129517Y0009200D01*
X0124283Y0009200D01*
X0123327Y0008804D01*
X0123123Y0008600D01*
X0120477Y0008600D01*
X0120273Y0008804D01*
X0119317Y0009200D01*
X0113483Y0009200D01*
X0112527Y0008804D01*
X0112323Y0008600D01*
X0111477Y0008600D01*
X0111273Y0008804D01*
X0110317Y0009200D01*
X0099477Y0009200D01*
X0097400Y0011277D01*
X0097400Y0028918D01*
X0097684Y0028800D01*
X0099116Y0028800D01*
X0100439Y0029348D01*
X0100891Y0029800D01*
X0109923Y0029800D01*
X0117423Y0022300D01*
X0116800Y0020795D01*
X0116800Y0012805D01*
X0117561Y0010968D01*
X0118968Y0009561D01*
X0120805Y0008800D01*
X0122795Y0008800D01*
X0124632Y0009561D01*
X0126039Y0010968D01*
X0126800Y0012805D01*
X0126800Y0020795D01*
X0126039Y0022632D01*
X0124632Y0024039D01*
X0122795Y0024800D01*
X0122277Y0024800D01*
X0112473Y0034604D01*
X0111517Y0035000D01*
X0100891Y0035000D01*
X0100439Y0035452D01*
X0099116Y0036000D01*
X0097684Y0036000D01*
X0097400Y0035882D01*
X0097400Y0036517D01*
X0097004Y0037473D01*
X0096273Y0038204D01*
X0091339Y0043138D01*
X0091400Y0043285D01*
X0091400Y0050315D01*
X0090700Y0052006D01*
X0089406Y0053300D01*
X0087715Y0054000D01*
X0085885Y0054000D01*
X0084194Y0053300D01*
X0083586Y0052691D01*
X0072677Y0063600D01*
X0098600Y0063600D01*
X0098400Y0063116D01*
X0098400Y0061684D01*
X0098948Y0060361D01*
X0099400Y0059909D01*
X0099400Y0055677D01*
X0097721Y0053998D01*
X0097715Y0054000D01*
X0095885Y0054000D01*
X0094194Y0053300D01*
X0092900Y0052006D01*
X0092200Y0050315D01*
X0092200Y0043285D01*
X0092900Y0041594D01*
X0094194Y0040300D01*
X0095885Y0039600D01*
X0097715Y0039600D01*
X0099406Y0040300D01*
X0100700Y0041594D01*
X0101400Y0043285D01*
X0101400Y0050315D01*
X0101398Y0050321D01*
X0103473Y0052396D01*
X0104204Y0053127D01*
X0104600Y0054083D01*
X0105111Y0053478D02*
X0104494Y0053163D01*
X0103934Y0052756D01*
X0103444Y0052266D01*
X0103037Y0051706D01*
X0102722Y0051089D01*
X0102508Y0050430D01*
X0102400Y0049746D01*
X0102400Y0046800D01*
X0106800Y0046800D01*
X0106800Y0046800D01*
X0106800Y0046800D01*
X0106800Y0053800D01*
X0106454Y0053800D01*
X0105770Y0053692D01*
X0105111Y0053478D01*
X0104204Y0052952D02*
X0104029Y0052952D01*
X0102857Y0051354D02*
X0102431Y0051354D01*
X0102401Y0049755D02*
X0101400Y0049755D01*
X0101400Y0048157D02*
X0102400Y0048157D01*
X0102400Y0046800D02*
X0102400Y0043854D01*
X0102508Y0043170D01*
X0102722Y0042511D01*
X0103037Y0041894D01*
X0103444Y0041334D01*
X0103934Y0040844D01*
X0104494Y0040437D01*
X0105111Y0040122D01*
X0105770Y0039908D01*
X0106454Y0039800D01*
X0106800Y0039800D01*
X0106800Y0046800D01*
X0102400Y0046800D01*
X0102400Y0046558D02*
X0101400Y0046558D01*
X0101400Y0044960D02*
X0102400Y0044960D01*
X0102478Y0043361D02*
X0101400Y0043361D01*
X0100769Y0041763D02*
X0103132Y0041763D01*
X0105029Y0040164D02*
X0099077Y0040164D01*
X0095911Y0038566D02*
X0111143Y0038566D01*
X0110015Y0040164D02*
X0108571Y0040164D01*
X0106800Y0040164D02*
X0106800Y0040164D01*
X0106800Y0041763D02*
X0106800Y0041763D01*
X0106800Y0043361D02*
X0106800Y0043361D01*
X0106800Y0044960D02*
X0106800Y0044960D01*
X0106800Y0046558D02*
X0106800Y0046558D01*
X0106800Y0048157D02*
X0106800Y0048157D01*
X0106800Y0049755D02*
X0106800Y0049755D01*
X0106800Y0051354D02*
X0106800Y0051354D01*
X0106800Y0052952D02*
X0106800Y0052952D01*
X0109396Y0052952D02*
X0111600Y0052952D01*
X0111600Y0051354D02*
X0110743Y0051354D01*
X0111199Y0049755D02*
X0111600Y0049755D01*
X0111600Y0048157D02*
X0111200Y0048157D01*
X0111200Y0046558D02*
X0111600Y0046558D01*
X0111618Y0044960D02*
X0111200Y0044960D01*
X0114156Y0036967D02*
X0097214Y0036967D01*
X0100522Y0035369D02*
X0115754Y0035369D01*
X0117353Y0033770D02*
X0113307Y0033770D01*
X0114905Y0032172D02*
X0118951Y0032172D01*
X0120550Y0030573D02*
X0116504Y0030573D01*
X0118102Y0028975D02*
X0122148Y0028975D01*
X0123747Y0027376D02*
X0119701Y0027376D01*
X0121299Y0025778D02*
X0125244Y0025778D01*
X0124293Y0024179D02*
X0126344Y0024179D01*
X0126060Y0022581D02*
X0127540Y0022581D01*
X0126878Y0020982D02*
X0126722Y0020982D01*
X0126800Y0019384D02*
X0126800Y0019384D01*
X0126800Y0017785D02*
X0126800Y0017785D01*
X0126800Y0016187D02*
X0126800Y0016187D01*
X0126800Y0014588D02*
X0126800Y0014588D01*
X0126800Y0012990D02*
X0126800Y0012990D01*
X0126214Y0011391D02*
X0127386Y0011391D01*
X0128736Y0009793D02*
X0124864Y0009793D01*
X0118736Y0009793D02*
X0114450Y0009793D01*
X0114316Y0009695D02*
X0114927Y0010139D01*
X0115461Y0010673D01*
X0115905Y0011284D01*
X0116248Y0011957D01*
X0116482Y0012676D01*
X0116600Y0013422D01*
X0116600Y0016600D01*
X0112000Y0016600D01*
X0112000Y0017000D01*
X0116600Y0017000D01*
X0116600Y0020178D01*
X0116482Y0020924D01*
X0116248Y0021643D01*
X0115905Y0022316D01*
X0115461Y0022927D01*
X0114927Y0023461D01*
X0114316Y0023905D01*
X0113643Y0024248D01*
X0112924Y0024482D01*
X0112178Y0024600D01*
X0112000Y0024600D01*
X0112000Y0017000D01*
X0111600Y0017000D01*
X0111600Y0024600D01*
X0111422Y0024600D01*
X0110676Y0024482D01*
X0109957Y0024248D01*
X0109284Y0023905D01*
X0108673Y0023461D01*
X0108139Y0022927D01*
X0107695Y0022316D01*
X0107352Y0021643D01*
X0107118Y0020924D01*
X0107000Y0020178D01*
X0107000Y0017000D01*
X0111600Y0017000D01*
X0111600Y0016600D01*
X0112000Y0016600D01*
X0112000Y0009000D01*
X0112178Y0009000D01*
X0112924Y0009118D01*
X0113643Y0009352D01*
X0114316Y0009695D01*
X0112000Y0009793D02*
X0111600Y0009793D01*
X0111600Y0009000D02*
X0111600Y0016600D01*
X0107000Y0016600D01*
X0107000Y0013422D01*
X0107118Y0012676D01*
X0107352Y0011957D01*
X0107695Y0011284D01*
X0108139Y0010673D01*
X0108673Y0010139D01*
X0109284Y0009695D01*
X0109957Y0009352D01*
X0110676Y0009118D01*
X0111422Y0009000D01*
X0111600Y0009000D01*
X0111600Y0011391D02*
X0112000Y0011391D01*
X0112000Y0012990D02*
X0111600Y0012990D01*
X0111600Y0014588D02*
X0112000Y0014588D01*
X0112000Y0016187D02*
X0111600Y0016187D01*
X0111600Y0017785D02*
X0112000Y0017785D01*
X0112000Y0019384D02*
X0111600Y0019384D01*
X0111600Y0020982D02*
X0112000Y0020982D01*
X0112000Y0022581D02*
X0111600Y0022581D01*
X0111600Y0024179D02*
X0112000Y0024179D01*
X0113778Y0024179D02*
X0115544Y0024179D01*
X0115713Y0022581D02*
X0117142Y0022581D01*
X0116878Y0020982D02*
X0116463Y0020982D01*
X0116600Y0019384D02*
X0116800Y0019384D01*
X0116800Y0017785D02*
X0116600Y0017785D01*
X0116600Y0016187D02*
X0116800Y0016187D01*
X0116800Y0014588D02*
X0116600Y0014588D01*
X0116531Y0012990D02*
X0116800Y0012990D01*
X0117386Y0011391D02*
X0115960Y0011391D01*
X0109150Y0009793D02*
X0098884Y0009793D01*
X0097400Y0011391D02*
X0107640Y0011391D01*
X0107069Y0012990D02*
X0097400Y0012990D01*
X0097400Y0014588D02*
X0107000Y0014588D01*
X0107000Y0016187D02*
X0097400Y0016187D01*
X0097400Y0017785D02*
X0107000Y0017785D01*
X0107000Y0019384D02*
X0097400Y0019384D01*
X0097400Y0020982D02*
X0107137Y0020982D01*
X0107887Y0022581D02*
X0097400Y0022581D01*
X0097400Y0024179D02*
X0109822Y0024179D01*
X0112347Y0027376D02*
X0097400Y0027376D01*
X0097400Y0025778D02*
X0113945Y0025778D01*
X0110748Y0028975D02*
X0099538Y0028975D01*
X0092200Y0028975D02*
X0085400Y0028975D01*
X0085400Y0027477D02*
X0085400Y0038317D01*
X0085004Y0039273D01*
X0084273Y0040004D01*
X0083477Y0040800D01*
X0083586Y0040909D01*
X0084194Y0040300D01*
X0085885Y0039600D01*
X0087523Y0039600D01*
X0092200Y0034923D01*
X0092200Y0011877D01*
X0089523Y0009200D01*
X0088883Y0009200D01*
X0087927Y0008804D01*
X0087723Y0008600D01*
X0085677Y0008600D01*
X0085473Y0008804D01*
X0084517Y0009200D01*
X0079283Y0009200D01*
X0078327Y0008804D01*
X0075723Y0006200D01*
X0074677Y0006200D01*
X0077277Y0008800D01*
X0077795Y0008800D01*
X0079632Y0009561D01*
X0081039Y0010968D01*
X0081800Y0012805D01*
X0082561Y0010968D01*
X0083968Y0009561D01*
X0085805Y0008800D01*
X0087795Y0008800D01*
X0089632Y0009561D01*
X0091039Y0010968D01*
X0091800Y0012805D01*
X0091800Y0020795D01*
X0091039Y0022632D01*
X0089632Y0024039D01*
X0087795Y0024800D01*
X0087683Y0024800D01*
X0087404Y0025473D01*
X0086673Y0026204D01*
X0085400Y0027477D01*
X0085501Y0027376D02*
X0092200Y0027376D01*
X0092200Y0025778D02*
X0087099Y0025778D01*
X0089293Y0024179D02*
X0092200Y0024179D01*
X0092200Y0022581D02*
X0091060Y0022581D01*
X0091722Y0020982D02*
X0092200Y0020982D01*
X0092200Y0019384D02*
X0091800Y0019384D01*
X0091800Y0017785D02*
X0092200Y0017785D01*
X0092200Y0016187D02*
X0091800Y0016187D01*
X0091800Y0014588D02*
X0092200Y0014588D01*
X0092200Y0012990D02*
X0091800Y0012990D01*
X0091714Y0011391D02*
X0091214Y0011391D01*
X0090116Y0009793D02*
X0089864Y0009793D01*
X0083736Y0009793D02*
X0079864Y0009793D01*
X0081214Y0011391D02*
X0082386Y0011391D01*
X0081800Y0012805D02*
X0081800Y0020795D01*
X0082561Y0022632D01*
X0082600Y0022671D01*
X0082600Y0022923D01*
X0080596Y0024927D01*
X0080200Y0025883D01*
X0080200Y0036723D01*
X0078196Y0038727D01*
X0077817Y0039642D01*
X0077715Y0039600D01*
X0076277Y0039600D01*
X0073400Y0036723D01*
X0073400Y0025883D01*
X0073004Y0024927D01*
X0071000Y0022923D01*
X0071000Y0022671D01*
X0071039Y0022632D01*
X0071800Y0020795D01*
X0071800Y0012805D01*
X0071039Y0010968D01*
X0069632Y0009561D01*
X0068418Y0009058D01*
X0068513Y0008964D01*
X0069083Y0009200D01*
X0070323Y0009200D01*
X0072423Y0011300D01*
X0071800Y0012805D01*
X0071800Y0020795D01*
X0072561Y0022632D01*
X0073968Y0024039D01*
X0075805Y0024800D01*
X0077795Y0024800D01*
X0079632Y0024039D01*
X0081039Y0022632D01*
X0081800Y0020795D01*
X0081800Y0012805D01*
X0081800Y0012990D02*
X0081800Y0012990D01*
X0081800Y0014588D02*
X0081800Y0014588D01*
X0081800Y0016187D02*
X0081800Y0016187D01*
X0081800Y0017785D02*
X0081800Y0017785D01*
X0081800Y0019384D02*
X0081800Y0019384D01*
X0081722Y0020982D02*
X0081878Y0020982D01*
X0082540Y0022581D02*
X0081060Y0022581D01*
X0081344Y0024179D02*
X0079293Y0024179D01*
X0080244Y0025778D02*
X0073356Y0025778D01*
X0073400Y0027376D02*
X0080200Y0027376D01*
X0080200Y0028975D02*
X0073400Y0028975D01*
X0073400Y0030573D02*
X0080200Y0030573D01*
X0080200Y0032172D02*
X0073400Y0032172D01*
X0073400Y0033770D02*
X0080200Y0033770D01*
X0080200Y0035369D02*
X0073400Y0035369D01*
X0073644Y0036967D02*
X0079956Y0036967D01*
X0078357Y0038566D02*
X0075243Y0038566D01*
X0071086Y0041763D02*
X0070769Y0041763D01*
X0070700Y0041594D02*
X0071400Y0043285D01*
X0071400Y0050315D01*
X0070700Y0052006D01*
X0069406Y0053300D01*
X0067715Y0054000D01*
X0065885Y0054000D01*
X0064194Y0053300D01*
X0062900Y0052006D01*
X0062200Y0050315D01*
X0062200Y0043285D01*
X0062900Y0041594D01*
X0064194Y0040300D01*
X0065885Y0039600D01*
X0067715Y0039600D01*
X0069406Y0040300D01*
X0070700Y0041594D01*
X0069487Y0040164D02*
X0069077Y0040164D01*
X0069327Y0040004D02*
X0068596Y0039273D01*
X0068200Y0038317D01*
X0068200Y0027477D01*
X0066927Y0026204D01*
X0066196Y0025473D01*
X0065917Y0024800D01*
X0065805Y0024800D01*
X0063968Y0024039D01*
X0063503Y0023574D01*
X0063377Y0023700D01*
X0064004Y0024327D01*
X0064400Y0025283D01*
X0064400Y0029317D01*
X0064004Y0030273D01*
X0063273Y0031004D01*
X0051280Y0042996D01*
X0051400Y0043285D01*
X0051400Y0050315D01*
X0050700Y0052006D01*
X0049406Y0053300D01*
X0047715Y0054000D01*
X0045885Y0054000D01*
X0044194Y0053300D01*
X0042900Y0052006D01*
X0042200Y0050315D01*
X0042200Y0043285D01*
X0042900Y0041594D01*
X0044194Y0040300D01*
X0045885Y0039600D01*
X0047323Y0039600D01*
X0056063Y0030860D01*
X0055561Y0030652D01*
X0055109Y0030200D01*
X0034077Y0030200D01*
X0021280Y0042996D01*
X0021400Y0043285D01*
X0021400Y0050315D01*
X0020700Y0052006D01*
X0019406Y0053300D01*
X0017715Y0054000D01*
X0015885Y0054000D01*
X0014194Y0053300D01*
X0012900Y0052006D01*
X0012200Y0050315D01*
X0012200Y0043285D01*
X0012900Y0041594D01*
X0014194Y0040300D01*
X0015885Y0039600D01*
X0017323Y0039600D01*
X0030796Y0026127D01*
X0031527Y0025396D01*
X0032483Y0025000D01*
X0055109Y0025000D01*
X0055454Y0024655D01*
X0053968Y0024039D01*
X0052561Y0022632D01*
X0051800Y0020795D01*
X0051039Y0022632D01*
X0049632Y0024039D01*
X0047795Y0024800D01*
X0045805Y0024800D01*
X0043968Y0024039D01*
X0042561Y0022632D01*
X0041800Y0020795D01*
X0041800Y0012805D01*
X0042561Y0010968D01*
X0043968Y0009561D01*
X0045805Y0008800D01*
X0047795Y0008800D01*
X0049632Y0009561D01*
X0051039Y0010968D01*
X0051800Y0012805D01*
X0051800Y0020795D01*
X0051800Y0012805D01*
X0052561Y0010968D01*
X0053968Y0009561D01*
X0055805Y0008800D01*
X0056523Y0008800D01*
X0060927Y0004396D01*
X0061883Y0004000D01*
X0062523Y0004000D01*
X0062923Y0003600D01*
X0003600Y0003600D01*
X0003600Y0068109D01*
X0003961Y0067748D01*
X0005284Y0067200D01*
X0006716Y0067200D01*
X0007000Y0067318D01*
X0007000Y0039083D01*
X0007396Y0038127D01*
X0022600Y0022923D01*
X0022600Y0022671D01*
X0022561Y0022632D01*
X0021800Y0020795D01*
X0021039Y0022632D01*
X0019632Y0024039D01*
X0017795Y0024800D01*
X0015805Y0024800D01*
X0013968Y0024039D01*
X0012561Y0022632D01*
X0011800Y0020795D01*
X0011800Y0012805D01*
X0012561Y0010968D01*
X0013968Y0009561D01*
X0015805Y0008800D01*
X0017795Y0008800D01*
X0019632Y0009561D01*
X0021039Y0010968D01*
X0021800Y0012805D01*
X0021800Y0020795D01*
X0021800Y0012805D01*
X0022561Y0010968D01*
X0023968Y0009561D01*
X0025805Y0008800D01*
X0027795Y0008800D01*
X0029632Y0009561D01*
X0031039Y0010968D01*
X0031800Y0012805D01*
X0032561Y0010968D01*
X0033968Y0009561D01*
X0035805Y0008800D01*
X0037795Y0008800D01*
X0039632Y0009561D01*
X0041039Y0010968D01*
X0041800Y0012805D01*
X0041800Y0020795D01*
X0041039Y0022632D01*
X0039632Y0024039D01*
X0037795Y0024800D01*
X0035805Y0024800D01*
X0033968Y0024039D01*
X0032561Y0022632D01*
X0031800Y0020795D01*
X0031800Y0012805D01*
X0031800Y0020795D01*
X0031039Y0022632D01*
X0029632Y0024039D01*
X0027795Y0024800D01*
X0027683Y0024800D01*
X0027404Y0025473D01*
X0026673Y0026204D01*
X0012200Y0040677D01*
X0012200Y0060118D01*
X0012484Y0060000D01*
X0013123Y0060000D01*
X0022378Y0050745D01*
X0022200Y0050315D01*
X0022200Y0043285D01*
X0022900Y0041594D01*
X0024194Y0040300D01*
X0025885Y0039600D01*
X0027715Y0039600D01*
X0029406Y0040300D01*
X0030700Y0041594D01*
X0031400Y0043285D01*
X0031400Y0050315D01*
X0030700Y0052006D01*
X0029406Y0053300D01*
X0027715Y0054000D01*
X0026477Y0054000D01*
X0016800Y0063677D01*
X0016800Y0064316D01*
X0016252Y0065639D01*
X0015239Y0066652D01*
X0013916Y0067200D01*
X0012484Y0067200D01*
X0012200Y0067082D01*
X0012200Y0081723D01*
X0014877Y0084400D01*
X0038523Y0084400D01*
X0042320Y0080604D01*
X0042200Y0080315D01*
X0042200Y0073285D01*
X0042900Y0071594D01*
X0044194Y0070300D01*
X0045885Y0069600D01*
X0047715Y0069600D01*
X0048641Y0069984D01*
X0048800Y0069600D01*
X0024643Y0069600D01*
X0021270Y0072972D01*
X0021400Y0073285D01*
X0021400Y0080315D01*
X0020700Y0082006D01*
X0019406Y0083300D01*
X0017715Y0084000D01*
X0015885Y0084000D01*
X0014194Y0083300D01*
X0012900Y0082006D01*
X0012200Y0080315D01*
X0012200Y0073285D01*
X0012900Y0071594D01*
X0014194Y0070300D01*
X0015885Y0069600D01*
X0016157Y0069600D01*
X0020857Y0064901D01*
X0021701Y0064057D01*
X0022803Y0063600D01*
X0046723Y0063600D01*
X0037123Y0054000D01*
X0035885Y0054000D01*
X0034194Y0053300D01*
X0032900Y0052006D01*
X0032200Y0050315D01*
X0032200Y0043285D01*
X0032900Y0041594D01*
X0034194Y0040300D01*
X0035885Y0039600D01*
X0037715Y0039600D01*
X0039406Y0040300D01*
X0040700Y0041594D01*
X0041400Y0043285D01*
X0041400Y0050315D01*
X0041222Y0050745D01*
X0048940Y0058463D01*
X0049148Y0057961D01*
X0049600Y0057509D01*
X0049600Y0054083D01*
X0049996Y0053127D01*
X0050727Y0052396D01*
X0052378Y0050745D01*
X0052200Y0050315D01*
X0052200Y0043285D01*
X0052900Y0041594D01*
X0054194Y0040300D01*
X0055885Y0039600D01*
X0057715Y0039600D01*
X0059406Y0040300D01*
X0060700Y0041594D01*
X0061400Y0043285D01*
X0061400Y0050315D01*
X0060700Y0052006D01*
X0059406Y0053300D01*
X0057715Y0054000D01*
X0056477Y0054000D01*
X0054800Y0055677D01*
X0054800Y0057509D01*
X0055252Y0057961D01*
X0055800Y0059284D01*
X0055800Y0060716D01*
X0055682Y0061000D01*
X0067923Y0061000D01*
X0075205Y0053718D01*
X0074194Y0053300D01*
X0072900Y0052006D01*
X0072200Y0050315D01*
X0072200Y0043285D01*
X0072320Y0042996D01*
X0069327Y0040004D01*
X0068303Y0038566D02*
X0055711Y0038566D01*
X0054523Y0040164D02*
X0054113Y0040164D01*
X0052831Y0041763D02*
X0052514Y0041763D01*
X0052200Y0043361D02*
X0051400Y0043361D01*
X0051400Y0044960D02*
X0052200Y0044960D01*
X0052200Y0046558D02*
X0051400Y0046558D01*
X0051400Y0048157D02*
X0052200Y0048157D01*
X0052200Y0049755D02*
X0051400Y0049755D01*
X0051769Y0051354D02*
X0050970Y0051354D01*
X0050171Y0052952D02*
X0049753Y0052952D01*
X0049600Y0054551D02*
X0045028Y0054551D01*
X0043847Y0052952D02*
X0043429Y0052952D01*
X0042630Y0051354D02*
X0041831Y0051354D01*
X0042200Y0049755D02*
X0041400Y0049755D01*
X0041400Y0048157D02*
X0042200Y0048157D01*
X0042200Y0046558D02*
X0041400Y0046558D01*
X0041400Y0044960D02*
X0042200Y0044960D01*
X0042200Y0043361D02*
X0041400Y0043361D01*
X0040769Y0041763D02*
X0042831Y0041763D01*
X0044523Y0040164D02*
X0039077Y0040164D01*
X0034523Y0040164D02*
X0029077Y0040164D01*
X0030769Y0041763D02*
X0032831Y0041763D01*
X0032200Y0043361D02*
X0031400Y0043361D01*
X0031400Y0044960D02*
X0032200Y0044960D01*
X0032200Y0046558D02*
X0031400Y0046558D01*
X0031400Y0048157D02*
X0032200Y0048157D01*
X0032200Y0049755D02*
X0031400Y0049755D01*
X0030970Y0051354D02*
X0032630Y0051354D01*
X0033847Y0052952D02*
X0029753Y0052952D01*
X0025926Y0054551D02*
X0037674Y0054551D01*
X0039272Y0056149D02*
X0024328Y0056149D01*
X0022729Y0057748D02*
X0040871Y0057748D01*
X0042469Y0059346D02*
X0021131Y0059346D01*
X0019532Y0060945D02*
X0044068Y0060945D01*
X0045666Y0062543D02*
X0017934Y0062543D01*
X0016800Y0064142D02*
X0021615Y0064142D01*
X0020017Y0065740D02*
X0016151Y0065740D01*
X0018418Y0067339D02*
X0012200Y0067339D01*
X0012200Y0068937D02*
X0016820Y0068937D01*
X0013959Y0070536D02*
X0012200Y0070536D01*
X0012200Y0072134D02*
X0012677Y0072134D01*
X0012200Y0073733D02*
X0012200Y0073733D01*
X0012200Y0075332D02*
X0012200Y0075332D01*
X0012200Y0076930D02*
X0012200Y0076930D01*
X0012200Y0078529D02*
X0012200Y0078529D01*
X0012200Y0080127D02*
X0012200Y0080127D01*
X0012203Y0081726D02*
X0012784Y0081726D01*
X0013801Y0083324D02*
X0014253Y0083324D01*
X0019347Y0083324D02*
X0024253Y0083324D01*
X0024194Y0083300D02*
X0022900Y0082006D01*
X0022200Y0080315D01*
X0022200Y0073285D01*
X0022900Y0071594D01*
X0024194Y0070300D01*
X0025885Y0069600D01*
X0027715Y0069600D01*
X0029406Y0070300D01*
X0030700Y0071594D01*
X0031400Y0073285D01*
X0031400Y0080315D01*
X0030700Y0082006D01*
X0029406Y0083300D01*
X0027715Y0084000D01*
X0025885Y0084000D01*
X0024194Y0083300D01*
X0022784Y0081726D02*
X0020816Y0081726D01*
X0021400Y0080127D02*
X0022200Y0080127D01*
X0022200Y0078529D02*
X0021400Y0078529D01*
X0021400Y0076930D02*
X0022200Y0076930D01*
X0022200Y0075332D02*
X0021400Y0075332D01*
X0021400Y0073733D02*
X0022200Y0073733D01*
X0022108Y0072134D02*
X0022677Y0072134D01*
X0023707Y0070536D02*
X0023959Y0070536D01*
X0029641Y0070536D02*
X0033959Y0070536D01*
X0034194Y0070300D02*
X0035885Y0069600D01*
X0037715Y0069600D01*
X0039406Y0070300D01*
X0040700Y0071594D01*
X0041400Y0073285D01*
X0041400Y0080315D01*
X0040700Y0082006D01*
X0039406Y0083300D01*
X0037715Y0084000D01*
X0035885Y0084000D01*
X0034194Y0083300D01*
X0032900Y0082006D01*
X0032200Y0080315D01*
X0032200Y0073285D01*
X0032900Y0071594D01*
X0034194Y0070300D01*
X0032677Y0072134D02*
X0030923Y0072134D01*
X0031400Y0073733D02*
X0032200Y0073733D01*
X0032200Y0075332D02*
X0031400Y0075332D01*
X0031400Y0076930D02*
X0032200Y0076930D01*
X0032200Y0078529D02*
X0031400Y0078529D01*
X0031400Y0080127D02*
X0032200Y0080127D01*
X0032784Y0081726D02*
X0030816Y0081726D01*
X0029347Y0083324D02*
X0034253Y0083324D01*
X0039347Y0083324D02*
X0039599Y0083324D01*
X0040816Y0081726D02*
X0041197Y0081726D01*
X0041400Y0080127D02*
X0042200Y0080127D01*
X0042200Y0078529D02*
X0041400Y0078529D01*
X0041400Y0076930D02*
X0042200Y0076930D01*
X0042200Y0075332D02*
X0041400Y0075332D01*
X0041400Y0073733D02*
X0042200Y0073733D01*
X0042677Y0072134D02*
X0040923Y0072134D01*
X0039641Y0070536D02*
X0043959Y0070536D01*
X0055600Y0069600D02*
X0055641Y0069701D01*
X0055885Y0069600D01*
X0057715Y0069600D01*
X0059406Y0070300D01*
X0060700Y0071594D01*
X0061400Y0073285D01*
X0061400Y0080315D01*
X0061339Y0080462D01*
X0070600Y0089723D01*
X0070600Y0087477D01*
X0067123Y0084000D01*
X0065885Y0084000D01*
X0064194Y0083300D01*
X0062900Y0082006D01*
X0062200Y0080315D01*
X0062200Y0073285D01*
X0062900Y0071594D01*
X0064194Y0070300D01*
X0065885Y0069600D01*
X0067715Y0069600D01*
X0069406Y0070300D01*
X0070700Y0071594D01*
X0071400Y0073285D01*
X0071400Y0080315D01*
X0071222Y0080745D01*
X0074673Y0084196D01*
X0075404Y0084927D01*
X0075800Y0085883D01*
X0075800Y0087118D01*
X0076084Y0087000D01*
X0077516Y0087000D01*
X0078839Y0087548D01*
X0079852Y0088561D01*
X0080400Y0089884D01*
X0080400Y0091316D01*
X0079852Y0092639D01*
X0079400Y0093091D01*
X0079400Y0100923D01*
X0095673Y0117196D01*
X0095677Y0117200D01*
X0096205Y0117200D01*
X0098900Y0119895D01*
X0098900Y0123705D01*
X0096205Y0126400D01*
X0092395Y0126400D01*
X0089700Y0123705D01*
X0089700Y0119895D01*
X0090359Y0119236D01*
X0075800Y0104677D01*
X0075800Y0117123D01*
X0075873Y0117196D01*
X0075877Y0117200D01*
X0076205Y0117200D01*
X0078900Y0119895D01*
X0078900Y0123705D01*
X0076205Y0126400D01*
X0076077Y0126400D01*
X0076923Y0126400D01*
X0079700Y0123623D01*
X0079700Y0119895D01*
X0082395Y0117200D01*
X0086205Y0117200D01*
X0088900Y0119895D01*
X0088900Y0123705D01*
X0086205Y0126400D01*
X0084277Y0126400D01*
X0081877Y0128800D01*
X0094323Y0128800D01*
X0110800Y0112323D01*
X0110800Y0101882D01*
X0110516Y0102000D01*
X0109084Y0102000D01*
X0107761Y0101452D01*
X0107309Y0101000D01*
X0093683Y0101000D01*
X0092727Y0100604D01*
X0076123Y0084000D01*
X0075885Y0084000D01*
X0074194Y0083300D01*
X0072900Y0082006D01*
X0072200Y0080315D01*
X0072200Y0073285D01*
X0072900Y0071594D01*
X0074194Y0070300D01*
X0075885Y0069600D01*
X0077715Y0069600D01*
X0079406Y0070300D01*
X0080700Y0071594D01*
X0081400Y0073285D01*
X0081400Y0080315D01*
X0080929Y0081452D01*
X0095277Y0095800D01*
X0099323Y0095800D01*
X0087523Y0084000D01*
X0085885Y0084000D01*
X0084194Y0083300D01*
X0082900Y0082006D01*
X0082200Y0080315D01*
X0082200Y0073285D01*
X0082900Y0071594D01*
X0084194Y0070300D01*
X0085885Y0069600D01*
X0087715Y0069600D01*
X0089406Y0070300D01*
X0090700Y0071594D01*
X0091400Y0073285D01*
X0091400Y0080315D01*
X0091339Y0080462D01*
X0103077Y0092200D01*
X0103709Y0092200D01*
X0104161Y0091748D01*
X0104663Y0091540D01*
X0097123Y0084000D01*
X0095885Y0084000D01*
X0094194Y0083300D01*
X0092900Y0082006D01*
X0092200Y0080315D01*
X0092200Y0073285D01*
X0092900Y0071594D01*
X0094194Y0070300D01*
X0095885Y0069600D01*
X0097715Y0069600D01*
X0098471Y0069913D01*
X0098600Y0069600D01*
X0055600Y0069600D01*
X0059641Y0070536D02*
X0063959Y0070536D01*
X0062677Y0072134D02*
X0060923Y0072134D01*
X0061400Y0073733D02*
X0062200Y0073733D01*
X0062200Y0075332D02*
X0061400Y0075332D01*
X0061400Y0076930D02*
X0062200Y0076930D01*
X0062200Y0078529D02*
X0061400Y0078529D01*
X0061400Y0080127D02*
X0062200Y0080127D01*
X0062602Y0081726D02*
X0062784Y0081726D01*
X0064201Y0083324D02*
X0064253Y0083324D01*
X0065800Y0084923D02*
X0068046Y0084923D01*
X0067398Y0086521D02*
X0069644Y0086521D01*
X0068997Y0088120D02*
X0070600Y0088120D01*
X0070595Y0089718D02*
X0070600Y0089718D01*
X0075800Y0086521D02*
X0078644Y0086521D01*
X0079411Y0088120D02*
X0080243Y0088120D01*
X0080331Y0089718D02*
X0081841Y0089718D01*
X0080400Y0091317D02*
X0083440Y0091317D01*
X0085038Y0092915D02*
X0079576Y0092915D01*
X0079400Y0094514D02*
X0086637Y0094514D01*
X0088235Y0096112D02*
X0079400Y0096112D01*
X0079400Y0097711D02*
X0089834Y0097711D01*
X0091432Y0099309D02*
X0079400Y0099309D01*
X0079400Y0100908D02*
X0093460Y0100908D01*
X0093991Y0094514D02*
X0098037Y0094514D01*
X0096438Y0092915D02*
X0092392Y0092915D01*
X0090794Y0091317D02*
X0094840Y0091317D01*
X0093241Y0089718D02*
X0089195Y0089718D01*
X0087597Y0088120D02*
X0091643Y0088120D01*
X0090044Y0086521D02*
X0085998Y0086521D01*
X0084400Y0084923D02*
X0088446Y0084923D01*
X0084253Y0083324D02*
X0082801Y0083324D01*
X0082784Y0081726D02*
X0081203Y0081726D01*
X0081400Y0080127D02*
X0082200Y0080127D01*
X0082200Y0078529D02*
X0081400Y0078529D01*
X0081400Y0076930D02*
X0082200Y0076930D01*
X0082200Y0075332D02*
X0081400Y0075332D01*
X0081400Y0073733D02*
X0082200Y0073733D01*
X0082677Y0072134D02*
X0080923Y0072134D01*
X0079641Y0070536D02*
X0083959Y0070536D01*
X0089641Y0070536D02*
X0093959Y0070536D01*
X0092677Y0072134D02*
X0090923Y0072134D01*
X0091400Y0073733D02*
X0092200Y0073733D01*
X0092200Y0075332D02*
X0091400Y0075332D01*
X0091400Y0076930D02*
X0092200Y0076930D01*
X0092200Y0078529D02*
X0091400Y0078529D01*
X0091400Y0080127D02*
X0092200Y0080127D01*
X0092603Y0081726D02*
X0092784Y0081726D01*
X0094201Y0083324D02*
X0094253Y0083324D01*
X0095800Y0084923D02*
X0098046Y0084923D01*
X0097398Y0086521D02*
X0099644Y0086521D01*
X0098997Y0088120D02*
X0101243Y0088120D01*
X0100595Y0089718D02*
X0102841Y0089718D01*
X0102194Y0091317D02*
X0104440Y0091317D01*
X0110800Y0102506D02*
X0080983Y0102506D01*
X0082582Y0104105D02*
X0110800Y0104105D01*
X0110800Y0105703D02*
X0084180Y0105703D01*
X0085779Y0107302D02*
X0110800Y0107302D01*
X0110800Y0108900D02*
X0087377Y0108900D01*
X0088976Y0110499D02*
X0110800Y0110499D01*
X0110800Y0112097D02*
X0090574Y0112097D01*
X0092173Y0113696D02*
X0109427Y0113696D01*
X0107829Y0115294D02*
X0093771Y0115294D01*
X0095370Y0116893D02*
X0106230Y0116893D01*
X0104632Y0118491D02*
X0097497Y0118491D01*
X0098900Y0120090D02*
X0103033Y0120090D01*
X0101435Y0121688D02*
X0098900Y0121688D01*
X0098900Y0123287D02*
X0099836Y0123287D01*
X0098238Y0124885D02*
X0097720Y0124885D01*
X0096639Y0126484D02*
X0084193Y0126484D01*
X0082595Y0128082D02*
X0095041Y0128082D01*
X0090880Y0124885D02*
X0087720Y0124885D01*
X0088900Y0123287D02*
X0089700Y0123287D01*
X0089700Y0121688D02*
X0088900Y0121688D01*
X0088900Y0120090D02*
X0089700Y0120090D01*
X0089614Y0118491D02*
X0087497Y0118491D01*
X0088016Y0116893D02*
X0075800Y0116893D01*
X0075800Y0115294D02*
X0086417Y0115294D01*
X0084819Y0113696D02*
X0075800Y0113696D01*
X0075800Y0112097D02*
X0083220Y0112097D01*
X0081622Y0110499D02*
X0075800Y0110499D01*
X0075800Y0108900D02*
X0080023Y0108900D01*
X0078425Y0107302D02*
X0075800Y0107302D01*
X0075800Y0105703D02*
X0076826Y0105703D01*
X0067283Y0114600D02*
X0066484Y0114600D01*
X0065161Y0114052D01*
X0064148Y0113039D01*
X0063600Y0111716D01*
X0063600Y0110284D01*
X0064148Y0108961D01*
X0064600Y0108509D01*
X0064600Y0100077D01*
X0055123Y0090600D01*
X0054484Y0090600D01*
X0054200Y0090482D01*
X0054200Y0102517D01*
X0053804Y0103473D01*
X0038141Y0119136D01*
X0038900Y0119895D01*
X0038900Y0123705D01*
X0036205Y0126400D01*
X0035877Y0126400D01*
X0043077Y0133600D01*
X0061523Y0133600D01*
X0054323Y0126400D01*
X0052395Y0126400D01*
X0049700Y0123705D01*
X0049700Y0119895D01*
X0052395Y0117200D01*
X0056205Y0117200D01*
X0058900Y0119895D01*
X0058900Y0123623D01*
X0066477Y0131200D01*
X0068723Y0131200D01*
X0063923Y0126400D01*
X0062395Y0126400D01*
X0059700Y0123705D01*
X0059700Y0119895D01*
X0062395Y0117200D01*
X0066205Y0117200D01*
X0067000Y0117995D01*
X0067000Y0115283D01*
X0067283Y0114600D01*
X0067000Y0115294D02*
X0041983Y0115294D01*
X0042395Y0117200D02*
X0046205Y0117200D01*
X0048900Y0119895D01*
X0048900Y0123705D01*
X0046205Y0126400D01*
X0042395Y0126400D01*
X0039700Y0123705D01*
X0039700Y0119895D01*
X0042395Y0117200D01*
X0041103Y0118491D02*
X0038786Y0118491D01*
X0038900Y0120090D02*
X0039700Y0120090D01*
X0039700Y0121688D02*
X0038900Y0121688D01*
X0038900Y0123287D02*
X0039700Y0123287D01*
X0040880Y0124885D02*
X0037720Y0124885D01*
X0035961Y0126484D02*
X0054407Y0126484D01*
X0056005Y0128082D02*
X0037559Y0128082D01*
X0039158Y0129681D02*
X0057604Y0129681D01*
X0059202Y0131279D02*
X0040756Y0131279D01*
X0042355Y0132878D02*
X0060801Y0132878D01*
X0064958Y0129681D02*
X0067204Y0129681D01*
X0065605Y0128082D02*
X0063359Y0128082D01*
X0064007Y0126484D02*
X0061761Y0126484D01*
X0060880Y0124885D02*
X0060162Y0124885D01*
X0059700Y0123287D02*
X0058900Y0123287D01*
X0058900Y0121688D02*
X0059700Y0121688D01*
X0059700Y0120090D02*
X0058900Y0120090D01*
X0057497Y0118491D02*
X0061103Y0118491D01*
X0067000Y0116893D02*
X0040384Y0116893D01*
X0043581Y0113696D02*
X0064805Y0113696D01*
X0063758Y0112097D02*
X0045180Y0112097D01*
X0046778Y0110499D02*
X0063600Y0110499D01*
X0064209Y0108900D02*
X0048377Y0108900D01*
X0049975Y0107302D02*
X0064600Y0107302D01*
X0064600Y0105703D02*
X0051574Y0105703D01*
X0053172Y0104105D02*
X0064600Y0104105D01*
X0064600Y0102506D02*
X0054200Y0102506D01*
X0054200Y0100908D02*
X0064600Y0100908D01*
X0063832Y0099309D02*
X0054200Y0099309D01*
X0054200Y0097711D02*
X0062234Y0097711D01*
X0060635Y0096112D02*
X0054200Y0096112D01*
X0054200Y0094514D02*
X0059037Y0094514D01*
X0057438Y0092915D02*
X0054200Y0092915D01*
X0054200Y0091317D02*
X0055840Y0091317D01*
X0049000Y0091317D02*
X0031400Y0091317D01*
X0031400Y0092915D02*
X0049000Y0092915D01*
X0049000Y0094514D02*
X0031400Y0094514D01*
X0031400Y0096112D02*
X0049000Y0096112D01*
X0049000Y0097711D02*
X0031400Y0097711D01*
X0031400Y0099309D02*
X0049000Y0099309D01*
X0049000Y0100908D02*
X0031400Y0100908D01*
X0031400Y0102506D02*
X0047417Y0102506D01*
X0049000Y0100923D02*
X0049000Y0085677D01*
X0048196Y0084873D01*
X0047817Y0083958D01*
X0047715Y0084000D01*
X0046277Y0084000D01*
X0041804Y0088473D01*
X0041073Y0089204D01*
X0040117Y0089600D01*
X0031400Y0089600D01*
X0031400Y0116917D01*
X0031004Y0117873D01*
X0030677Y0118200D01*
X0031004Y0118527D01*
X0031023Y0118572D01*
X0032395Y0117200D01*
X0032723Y0117200D01*
X0032727Y0117196D01*
X0049000Y0100923D01*
X0045818Y0104105D02*
X0031400Y0104105D01*
X0031400Y0105703D02*
X0044220Y0105703D01*
X0042621Y0107302D02*
X0031400Y0107302D01*
X0031400Y0108900D02*
X0041023Y0108900D01*
X0039424Y0110499D02*
X0031400Y0110499D01*
X0031400Y0112097D02*
X0037826Y0112097D01*
X0036227Y0113696D02*
X0031400Y0113696D01*
X0031400Y0115294D02*
X0034629Y0115294D01*
X0033030Y0116893D02*
X0031400Y0116893D01*
X0031103Y0118491D02*
X0030968Y0118491D01*
X0026200Y0115323D02*
X0026200Y0089600D01*
X0014317Y0089600D01*
X0013283Y0089600D01*
X0012327Y0089204D01*
X0009800Y0086677D01*
X0009800Y0101523D01*
X0025105Y0116828D01*
X0025396Y0116127D01*
X0026200Y0115323D01*
X0026200Y0115294D02*
X0023571Y0115294D01*
X0021973Y0113696D02*
X0026200Y0113696D01*
X0026200Y0112097D02*
X0020374Y0112097D01*
X0018776Y0110499D02*
X0026200Y0110499D01*
X0026200Y0108900D02*
X0017177Y0108900D01*
X0015579Y0107302D02*
X0026200Y0107302D01*
X0026200Y0105703D02*
X0013980Y0105703D01*
X0012382Y0104105D02*
X0026200Y0104105D01*
X0026200Y0102506D02*
X0010783Y0102506D01*
X0009800Y0100908D02*
X0026200Y0100908D01*
X0026200Y0099309D02*
X0009800Y0099309D01*
X0009800Y0097711D02*
X0026200Y0097711D01*
X0026200Y0096112D02*
X0009800Y0096112D01*
X0009800Y0094514D02*
X0026200Y0094514D01*
X0026200Y0092915D02*
X0009800Y0092915D01*
X0009800Y0091317D02*
X0026200Y0091317D01*
X0026200Y0089718D02*
X0009800Y0089718D01*
X0009800Y0088120D02*
X0011243Y0088120D01*
X0004600Y0088120D02*
X0003600Y0088120D01*
X0003600Y0089718D02*
X0004600Y0089718D01*
X0004600Y0091317D02*
X0003600Y0091317D01*
X0003600Y0092915D02*
X0004600Y0092915D01*
X0004600Y0094514D02*
X0003600Y0094514D01*
X0003600Y0096112D02*
X0004600Y0096112D01*
X0004600Y0097711D02*
X0003600Y0097711D01*
X0003600Y0099309D02*
X0004600Y0099309D01*
X0004600Y0100908D02*
X0003600Y0100908D01*
X0003600Y0102506D02*
X0004600Y0102506D01*
X0005028Y0104105D02*
X0003600Y0104105D01*
X0003600Y0105703D02*
X0006626Y0105703D01*
X0008225Y0107302D02*
X0003600Y0107302D01*
X0003600Y0108900D02*
X0009823Y0108900D01*
X0011422Y0110499D02*
X0003600Y0110499D01*
X0003600Y0112097D02*
X0013020Y0112097D01*
X0014619Y0113696D02*
X0003600Y0113696D01*
X0003600Y0115294D02*
X0016217Y0115294D01*
X0016123Y0117400D02*
X0014300Y0117400D01*
X0014300Y0121800D01*
X0014300Y0121800D01*
X0014300Y0126200D01*
X0016123Y0126200D01*
X0018700Y0123623D01*
X0018700Y0121800D01*
X0014300Y0121800D01*
X0014300Y0121800D01*
X0014300Y0121800D01*
X0009900Y0121800D01*
X0009900Y0123623D01*
X0012477Y0126200D01*
X0014300Y0126200D01*
X0014300Y0121800D01*
X0018700Y0121800D01*
X0018700Y0119977D01*
X0016123Y0117400D01*
X0017214Y0118491D02*
X0019414Y0118491D01*
X0019700Y0120090D02*
X0018700Y0120090D01*
X0018700Y0121688D02*
X0019700Y0121688D01*
X0019700Y0123287D02*
X0018700Y0123287D01*
X0017437Y0124885D02*
X0020880Y0124885D01*
X0014300Y0124885D02*
X0014300Y0124885D01*
X0014300Y0123287D02*
X0014300Y0123287D01*
X0014300Y0121800D02*
X0009900Y0121800D01*
X0009900Y0119977D01*
X0012477Y0117400D01*
X0014300Y0117400D01*
X0014300Y0121800D01*
X0014300Y0121800D01*
X0014300Y0121688D02*
X0014300Y0121688D01*
X0014300Y0120090D02*
X0014300Y0120090D01*
X0014300Y0118491D02*
X0014300Y0118491D01*
X0011386Y0118491D02*
X0003600Y0118491D01*
X0003600Y0116893D02*
X0017816Y0116893D01*
X0009900Y0120090D02*
X0003600Y0120090D01*
X0003600Y0121688D02*
X0009900Y0121688D01*
X0009900Y0123287D02*
X0003600Y0123287D01*
X0003600Y0124885D02*
X0011163Y0124885D01*
X0003600Y0126484D02*
X0028607Y0126484D01*
X0030205Y0128082D02*
X0003600Y0128082D01*
X0003600Y0129681D02*
X0031804Y0129681D01*
X0033402Y0131279D02*
X0003600Y0131279D01*
X0003600Y0132878D02*
X0035001Y0132878D01*
X0036600Y0134476D02*
X0003600Y0134476D01*
X0003600Y0136075D02*
X0038198Y0136075D01*
X0039797Y0137673D02*
X0003600Y0137673D01*
X0003600Y0139272D02*
X0113800Y0139272D01*
X0113800Y0138683D02*
X0114196Y0137727D01*
X0114927Y0136996D01*
X0117709Y0134214D01*
X0117200Y0133705D01*
X0117200Y0129895D01*
X0119895Y0127200D01*
X0123705Y0127200D01*
X0126400Y0129895D01*
X0126400Y0133705D01*
X0123705Y0136400D01*
X0122877Y0136400D01*
X0119000Y0140277D01*
X0119000Y0146317D01*
X0118604Y0147273D01*
X0116691Y0149186D01*
X0116700Y0149194D01*
X0116758Y0149336D01*
X0118895Y0147200D01*
X0122705Y0147200D01*
X0125400Y0149895D01*
X0125400Y0152323D01*
X0128277Y0155200D01*
X0145923Y0155200D01*
X0146427Y0154696D01*
X0150368Y0150755D01*
X0150312Y0150618D01*
X0150312Y0147943D01*
X0151336Y0145471D01*
X0153227Y0143580D01*
X0155699Y0142556D01*
X0158374Y0142556D01*
X0160845Y0143580D01*
X0162737Y0145471D01*
X0163761Y0147943D01*
X0163761Y0150618D01*
X0163023Y0152398D01*
X0165067Y0152398D01*
X0167538Y0153422D01*
X0169430Y0155314D01*
X0170454Y0157785D01*
X0170454Y0160460D01*
X0169430Y0162932D01*
X0167538Y0164823D01*
X0165067Y0165847D01*
X0162392Y0165847D01*
X0159920Y0164823D01*
X0158028Y0162932D01*
X0157005Y0160460D01*
X0157005Y0157785D01*
X0157742Y0156005D01*
X0155699Y0156005D01*
X0153417Y0155060D01*
X0151577Y0156900D01*
X0174634Y0179957D01*
X0177271Y0179957D01*
X0179743Y0180981D01*
X0181635Y0182873D01*
X0182658Y0185344D01*
X0182658Y0188019D01*
X0181635Y0190491D01*
X0179743Y0192383D01*
X0177271Y0193406D01*
X0174596Y0193406D01*
X0172125Y0192383D01*
X0170233Y0190491D01*
X0169209Y0188019D01*
X0169209Y0185344D01*
X0170222Y0182899D01*
X0147663Y0160340D01*
X0147517Y0160400D01*
X0130400Y0160400D01*
X0130400Y0161523D01*
X0133473Y0164596D01*
X0133577Y0164700D01*
X0133705Y0164700D01*
X0136400Y0167395D01*
X0136400Y0171205D01*
X0133705Y0173900D01*
X0132777Y0173900D01*
X0129800Y0176877D01*
X0129800Y0179317D01*
X0129404Y0180273D01*
X0128673Y0181004D01*
X0126800Y0182877D01*
X0126800Y0190795D01*
X0126039Y0192632D01*
X0124632Y0194039D01*
X0122795Y0194800D01*
X0120805Y0194800D01*
X0118968Y0194039D01*
X0117561Y0192632D01*
X0116800Y0190795D01*
X0116800Y0182805D01*
X0117561Y0180968D01*
X0118968Y0179561D01*
X0120805Y0178800D01*
X0122795Y0178800D01*
X0123310Y0179013D01*
X0124600Y0177723D01*
X0124600Y0175283D01*
X0124996Y0174327D01*
X0127659Y0171664D01*
X0127200Y0171205D01*
X0127200Y0167395D01*
X0128059Y0166536D01*
X0125596Y0164073D01*
X0125200Y0163117D01*
X0125200Y0159477D01*
X0122123Y0156400D01*
X0118895Y0156400D01*
X0116758Y0154264D01*
X0116700Y0154406D01*
X0115406Y0155700D01*
X0114059Y0156257D01*
X0113804Y0156873D01*
X0113073Y0157604D01*
X0111800Y0158877D01*
X0111800Y0173317D01*
X0111404Y0174273D01*
X0110673Y0175004D01*
X0093900Y0191777D01*
X0093900Y0193705D01*
X0091205Y0196400D01*
X0087395Y0196400D01*
X0084700Y0193705D01*
X0084700Y0189895D01*
X0087395Y0187200D01*
X0091123Y0187200D01*
X0106600Y0171723D01*
X0106600Y0157283D01*
X0106996Y0156327D01*
X0108909Y0154414D01*
X0108900Y0154406D01*
X0108200Y0152715D01*
X0108200Y0150885D01*
X0108900Y0149194D01*
X0110194Y0147900D01*
X0111541Y0147343D01*
X0111796Y0146727D01*
X0112527Y0145996D01*
X0113800Y0144723D01*
X0113800Y0138683D01*
X0114250Y0137673D02*
X0100003Y0137673D01*
X0100004Y0137673D02*
X0100004Y0137673D01*
X0101602Y0136075D02*
X0109852Y0136075D01*
X0111800Y0136075D02*
X0111800Y0136075D01*
X0111800Y0134476D02*
X0111800Y0134476D01*
X0111800Y0132878D02*
X0111800Y0132878D01*
X0111800Y0131279D02*
X0111800Y0131279D01*
X0111800Y0129681D02*
X0111800Y0129681D01*
X0111800Y0128082D02*
X0111800Y0128082D01*
X0111193Y0126484D02*
X0160000Y0126484D01*
X0160000Y0126297D02*
X0165667Y0120630D01*
X0169194Y0120630D01*
X0169194Y0125336D01*
X0169480Y0125481D01*
X0169674Y0125623D01*
X0169868Y0125481D01*
X0170154Y0125336D01*
X0170154Y0120630D01*
X0173681Y0120630D01*
X0179348Y0126297D01*
X0179348Y0129824D01*
X0173303Y0129824D01*
X0173303Y0130783D01*
X0179348Y0130783D01*
X0179348Y0134311D01*
X0173681Y0139978D01*
X0170154Y0139978D01*
X0170154Y0135272D01*
X0169868Y0135126D01*
X0169674Y0134985D01*
X0169480Y0135126D01*
X0169194Y0135272D01*
X0169194Y0139978D01*
X0165667Y0139978D01*
X0160000Y0134311D01*
X0160000Y0130783D01*
X0166045Y0130783D01*
X0166045Y0129824D01*
X0160000Y0129824D01*
X0160000Y0126297D01*
X0160000Y0128082D02*
X0124588Y0128082D01*
X0126186Y0129681D02*
X0160000Y0129681D01*
X0160000Y0131279D02*
X0126400Y0131279D01*
X0126400Y0132878D02*
X0160000Y0132878D01*
X0160165Y0134476D02*
X0125629Y0134476D01*
X0124030Y0136075D02*
X0161764Y0136075D01*
X0163362Y0137673D02*
X0121603Y0137673D01*
X0120005Y0139272D02*
X0164961Y0139272D01*
X0169194Y0139272D02*
X0170154Y0139272D01*
X0170154Y0137673D02*
X0169194Y0137673D01*
X0169194Y0136075D02*
X0170154Y0136075D01*
X0170154Y0130783D02*
X0172344Y0130783D01*
X0172344Y0129824D01*
X0170154Y0129824D01*
X0170154Y0130783D01*
X0169194Y0130783D02*
X0169194Y0129824D01*
X0167004Y0129824D01*
X0167004Y0130783D01*
X0169194Y0130783D01*
X0169194Y0124885D02*
X0170154Y0124885D01*
X0170154Y0123287D02*
X0169194Y0123287D01*
X0169194Y0121688D02*
X0170154Y0121688D01*
X0174740Y0121688D02*
X0196850Y0121688D01*
X0196850Y0120090D02*
X0186876Y0120090D01*
X0188475Y0118491D02*
X0196850Y0118491D01*
X0196850Y0116893D02*
X0190073Y0116893D01*
X0191159Y0115294D02*
X0196850Y0115294D01*
X0196850Y0113696D02*
X0191159Y0113696D01*
X0191159Y0110499D02*
X0196850Y0110499D01*
X0196850Y0112097D02*
X0186360Y0112097D01*
X0190668Y0107302D02*
X0196850Y0107302D01*
X0196850Y0108900D02*
X0191159Y0108900D01*
X0189069Y0105703D02*
X0196850Y0105703D01*
X0196850Y0104105D02*
X0187471Y0104105D01*
X0185872Y0102506D02*
X0196850Y0102506D01*
X0196850Y0100908D02*
X0141600Y0100908D01*
X0141230Y0099309D02*
X0196850Y0099309D01*
X0196850Y0097711D02*
X0139753Y0097711D01*
X0138155Y0096112D02*
X0196850Y0096112D01*
X0196850Y0094514D02*
X0136556Y0094514D01*
X0144999Y0102506D02*
X0153193Y0102506D01*
X0151594Y0104105D02*
X0146596Y0104105D01*
X0147446Y0105703D02*
X0149996Y0105703D01*
X0165136Y0118491D02*
X0174495Y0118491D01*
X0172897Y0116893D02*
X0166734Y0116893D01*
X0167737Y0115294D02*
X0171811Y0115294D01*
X0171811Y0113696D02*
X0167737Y0113696D01*
X0163010Y0123287D02*
X0114390Y0123287D01*
X0112792Y0124885D02*
X0161411Y0124885D01*
X0176338Y0123287D02*
X0196850Y0123287D01*
X0196850Y0124885D02*
X0177937Y0124885D01*
X0179348Y0126484D02*
X0196850Y0126484D01*
X0196850Y0128082D02*
X0179348Y0128082D01*
X0179348Y0129681D02*
X0196850Y0129681D01*
X0196850Y0131279D02*
X0179348Y0131279D01*
X0179348Y0132878D02*
X0196850Y0132878D01*
X0196850Y0134476D02*
X0179183Y0134476D01*
X0177584Y0136075D02*
X0196850Y0136075D01*
X0196850Y0137673D02*
X0175986Y0137673D01*
X0174387Y0139272D02*
X0196850Y0139272D01*
X0196850Y0140870D02*
X0119000Y0140870D01*
X0119000Y0142469D02*
X0196850Y0142469D01*
X0196850Y0144068D02*
X0161333Y0144068D01*
X0162818Y0145666D02*
X0196850Y0145666D01*
X0196850Y0147265D02*
X0163480Y0147265D01*
X0163761Y0148863D02*
X0196850Y0148863D01*
X0196850Y0150462D02*
X0163761Y0150462D01*
X0163163Y0152060D02*
X0196850Y0152060D01*
X0196850Y0153659D02*
X0167775Y0153659D01*
X0169373Y0155257D02*
X0196850Y0155257D01*
X0196850Y0156856D02*
X0170068Y0156856D01*
X0170454Y0158454D02*
X0196850Y0158454D01*
X0196850Y0160053D02*
X0170454Y0160053D01*
X0169960Y0161651D02*
X0196850Y0161651D01*
X0196850Y0163250D02*
X0192862Y0163250D01*
X0192605Y0163101D02*
X0193346Y0163529D01*
X0194024Y0164050D01*
X0194629Y0164654D01*
X0195150Y0165333D01*
X0195577Y0166073D01*
X0195905Y0166864D01*
X0196126Y0167690D01*
X0196218Y0168387D01*
X0190291Y0168387D01*
X0190291Y0162461D01*
X0190989Y0162553D01*
X0191815Y0162774D01*
X0192605Y0163101D01*
X0190291Y0163250D02*
X0189135Y0163250D01*
X0189135Y0162461D02*
X0189135Y0168387D01*
X0183209Y0168387D01*
X0183301Y0167690D01*
X0183522Y0166864D01*
X0183849Y0166073D01*
X0184277Y0165333D01*
X0184798Y0164654D01*
X0185402Y0164050D01*
X0186081Y0163529D01*
X0186822Y0163101D01*
X0187612Y0162774D01*
X0188438Y0162553D01*
X0189135Y0162461D01*
X0189135Y0164848D02*
X0190291Y0164848D01*
X0190291Y0166447D02*
X0189135Y0166447D01*
X0189135Y0168045D02*
X0190291Y0168045D01*
X0190291Y0168387D02*
X0189135Y0168387D01*
X0189135Y0169543D01*
X0183209Y0169543D01*
X0183301Y0170241D01*
X0183522Y0171067D01*
X0183849Y0171857D01*
X0184277Y0172598D01*
X0184798Y0173276D01*
X0185402Y0173881D01*
X0186081Y0174402D01*
X0186822Y0174829D01*
X0187612Y0175157D01*
X0188438Y0175378D01*
X0189135Y0175470D01*
X0189135Y0169543D01*
X0190291Y0169543D01*
X0190291Y0175470D01*
X0190989Y0175378D01*
X0191815Y0175157D01*
X0192605Y0174829D01*
X0193346Y0174402D01*
X0194024Y0173881D01*
X0194629Y0173276D01*
X0195150Y0172598D01*
X0195577Y0171857D01*
X0195905Y0171067D01*
X0196126Y0170241D01*
X0196218Y0169543D01*
X0190291Y0169543D01*
X0190291Y0168387D01*
X0190291Y0169644D02*
X0189135Y0169644D01*
X0189135Y0171242D02*
X0190291Y0171242D01*
X0190291Y0172841D02*
X0189135Y0172841D01*
X0189135Y0174439D02*
X0190291Y0174439D01*
X0193281Y0174439D02*
X0196850Y0174439D01*
X0196850Y0172841D02*
X0194964Y0172841D01*
X0195832Y0171242D02*
X0196850Y0171242D01*
X0196850Y0169644D02*
X0196205Y0169644D01*
X0196173Y0168045D02*
X0196850Y0168045D01*
X0196850Y0166447D02*
X0195732Y0166447D01*
X0194778Y0164848D02*
X0196850Y0164848D01*
X0186564Y0163250D02*
X0169112Y0163250D01*
X0167479Y0164848D02*
X0184649Y0164848D01*
X0183695Y0166447D02*
X0161124Y0166447D01*
X0159980Y0164848D02*
X0159525Y0164848D01*
X0158346Y0163250D02*
X0157927Y0163250D01*
X0157498Y0161651D02*
X0156328Y0161651D01*
X0157005Y0160053D02*
X0154730Y0160053D01*
X0153131Y0158454D02*
X0157005Y0158454D01*
X0157390Y0156856D02*
X0151621Y0156856D01*
X0153220Y0155257D02*
X0153894Y0155257D01*
X0149063Y0152060D02*
X0125400Y0152060D01*
X0125400Y0150462D02*
X0150312Y0150462D01*
X0150312Y0148863D02*
X0124368Y0148863D01*
X0122770Y0147265D02*
X0150593Y0147265D01*
X0151255Y0145666D02*
X0119000Y0145666D01*
X0119000Y0144068D02*
X0152739Y0144068D01*
X0147464Y0153659D02*
X0126736Y0153659D01*
X0122579Y0156856D02*
X0113811Y0156856D01*
X0112223Y0158454D02*
X0124177Y0158454D01*
X0125200Y0160053D02*
X0111800Y0160053D01*
X0111800Y0161651D02*
X0125200Y0161651D01*
X0125255Y0163250D02*
X0111800Y0163250D01*
X0111800Y0164848D02*
X0126371Y0164848D01*
X0127970Y0166447D02*
X0111800Y0166447D01*
X0111800Y0168045D02*
X0127200Y0168045D01*
X0127200Y0169644D02*
X0111800Y0169644D01*
X0111800Y0171242D02*
X0127237Y0171242D01*
X0126482Y0172841D02*
X0111800Y0172841D01*
X0111238Y0174439D02*
X0124949Y0174439D01*
X0124600Y0176038D02*
X0109639Y0176038D01*
X0108041Y0177636D02*
X0124600Y0177636D01*
X0119756Y0179235D02*
X0113283Y0179235D01*
X0112924Y0179118D02*
X0113643Y0179352D01*
X0114316Y0179695D01*
X0114927Y0180139D01*
X0115461Y0180673D01*
X0115905Y0181284D01*
X0116248Y0181957D01*
X0116482Y0182676D01*
X0116600Y0183422D01*
X0116600Y0186600D01*
X0112000Y0186600D01*
X0112000Y0187000D01*
X0111600Y0187000D01*
X0111600Y0194600D01*
X0111422Y0194600D01*
X0110676Y0194482D01*
X0109957Y0194248D01*
X0109284Y0193905D01*
X0108673Y0193461D01*
X0108139Y0192927D01*
X0107695Y0192316D01*
X0107352Y0191643D01*
X0107118Y0190924D01*
X0107000Y0190178D01*
X0107000Y0187000D01*
X0111600Y0187000D01*
X0111600Y0186600D01*
X0107000Y0186600D01*
X0107000Y0183422D01*
X0107118Y0182676D01*
X0107352Y0181957D01*
X0107695Y0181284D01*
X0108139Y0180673D01*
X0108673Y0180139D01*
X0109284Y0179695D01*
X0109957Y0179352D01*
X0110676Y0179118D01*
X0111422Y0179000D01*
X0111600Y0179000D01*
X0111600Y0186600D01*
X0112000Y0186600D01*
X0112000Y0179000D01*
X0112178Y0179000D01*
X0112924Y0179118D01*
X0112000Y0179235D02*
X0111600Y0179235D01*
X0110317Y0179235D02*
X0106442Y0179235D01*
X0108022Y0180833D02*
X0104844Y0180833D01*
X0103245Y0182432D02*
X0107198Y0182432D01*
X0107000Y0184030D02*
X0101647Y0184030D01*
X0100048Y0185629D02*
X0107000Y0185629D01*
X0107000Y0187227D02*
X0098450Y0187227D01*
X0096851Y0188826D02*
X0107000Y0188826D01*
X0107039Y0190424D02*
X0095253Y0190424D01*
X0093900Y0192023D02*
X0107545Y0192023D01*
X0108893Y0193621D02*
X0093900Y0193621D01*
X0092385Y0195220D02*
X0196850Y0195220D01*
X0196850Y0196818D02*
X0003600Y0196818D01*
X0003600Y0195220D02*
X0016214Y0195220D01*
X0017395Y0196400D02*
X0014700Y0193705D01*
X0014700Y0189895D01*
X0017395Y0187200D01*
X0019723Y0187200D01*
X0023200Y0183723D01*
X0023200Y0167483D01*
X0023596Y0166527D01*
X0025559Y0164564D01*
X0024700Y0163705D01*
X0024700Y0159895D01*
X0027395Y0157200D01*
X0028123Y0157200D01*
X0030659Y0154664D01*
X0029700Y0153705D01*
X0029700Y0149895D01*
X0032395Y0147200D01*
X0036205Y0147200D01*
X0038900Y0149895D01*
X0038900Y0153705D01*
X0036205Y0156400D01*
X0036000Y0156400D01*
X0035804Y0156873D01*
X0035073Y0157604D01*
X0033341Y0159336D01*
X0033900Y0159895D01*
X0033900Y0163705D01*
X0031205Y0166400D01*
X0031077Y0166400D01*
X0028400Y0169077D01*
X0028400Y0185317D01*
X0028004Y0186273D01*
X0023900Y0190377D01*
X0023900Y0193705D01*
X0021205Y0196400D01*
X0017395Y0196400D01*
X0014700Y0193621D02*
X0003600Y0193621D01*
X0003600Y0192023D02*
X0014700Y0192023D01*
X0014700Y0190424D02*
X0003600Y0190424D01*
X0003600Y0188826D02*
X0015769Y0188826D01*
X0017367Y0187227D02*
X0003600Y0187227D01*
X0003600Y0185629D02*
X0021294Y0185629D01*
X0022893Y0184030D02*
X0003600Y0184030D01*
X0003600Y0182432D02*
X0023200Y0182432D01*
X0023200Y0180833D02*
X0003600Y0180833D01*
X0003600Y0179235D02*
X0023200Y0179235D01*
X0023200Y0177636D02*
X0003600Y0177636D01*
X0003600Y0176038D02*
X0023200Y0176038D01*
X0023200Y0174439D02*
X0003600Y0174439D01*
X0003600Y0172841D02*
X0023200Y0172841D01*
X0023200Y0171242D02*
X0003600Y0171242D01*
X0003600Y0169644D02*
X0023200Y0169644D01*
X0023200Y0168045D02*
X0003600Y0168045D01*
X0003600Y0166447D02*
X0023676Y0166447D01*
X0022757Y0164848D02*
X0025275Y0164848D01*
X0024700Y0163250D02*
X0023900Y0163250D01*
X0023900Y0163705D02*
X0021205Y0166400D01*
X0017395Y0166400D01*
X0014700Y0163705D01*
X0014700Y0159895D01*
X0015859Y0158736D01*
X0013523Y0156400D01*
X0012395Y0156400D01*
X0009700Y0153705D01*
X0009700Y0149895D01*
X0012395Y0147200D01*
X0016205Y0147200D01*
X0018900Y0149895D01*
X0018900Y0153705D01*
X0018541Y0154064D01*
X0019200Y0154723D01*
X0019959Y0153964D01*
X0019700Y0153705D01*
X0019700Y0149895D01*
X0022395Y0147200D01*
X0026205Y0147200D01*
X0028900Y0149895D01*
X0028900Y0153705D01*
X0026205Y0156400D01*
X0024877Y0156400D01*
X0022641Y0158636D01*
X0023900Y0159895D01*
X0023900Y0163705D01*
X0023900Y0161651D02*
X0024700Y0161651D01*
X0024700Y0160053D02*
X0023900Y0160053D01*
X0022823Y0158454D02*
X0026141Y0158454D01*
X0024421Y0156856D02*
X0028467Y0156856D01*
X0027348Y0155257D02*
X0030066Y0155257D01*
X0029700Y0153659D02*
X0028900Y0153659D01*
X0028900Y0152060D02*
X0029700Y0152060D01*
X0029700Y0150462D02*
X0028900Y0150462D01*
X0027868Y0148863D02*
X0030732Y0148863D01*
X0032330Y0147265D02*
X0026270Y0147265D01*
X0022330Y0147265D02*
X0016270Y0147265D01*
X0017868Y0148863D02*
X0020732Y0148863D01*
X0019700Y0150462D02*
X0018900Y0150462D01*
X0018900Y0152060D02*
X0019700Y0152060D01*
X0019700Y0153659D02*
X0018900Y0153659D01*
X0013979Y0156856D02*
X0003600Y0156856D01*
X0003600Y0158454D02*
X0015577Y0158454D01*
X0014700Y0160053D02*
X0003600Y0160053D01*
X0003600Y0161651D02*
X0014700Y0161651D01*
X0014700Y0163250D02*
X0003600Y0163250D01*
X0003600Y0164848D02*
X0015843Y0164848D01*
X0011252Y0155257D02*
X0003600Y0155257D01*
X0003600Y0153659D02*
X0009700Y0153659D01*
X0009700Y0152060D02*
X0003600Y0152060D01*
X0003600Y0150462D02*
X0009700Y0150462D01*
X0010732Y0148863D02*
X0003600Y0148863D01*
X0003600Y0147265D02*
X0012330Y0147265D01*
X0003600Y0145666D02*
X0112857Y0145666D01*
X0113800Y0144068D02*
X0003600Y0144068D01*
X0003600Y0142469D02*
X0113800Y0142469D01*
X0113800Y0140870D02*
X0003600Y0140870D01*
X0029432Y0168045D02*
X0032200Y0168045D01*
X0032200Y0167483D02*
X0032596Y0166527D01*
X0035059Y0164064D01*
X0034700Y0163705D01*
X0034700Y0159895D01*
X0037395Y0157200D01*
X0037723Y0157200D01*
X0040459Y0154464D01*
X0039700Y0153705D01*
X0039700Y0149895D01*
X0042395Y0147200D01*
X0046205Y0147200D01*
X0048900Y0149895D01*
X0048900Y0153705D01*
X0046205Y0156400D01*
X0045877Y0156400D01*
X0045873Y0156404D01*
X0043141Y0159136D01*
X0043900Y0159895D01*
X0043900Y0163705D01*
X0041205Y0166400D01*
X0040077Y0166400D01*
X0037400Y0169077D01*
X0037400Y0185317D01*
X0037004Y0186273D01*
X0036273Y0187004D01*
X0033641Y0189636D01*
X0033900Y0189895D01*
X0033900Y0193705D01*
X0031205Y0196400D01*
X0027395Y0196400D01*
X0024700Y0193705D01*
X0024700Y0189895D01*
X0027395Y0187200D01*
X0028723Y0187200D01*
X0032200Y0183723D01*
X0032200Y0167483D01*
X0032676Y0166447D02*
X0031030Y0166447D01*
X0032757Y0164848D02*
X0034275Y0164848D01*
X0033900Y0163250D02*
X0034700Y0163250D01*
X0034700Y0161651D02*
X0033900Y0161651D01*
X0033900Y0160053D02*
X0034700Y0160053D01*
X0034223Y0158454D02*
X0036141Y0158454D01*
X0035811Y0156856D02*
X0038067Y0156856D01*
X0037348Y0155257D02*
X0039666Y0155257D01*
X0039700Y0153659D02*
X0038900Y0153659D01*
X0038900Y0152060D02*
X0039700Y0152060D01*
X0039700Y0150462D02*
X0038900Y0150462D01*
X0037868Y0148863D02*
X0040732Y0148863D01*
X0042330Y0147265D02*
X0036270Y0147265D01*
X0046270Y0147265D02*
X0052330Y0147265D01*
X0052395Y0147200D02*
X0056205Y0147200D01*
X0058900Y0149895D01*
X0058900Y0153705D01*
X0056205Y0156400D01*
X0056077Y0156400D01*
X0056073Y0156404D01*
X0053241Y0159236D01*
X0053900Y0159895D01*
X0053900Y0163705D01*
X0051205Y0166400D01*
X0050877Y0166400D01*
X0048200Y0169077D01*
X0048200Y0185317D01*
X0047804Y0186273D01*
X0047073Y0187004D01*
X0043900Y0190177D01*
X0043900Y0193705D01*
X0041205Y0196400D01*
X0037395Y0196400D01*
X0034700Y0193705D01*
X0034700Y0189895D01*
X0037395Y0187200D01*
X0039523Y0187200D01*
X0043000Y0183723D01*
X0043000Y0167483D01*
X0043396Y0166527D01*
X0045459Y0164464D01*
X0044700Y0163705D01*
X0044700Y0159895D01*
X0047395Y0157200D01*
X0047923Y0157200D01*
X0050559Y0154564D01*
X0049700Y0153705D01*
X0049700Y0149895D01*
X0052395Y0147200D01*
X0050732Y0148863D02*
X0047868Y0148863D01*
X0048900Y0150462D02*
X0049700Y0150462D01*
X0049700Y0152060D02*
X0048900Y0152060D01*
X0048900Y0153659D02*
X0049700Y0153659D01*
X0049866Y0155257D02*
X0047348Y0155257D01*
X0048267Y0156856D02*
X0045421Y0156856D01*
X0046141Y0158454D02*
X0043823Y0158454D01*
X0043900Y0160053D02*
X0044700Y0160053D01*
X0044700Y0161651D02*
X0043900Y0161651D01*
X0043900Y0163250D02*
X0044700Y0163250D01*
X0045075Y0164848D02*
X0042757Y0164848D01*
X0043476Y0166447D02*
X0040030Y0166447D01*
X0038432Y0168045D02*
X0043000Y0168045D01*
X0043000Y0169644D02*
X0037400Y0169644D01*
X0037400Y0171242D02*
X0043000Y0171242D01*
X0043000Y0172841D02*
X0037400Y0172841D01*
X0037400Y0174439D02*
X0043000Y0174439D01*
X0043000Y0176038D02*
X0037400Y0176038D01*
X0037400Y0177636D02*
X0043000Y0177636D01*
X0043000Y0179235D02*
X0037400Y0179235D01*
X0037400Y0180833D02*
X0043000Y0180833D01*
X0043000Y0182432D02*
X0037400Y0182432D01*
X0037400Y0184030D02*
X0042693Y0184030D01*
X0041094Y0185629D02*
X0037271Y0185629D01*
X0037367Y0187227D02*
X0036050Y0187227D01*
X0035769Y0188826D02*
X0034451Y0188826D01*
X0034700Y0190424D02*
X0033900Y0190424D01*
X0033900Y0192023D02*
X0034700Y0192023D01*
X0034700Y0193621D02*
X0033900Y0193621D01*
X0032385Y0195220D02*
X0036214Y0195220D01*
X0042385Y0195220D02*
X0046214Y0195220D01*
X0047395Y0196400D02*
X0044700Y0193705D01*
X0044700Y0189895D01*
X0047395Y0187200D01*
X0049723Y0187200D01*
X0053200Y0183723D01*
X0053200Y0167483D01*
X0053596Y0166527D01*
X0055559Y0164564D01*
X0054700Y0163705D01*
X0054700Y0159895D01*
X0057395Y0157200D01*
X0058123Y0157200D01*
X0060659Y0154664D01*
X0059700Y0153705D01*
X0059700Y0149895D01*
X0062395Y0147200D01*
X0066205Y0147200D01*
X0068900Y0149895D01*
X0068900Y0153705D01*
X0066205Y0156400D01*
X0066000Y0156400D01*
X0065804Y0156873D01*
X0065073Y0157604D01*
X0063341Y0159336D01*
X0063900Y0159895D01*
X0063900Y0163705D01*
X0061205Y0166400D01*
X0061077Y0166400D01*
X0058400Y0169077D01*
X0058400Y0185317D01*
X0058004Y0186273D01*
X0057273Y0187004D01*
X0057273Y0187004D01*
X0053900Y0190377D01*
X0053900Y0193705D01*
X0051205Y0196400D01*
X0047395Y0196400D01*
X0044700Y0193621D02*
X0043900Y0193621D01*
X0043900Y0192023D02*
X0044700Y0192023D01*
X0044700Y0190424D02*
X0043900Y0190424D01*
X0045251Y0188826D02*
X0045769Y0188826D01*
X0046850Y0187227D02*
X0047367Y0187227D01*
X0048071Y0185629D02*
X0051294Y0185629D01*
X0052893Y0184030D02*
X0048200Y0184030D01*
X0048200Y0182432D02*
X0053200Y0182432D01*
X0053200Y0180833D02*
X0048200Y0180833D01*
X0048200Y0179235D02*
X0053200Y0179235D01*
X0053200Y0177636D02*
X0048200Y0177636D01*
X0048200Y0176038D02*
X0053200Y0176038D01*
X0053200Y0174439D02*
X0048200Y0174439D01*
X0048200Y0172841D02*
X0053200Y0172841D01*
X0053200Y0171242D02*
X0048200Y0171242D01*
X0048200Y0169644D02*
X0053200Y0169644D01*
X0053200Y0168045D02*
X0049232Y0168045D01*
X0050830Y0166447D02*
X0053676Y0166447D01*
X0052757Y0164848D02*
X0055275Y0164848D01*
X0054700Y0163250D02*
X0053900Y0163250D01*
X0053900Y0161651D02*
X0054700Y0161651D01*
X0054700Y0160053D02*
X0053900Y0160053D01*
X0054023Y0158454D02*
X0056141Y0158454D01*
X0055621Y0156856D02*
X0058467Y0156856D01*
X0057348Y0155257D02*
X0060066Y0155257D01*
X0059700Y0153659D02*
X0058900Y0153659D01*
X0058900Y0152060D02*
X0059700Y0152060D01*
X0059700Y0150462D02*
X0058900Y0150462D01*
X0057868Y0148863D02*
X0060732Y0148863D01*
X0062330Y0147265D02*
X0056270Y0147265D01*
X0066270Y0147265D02*
X0072330Y0147265D01*
X0072395Y0147200D02*
X0076205Y0147200D01*
X0078900Y0149895D01*
X0078900Y0153705D01*
X0076205Y0156400D01*
X0075877Y0156400D01*
X0075873Y0156404D01*
X0073141Y0159136D01*
X0073900Y0159895D01*
X0073900Y0163705D01*
X0071205Y0166400D01*
X0070077Y0166400D01*
X0067400Y0169077D01*
X0067400Y0185317D01*
X0067004Y0186273D01*
X0066273Y0187004D01*
X0063641Y0189636D01*
X0063900Y0189895D01*
X0063900Y0193705D01*
X0061205Y0196400D01*
X0057395Y0196400D01*
X0054700Y0193705D01*
X0054700Y0189895D01*
X0057395Y0187200D01*
X0058723Y0187200D01*
X0062200Y0183723D01*
X0062200Y0167483D01*
X0062596Y0166527D01*
X0065059Y0164064D01*
X0064700Y0163705D01*
X0064700Y0159895D01*
X0067395Y0157200D01*
X0067723Y0157200D01*
X0070459Y0154464D01*
X0069700Y0153705D01*
X0069700Y0149895D01*
X0072395Y0147200D01*
X0070732Y0148863D02*
X0067868Y0148863D01*
X0068900Y0150462D02*
X0069700Y0150462D01*
X0069700Y0152060D02*
X0068900Y0152060D01*
X0068900Y0153659D02*
X0069700Y0153659D01*
X0069666Y0155257D02*
X0067348Y0155257D01*
X0068067Y0156856D02*
X0065811Y0156856D01*
X0066141Y0158454D02*
X0064223Y0158454D01*
X0063900Y0160053D02*
X0064700Y0160053D01*
X0064700Y0161651D02*
X0063900Y0161651D01*
X0063900Y0163250D02*
X0064700Y0163250D01*
X0064275Y0164848D02*
X0062757Y0164848D01*
X0062676Y0166447D02*
X0061030Y0166447D01*
X0062200Y0168045D02*
X0059432Y0168045D01*
X0058400Y0169644D02*
X0062200Y0169644D01*
X0062200Y0171242D02*
X0058400Y0171242D01*
X0058400Y0172841D02*
X0062200Y0172841D01*
X0062200Y0174439D02*
X0058400Y0174439D01*
X0058400Y0176038D02*
X0062200Y0176038D01*
X0062200Y0177636D02*
X0058400Y0177636D01*
X0058400Y0179235D02*
X0062200Y0179235D01*
X0062200Y0180833D02*
X0058400Y0180833D01*
X0058400Y0182432D02*
X0062200Y0182432D01*
X0061893Y0184030D02*
X0058400Y0184030D01*
X0058271Y0185629D02*
X0060294Y0185629D01*
X0057367Y0187227D02*
X0057050Y0187227D01*
X0055769Y0188826D02*
X0055451Y0188826D01*
X0054700Y0190424D02*
X0053900Y0190424D01*
X0053900Y0192023D02*
X0054700Y0192023D01*
X0054700Y0193621D02*
X0053900Y0193621D01*
X0052385Y0195220D02*
X0056214Y0195220D01*
X0062385Y0195220D02*
X0066214Y0195220D01*
X0067395Y0196400D02*
X0064700Y0193705D01*
X0064700Y0189895D01*
X0067395Y0187200D01*
X0069523Y0187200D01*
X0073000Y0183723D01*
X0073000Y0167483D01*
X0073396Y0166527D01*
X0075459Y0164464D01*
X0074700Y0163705D01*
X0074700Y0159895D01*
X0077395Y0157200D01*
X0077923Y0157200D01*
X0080559Y0154564D01*
X0079700Y0153705D01*
X0079700Y0149895D01*
X0082395Y0147200D01*
X0086205Y0147200D01*
X0088900Y0149895D01*
X0088900Y0153705D01*
X0086205Y0156400D01*
X0086077Y0156400D01*
X0086073Y0156404D01*
X0083241Y0159236D01*
X0083900Y0159895D01*
X0083900Y0163705D01*
X0081205Y0166400D01*
X0080877Y0166400D01*
X0078200Y0169077D01*
X0078200Y0185317D01*
X0077804Y0186273D01*
X0077073Y0187004D01*
X0073900Y0190177D01*
X0073900Y0193705D01*
X0071205Y0196400D01*
X0067395Y0196400D01*
X0064700Y0193621D02*
X0063900Y0193621D01*
X0063900Y0192023D02*
X0064700Y0192023D01*
X0064700Y0190424D02*
X0063900Y0190424D01*
X0064451Y0188826D02*
X0065769Y0188826D01*
X0066050Y0187227D02*
X0067367Y0187227D01*
X0067271Y0185629D02*
X0071094Y0185629D01*
X0072693Y0184030D02*
X0067400Y0184030D01*
X0067400Y0182432D02*
X0073000Y0182432D01*
X0073000Y0180833D02*
X0067400Y0180833D01*
X0067400Y0179235D02*
X0073000Y0179235D01*
X0073000Y0177636D02*
X0067400Y0177636D01*
X0067400Y0176038D02*
X0073000Y0176038D01*
X0073000Y0174439D02*
X0067400Y0174439D01*
X0067400Y0172841D02*
X0073000Y0172841D01*
X0073000Y0171242D02*
X0067400Y0171242D01*
X0067400Y0169644D02*
X0073000Y0169644D01*
X0073000Y0168045D02*
X0068432Y0168045D01*
X0070030Y0166447D02*
X0073476Y0166447D01*
X0072757Y0164848D02*
X0075075Y0164848D01*
X0074700Y0163250D02*
X0073900Y0163250D01*
X0073900Y0161651D02*
X0074700Y0161651D01*
X0074700Y0160053D02*
X0073900Y0160053D01*
X0073823Y0158454D02*
X0076141Y0158454D01*
X0075421Y0156856D02*
X0078267Y0156856D01*
X0077348Y0155257D02*
X0079866Y0155257D01*
X0079700Y0153659D02*
X0078900Y0153659D01*
X0078900Y0152060D02*
X0079700Y0152060D01*
X0079700Y0150462D02*
X0078900Y0150462D01*
X0077868Y0148863D02*
X0080732Y0148863D01*
X0082330Y0147265D02*
X0076270Y0147265D01*
X0086270Y0147265D02*
X0092330Y0147265D01*
X0092395Y0147200D02*
X0096205Y0147200D01*
X0098900Y0149895D01*
X0098900Y0153705D01*
X0096205Y0156400D01*
X0096000Y0156400D01*
X0095804Y0156873D01*
X0095073Y0157604D01*
X0093341Y0159336D01*
X0093900Y0159895D01*
X0093900Y0163705D01*
X0091205Y0166400D01*
X0091077Y0166400D01*
X0088400Y0169077D01*
X0088400Y0185317D01*
X0088004Y0186273D01*
X0087273Y0187004D01*
X0087273Y0187004D01*
X0083900Y0190377D01*
X0083900Y0193705D01*
X0081205Y0196400D01*
X0077395Y0196400D01*
X0074700Y0193705D01*
X0074700Y0189895D01*
X0077395Y0187200D01*
X0079723Y0187200D01*
X0083200Y0183723D01*
X0083200Y0167483D01*
X0083596Y0166527D01*
X0085559Y0164564D01*
X0084700Y0163705D01*
X0084700Y0159895D01*
X0087395Y0157200D01*
X0088123Y0157200D01*
X0090659Y0154664D01*
X0089700Y0153705D01*
X0089700Y0149895D01*
X0092395Y0147200D01*
X0090732Y0148863D02*
X0087868Y0148863D01*
X0088900Y0150462D02*
X0089700Y0150462D01*
X0089700Y0152060D02*
X0088900Y0152060D01*
X0088900Y0153659D02*
X0089700Y0153659D01*
X0090066Y0155257D02*
X0087348Y0155257D01*
X0088467Y0156856D02*
X0085621Y0156856D01*
X0086141Y0158454D02*
X0084023Y0158454D01*
X0083900Y0160053D02*
X0084700Y0160053D01*
X0084700Y0161651D02*
X0083900Y0161651D01*
X0083900Y0163250D02*
X0084700Y0163250D01*
X0085275Y0164848D02*
X0082757Y0164848D01*
X0083676Y0166447D02*
X0080830Y0166447D01*
X0079232Y0168045D02*
X0083200Y0168045D01*
X0083200Y0169644D02*
X0078200Y0169644D01*
X0078200Y0171242D02*
X0083200Y0171242D01*
X0083200Y0172841D02*
X0078200Y0172841D01*
X0078200Y0174439D02*
X0083200Y0174439D01*
X0083200Y0176038D02*
X0078200Y0176038D01*
X0078200Y0177636D02*
X0083200Y0177636D01*
X0083200Y0179235D02*
X0078200Y0179235D01*
X0078200Y0180833D02*
X0083200Y0180833D01*
X0083200Y0182432D02*
X0078200Y0182432D01*
X0078200Y0184030D02*
X0082893Y0184030D01*
X0081294Y0185629D02*
X0078071Y0185629D01*
X0077367Y0187227D02*
X0076850Y0187227D01*
X0075769Y0188826D02*
X0075251Y0188826D01*
X0074700Y0190424D02*
X0073900Y0190424D01*
X0073900Y0192023D02*
X0074700Y0192023D01*
X0074700Y0193621D02*
X0073900Y0193621D01*
X0072385Y0195220D02*
X0076214Y0195220D01*
X0082385Y0195220D02*
X0086214Y0195220D01*
X0084700Y0193621D02*
X0083900Y0193621D01*
X0083900Y0192023D02*
X0084700Y0192023D01*
X0084700Y0190424D02*
X0083900Y0190424D01*
X0085451Y0188826D02*
X0085769Y0188826D01*
X0087050Y0187227D02*
X0087367Y0187227D01*
X0088271Y0185629D02*
X0092694Y0185629D01*
X0094293Y0184030D02*
X0088400Y0184030D01*
X0088400Y0182432D02*
X0095891Y0182432D01*
X0097490Y0180833D02*
X0088400Y0180833D01*
X0088400Y0179235D02*
X0099088Y0179235D01*
X0100687Y0177636D02*
X0088400Y0177636D01*
X0088400Y0176038D02*
X0102285Y0176038D01*
X0103884Y0174439D02*
X0088400Y0174439D01*
X0088400Y0172841D02*
X0099118Y0172841D01*
X0099977Y0173700D02*
X0097400Y0171123D01*
X0097400Y0169300D01*
X0101800Y0169300D01*
X0106200Y0169300D01*
X0106200Y0171123D01*
X0103623Y0173700D01*
X0101800Y0173700D01*
X0101800Y0169300D01*
X0101800Y0169300D01*
X0101800Y0169300D01*
X0106200Y0169300D01*
X0106200Y0167477D01*
X0103623Y0164900D01*
X0101800Y0164900D01*
X0101800Y0169300D01*
X0101800Y0169300D01*
X0101800Y0169300D01*
X0101800Y0173700D01*
X0099977Y0173700D01*
X0101800Y0172841D02*
X0101800Y0172841D01*
X0101800Y0171242D02*
X0101800Y0171242D01*
X0101800Y0169644D02*
X0101800Y0169644D01*
X0101800Y0169300D02*
X0097400Y0169300D01*
X0097400Y0167477D01*
X0099977Y0164900D01*
X0101800Y0164900D01*
X0101800Y0169300D01*
X0101800Y0168045D02*
X0101800Y0168045D01*
X0101800Y0166447D02*
X0101800Y0166447D01*
X0098431Y0166447D02*
X0091030Y0166447D01*
X0089432Y0168045D02*
X0097400Y0168045D01*
X0097400Y0169644D02*
X0088400Y0169644D01*
X0088400Y0171242D02*
X0097520Y0171242D01*
X0092757Y0164848D02*
X0106600Y0164848D01*
X0106600Y0163250D02*
X0093900Y0163250D01*
X0093900Y0161651D02*
X0106600Y0161651D01*
X0106600Y0160053D02*
X0093900Y0160053D01*
X0094223Y0158454D02*
X0106600Y0158454D01*
X0106777Y0156856D02*
X0095811Y0156856D01*
X0097348Y0155257D02*
X0108066Y0155257D01*
X0108591Y0153659D02*
X0098900Y0153659D01*
X0098900Y0152060D02*
X0108200Y0152060D01*
X0108375Y0150462D02*
X0098900Y0150462D01*
X0097868Y0148863D02*
X0109232Y0148863D01*
X0111573Y0147265D02*
X0096270Y0147265D01*
X0103200Y0134476D02*
X0108254Y0134476D01*
X0107400Y0132878D02*
X0104799Y0132878D01*
X0106398Y0131279D02*
X0107400Y0131279D01*
X0114305Y0128082D02*
X0119012Y0128082D01*
X0117414Y0129681D02*
X0115903Y0129681D01*
X0116200Y0131279D02*
X0117200Y0131279D01*
X0117200Y0132878D02*
X0116200Y0132878D01*
X0115346Y0134476D02*
X0117447Y0134476D01*
X0115848Y0136075D02*
X0113748Y0136075D01*
X0118608Y0147265D02*
X0118830Y0147265D01*
X0117232Y0148863D02*
X0117014Y0148863D01*
X0117752Y0155257D02*
X0115848Y0155257D01*
X0106600Y0166447D02*
X0105169Y0166447D01*
X0106200Y0168045D02*
X0106600Y0168045D01*
X0106600Y0169644D02*
X0106200Y0169644D01*
X0106080Y0171242D02*
X0106600Y0171242D01*
X0105482Y0172841D02*
X0104482Y0172841D01*
X0111600Y0180833D02*
X0112000Y0180833D01*
X0112000Y0182432D02*
X0111600Y0182432D01*
X0111600Y0184030D02*
X0112000Y0184030D01*
X0112000Y0185629D02*
X0111600Y0185629D01*
X0112000Y0187000D02*
X0116600Y0187000D01*
X0116600Y0190178D01*
X0116482Y0190924D01*
X0116248Y0191643D01*
X0115905Y0192316D01*
X0115461Y0192927D01*
X0114927Y0193461D01*
X0114316Y0193905D01*
X0113643Y0194248D01*
X0112924Y0194482D01*
X0112178Y0194600D01*
X0112000Y0194600D01*
X0112000Y0187000D01*
X0112000Y0187227D02*
X0111600Y0187227D01*
X0111600Y0188826D02*
X0112000Y0188826D01*
X0112000Y0190424D02*
X0111600Y0190424D01*
X0111600Y0192023D02*
X0112000Y0192023D01*
X0112000Y0193621D02*
X0111600Y0193621D01*
X0114707Y0193621D02*
X0118550Y0193621D01*
X0117309Y0192023D02*
X0116055Y0192023D01*
X0116561Y0190424D02*
X0116800Y0190424D01*
X0116800Y0188826D02*
X0116600Y0188826D01*
X0116600Y0187227D02*
X0116800Y0187227D01*
X0116800Y0185629D02*
X0116600Y0185629D01*
X0116600Y0184030D02*
X0116800Y0184030D01*
X0116955Y0182432D02*
X0116402Y0182432D01*
X0115578Y0180833D02*
X0117696Y0180833D01*
X0126800Y0184030D02*
X0139343Y0184030D01*
X0139288Y0184163D02*
X0140312Y0181692D01*
X0142204Y0179800D01*
X0144675Y0178776D01*
X0147350Y0178776D01*
X0149822Y0179800D01*
X0151713Y0181692D01*
X0152737Y0184163D01*
X0152737Y0186838D01*
X0151713Y0189310D01*
X0149822Y0191201D01*
X0147350Y0192225D01*
X0144675Y0192225D01*
X0142204Y0191201D01*
X0140312Y0189310D01*
X0139288Y0186838D01*
X0139288Y0184163D01*
X0139288Y0185629D02*
X0126800Y0185629D01*
X0126800Y0187227D02*
X0139449Y0187227D01*
X0140111Y0188826D02*
X0126800Y0188826D01*
X0126800Y0190424D02*
X0141426Y0190424D01*
X0144187Y0192023D02*
X0126291Y0192023D01*
X0125050Y0193621D02*
X0196850Y0193621D01*
X0196850Y0192023D02*
X0180103Y0192023D01*
X0181662Y0190424D02*
X0196850Y0190424D01*
X0196850Y0188826D02*
X0182324Y0188826D01*
X0182658Y0187227D02*
X0196850Y0187227D01*
X0196850Y0185629D02*
X0182658Y0185629D01*
X0182114Y0184030D02*
X0196850Y0184030D01*
X0196850Y0182432D02*
X0181193Y0182432D01*
X0179386Y0180833D02*
X0196850Y0180833D01*
X0196850Y0179235D02*
X0173912Y0179235D01*
X0172313Y0177636D02*
X0196850Y0177636D01*
X0196850Y0176038D02*
X0170715Y0176038D01*
X0169116Y0174439D02*
X0186146Y0174439D01*
X0184463Y0172841D02*
X0167518Y0172841D01*
X0165919Y0171242D02*
X0183595Y0171242D01*
X0183222Y0169644D02*
X0164321Y0169644D01*
X0162722Y0168045D02*
X0183254Y0168045D01*
X0168156Y0180833D02*
X0150855Y0180833D01*
X0152020Y0182432D02*
X0169755Y0182432D01*
X0169754Y0184030D02*
X0152682Y0184030D01*
X0152737Y0185629D02*
X0169209Y0185629D01*
X0169209Y0187227D02*
X0152576Y0187227D01*
X0151914Y0188826D02*
X0169543Y0188826D01*
X0170206Y0190424D02*
X0150599Y0190424D01*
X0147839Y0192023D02*
X0171765Y0192023D01*
X0166558Y0179235D02*
X0148457Y0179235D01*
X0143568Y0179235D02*
X0129800Y0179235D01*
X0129800Y0177636D02*
X0164959Y0177636D01*
X0163361Y0176038D02*
X0130639Y0176038D01*
X0132238Y0174439D02*
X0161762Y0174439D01*
X0160164Y0172841D02*
X0134765Y0172841D01*
X0136363Y0171242D02*
X0158565Y0171242D01*
X0156967Y0169644D02*
X0136400Y0169644D01*
X0136400Y0168045D02*
X0155368Y0168045D01*
X0153770Y0166447D02*
X0135452Y0166447D01*
X0133854Y0164848D02*
X0152171Y0164848D01*
X0150573Y0163250D02*
X0132127Y0163250D01*
X0130528Y0161651D02*
X0148974Y0161651D01*
X0141170Y0180833D02*
X0128844Y0180833D01*
X0127245Y0182432D02*
X0140005Y0182432D01*
X0078438Y0124885D02*
X0077720Y0124885D01*
X0078900Y0123287D02*
X0079700Y0123287D01*
X0079700Y0121688D02*
X0078900Y0121688D01*
X0078900Y0120090D02*
X0079700Y0120090D01*
X0081103Y0118491D02*
X0077497Y0118491D01*
X0076077Y0126400D02*
X0076077Y0126400D01*
X0050880Y0124885D02*
X0047720Y0124885D01*
X0048900Y0123287D02*
X0049700Y0123287D01*
X0049700Y0121688D02*
X0048900Y0121688D01*
X0048900Y0120090D02*
X0049700Y0120090D01*
X0051103Y0118491D02*
X0047497Y0118491D01*
X0049000Y0089718D02*
X0031400Y0089718D01*
X0042157Y0088120D02*
X0049000Y0088120D01*
X0049000Y0086521D02*
X0043756Y0086521D01*
X0045354Y0084923D02*
X0048246Y0084923D01*
X0071400Y0080127D02*
X0072200Y0080127D01*
X0072200Y0078529D02*
X0071400Y0078529D01*
X0071400Y0076930D02*
X0072200Y0076930D01*
X0072200Y0075332D02*
X0071400Y0075332D01*
X0071400Y0073733D02*
X0072200Y0073733D01*
X0072677Y0072134D02*
X0070923Y0072134D01*
X0069641Y0070536D02*
X0073959Y0070536D01*
X0073733Y0062543D02*
X0098400Y0062543D01*
X0098706Y0060945D02*
X0075332Y0060945D01*
X0076931Y0059346D02*
X0099400Y0059346D01*
X0099400Y0057748D02*
X0078529Y0057748D01*
X0080128Y0056149D02*
X0099400Y0056149D01*
X0098274Y0054551D02*
X0081726Y0054551D01*
X0083325Y0052952D02*
X0083847Y0052952D01*
X0089753Y0052952D02*
X0093847Y0052952D01*
X0092630Y0051354D02*
X0090970Y0051354D01*
X0091400Y0049755D02*
X0092200Y0049755D01*
X0092200Y0048157D02*
X0091400Y0048157D01*
X0091400Y0046558D02*
X0092200Y0046558D01*
X0092200Y0044960D02*
X0091400Y0044960D01*
X0091400Y0043361D02*
X0092200Y0043361D01*
X0092714Y0041763D02*
X0092831Y0041763D01*
X0094313Y0040164D02*
X0094523Y0040164D01*
X0090156Y0036967D02*
X0085400Y0036967D01*
X0085400Y0035369D02*
X0091754Y0035369D01*
X0092200Y0033770D02*
X0085400Y0033770D01*
X0085400Y0032172D02*
X0092200Y0032172D01*
X0092200Y0030573D02*
X0085400Y0030573D01*
X0085297Y0038566D02*
X0088557Y0038566D01*
X0084523Y0040164D02*
X0084113Y0040164D01*
X0072200Y0043361D02*
X0071400Y0043361D01*
X0071400Y0044960D02*
X0072200Y0044960D01*
X0072200Y0046558D02*
X0071400Y0046558D01*
X0071400Y0048157D02*
X0072200Y0048157D01*
X0072200Y0049755D02*
X0071400Y0049755D01*
X0070970Y0051354D02*
X0072630Y0051354D01*
X0073847Y0052952D02*
X0069753Y0052952D01*
X0072774Y0056149D02*
X0054800Y0056149D01*
X0055039Y0057748D02*
X0071175Y0057748D01*
X0069577Y0059346D02*
X0055800Y0059346D01*
X0055705Y0060945D02*
X0067978Y0060945D01*
X0074372Y0054551D02*
X0055926Y0054551D01*
X0059753Y0052952D02*
X0063847Y0052952D01*
X0062630Y0051354D02*
X0060970Y0051354D01*
X0061400Y0049755D02*
X0062200Y0049755D01*
X0062200Y0048157D02*
X0061400Y0048157D01*
X0061400Y0046558D02*
X0062200Y0046558D01*
X0062200Y0044960D02*
X0061400Y0044960D01*
X0061400Y0043361D02*
X0062200Y0043361D01*
X0062831Y0041763D02*
X0060769Y0041763D01*
X0059077Y0040164D02*
X0064523Y0040164D01*
X0068200Y0036967D02*
X0057310Y0036967D01*
X0058908Y0035369D02*
X0068200Y0035369D01*
X0068200Y0033770D02*
X0060507Y0033770D01*
X0062105Y0032172D02*
X0068200Y0032172D01*
X0068200Y0030573D02*
X0063704Y0030573D01*
X0064400Y0028975D02*
X0068200Y0028975D01*
X0068099Y0027376D02*
X0064400Y0027376D01*
X0064400Y0025778D02*
X0066501Y0025778D01*
X0064307Y0024179D02*
X0063856Y0024179D01*
X0071060Y0022581D02*
X0072540Y0022581D01*
X0072256Y0024179D02*
X0074307Y0024179D01*
X0071878Y0020982D02*
X0071722Y0020982D01*
X0071800Y0019384D02*
X0071800Y0019384D01*
X0071800Y0017785D02*
X0071800Y0017785D01*
X0071800Y0016187D02*
X0071800Y0016187D01*
X0071800Y0014588D02*
X0071800Y0014588D01*
X0071800Y0012990D02*
X0071800Y0012990D01*
X0071214Y0011391D02*
X0072386Y0011391D01*
X0070916Y0009793D02*
X0069864Y0009793D01*
X0075072Y0006596D02*
X0076119Y0006596D01*
X0076671Y0008194D02*
X0077717Y0008194D01*
X0060326Y0004997D02*
X0003600Y0004997D01*
X0003600Y0006596D02*
X0058728Y0006596D01*
X0057129Y0008194D02*
X0003600Y0008194D01*
X0003600Y0009793D02*
X0013736Y0009793D01*
X0012386Y0011391D02*
X0003600Y0011391D01*
X0003600Y0012990D02*
X0011800Y0012990D01*
X0011800Y0014588D02*
X0003600Y0014588D01*
X0003600Y0016187D02*
X0011800Y0016187D01*
X0011800Y0017785D02*
X0003600Y0017785D01*
X0003600Y0019384D02*
X0011800Y0019384D01*
X0011878Y0020982D02*
X0003600Y0020982D01*
X0003600Y0022581D02*
X0012540Y0022581D01*
X0014307Y0024179D02*
X0003600Y0024179D01*
X0003600Y0025778D02*
X0019745Y0025778D01*
X0019293Y0024179D02*
X0021344Y0024179D01*
X0021060Y0022581D02*
X0022540Y0022581D01*
X0021878Y0020982D02*
X0021722Y0020982D01*
X0021800Y0019384D02*
X0021800Y0019384D01*
X0021800Y0017785D02*
X0021800Y0017785D01*
X0021800Y0016187D02*
X0021800Y0016187D01*
X0021800Y0014588D02*
X0021800Y0014588D01*
X0021800Y0012990D02*
X0021800Y0012990D01*
X0021214Y0011391D02*
X0022386Y0011391D01*
X0023736Y0009793D02*
X0019864Y0009793D01*
X0029864Y0009793D02*
X0033736Y0009793D01*
X0032386Y0011391D02*
X0031214Y0011391D01*
X0031800Y0012990D02*
X0031800Y0012990D01*
X0031800Y0014588D02*
X0031800Y0014588D01*
X0031800Y0016187D02*
X0031800Y0016187D01*
X0031800Y0017785D02*
X0031800Y0017785D01*
X0031800Y0019384D02*
X0031800Y0019384D01*
X0031722Y0020982D02*
X0031878Y0020982D01*
X0032540Y0022581D02*
X0031060Y0022581D01*
X0029293Y0024179D02*
X0034307Y0024179D01*
X0031145Y0025778D02*
X0027099Y0025778D01*
X0025501Y0027376D02*
X0029547Y0027376D01*
X0027948Y0028975D02*
X0023902Y0028975D01*
X0022304Y0030573D02*
X0026350Y0030573D01*
X0024751Y0032172D02*
X0020705Y0032172D01*
X0019107Y0033770D02*
X0023153Y0033770D01*
X0021554Y0035369D02*
X0017508Y0035369D01*
X0015910Y0036967D02*
X0019956Y0036967D01*
X0018357Y0038566D02*
X0014311Y0038566D01*
X0014523Y0040164D02*
X0012713Y0040164D01*
X0012831Y0041763D02*
X0012200Y0041763D01*
X0012200Y0043361D02*
X0012200Y0043361D01*
X0012200Y0044960D02*
X0012200Y0044960D01*
X0012200Y0046558D02*
X0012200Y0046558D01*
X0012200Y0048157D02*
X0012200Y0048157D01*
X0012200Y0049755D02*
X0012200Y0049755D01*
X0012200Y0051354D02*
X0012630Y0051354D01*
X0012200Y0052952D02*
X0013847Y0052952D01*
X0012200Y0054551D02*
X0018572Y0054551D01*
X0019753Y0052952D02*
X0020171Y0052952D01*
X0020970Y0051354D02*
X0021769Y0051354D01*
X0021400Y0049755D02*
X0022200Y0049755D01*
X0022200Y0048157D02*
X0021400Y0048157D01*
X0021400Y0046558D02*
X0022200Y0046558D01*
X0022200Y0044960D02*
X0021400Y0044960D01*
X0021400Y0043361D02*
X0022200Y0043361D01*
X0022514Y0041763D02*
X0022831Y0041763D01*
X0024113Y0040164D02*
X0024523Y0040164D01*
X0025711Y0038566D02*
X0048357Y0038566D01*
X0049956Y0036967D02*
X0027310Y0036967D01*
X0028908Y0035369D02*
X0051554Y0035369D01*
X0053153Y0033770D02*
X0030507Y0033770D01*
X0032105Y0032172D02*
X0054751Y0032172D01*
X0055482Y0030573D02*
X0033704Y0030573D01*
X0039293Y0024179D02*
X0044307Y0024179D01*
X0042540Y0022581D02*
X0041060Y0022581D01*
X0041722Y0020982D02*
X0041878Y0020982D01*
X0041800Y0019384D02*
X0041800Y0019384D01*
X0041800Y0017785D02*
X0041800Y0017785D01*
X0041800Y0016187D02*
X0041800Y0016187D01*
X0041800Y0014588D02*
X0041800Y0014588D01*
X0041800Y0012990D02*
X0041800Y0012990D01*
X0041214Y0011391D02*
X0042386Y0011391D01*
X0043736Y0009793D02*
X0039864Y0009793D01*
X0049864Y0009793D02*
X0053736Y0009793D01*
X0052386Y0011391D02*
X0051214Y0011391D01*
X0051800Y0012990D02*
X0051800Y0012990D01*
X0051800Y0014588D02*
X0051800Y0014588D01*
X0051800Y0016187D02*
X0051800Y0016187D01*
X0051800Y0017785D02*
X0051800Y0017785D01*
X0051800Y0019384D02*
X0051800Y0019384D01*
X0051722Y0020982D02*
X0051878Y0020982D01*
X0052540Y0022581D02*
X0051060Y0022581D01*
X0049293Y0024179D02*
X0054307Y0024179D01*
X0049600Y0056149D02*
X0046626Y0056149D01*
X0048225Y0057748D02*
X0049361Y0057748D01*
X0072202Y0081726D02*
X0072784Y0081726D01*
X0073801Y0083324D02*
X0074253Y0083324D01*
X0075400Y0084923D02*
X0077046Y0084923D01*
X0105600Y0062543D02*
X0110814Y0062543D01*
X0111600Y0060945D02*
X0105294Y0060945D01*
X0104600Y0059346D02*
X0111600Y0059346D01*
X0111600Y0057748D02*
X0104600Y0057748D01*
X0104600Y0056149D02*
X0111600Y0056149D01*
X0119179Y0070536D02*
X0123959Y0070536D01*
X0122677Y0072134D02*
X0120777Y0072134D01*
X0129641Y0070536D02*
X0133959Y0070536D01*
X0134194Y0070300D02*
X0135885Y0069600D01*
X0137715Y0069600D01*
X0139406Y0070300D01*
X0140700Y0071594D01*
X0141400Y0073285D01*
X0141400Y0080315D01*
X0140700Y0082006D01*
X0139406Y0083300D01*
X0137715Y0084000D01*
X0135885Y0084000D01*
X0134194Y0083300D01*
X0132900Y0082006D01*
X0132200Y0080315D01*
X0132200Y0073285D01*
X0132900Y0071594D01*
X0134194Y0070300D01*
X0132677Y0072134D02*
X0130923Y0072134D01*
X0131400Y0073733D02*
X0132200Y0073733D01*
X0132200Y0075332D02*
X0131400Y0075332D01*
X0131400Y0076930D02*
X0132200Y0076930D01*
X0132200Y0078529D02*
X0131400Y0078529D01*
X0131400Y0080127D02*
X0132200Y0080127D01*
X0132784Y0081726D02*
X0130816Y0081726D01*
X0131581Y0083324D02*
X0134253Y0083324D01*
X0139347Y0083324D02*
X0144253Y0083324D01*
X0144194Y0083300D02*
X0142900Y0082006D01*
X0142200Y0080315D01*
X0142200Y0073285D01*
X0142900Y0071594D01*
X0144194Y0070300D01*
X0145885Y0069600D01*
X0147715Y0069600D01*
X0149406Y0070300D01*
X0150700Y0071594D01*
X0151400Y0073285D01*
X0151400Y0080315D01*
X0150700Y0082006D01*
X0149406Y0083300D01*
X0147715Y0084000D01*
X0145885Y0084000D01*
X0144194Y0083300D01*
X0142784Y0081726D02*
X0140816Y0081726D01*
X0141400Y0080127D02*
X0142200Y0080127D01*
X0142200Y0078529D02*
X0141400Y0078529D01*
X0141400Y0076930D02*
X0142200Y0076930D01*
X0142200Y0075332D02*
X0141400Y0075332D01*
X0141400Y0073733D02*
X0142200Y0073733D01*
X0142677Y0072134D02*
X0140923Y0072134D01*
X0139641Y0070536D02*
X0143959Y0070536D01*
X0149641Y0070536D02*
X0153959Y0070536D01*
X0154194Y0070300D02*
X0155885Y0069600D01*
X0157715Y0069600D01*
X0159406Y0070300D01*
X0160700Y0071594D01*
X0161400Y0073285D01*
X0161400Y0080315D01*
X0160700Y0082006D01*
X0159406Y0083300D01*
X0157715Y0084000D01*
X0155885Y0084000D01*
X0154194Y0083300D01*
X0152900Y0082006D01*
X0152200Y0080315D01*
X0152200Y0073285D01*
X0152900Y0071594D01*
X0154194Y0070300D01*
X0152677Y0072134D02*
X0150923Y0072134D01*
X0151400Y0073733D02*
X0152200Y0073733D01*
X0152200Y0075332D02*
X0151400Y0075332D01*
X0151400Y0076930D02*
X0152200Y0076930D01*
X0152200Y0078529D02*
X0151400Y0078529D01*
X0151400Y0080127D02*
X0152200Y0080127D01*
X0152784Y0081726D02*
X0150816Y0081726D01*
X0149347Y0083324D02*
X0154253Y0083324D01*
X0159347Y0083324D02*
X0159599Y0083324D01*
X0160816Y0081726D02*
X0161197Y0081726D01*
X0161400Y0080127D02*
X0162200Y0080127D01*
X0162200Y0078529D02*
X0161400Y0078529D01*
X0161400Y0076930D02*
X0162200Y0076930D01*
X0162200Y0075332D02*
X0161400Y0075332D01*
X0161400Y0073733D02*
X0162200Y0073733D01*
X0162677Y0072134D02*
X0160923Y0072134D01*
X0159641Y0070536D02*
X0163959Y0070536D01*
X0171019Y0064142D02*
X0191200Y0064142D01*
X0191200Y0065740D02*
X0172617Y0065740D01*
X0174216Y0067339D02*
X0191200Y0067339D01*
X0190786Y0068937D02*
X0175814Y0068937D01*
X0179641Y0070536D02*
X0183959Y0070536D01*
X0182677Y0072134D02*
X0180923Y0072134D01*
X0181400Y0073733D02*
X0182200Y0073733D01*
X0182200Y0075332D02*
X0181400Y0075332D01*
X0181400Y0076930D02*
X0182200Y0076930D01*
X0182200Y0078529D02*
X0181400Y0078529D01*
X0181400Y0080127D02*
X0182200Y0080127D01*
X0182784Y0081726D02*
X0180816Y0081726D01*
X0179347Y0083324D02*
X0184253Y0083324D01*
X0189347Y0083324D02*
X0196850Y0083324D01*
X0196850Y0081726D02*
X0190816Y0081726D01*
X0191400Y0080127D02*
X0196850Y0080127D01*
X0196850Y0078529D02*
X0191400Y0078529D01*
X0191400Y0076930D02*
X0196850Y0076930D01*
X0196850Y0075332D02*
X0191745Y0075332D01*
X0193344Y0073733D02*
X0196850Y0073733D01*
X0196850Y0072134D02*
X0194942Y0072134D01*
X0196227Y0070536D02*
X0196850Y0070536D01*
X0196850Y0068937D02*
X0196400Y0068937D01*
X0196400Y0067339D02*
X0196850Y0067339D01*
X0196850Y0065740D02*
X0196400Y0065740D01*
X0196400Y0064142D02*
X0196850Y0064142D01*
X0196850Y0062543D02*
X0196400Y0062543D01*
X0196400Y0060945D02*
X0196850Y0060945D01*
X0196850Y0059346D02*
X0196400Y0059346D01*
X0196400Y0057748D02*
X0196850Y0057748D01*
X0196850Y0056149D02*
X0196400Y0056149D01*
X0196400Y0054551D02*
X0196850Y0054551D01*
X0196850Y0052952D02*
X0196400Y0052952D01*
X0196400Y0051354D02*
X0196850Y0051354D01*
X0196850Y0049755D02*
X0196400Y0049755D01*
X0196400Y0048157D02*
X0196850Y0048157D01*
X0196850Y0046558D02*
X0196400Y0046558D01*
X0196400Y0044960D02*
X0196850Y0044960D01*
X0196850Y0043361D02*
X0196400Y0043361D01*
X0196400Y0041763D02*
X0196850Y0041763D01*
X0196850Y0040164D02*
X0196400Y0040164D01*
X0196400Y0038566D02*
X0196850Y0038566D01*
X0196850Y0036967D02*
X0196400Y0036967D01*
X0196400Y0035369D02*
X0196850Y0035369D01*
X0196850Y0033770D02*
X0196400Y0033770D01*
X0196400Y0032172D02*
X0196850Y0032172D01*
X0196850Y0030573D02*
X0196400Y0030573D01*
X0196400Y0028975D02*
X0196850Y0028975D01*
X0196850Y0027376D02*
X0196400Y0027376D01*
X0196108Y0025778D02*
X0196850Y0025778D01*
X0196850Y0024179D02*
X0194656Y0024179D01*
X0193058Y0022581D02*
X0196850Y0022581D01*
X0196850Y0020982D02*
X0191722Y0020982D01*
X0191800Y0019384D02*
X0196850Y0019384D01*
X0196850Y0017785D02*
X0191800Y0017785D01*
X0191800Y0016187D02*
X0196850Y0016187D01*
X0196850Y0014588D02*
X0191800Y0014588D01*
X0191800Y0012990D02*
X0196850Y0012990D01*
X0196850Y0011391D02*
X0191214Y0011391D01*
X0189864Y0009793D02*
X0196850Y0009793D01*
X0196850Y0008194D02*
X0181671Y0008194D01*
X0180072Y0006596D02*
X0196850Y0006596D01*
X0196850Y0004997D02*
X0178474Y0004997D01*
X0173736Y0009793D02*
X0169864Y0009793D01*
X0171214Y0011391D02*
X0172386Y0011391D01*
X0171800Y0012990D02*
X0171800Y0012990D01*
X0171800Y0014588D02*
X0171800Y0014588D01*
X0171800Y0016187D02*
X0171800Y0016187D01*
X0171800Y0017785D02*
X0171800Y0017785D01*
X0171800Y0019384D02*
X0171800Y0019384D01*
X0171722Y0020982D02*
X0171878Y0020982D01*
X0172540Y0022581D02*
X0171060Y0022581D01*
X0171344Y0024179D02*
X0169293Y0024179D01*
X0169745Y0025778D02*
X0166299Y0025778D01*
X0164701Y0027376D02*
X0168147Y0027376D01*
X0166548Y0028975D02*
X0163102Y0028975D01*
X0164950Y0030573D02*
X0140504Y0030573D01*
X0138905Y0032172D02*
X0163351Y0032172D01*
X0161753Y0033770D02*
X0137307Y0033770D01*
X0135708Y0035369D02*
X0140354Y0035369D01*
X0138756Y0036967D02*
X0134110Y0036967D01*
X0132511Y0038566D02*
X0137157Y0038566D01*
X0134523Y0040164D02*
X0130913Y0040164D01*
X0130769Y0041763D02*
X0132831Y0041763D01*
X0132200Y0043361D02*
X0131400Y0043361D01*
X0131400Y0049755D02*
X0132200Y0049755D01*
X0132630Y0051354D02*
X0130970Y0051354D01*
X0129753Y0052952D02*
X0133847Y0052952D01*
X0139753Y0052952D02*
X0143847Y0052952D01*
X0144194Y0053300D02*
X0142900Y0052006D01*
X0142200Y0050315D01*
X0142200Y0043285D01*
X0142900Y0041594D01*
X0144194Y0040300D01*
X0145885Y0039600D01*
X0147715Y0039600D01*
X0149406Y0040300D01*
X0150700Y0041594D01*
X0151400Y0043285D01*
X0151400Y0050315D01*
X0150700Y0052006D01*
X0149406Y0053300D01*
X0147715Y0054000D01*
X0145885Y0054000D01*
X0144194Y0053300D01*
X0142630Y0051354D02*
X0140970Y0051354D01*
X0141400Y0049755D02*
X0142200Y0049755D01*
X0142200Y0048157D02*
X0141400Y0048157D01*
X0141400Y0046558D02*
X0142200Y0046558D01*
X0142200Y0044960D02*
X0141400Y0044960D01*
X0141400Y0043361D02*
X0142200Y0043361D01*
X0142831Y0041763D02*
X0141314Y0041763D01*
X0142913Y0040164D02*
X0144523Y0040164D01*
X0149077Y0040164D02*
X0154523Y0040164D01*
X0152831Y0041763D02*
X0150769Y0041763D01*
X0151400Y0043361D02*
X0152200Y0043361D01*
X0152200Y0044960D02*
X0151400Y0044960D01*
X0151400Y0046558D02*
X0152200Y0046558D01*
X0152200Y0048157D02*
X0151400Y0048157D01*
X0151400Y0049755D02*
X0152200Y0049755D01*
X0151369Y0051354D02*
X0150970Y0051354D01*
X0149771Y0052952D02*
X0149753Y0052952D01*
X0153928Y0056149D02*
X0191200Y0056149D01*
X0191200Y0054551D02*
X0155526Y0054551D01*
X0159753Y0052952D02*
X0163847Y0052952D01*
X0164194Y0053300D02*
X0162900Y0052006D01*
X0162200Y0050315D01*
X0162200Y0043285D01*
X0162900Y0041594D01*
X0164194Y0040300D01*
X0165885Y0039600D01*
X0167715Y0039600D01*
X0169406Y0040300D01*
X0170700Y0041594D01*
X0171400Y0043285D01*
X0171400Y0050315D01*
X0170700Y0052006D01*
X0169406Y0053300D01*
X0167715Y0054000D01*
X0165885Y0054000D01*
X0164194Y0053300D01*
X0162630Y0051354D02*
X0160970Y0051354D01*
X0161400Y0049755D02*
X0162200Y0049755D01*
X0162200Y0048157D02*
X0161400Y0048157D01*
X0161400Y0046558D02*
X0162200Y0046558D01*
X0162200Y0044960D02*
X0161400Y0044960D01*
X0161400Y0043361D02*
X0162200Y0043361D01*
X0162831Y0041763D02*
X0160769Y0041763D01*
X0159077Y0040164D02*
X0164523Y0040164D01*
X0164311Y0038566D02*
X0178557Y0038566D01*
X0179200Y0036967D02*
X0165910Y0036967D01*
X0167508Y0035369D02*
X0179200Y0035369D01*
X0179200Y0033770D02*
X0169107Y0033770D01*
X0170705Y0032172D02*
X0179200Y0032172D01*
X0179200Y0030573D02*
X0172304Y0030573D01*
X0173902Y0028975D02*
X0179200Y0028975D01*
X0179200Y0027376D02*
X0175501Y0027376D01*
X0177099Y0025778D02*
X0178101Y0025778D01*
X0183856Y0024179D02*
X0184307Y0024179D01*
X0184400Y0025778D02*
X0188901Y0025778D01*
X0190499Y0027376D02*
X0184400Y0027376D01*
X0184400Y0028975D02*
X0191200Y0028975D01*
X0191200Y0030573D02*
X0184400Y0030573D01*
X0184400Y0032172D02*
X0191200Y0032172D01*
X0191200Y0033770D02*
X0184400Y0033770D01*
X0184400Y0035369D02*
X0191200Y0035369D01*
X0191200Y0036967D02*
X0184400Y0036967D01*
X0184400Y0038566D02*
X0191200Y0038566D01*
X0191200Y0040164D02*
X0188571Y0040164D01*
X0188489Y0040122D02*
X0189106Y0040437D01*
X0189666Y0040844D01*
X0190156Y0041334D01*
X0190563Y0041894D01*
X0190878Y0042511D01*
X0191092Y0043170D01*
X0191200Y0043854D01*
X0191200Y0046800D01*
X0191200Y0049746D01*
X0191092Y0050430D01*
X0190878Y0051089D01*
X0190563Y0051706D01*
X0190156Y0052266D01*
X0189666Y0052756D01*
X0189106Y0053163D01*
X0188489Y0053478D01*
X0187830Y0053692D01*
X0187146Y0053800D01*
X0186800Y0053800D01*
X0186800Y0046800D01*
X0191200Y0046800D01*
X0186800Y0046800D01*
X0186800Y0046800D01*
X0186800Y0046800D01*
X0186800Y0039800D01*
X0187146Y0039800D01*
X0187830Y0039908D01*
X0188489Y0040122D01*
X0186800Y0040164D02*
X0186800Y0040164D01*
X0186800Y0039800D02*
X0186800Y0046800D01*
X0186800Y0046800D01*
X0186800Y0046800D01*
X0182400Y0046800D01*
X0182400Y0049746D01*
X0182508Y0050430D01*
X0182722Y0051089D01*
X0183037Y0051706D01*
X0183444Y0052266D01*
X0183934Y0052756D01*
X0184494Y0053163D01*
X0185111Y0053478D01*
X0185770Y0053692D01*
X0186454Y0053800D01*
X0186800Y0053800D01*
X0186800Y0046800D01*
X0182400Y0046800D01*
X0182400Y0043854D01*
X0182508Y0043170D01*
X0182722Y0042511D01*
X0183037Y0041894D01*
X0183444Y0041334D01*
X0183934Y0040844D01*
X0184494Y0040437D01*
X0185111Y0040122D01*
X0185770Y0039908D01*
X0186454Y0039800D01*
X0186800Y0039800D01*
X0185029Y0040164D02*
X0184132Y0040164D01*
X0183132Y0041763D02*
X0182714Y0041763D01*
X0182478Y0043361D02*
X0181400Y0043361D01*
X0181400Y0044960D02*
X0182400Y0044960D01*
X0182400Y0046558D02*
X0181400Y0046558D01*
X0181400Y0048157D02*
X0182400Y0048157D01*
X0182401Y0049755D02*
X0181400Y0049755D01*
X0180970Y0051354D02*
X0182857Y0051354D01*
X0184204Y0052952D02*
X0179753Y0052952D01*
X0173847Y0052952D02*
X0169753Y0052952D01*
X0170970Y0051354D02*
X0172630Y0051354D01*
X0172200Y0049755D02*
X0171400Y0049755D01*
X0171400Y0048157D02*
X0172200Y0048157D01*
X0172200Y0046558D02*
X0171400Y0046558D01*
X0171400Y0044960D02*
X0172200Y0044960D01*
X0172200Y0043361D02*
X0171400Y0043361D01*
X0170769Y0041763D02*
X0172831Y0041763D01*
X0174523Y0040164D02*
X0169077Y0040164D01*
X0159723Y0025000D02*
X0162423Y0022300D01*
X0161800Y0020795D01*
X0161800Y0012805D01*
X0161800Y0020795D01*
X0161039Y0022632D01*
X0159632Y0024039D01*
X0157795Y0024800D01*
X0155805Y0024800D01*
X0153968Y0024039D01*
X0152561Y0022632D01*
X0151800Y0020795D01*
X0151800Y0019800D01*
X0147643Y0019800D01*
X0142443Y0025000D01*
X0159723Y0025000D01*
X0159293Y0024179D02*
X0160544Y0024179D01*
X0161060Y0022581D02*
X0162142Y0022581D01*
X0161878Y0020982D02*
X0161722Y0020982D01*
X0161800Y0019384D02*
X0161800Y0019384D01*
X0161800Y0017785D02*
X0161800Y0017785D01*
X0161800Y0016187D02*
X0161800Y0016187D01*
X0161800Y0014588D02*
X0161800Y0014588D01*
X0161800Y0012990D02*
X0161800Y0012990D01*
X0161214Y0011391D02*
X0162386Y0011391D01*
X0163736Y0009793D02*
X0159864Y0009793D01*
X0153736Y0009793D02*
X0134864Y0009793D01*
X0136214Y0011391D02*
X0152386Y0011391D01*
X0151800Y0012990D02*
X0136800Y0012990D01*
X0136800Y0014588D02*
X0144369Y0014588D01*
X0142771Y0016187D02*
X0136800Y0016187D01*
X0136800Y0017785D02*
X0141172Y0017785D01*
X0139574Y0019384D02*
X0136800Y0019384D01*
X0136722Y0020982D02*
X0137975Y0020982D01*
X0136377Y0022581D02*
X0136060Y0022581D01*
X0134778Y0024179D02*
X0134293Y0024179D01*
X0133180Y0025778D02*
X0132099Y0025778D01*
X0131581Y0027376D02*
X0130501Y0027376D01*
X0129983Y0028975D02*
X0129502Y0028975D01*
X0128384Y0030573D02*
X0127904Y0030573D01*
X0126786Y0032172D02*
X0126305Y0032172D01*
X0143263Y0024179D02*
X0154307Y0024179D01*
X0152540Y0022581D02*
X0144862Y0022581D01*
X0146460Y0020982D02*
X0151878Y0020982D01*
X0183269Y0009793D02*
X0183736Y0009793D01*
X0186800Y0041763D02*
X0186800Y0041763D01*
X0186800Y0043361D02*
X0186800Y0043361D01*
X0186800Y0044960D02*
X0186800Y0044960D01*
X0186800Y0046558D02*
X0186800Y0046558D01*
X0186800Y0048157D02*
X0186800Y0048157D01*
X0186800Y0049755D02*
X0186800Y0049755D01*
X0186800Y0051354D02*
X0186800Y0051354D01*
X0186800Y0052952D02*
X0186800Y0052952D01*
X0189396Y0052952D02*
X0191200Y0052952D01*
X0191200Y0051354D02*
X0190743Y0051354D01*
X0191199Y0049755D02*
X0191200Y0049755D01*
X0191200Y0048157D02*
X0191200Y0048157D01*
X0191200Y0046558D02*
X0191200Y0046558D01*
X0191200Y0044960D02*
X0191200Y0044960D01*
X0191200Y0043361D02*
X0191122Y0043361D01*
X0191200Y0041763D02*
X0190468Y0041763D01*
X0191200Y0057748D02*
X0164625Y0057748D01*
X0166223Y0059346D02*
X0191200Y0059346D01*
X0191200Y0060945D02*
X0167822Y0060945D01*
X0169420Y0062543D02*
X0191200Y0062543D01*
X0181965Y0102506D02*
X0181005Y0102506D01*
X0181005Y0104105D02*
X0181965Y0104105D01*
X0181965Y0105703D02*
X0181005Y0105703D01*
X0181005Y0107302D02*
X0181965Y0107302D01*
X0132622Y0113696D02*
X0123981Y0113696D01*
X0122383Y0115294D02*
X0131742Y0115294D01*
X0123021Y0107302D02*
X0118400Y0107302D01*
X0118400Y0108900D02*
X0121423Y0108900D01*
X0119824Y0110499D02*
X0118400Y0110499D01*
X0118400Y0111923D02*
X0124600Y0105723D01*
X0124600Y0097291D01*
X0124148Y0096839D01*
X0123600Y0095516D01*
X0123600Y0094084D01*
X0124148Y0092761D01*
X0125161Y0091748D01*
X0125263Y0091706D01*
X0123557Y0090000D01*
X0123003Y0090000D01*
X0121901Y0089543D01*
X0118400Y0086043D01*
X0118400Y0111923D01*
X0118400Y0105703D02*
X0124600Y0105703D01*
X0124600Y0104105D02*
X0118400Y0104105D01*
X0118400Y0102506D02*
X0124600Y0102506D01*
X0124600Y0100908D02*
X0118400Y0100908D01*
X0118400Y0099309D02*
X0124600Y0099309D01*
X0124600Y0097711D02*
X0118400Y0097711D01*
X0118400Y0096112D02*
X0123847Y0096112D01*
X0123600Y0094514D02*
X0118400Y0094514D01*
X0118400Y0092915D02*
X0124084Y0092915D01*
X0124874Y0091317D02*
X0118400Y0091317D01*
X0118400Y0089718D02*
X0122323Y0089718D01*
X0120477Y0088120D02*
X0118400Y0088120D01*
X0118400Y0086521D02*
X0118878Y0086521D01*
X0032200Y0169644D02*
X0028400Y0169644D01*
X0028400Y0171242D02*
X0032200Y0171242D01*
X0032200Y0172841D02*
X0028400Y0172841D01*
X0028400Y0174439D02*
X0032200Y0174439D01*
X0032200Y0176038D02*
X0028400Y0176038D01*
X0028400Y0177636D02*
X0032200Y0177636D01*
X0032200Y0179235D02*
X0028400Y0179235D01*
X0028400Y0180833D02*
X0032200Y0180833D01*
X0032200Y0182432D02*
X0028400Y0182432D01*
X0028400Y0184030D02*
X0031893Y0184030D01*
X0030294Y0185629D02*
X0028271Y0185629D01*
X0027367Y0187227D02*
X0027050Y0187227D01*
X0025769Y0188826D02*
X0025451Y0188826D01*
X0024700Y0190424D02*
X0023900Y0190424D01*
X0023900Y0192023D02*
X0024700Y0192023D01*
X0024700Y0193621D02*
X0023900Y0193621D01*
X0022385Y0195220D02*
X0026214Y0195220D01*
X0004600Y0086521D02*
X0003600Y0086521D01*
X0003600Y0084923D02*
X0004600Y0084923D01*
X0004600Y0083324D02*
X0003600Y0083324D01*
X0003600Y0081726D02*
X0004600Y0081726D01*
X0004600Y0080127D02*
X0003600Y0080127D01*
X0003600Y0078529D02*
X0004600Y0078529D01*
X0004600Y0076930D02*
X0003600Y0076930D01*
X0003600Y0075332D02*
X0004600Y0075332D01*
X0003842Y0073733D02*
X0003600Y0073733D01*
X0003600Y0067339D02*
X0004948Y0067339D01*
X0003600Y0065740D02*
X0007000Y0065740D01*
X0007000Y0064142D02*
X0003600Y0064142D01*
X0003600Y0062543D02*
X0007000Y0062543D01*
X0007000Y0060945D02*
X0003600Y0060945D01*
X0003600Y0059346D02*
X0007000Y0059346D01*
X0007000Y0057748D02*
X0003600Y0057748D01*
X0003600Y0056149D02*
X0007000Y0056149D01*
X0007000Y0054551D02*
X0003600Y0054551D01*
X0003600Y0052952D02*
X0007000Y0052952D01*
X0007000Y0051354D02*
X0003600Y0051354D01*
X0003600Y0049755D02*
X0007000Y0049755D01*
X0007000Y0048157D02*
X0003600Y0048157D01*
X0003600Y0046558D02*
X0007000Y0046558D01*
X0007000Y0044960D02*
X0003600Y0044960D01*
X0003600Y0043361D02*
X0007000Y0043361D01*
X0007000Y0041763D02*
X0003600Y0041763D01*
X0003600Y0040164D02*
X0007000Y0040164D01*
X0007214Y0038566D02*
X0003600Y0038566D01*
X0003600Y0036967D02*
X0008556Y0036967D01*
X0010154Y0035369D02*
X0003600Y0035369D01*
X0003600Y0033770D02*
X0011753Y0033770D01*
X0013351Y0032172D02*
X0003600Y0032172D01*
X0003600Y0030573D02*
X0014950Y0030573D01*
X0016548Y0028975D02*
X0003600Y0028975D01*
X0003600Y0027376D02*
X0018147Y0027376D01*
X0016974Y0056149D02*
X0012200Y0056149D01*
X0012200Y0057748D02*
X0015375Y0057748D01*
X0013777Y0059346D02*
X0012200Y0059346D01*
D19*
X0021800Y0109300D03*
X0036800Y0109300D03*
X0051800Y0109300D03*
X0094300Y0109300D03*
X0121800Y0104300D03*
X0086800Y0036800D03*
X0076800Y0036800D03*
X0006800Y0006800D03*
X0194300Y0006800D03*
X0194300Y0194300D03*
X0006800Y0194300D03*
D20*
X0118800Y0082200D02*
X0123600Y0087000D01*
X0124800Y0087000D01*
X0138600Y0100800D01*
X0138600Y0106200D01*
X0139300Y0106800D01*
X0144300Y0106800D01*
X0149300Y0111800D01*
X0157863Y0111800D01*
X0157863Y0108650D01*
X0157863Y0111800D02*
X0157863Y0114950D01*
X0118800Y0082200D02*
X0118800Y0076800D01*
X0120000Y0075600D01*
X0111000Y0066600D01*
X0114600Y0063000D01*
X0114600Y0045600D01*
X0123600Y0036600D01*
X0126600Y0036600D01*
X0146400Y0016800D01*
X0156800Y0016800D01*
X0111000Y0066600D02*
X0023400Y0066600D01*
X0016800Y0073200D01*
X0016800Y0076800D01*
X0120000Y0075600D02*
X0121200Y0076800D01*
X0126800Y0076800D01*
D21*
X0129600Y0086400D02*
X0130200Y0087000D01*
X0159600Y0087000D01*
X0166800Y0079800D01*
X0166800Y0076800D01*
X0176400Y0076800D02*
X0176400Y0073200D01*
X0162600Y0059400D01*
X0126600Y0059400D01*
X0117600Y0050400D01*
X0117600Y0046800D01*
X0124800Y0039600D01*
X0127800Y0039600D01*
X0139800Y0027600D01*
X0160800Y0027600D01*
X0166800Y0021600D01*
X0166800Y0016800D01*
X0175200Y0023400D02*
X0175200Y0024000D01*
X0162600Y0036600D01*
X0142800Y0036600D01*
X0136800Y0042600D01*
X0136800Y0046800D01*
X0126800Y0046800D01*
X0122400Y0049800D02*
X0122400Y0051600D01*
X0127800Y0057000D01*
X0149400Y0057000D01*
X0156600Y0049800D01*
X0156600Y0046800D01*
X0156800Y0046800D01*
X0176800Y0046800D02*
X0177000Y0046800D01*
X0177000Y0043800D01*
X0181800Y0039000D01*
X0181800Y0025800D01*
X0180000Y0024000D01*
X0180000Y0023400D01*
X0181800Y0021600D01*
X0181800Y0012000D01*
X0176400Y0006600D01*
X0175800Y0006600D01*
X0175200Y0006000D01*
X0174600Y0006000D01*
X0174000Y0006600D01*
X0169800Y0006600D01*
X0169200Y0006000D01*
X0164400Y0006000D01*
X0163800Y0006600D01*
X0159600Y0006600D01*
X0159000Y0006000D01*
X0154800Y0006000D01*
X0154200Y0006600D01*
X0134400Y0006600D01*
X0133800Y0006000D01*
X0129600Y0006000D01*
X0129000Y0006600D01*
X0124800Y0006600D01*
X0124200Y0006000D01*
X0119400Y0006000D01*
X0118800Y0006600D01*
X0114000Y0006600D01*
X0113400Y0006000D01*
X0110400Y0006000D01*
X0109800Y0006600D01*
X0098400Y0006600D01*
X0094500Y0010500D01*
X0094800Y0010800D01*
X0094800Y0036000D01*
X0087000Y0043800D01*
X0087000Y0046800D01*
X0086800Y0046800D01*
X0082200Y0043200D02*
X0080400Y0041400D01*
X0080400Y0040200D01*
X0082800Y0037800D01*
X0082800Y0026400D01*
X0085200Y0024000D01*
X0085200Y0022200D01*
X0086400Y0021000D01*
X0086400Y0016800D01*
X0086800Y0016800D01*
X0094500Y0010500D02*
X0090600Y0006600D01*
X0089400Y0006600D01*
X0088800Y0006000D01*
X0084600Y0006000D01*
X0084000Y0006600D01*
X0079800Y0006600D01*
X0076800Y0003600D01*
X0066600Y0003600D01*
X0063600Y0006600D01*
X0062400Y0006600D01*
X0057000Y0012000D01*
X0057000Y0016800D01*
X0056800Y0016800D01*
X0061800Y0012000D02*
X0061800Y0021600D01*
X0060000Y0023400D01*
X0060000Y0024000D01*
X0061800Y0025800D01*
X0061800Y0028800D01*
X0046800Y0043800D01*
X0046800Y0046800D01*
X0052200Y0054600D02*
X0052200Y0060000D01*
X0050400Y0063600D02*
X0069000Y0063600D01*
X0082200Y0050400D01*
X0082200Y0043200D01*
X0076800Y0043800D02*
X0076800Y0046800D01*
X0076800Y0043800D02*
X0070800Y0037800D01*
X0070800Y0026400D01*
X0068400Y0024000D01*
X0068400Y0022200D01*
X0067200Y0021000D01*
X0067200Y0016800D01*
X0066800Y0016800D01*
X0061800Y0012000D02*
X0067800Y0006000D01*
X0069000Y0006000D01*
X0069600Y0006600D01*
X0071400Y0006600D01*
X0076800Y0012000D01*
X0076800Y0016800D01*
X0057600Y0027600D02*
X0033000Y0027600D01*
X0016800Y0043800D01*
X0016800Y0046800D01*
X0009600Y0039600D02*
X0025200Y0024000D01*
X0025200Y0022200D01*
X0026400Y0021000D01*
X0026400Y0016800D01*
X0026800Y0016800D01*
X0009600Y0039600D02*
X0009600Y0082800D01*
X0013800Y0087000D01*
X0028800Y0087000D01*
X0028800Y0116400D01*
X0027600Y0117600D01*
X0027600Y0118800D01*
X0028800Y0120000D01*
X0028800Y0123000D01*
X0042000Y0136200D01*
X0097800Y0136200D01*
X0127200Y0106800D01*
X0127200Y0094800D01*
X0113400Y0096600D02*
X0113400Y0113400D01*
X0095400Y0131400D01*
X0072600Y0131400D01*
X0064800Y0123600D01*
X0064800Y0121800D01*
X0064300Y0121800D01*
X0069600Y0123600D02*
X0069600Y0115800D01*
X0070800Y0114600D01*
X0070800Y0093600D01*
X0057000Y0079800D01*
X0057000Y0076800D01*
X0056800Y0076800D01*
X0052200Y0080400D02*
X0050400Y0082200D01*
X0050400Y0083400D01*
X0051600Y0084600D01*
X0051600Y0102000D01*
X0034200Y0119400D01*
X0034200Y0121800D01*
X0034300Y0121800D01*
X0024300Y0121800D02*
X0024000Y0121800D01*
X0024000Y0119400D01*
X0007200Y0102600D01*
X0007200Y0072000D01*
X0006000Y0070800D01*
X0013200Y0063600D02*
X0026400Y0050400D01*
X0026400Y0046800D01*
X0026800Y0046800D01*
X0036800Y0046800D02*
X0037200Y0046800D01*
X0037200Y0050400D01*
X0050400Y0063600D01*
X0052200Y0070800D02*
X0052200Y0080400D01*
X0046800Y0079800D02*
X0046800Y0076800D01*
X0046800Y0079800D02*
X0039600Y0087000D01*
X0028800Y0087000D01*
X0055200Y0087000D02*
X0067200Y0099000D01*
X0067200Y0111000D01*
X0073200Y0118200D02*
X0074400Y0119400D01*
X0074400Y0121800D01*
X0074300Y0121800D01*
X0073200Y0118200D02*
X0073200Y0086400D01*
X0067200Y0080400D01*
X0067200Y0076800D01*
X0066800Y0076800D01*
X0076800Y0076800D02*
X0076800Y0081000D01*
X0094200Y0098400D01*
X0109800Y0098400D01*
X0113400Y0096600D02*
X0097200Y0080400D01*
X0097200Y0076800D01*
X0096800Y0076800D01*
X0102000Y0070800D02*
X0103200Y0069600D01*
X0108600Y0069600D01*
X0115800Y0076800D01*
X0115800Y0114600D01*
X0096600Y0133800D01*
X0065400Y0133800D01*
X0054600Y0123000D01*
X0054600Y0121800D01*
X0054300Y0121800D01*
X0069600Y0123600D02*
X0075000Y0129000D01*
X0078000Y0129000D01*
X0084000Y0123000D01*
X0084000Y0121800D01*
X0084300Y0121800D01*
X0094200Y0121800D02*
X0094200Y0119400D01*
X0076800Y0102000D01*
X0076800Y0090600D01*
X0087000Y0079800D02*
X0087000Y0076800D01*
X0086800Y0076800D01*
X0087000Y0079800D02*
X0102000Y0094800D01*
X0106200Y0094800D01*
X0094300Y0121800D02*
X0094200Y0121800D01*
X0116400Y0139200D02*
X0116400Y0145800D01*
X0114000Y0148200D01*
X0114000Y0149400D01*
X0112800Y0150600D01*
X0112800Y0151800D01*
X0112800Y0153000D01*
X0111600Y0154200D01*
X0111600Y0155400D01*
X0109200Y0157800D01*
X0109200Y0172800D01*
X0090600Y0191400D01*
X0089400Y0191400D01*
X0089300Y0191800D01*
X0085800Y0184800D02*
X0085800Y0168000D01*
X0090000Y0163800D01*
X0090000Y0161400D01*
X0089300Y0161800D01*
X0089400Y0161400D01*
X0089400Y0159600D01*
X0093600Y0155400D01*
X0093600Y0154800D01*
X0094200Y0154200D01*
X0094200Y0151800D01*
X0094300Y0151800D01*
X0084600Y0151800D02*
X0084300Y0151800D01*
X0084600Y0151800D02*
X0084600Y0154200D01*
X0079800Y0159000D01*
X0079800Y0161400D01*
X0079300Y0161800D01*
X0079800Y0162000D01*
X0079800Y0163800D01*
X0075600Y0168000D01*
X0075600Y0184800D01*
X0069600Y0190800D01*
X0069600Y0191400D01*
X0069300Y0191800D01*
X0064800Y0184800D02*
X0064800Y0168000D01*
X0069000Y0163800D01*
X0069000Y0162000D01*
X0069300Y0161800D01*
X0069600Y0161400D01*
X0069600Y0159000D01*
X0074400Y0154200D01*
X0074400Y0151800D01*
X0074300Y0151800D01*
X0064300Y0151800D02*
X0064200Y0151800D01*
X0064200Y0154200D01*
X0063600Y0154800D01*
X0063600Y0155400D01*
X0059400Y0159600D01*
X0059400Y0161400D01*
X0059300Y0161800D01*
X0060000Y0161400D01*
X0060000Y0163800D01*
X0055800Y0168000D01*
X0055800Y0184800D01*
X0049800Y0190800D01*
X0049800Y0191400D01*
X0049300Y0191800D01*
X0045600Y0184800D02*
X0045600Y0168000D01*
X0049800Y0163800D01*
X0049800Y0162000D01*
X0049300Y0161800D01*
X0049800Y0161400D01*
X0049800Y0159000D01*
X0054600Y0154200D01*
X0054600Y0151800D01*
X0054300Y0151800D01*
X0044400Y0151800D02*
X0044300Y0151800D01*
X0044400Y0151800D02*
X0044400Y0154200D01*
X0039600Y0159000D01*
X0039600Y0161400D01*
X0039300Y0161800D01*
X0039000Y0162000D01*
X0039000Y0163800D01*
X0034800Y0168000D01*
X0034800Y0184800D01*
X0029400Y0190200D01*
X0029400Y0191400D01*
X0029300Y0191800D01*
X0025800Y0184800D02*
X0025800Y0168000D01*
X0030000Y0163800D01*
X0030000Y0161400D01*
X0029300Y0161800D01*
X0029400Y0161400D01*
X0029400Y0159600D01*
X0033600Y0155400D01*
X0033600Y0154800D01*
X0034200Y0154200D01*
X0034200Y0151800D01*
X0034300Y0151800D01*
X0024300Y0151800D02*
X0024000Y0151800D01*
X0024000Y0153600D01*
X0019800Y0157800D01*
X0019800Y0158400D01*
X0018900Y0159300D01*
X0018600Y0159000D01*
X0018600Y0157800D01*
X0014400Y0153600D01*
X0014400Y0151800D01*
X0014300Y0151800D01*
X0018900Y0159300D02*
X0019200Y0159600D01*
X0019200Y0161400D01*
X0019300Y0161800D01*
X0025800Y0184800D02*
X0019800Y0190800D01*
X0019800Y0191400D01*
X0019300Y0191800D01*
X0039300Y0191800D02*
X0039600Y0191400D01*
X0039600Y0190800D01*
X0045600Y0184800D01*
X0059400Y0190200D02*
X0064800Y0184800D01*
X0059400Y0190200D02*
X0059400Y0191400D01*
X0059300Y0191800D01*
X0079300Y0191800D02*
X0079800Y0191400D01*
X0079800Y0190800D01*
X0085800Y0184800D01*
X0121800Y0184200D02*
X0127200Y0178800D01*
X0127200Y0175800D01*
X0131400Y0171600D01*
X0131400Y0169800D01*
X0131800Y0169300D01*
X0132000Y0169200D01*
X0132000Y0166800D01*
X0127800Y0162600D01*
X0127800Y0158400D01*
X0127500Y0158100D01*
X0127800Y0157800D01*
X0147000Y0157800D01*
X0147900Y0156900D01*
X0175800Y0184800D01*
X0175800Y0186600D01*
X0175934Y0186682D01*
X0147900Y0156900D02*
X0155400Y0149400D01*
X0156600Y0149400D01*
X0157036Y0149280D01*
X0127500Y0158100D02*
X0121200Y0151800D01*
X0120800Y0151800D01*
X0116400Y0139200D02*
X0121800Y0133800D01*
X0121800Y0131800D01*
X0121800Y0184200D02*
X0121800Y0186800D01*
X0176400Y0076800D02*
X0176800Y0076800D01*
X0186800Y0076800D02*
X0187200Y0076800D01*
X0188400Y0075600D01*
X0188400Y0075000D01*
X0193800Y0069600D01*
X0193800Y0027000D01*
X0187200Y0020400D01*
X0187200Y0016800D01*
X0186800Y0016800D01*
X0176800Y0016800D02*
X0176400Y0016800D01*
X0176400Y0022200D01*
X0175200Y0023400D01*
X0131400Y0021000D02*
X0131400Y0016800D01*
X0131800Y0016800D01*
X0131400Y0021000D02*
X0130200Y0022200D01*
X0130200Y0024000D01*
X0127800Y0026400D01*
X0127800Y0027000D01*
X0113400Y0041400D01*
X0111000Y0032400D02*
X0121800Y0021600D01*
X0121800Y0016800D01*
X0111000Y0032400D02*
X0098400Y0032400D01*
X0097200Y0046800D02*
X0096800Y0046800D01*
X0097200Y0046800D02*
X0097200Y0049800D01*
X0102000Y0054600D01*
X0102000Y0062400D01*
X0121200Y0048600D02*
X0122400Y0049800D01*
X0056800Y0046800D02*
X0056400Y0046800D01*
X0056400Y0050400D01*
X0052200Y0054600D01*
D22*
X0052200Y0060000D03*
X0052200Y0070800D03*
X0055200Y0087000D03*
X0076800Y0090600D03*
X0067200Y0111000D03*
X0106200Y0094800D03*
X0109800Y0098400D03*
X0127200Y0094800D03*
X0129600Y0086400D03*
X0102000Y0070800D03*
X0102000Y0062400D03*
X0121200Y0048600D03*
X0113400Y0041400D03*
X0098400Y0032400D03*
X0057600Y0027600D03*
X0013200Y0063600D03*
X0006000Y0070800D03*
M02*
