G75*
%MOIN*%
%OFA0B0*%
%FSLAX25Y25*%
%IPPOS*%
%LPD*%
%AMOC8*
5,1,8,0,0,1.08239X$1,22.5*
%
%ADD10C,0.00000*%
%ADD11C,0.00600*%
%ADD12C,0.01200*%
%ADD13C,0.01000*%
%ADD14R,0.02000X0.01500*%
%ADD15R,0.01500X0.02000*%
%ADD16R,1.18160X0.00166*%
%ADD17R,1.18160X0.00167*%
%ADD18R,0.04330X0.00166*%
%ADD19R,0.04660X0.00166*%
%ADD20R,0.09500X0.00166*%
%ADD21R,0.08160X0.00166*%
%ADD22R,0.02830X0.00166*%
%ADD23R,0.02000X0.00166*%
%ADD24R,0.05330X0.00166*%
%ADD25R,0.06670X0.00166*%
%ADD26R,0.02660X0.00166*%
%ADD27R,0.05000X0.00166*%
%ADD28R,0.06160X0.00166*%
%ADD29R,0.07670X0.00166*%
%ADD30R,0.08000X0.00166*%
%ADD31R,0.02840X0.00166*%
%ADD32R,0.07330X0.00166*%
%ADD33R,0.04000X0.00167*%
%ADD34R,0.03330X0.00167*%
%ADD35R,0.08170X0.00167*%
%ADD36R,0.06170X0.00167*%
%ADD37R,0.01500X0.00167*%
%ADD38R,0.01330X0.00167*%
%ADD39R,0.04670X0.00167*%
%ADD40R,0.05170X0.00167*%
%ADD41R,0.07170X0.00167*%
%ADD42R,0.01170X0.00167*%
%ADD43R,0.03670X0.00167*%
%ADD44R,0.05500X0.00167*%
%ADD45R,0.05670X0.00167*%
%ADD46R,0.06000X0.00167*%
%ADD47R,0.06500X0.00167*%
%ADD48R,0.02660X0.00167*%
%ADD49R,0.07500X0.00167*%
%ADD50R,0.01000X0.00167*%
%ADD51R,0.01160X0.00167*%
%ADD52R,0.04330X0.00167*%
%ADD53R,0.00670X0.00167*%
%ADD54R,0.03170X0.00167*%
%ADD55R,0.05160X0.00167*%
%ADD56R,0.05000X0.00167*%
%ADD57R,0.00840X0.00167*%
%ADD58R,0.07670X0.00167*%
%ADD59R,0.04000X0.00166*%
%ADD60R,0.02330X0.00166*%
%ADD61R,0.07170X0.00166*%
%ADD62R,0.00500X0.00166*%
%ADD63R,0.01160X0.00166*%
%ADD64R,0.03830X0.00166*%
%ADD65R,0.00330X0.00166*%
%ADD66R,0.03000X0.00166*%
%ADD67R,0.05160X0.00166*%
%ADD68R,0.04340X0.00166*%
%ADD69R,0.01170X0.00166*%
%ADD70R,0.05500X0.00166*%
%ADD71R,0.02000X0.00167*%
%ADD72R,0.06830X0.00167*%
%ADD73R,0.03830X0.00167*%
%ADD74R,0.00340X0.00167*%
%ADD75R,0.02830X0.00167*%
%ADD76R,0.05330X0.00167*%
%ADD77R,0.03500X0.00167*%
%ADD78R,0.03660X0.00167*%
%ADD79R,0.00170X0.00167*%
%ADD80R,0.07000X0.00167*%
%ADD81R,0.01830X0.00167*%
%ADD82R,0.06670X0.00167*%
%ADD83R,0.04160X0.00167*%
%ADD84R,0.02670X0.00167*%
%ADD85R,0.06330X0.00167*%
%ADD86R,0.03000X0.00167*%
%ADD87R,0.03340X0.00167*%
%ADD88R,0.03330X0.00166*%
%ADD89R,0.01660X0.00166*%
%ADD90R,0.06500X0.00166*%
%ADD91R,0.02500X0.00166*%
%ADD92R,0.03160X0.00166*%
%ADD93R,0.03500X0.00166*%
%ADD94R,0.03670X0.00166*%
%ADD95R,0.02340X0.00166*%
%ADD96R,0.06830X0.00166*%
%ADD97R,0.04830X0.00166*%
%ADD98R,0.03160X0.00167*%
%ADD99R,0.02330X0.00167*%
%ADD100R,0.07160X0.00167*%
%ADD101R,0.02160X0.00167*%
%ADD102R,0.02500X0.00167*%
%ADD103R,0.04660X0.00167*%
%ADD104R,0.07330X0.00167*%
%ADD105R,0.02340X0.00167*%
%ADD106R,0.04500X0.00167*%
%ADD107R,0.04160X0.00166*%
%ADD108R,0.01330X0.00166*%
%ADD109R,0.06000X0.00166*%
%ADD110R,0.07500X0.00166*%
%ADD111R,0.05670X0.00166*%
%ADD112R,0.02670X0.00166*%
%ADD113R,0.01670X0.00166*%
%ADD114R,0.04170X0.00166*%
%ADD115R,0.05830X0.00167*%
%ADD116R,0.04340X0.00167*%
%ADD117R,0.04170X0.00167*%
%ADD118R,0.01660X0.00167*%
%ADD119R,0.02170X0.00167*%
%ADD120R,0.04830X0.00167*%
%ADD121R,0.04500X0.00166*%
%ADD122R,0.02170X0.00166*%
%ADD123R,0.03660X0.00166*%
%ADD124R,0.07000X0.00166*%
%ADD125R,0.01830X0.00166*%
%ADD126R,0.05170X0.00166*%
%ADD127R,0.01340X0.00166*%
%ADD128R,0.05340X0.00167*%
%ADD129R,0.01340X0.00167*%
%ADD130R,0.01670X0.00167*%
%ADD131R,0.01000X0.00166*%
%ADD132R,0.01500X0.00166*%
%ADD133R,0.05340X0.00166*%
%ADD134R,0.00660X0.00167*%
%ADD135R,0.08000X0.00167*%
%ADD136R,0.05660X0.00167*%
%ADD137R,0.08330X0.00167*%
%ADD138R,0.08330X0.00166*%
%ADD139R,0.08670X0.00167*%
%ADD140R,0.08670X0.00166*%
%ADD141R,0.00830X0.00167*%
%ADD142R,0.03840X0.00167*%
%ADD143R,0.08830X0.00167*%
%ADD144R,0.09000X0.00167*%
%ADD145R,0.03170X0.00166*%
%ADD146R,0.09000X0.00166*%
%ADD147R,0.02840X0.00167*%
%ADD148R,0.00330X0.00167*%
%ADD149R,0.05830X0.00166*%
%ADD150R,0.04840X0.00167*%
%ADD151R,0.01840X0.00166*%
%ADD152R,0.05840X0.00166*%
%ADD153R,0.26660X0.00167*%
%ADD154R,0.11160X0.00167*%
%ADD155R,0.33330X0.00167*%
%ADD156R,0.11330X0.00167*%
%ADD157R,0.26660X0.00166*%
%ADD158R,0.11500X0.00166*%
%ADD159R,0.33330X0.00166*%
%ADD160R,0.11500X0.00167*%
%ADD161R,0.11830X0.00167*%
%ADD162R,0.33500X0.00167*%
%ADD163R,0.26830X0.00166*%
%ADD164R,0.12000X0.00166*%
%ADD165R,0.33500X0.00166*%
%ADD166R,0.26830X0.00167*%
%ADD167R,0.12160X0.00167*%
%ADD168R,0.33660X0.00167*%
%ADD169R,0.27000X0.00167*%
%ADD170R,0.12330X0.00167*%
%ADD171R,0.27160X0.00166*%
%ADD172R,0.12660X0.00166*%
%ADD173R,0.33830X0.00166*%
%ADD174R,0.27330X0.00167*%
%ADD175R,0.13000X0.00167*%
%ADD176R,0.34000X0.00167*%
%ADD177R,0.27500X0.00167*%
%ADD178R,0.09330X0.00167*%
%ADD179R,0.13330X0.00167*%
%ADD180R,0.34160X0.00167*%
%ADD181R,0.27830X0.00166*%
%ADD182R,0.09830X0.00166*%
%ADD183R,0.13830X0.00166*%
%ADD184R,0.34500X0.00166*%
%ADD185R,0.28160X0.00167*%
%ADD186R,0.10500X0.00167*%
%ADD187R,0.14330X0.00167*%
%ADD188R,0.34830X0.00167*%
%ADD189R,0.29170X0.00167*%
%ADD190R,0.11660X0.00167*%
%ADD191R,0.15500X0.00167*%
%ADD192R,0.35670X0.00167*%
%ADD193R,0.15830X0.00167*%
%ADD194R,0.21330X0.00167*%
%ADD195R,0.22000X0.00167*%
%ADD196R,0.23000X0.00167*%
%ADD197R,0.29000X0.00167*%
%ADD198R,0.13160X0.00167*%
%ADD199R,0.16000X0.00167*%
%ADD200R,0.18670X0.00167*%
%ADD201R,0.19500X0.00167*%
%ADD202R,0.08660X0.00167*%
%ADD203R,0.15330X0.00167*%
%ADD204R,0.13670X0.00166*%
%ADD205R,0.17160X0.00166*%
%ADD206R,0.18170X0.00166*%
%ADD207R,0.14670X0.00166*%
%ADD208R,0.12000X0.00167*%
%ADD209R,0.16170X0.00167*%
%ADD210R,0.17160X0.00167*%
%ADD211R,0.10330X0.00167*%
%ADD212R,0.10670X0.00167*%
%ADD213R,0.15170X0.00167*%
%ADD214R,0.13670X0.00167*%
%ADD215R,0.09330X0.00166*%
%ADD216R,0.15500X0.00166*%
%ADD217R,0.13170X0.00166*%
%ADD218R,0.14000X0.00167*%
%ADD219R,0.15000X0.00167*%
%ADD220R,0.12670X0.00167*%
%ADD221R,0.13340X0.00167*%
%ADD222R,0.04670X0.00166*%
%ADD223R,0.06330X0.00166*%
%ADD224R,0.12670X0.00166*%
%ADD225R,0.11670X0.00166*%
%ADD226R,0.06840X0.00167*%
%ADD227R,0.13170X0.00167*%
%ADD228R,0.11000X0.00167*%
%ADD229R,0.07660X0.00167*%
%ADD230R,0.08500X0.00167*%
%ADD231R,0.12660X0.00167*%
%ADD232R,0.09840X0.00166*%
%ADD233R,0.11340X0.00166*%
%ADD234R,0.12330X0.00166*%
%ADD235R,0.10000X0.00166*%
%ADD236R,0.10840X0.00167*%
%ADD237R,0.10830X0.00167*%
%ADD238R,0.11840X0.00167*%
%ADD239R,0.06660X0.00167*%
%ADD240R,0.06160X0.00167*%
%ADD241R,0.13000X0.00166*%
%ADD242R,0.00170X0.00166*%
%ADD243R,0.10830X0.00166*%
%ADD244R,0.13500X0.00167*%
%ADD245R,0.09670X0.00167*%
%ADD246R,0.00500X0.00167*%
%ADD247R,0.07830X0.00167*%
%ADD248R,0.18660X0.00167*%
%ADD249R,0.14170X0.00167*%
%ADD250R,0.09170X0.00167*%
%ADD251R,0.10170X0.00167*%
%ADD252R,0.14160X0.00167*%
%ADD253R,0.05660X0.00166*%
%ADD254R,0.18670X0.00166*%
%ADD255R,0.08830X0.00166*%
%ADD256R,0.00830X0.00166*%
%ADD257R,0.14840X0.00166*%
%ADD258R,0.07160X0.00166*%
%ADD259R,0.18830X0.00167*%
%ADD260R,0.09500X0.00167*%
%ADD261R,0.15160X0.00167*%
%ADD262R,0.19000X0.00167*%
%ADD263R,0.15840X0.00167*%
%ADD264R,0.19000X0.00166*%
%ADD265R,0.16330X0.00166*%
%ADD266R,0.19170X0.00167*%
%ADD267R,0.16670X0.00167*%
%ADD268R,0.16840X0.00167*%
%ADD269R,0.08160X0.00167*%
%ADD270R,0.19160X0.00167*%
%ADD271R,0.17170X0.00167*%
%ADD272R,0.07340X0.00167*%
%ADD273R,0.19170X0.00166*%
%ADD274R,0.17500X0.00166*%
%ADD275R,0.17830X0.00167*%
%ADD276R,0.17840X0.00167*%
%ADD277R,0.19330X0.00167*%
%ADD278R,0.18170X0.00167*%
%ADD279R,0.18160X0.00167*%
%ADD280R,0.19160X0.00166*%
%ADD281R,0.18330X0.00166*%
%ADD282R,0.06340X0.00166*%
%ADD283R,0.03340X0.00166*%
%ADD284R,0.18500X0.00167*%
%ADD285R,0.09830X0.00167*%
%ADD286R,0.19340X0.00167*%
%ADD287R,0.18840X0.00167*%
%ADD288R,0.10160X0.00167*%
%ADD289R,0.19340X0.00166*%
%ADD290R,0.18830X0.00166*%
%ADD291R,0.18840X0.00166*%
%ADD292R,0.10330X0.00166*%
%ADD293R,0.06340X0.00167*%
%ADD294R,0.05840X0.00167*%
%ADD295R,0.10660X0.00167*%
%ADD296R,0.19330X0.00166*%
%ADD297R,0.06170X0.00166*%
%ADD298R,0.11160X0.00166*%
%ADD299R,0.19500X0.00166*%
%ADD300R,0.07340X0.00166*%
%ADD301R,0.10660X0.00166*%
%ADD302R,0.18500X0.00166*%
%ADD303R,0.08170X0.00166*%
%ADD304R,0.18330X0.00167*%
%ADD305R,0.17830X0.00166*%
%ADD306R,0.17840X0.00166*%
%ADD307R,0.17500X0.00167*%
%ADD308R,0.16830X0.00166*%
%ADD309R,0.16840X0.00166*%
%ADD310R,0.16330X0.00167*%
%ADD311R,0.10000X0.00167*%
%ADD312R,0.15330X0.00166*%
%ADD313R,0.10500X0.00166*%
%ADD314R,0.04840X0.00166*%
%ADD315R,0.14670X0.00167*%
%ADD316R,0.14840X0.00167*%
%ADD317R,0.11170X0.00167*%
%ADD318R,0.13500X0.00166*%
%ADD319R,0.06660X0.00166*%
%ADD320R,0.12830X0.00167*%
%ADD321R,0.10840X0.00166*%
%ADD322R,0.12170X0.00166*%
%ADD323R,0.09840X0.00167*%
%ADD324R,0.12500X0.00167*%
%ADD325R,0.12830X0.00166*%
%ADD326R,0.11000X0.00166*%
%ADD327R,0.11670X0.00167*%
%ADD328R,0.11840X0.00166*%
%ADD329R,0.14500X0.00166*%
%ADD330R,0.08500X0.00166*%
%ADD331R,0.14330X0.00166*%
%ADD332R,0.14830X0.00167*%
%ADD333R,0.15670X0.00167*%
%ADD334R,0.20160X0.00166*%
%ADD335R,0.16500X0.00166*%
%ADD336C,0.00800*%
D10*
X0001800Y0001800D02*
X0001800Y0198650D01*
X0198650Y0198650D01*
X0198650Y0001800D01*
X0001800Y0001800D01*
D11*
X0014300Y0011800D02*
X0011800Y0014300D01*
X0011800Y0019300D01*
X0014300Y0021800D01*
X0019300Y0021800D01*
X0021800Y0019300D01*
X0024300Y0021800D01*
X0029300Y0021800D01*
X0031800Y0019300D01*
X0034300Y0021800D01*
X0039300Y0021800D01*
X0041800Y0019300D01*
X0044300Y0021800D01*
X0049300Y0021800D01*
X0051800Y0019300D01*
X0054300Y0021800D01*
X0059300Y0021800D01*
X0061800Y0019300D01*
X0064300Y0021800D01*
X0069300Y0021800D01*
X0071800Y0019300D01*
X0074300Y0021800D01*
X0079300Y0021800D01*
X0081800Y0019300D01*
X0084300Y0021800D01*
X0089300Y0021800D01*
X0091800Y0019300D01*
X0091800Y0014300D01*
X0089300Y0011800D01*
X0084300Y0011800D01*
X0081800Y0014300D01*
X0079300Y0011800D01*
X0074300Y0011800D01*
X0071800Y0014300D01*
X0071800Y0019300D01*
X0071800Y0014300D02*
X0069300Y0011800D01*
X0064300Y0011800D01*
X0061800Y0014300D01*
X0059300Y0011800D01*
X0054300Y0011800D01*
X0051800Y0014300D01*
X0049300Y0011800D01*
X0044300Y0011800D01*
X0041800Y0014300D01*
X0041800Y0019300D01*
X0041800Y0014300D02*
X0039300Y0011800D01*
X0034300Y0011800D01*
X0031800Y0014300D01*
X0029300Y0011800D01*
X0024300Y0011800D01*
X0021800Y0014300D01*
X0019300Y0011800D01*
X0014300Y0011800D01*
X0021800Y0014300D02*
X0021800Y0019300D01*
X0024596Y0024600D02*
X0024596Y0026802D01*
X0025330Y0027536D01*
X0028266Y0027536D01*
X0029000Y0026802D01*
X0029000Y0024600D01*
X0024596Y0024600D01*
X0026798Y0029204D02*
X0026798Y0031406D01*
X0027532Y0032140D01*
X0028266Y0032140D01*
X0029000Y0031406D01*
X0029000Y0029938D01*
X0028266Y0029204D01*
X0026798Y0029204D01*
X0025330Y0030672D01*
X0024596Y0032140D01*
X0019000Y0029204D02*
X0018266Y0029204D01*
X0015330Y0032140D01*
X0014596Y0032140D01*
X0014596Y0029204D01*
X0015330Y0027536D02*
X0014596Y0026802D01*
X0014596Y0024600D01*
X0019000Y0024600D01*
X0019000Y0026802D01*
X0018266Y0027536D01*
X0015330Y0027536D01*
X0031800Y0019300D02*
X0031800Y0014300D01*
X0039056Y0009004D02*
X0041257Y0009004D01*
X0041991Y0008270D01*
X0041991Y0006802D01*
X0041257Y0006068D01*
X0039056Y0006068D01*
X0039056Y0004600D02*
X0039056Y0009004D01*
X0043659Y0007536D02*
X0043659Y0004600D01*
X0043659Y0006802D02*
X0046595Y0006802D01*
X0046595Y0007536D02*
X0046595Y0004600D01*
X0048263Y0004600D02*
X0048263Y0009004D01*
X0050465Y0009004D01*
X0051199Y0008270D01*
X0051199Y0006802D01*
X0050465Y0006068D01*
X0048263Y0006068D01*
X0049731Y0006068D02*
X0051199Y0004600D01*
X0052867Y0006802D02*
X0055803Y0006802D01*
X0057471Y0009004D02*
X0058939Y0009004D01*
X0058205Y0009004D02*
X0058205Y0004600D01*
X0057471Y0004600D02*
X0058939Y0004600D01*
X0060540Y0004600D02*
X0060540Y0009004D01*
X0063476Y0004600D01*
X0063476Y0009004D01*
X0061800Y0014300D02*
X0061800Y0019300D01*
X0064596Y0024600D02*
X0064596Y0026802D01*
X0065330Y0027536D01*
X0068266Y0027536D01*
X0069000Y0026802D01*
X0069000Y0024600D01*
X0064596Y0024600D01*
X0065330Y0029204D02*
X0064596Y0029938D01*
X0064596Y0031406D01*
X0065330Y0032140D01*
X0066064Y0032140D01*
X0069000Y0029204D01*
X0069000Y0032140D01*
X0074596Y0030672D02*
X0079000Y0030672D01*
X0079000Y0029204D02*
X0079000Y0032140D01*
X0076064Y0029204D02*
X0074596Y0030672D01*
X0075330Y0027536D02*
X0074596Y0026802D01*
X0074596Y0024600D01*
X0079000Y0024600D01*
X0079000Y0026802D01*
X0078266Y0027536D01*
X0075330Y0027536D01*
X0081800Y0019300D02*
X0081800Y0014300D01*
X0084596Y0024600D02*
X0084596Y0026802D01*
X0085330Y0027536D01*
X0088266Y0027536D01*
X0089000Y0026802D01*
X0089000Y0024600D01*
X0084596Y0024600D01*
X0085330Y0029204D02*
X0084596Y0029938D01*
X0084596Y0031406D01*
X0085330Y0032140D01*
X0088266Y0029204D01*
X0089000Y0029938D01*
X0089000Y0031406D01*
X0088266Y0032140D01*
X0085330Y0032140D01*
X0085330Y0029204D02*
X0088266Y0029204D01*
X0106800Y0019300D02*
X0106800Y0014300D01*
X0109300Y0011800D01*
X0114300Y0011800D01*
X0116800Y0014300D01*
X0119300Y0011800D01*
X0124300Y0011800D01*
X0126800Y0014300D01*
X0129300Y0011800D01*
X0134300Y0011800D01*
X0136800Y0014300D01*
X0136800Y0019300D01*
X0134300Y0021800D01*
X0129300Y0021800D01*
X0126800Y0019300D01*
X0126800Y0014300D01*
X0126800Y0019300D02*
X0124300Y0021800D01*
X0119300Y0021800D01*
X0116800Y0019300D01*
X0116800Y0014300D01*
X0116800Y0019300D02*
X0114300Y0021800D01*
X0109300Y0021800D01*
X0106800Y0019300D01*
X0110330Y0024600D02*
X0113266Y0024600D01*
X0114000Y0025334D01*
X0114000Y0026802D01*
X0113266Y0027536D01*
X0111798Y0027536D01*
X0111798Y0026068D01*
X0110330Y0027536D02*
X0109596Y0026802D01*
X0109596Y0025334D01*
X0110330Y0024600D01*
X0109596Y0029204D02*
X0114000Y0032140D01*
X0109596Y0032140D01*
X0109596Y0033808D02*
X0109596Y0036010D01*
X0110330Y0036744D01*
X0113266Y0036744D01*
X0114000Y0036010D01*
X0114000Y0033808D01*
X0109596Y0033808D01*
X0111800Y0036800D02*
X0111800Y0039300D01*
X0121800Y0039300D01*
X0121800Y0031800D01*
X0121798Y0030672D02*
X0121798Y0029204D01*
X0119596Y0029204D02*
X0124000Y0029204D01*
X0124000Y0032140D01*
X0119596Y0032140D02*
X0119596Y0029204D01*
X0120330Y0027536D02*
X0119596Y0026802D01*
X0119596Y0025334D01*
X0120330Y0024600D01*
X0123266Y0024600D01*
X0124000Y0025334D01*
X0124000Y0026802D01*
X0123266Y0027536D01*
X0120330Y0027536D01*
X0114000Y0029204D02*
X0109596Y0029204D01*
X0129596Y0029204D02*
X0134000Y0029204D01*
X0134000Y0032140D01*
X0131798Y0030672D02*
X0131798Y0029204D01*
X0129596Y0029204D02*
X0129596Y0032140D01*
X0134000Y0027536D02*
X0134000Y0024600D01*
X0129596Y0024600D01*
X0129006Y0009004D02*
X0129006Y0004600D01*
X0127338Y0005334D02*
X0126604Y0004600D01*
X0125136Y0004600D01*
X0124402Y0005334D01*
X0124402Y0008270D01*
X0125136Y0009004D01*
X0126604Y0009004D01*
X0127338Y0008270D01*
X0129006Y0006802D02*
X0131942Y0006802D01*
X0131942Y0009004D02*
X0131942Y0004600D01*
X0122734Y0009004D02*
X0119798Y0009004D01*
X0121266Y0009004D02*
X0121266Y0004600D01*
X0118130Y0004600D02*
X0118130Y0007536D01*
X0116662Y0009004D01*
X0115194Y0007536D01*
X0115194Y0004600D01*
X0113526Y0004600D02*
X0110590Y0004600D01*
X0110590Y0009004D01*
X0115194Y0006802D02*
X0118130Y0006802D01*
X0151800Y0014300D02*
X0154300Y0011800D01*
X0159300Y0011800D01*
X0161800Y0014300D01*
X0164300Y0011800D01*
X0169300Y0011800D01*
X0171800Y0014300D01*
X0171800Y0019300D01*
X0169300Y0021800D01*
X0164300Y0021800D01*
X0161800Y0019300D01*
X0161800Y0014300D01*
X0161800Y0019300D02*
X0159300Y0021800D01*
X0154300Y0021800D01*
X0151800Y0019300D01*
X0151800Y0014300D01*
X0159056Y0008270D02*
X0159056Y0007536D01*
X0159789Y0006802D01*
X0161257Y0006802D01*
X0161991Y0006068D01*
X0161991Y0005334D01*
X0161257Y0004600D01*
X0159789Y0004600D01*
X0159056Y0005334D01*
X0159056Y0008270D02*
X0159789Y0009004D01*
X0161257Y0009004D01*
X0161991Y0008270D01*
X0163659Y0009004D02*
X0163659Y0004600D01*
X0166595Y0004600D01*
X0168263Y0004600D02*
X0168263Y0009004D01*
X0170465Y0009004D01*
X0171199Y0008270D01*
X0171199Y0006802D01*
X0170465Y0006068D01*
X0168263Y0006068D01*
X0169731Y0006068D02*
X0171199Y0004600D01*
X0172867Y0006802D02*
X0175803Y0006802D01*
X0177471Y0009004D02*
X0178939Y0009004D01*
X0178205Y0009004D02*
X0178205Y0004600D01*
X0177471Y0004600D02*
X0178939Y0004600D01*
X0180541Y0004600D02*
X0180541Y0009004D01*
X0183476Y0004600D01*
X0183476Y0009004D01*
X0184300Y0011800D02*
X0189300Y0011800D01*
X0191800Y0014300D01*
X0191800Y0019300D01*
X0189300Y0021800D01*
X0184300Y0021800D01*
X0181800Y0019300D01*
X0181800Y0014300D01*
X0184300Y0011800D01*
X0181800Y0014300D02*
X0179300Y0011800D01*
X0174300Y0011800D01*
X0171800Y0014300D01*
X0171800Y0019300D02*
X0174300Y0021800D01*
X0179300Y0021800D01*
X0181800Y0019300D01*
X0179000Y0024600D02*
X0174596Y0024600D01*
X0174596Y0026802D01*
X0175330Y0027536D01*
X0178266Y0027536D01*
X0179000Y0026802D01*
X0179000Y0024600D01*
X0184596Y0025334D02*
X0185330Y0024600D01*
X0188266Y0024600D01*
X0189000Y0025334D01*
X0189000Y0026802D01*
X0188266Y0027536D01*
X0189000Y0029204D02*
X0184596Y0029204D01*
X0185330Y0027536D02*
X0184596Y0026802D01*
X0184596Y0025334D01*
X0189000Y0029204D02*
X0189000Y0032140D01*
X0189000Y0033808D02*
X0184596Y0033808D01*
X0186798Y0034542D02*
X0189000Y0036744D01*
X0187532Y0033808D02*
X0184596Y0036744D01*
X0191800Y0050300D02*
X0191800Y0073300D01*
X0121800Y0073300D01*
X0121800Y0065800D01*
X0121926Y0065798D01*
X0122051Y0065792D01*
X0122176Y0065782D01*
X0122301Y0065768D01*
X0122426Y0065751D01*
X0122550Y0065729D01*
X0122673Y0065704D01*
X0122795Y0065674D01*
X0122916Y0065641D01*
X0123036Y0065604D01*
X0123155Y0065564D01*
X0123272Y0065519D01*
X0123389Y0065471D01*
X0123503Y0065419D01*
X0123616Y0065364D01*
X0123727Y0065305D01*
X0123836Y0065243D01*
X0123943Y0065177D01*
X0124048Y0065108D01*
X0124151Y0065036D01*
X0124252Y0064961D01*
X0124350Y0064882D01*
X0124445Y0064800D01*
X0124538Y0064716D01*
X0124628Y0064628D01*
X0124716Y0064538D01*
X0124800Y0064445D01*
X0124882Y0064350D01*
X0124961Y0064252D01*
X0125036Y0064151D01*
X0125108Y0064048D01*
X0125177Y0063943D01*
X0125243Y0063836D01*
X0125305Y0063727D01*
X0125364Y0063616D01*
X0125419Y0063503D01*
X0125471Y0063389D01*
X0125519Y0063272D01*
X0125564Y0063155D01*
X0125604Y0063036D01*
X0125641Y0062916D01*
X0125674Y0062795D01*
X0125704Y0062673D01*
X0125729Y0062550D01*
X0125751Y0062426D01*
X0125768Y0062301D01*
X0125782Y0062176D01*
X0125792Y0062051D01*
X0125798Y0061926D01*
X0125800Y0061800D01*
X0125798Y0061674D01*
X0125792Y0061549D01*
X0125782Y0061424D01*
X0125768Y0061299D01*
X0125751Y0061174D01*
X0125729Y0061050D01*
X0125704Y0060927D01*
X0125674Y0060805D01*
X0125641Y0060684D01*
X0125604Y0060564D01*
X0125564Y0060445D01*
X0125519Y0060328D01*
X0125471Y0060211D01*
X0125419Y0060097D01*
X0125364Y0059984D01*
X0125305Y0059873D01*
X0125243Y0059764D01*
X0125177Y0059657D01*
X0125108Y0059552D01*
X0125036Y0059449D01*
X0124961Y0059348D01*
X0124882Y0059250D01*
X0124800Y0059155D01*
X0124716Y0059062D01*
X0124628Y0058972D01*
X0124538Y0058884D01*
X0124445Y0058800D01*
X0124350Y0058718D01*
X0124252Y0058639D01*
X0124151Y0058564D01*
X0124048Y0058492D01*
X0123943Y0058423D01*
X0123836Y0058357D01*
X0123727Y0058295D01*
X0123616Y0058236D01*
X0123503Y0058181D01*
X0123389Y0058129D01*
X0123272Y0058081D01*
X0123155Y0058036D01*
X0123036Y0057996D01*
X0122916Y0057959D01*
X0122795Y0057926D01*
X0122673Y0057896D01*
X0122550Y0057871D01*
X0122426Y0057849D01*
X0122301Y0057832D01*
X0122176Y0057818D01*
X0122051Y0057808D01*
X0121926Y0057802D01*
X0121800Y0057800D01*
X0121800Y0050300D01*
X0191800Y0050300D01*
X0173848Y0061802D02*
X0170912Y0061802D01*
X0173114Y0064004D01*
X0173114Y0059600D01*
X0169244Y0060334D02*
X0169244Y0061068D01*
X0168510Y0061802D01*
X0166308Y0061802D01*
X0166308Y0060334D01*
X0167042Y0059600D01*
X0168510Y0059600D01*
X0169244Y0060334D01*
X0167776Y0063270D02*
X0166308Y0061802D01*
X0167776Y0063270D02*
X0169244Y0064004D01*
X0163172Y0064004D02*
X0163172Y0059600D01*
X0161704Y0059600D02*
X0164640Y0059600D01*
X0161704Y0062536D02*
X0163172Y0064004D01*
X0160036Y0064004D02*
X0157100Y0064004D01*
X0158568Y0064004D02*
X0158568Y0059600D01*
X0155432Y0060334D02*
X0154698Y0059600D01*
X0153230Y0059600D01*
X0152496Y0060334D01*
X0152496Y0063270D01*
X0153230Y0064004D01*
X0154698Y0064004D01*
X0155432Y0063270D01*
X0150828Y0064004D02*
X0150828Y0059600D01*
X0150828Y0061802D02*
X0147892Y0061802D01*
X0146224Y0061802D02*
X0143288Y0061802D01*
X0145490Y0064004D01*
X0145490Y0059600D01*
X0147892Y0059600D02*
X0147892Y0064004D01*
X0141620Y0064004D02*
X0141620Y0063270D01*
X0138684Y0060334D01*
X0138684Y0059600D01*
X0138684Y0064004D02*
X0141620Y0064004D01*
X0156800Y0039300D02*
X0156800Y0036800D01*
X0158266Y0036744D02*
X0159000Y0036010D01*
X0159000Y0034542D01*
X0158266Y0033808D01*
X0155330Y0033808D01*
X0154596Y0034542D01*
X0154596Y0036010D01*
X0155330Y0036744D01*
X0156800Y0039300D02*
X0166800Y0039300D01*
X0166800Y0036800D01*
X0164596Y0036744D02*
X0164596Y0033808D01*
X0164596Y0035276D02*
X0169000Y0035276D01*
X0168266Y0032140D02*
X0169000Y0031406D01*
X0169000Y0029938D01*
X0168266Y0029204D01*
X0166798Y0029938D02*
X0166798Y0031406D01*
X0167532Y0032140D01*
X0168266Y0032140D01*
X0165330Y0032140D02*
X0164596Y0031406D01*
X0164596Y0029938D01*
X0165330Y0029204D01*
X0166064Y0029204D01*
X0166798Y0029938D01*
X0166798Y0027536D02*
X0167532Y0026802D01*
X0167532Y0024600D01*
X0167532Y0026068D02*
X0169000Y0027536D01*
X0166798Y0027536D02*
X0165330Y0027536D01*
X0164596Y0026802D01*
X0164596Y0024600D01*
X0169000Y0024600D01*
X0159000Y0026068D02*
X0157532Y0027536D01*
X0154596Y0027536D01*
X0155330Y0029204D02*
X0158266Y0029204D01*
X0159000Y0029938D01*
X0159000Y0031406D01*
X0158266Y0032140D01*
X0155330Y0032140D02*
X0154596Y0031406D01*
X0154596Y0029938D01*
X0155330Y0029204D01*
X0154596Y0024600D02*
X0157532Y0024600D01*
X0159000Y0026068D01*
X0163659Y0009004D02*
X0166595Y0009004D01*
X0165127Y0006802D02*
X0163659Y0006802D01*
X0111800Y0050300D02*
X0111800Y0073300D01*
X0011800Y0073300D01*
X0011800Y0065800D01*
X0011926Y0065798D01*
X0012051Y0065792D01*
X0012176Y0065782D01*
X0012301Y0065768D01*
X0012426Y0065751D01*
X0012550Y0065729D01*
X0012673Y0065704D01*
X0012795Y0065674D01*
X0012916Y0065641D01*
X0013036Y0065604D01*
X0013155Y0065564D01*
X0013272Y0065519D01*
X0013389Y0065471D01*
X0013503Y0065419D01*
X0013616Y0065364D01*
X0013727Y0065305D01*
X0013836Y0065243D01*
X0013943Y0065177D01*
X0014048Y0065108D01*
X0014151Y0065036D01*
X0014252Y0064961D01*
X0014350Y0064882D01*
X0014445Y0064800D01*
X0014538Y0064716D01*
X0014628Y0064628D01*
X0014716Y0064538D01*
X0014800Y0064445D01*
X0014882Y0064350D01*
X0014961Y0064252D01*
X0015036Y0064151D01*
X0015108Y0064048D01*
X0015177Y0063943D01*
X0015243Y0063836D01*
X0015305Y0063727D01*
X0015364Y0063616D01*
X0015419Y0063503D01*
X0015471Y0063389D01*
X0015519Y0063272D01*
X0015564Y0063155D01*
X0015604Y0063036D01*
X0015641Y0062916D01*
X0015674Y0062795D01*
X0015704Y0062673D01*
X0015729Y0062550D01*
X0015751Y0062426D01*
X0015768Y0062301D01*
X0015782Y0062176D01*
X0015792Y0062051D01*
X0015798Y0061926D01*
X0015800Y0061800D01*
X0015798Y0061674D01*
X0015792Y0061549D01*
X0015782Y0061424D01*
X0015768Y0061299D01*
X0015751Y0061174D01*
X0015729Y0061050D01*
X0015704Y0060927D01*
X0015674Y0060805D01*
X0015641Y0060684D01*
X0015604Y0060564D01*
X0015564Y0060445D01*
X0015519Y0060328D01*
X0015471Y0060211D01*
X0015419Y0060097D01*
X0015364Y0059984D01*
X0015305Y0059873D01*
X0015243Y0059764D01*
X0015177Y0059657D01*
X0015108Y0059552D01*
X0015036Y0059449D01*
X0014961Y0059348D01*
X0014882Y0059250D01*
X0014800Y0059155D01*
X0014716Y0059062D01*
X0014628Y0058972D01*
X0014538Y0058884D01*
X0014445Y0058800D01*
X0014350Y0058718D01*
X0014252Y0058639D01*
X0014151Y0058564D01*
X0014048Y0058492D01*
X0013943Y0058423D01*
X0013836Y0058357D01*
X0013727Y0058295D01*
X0013616Y0058236D01*
X0013503Y0058181D01*
X0013389Y0058129D01*
X0013272Y0058081D01*
X0013155Y0058036D01*
X0013036Y0057996D01*
X0012916Y0057959D01*
X0012795Y0057926D01*
X0012673Y0057896D01*
X0012550Y0057871D01*
X0012426Y0057849D01*
X0012301Y0057832D01*
X0012176Y0057818D01*
X0012051Y0057808D01*
X0011926Y0057802D01*
X0011800Y0057800D01*
X0011800Y0050300D01*
X0111800Y0050300D01*
X0078848Y0060334D02*
X0078114Y0059600D01*
X0076646Y0059600D01*
X0075912Y0060334D01*
X0077380Y0061802D02*
X0078114Y0061802D01*
X0078848Y0061068D01*
X0078848Y0060334D01*
X0078114Y0061802D02*
X0078848Y0062536D01*
X0078848Y0063270D01*
X0078114Y0064004D01*
X0076646Y0064004D01*
X0075912Y0063270D01*
X0074244Y0063270D02*
X0071308Y0060334D01*
X0071308Y0059600D01*
X0069640Y0060334D02*
X0068906Y0059600D01*
X0067438Y0059600D01*
X0066704Y0060334D01*
X0068172Y0061802D02*
X0068906Y0061802D01*
X0069640Y0061068D01*
X0069640Y0060334D01*
X0068906Y0061802D02*
X0069640Y0062536D01*
X0069640Y0063270D01*
X0068906Y0064004D01*
X0067438Y0064004D01*
X0066704Y0063270D01*
X0065036Y0064004D02*
X0062100Y0064004D01*
X0063568Y0064004D02*
X0063568Y0059600D01*
X0060432Y0060334D02*
X0059698Y0059600D01*
X0058230Y0059600D01*
X0057496Y0060334D01*
X0057496Y0063270D01*
X0058230Y0064004D01*
X0059698Y0064004D01*
X0060432Y0063270D01*
X0055828Y0064004D02*
X0055828Y0059600D01*
X0055828Y0061802D02*
X0052892Y0061802D01*
X0051224Y0061802D02*
X0048288Y0061802D01*
X0050490Y0064004D01*
X0050490Y0059600D01*
X0052892Y0059600D02*
X0052892Y0064004D01*
X0046620Y0064004D02*
X0046620Y0063270D01*
X0043684Y0060334D01*
X0043684Y0059600D01*
X0043684Y0064004D02*
X0046620Y0064004D01*
X0071308Y0064004D02*
X0074244Y0064004D01*
X0074244Y0063270D01*
X0074689Y0087100D02*
X0072487Y0089302D01*
X0071753Y0088568D02*
X0074689Y0091504D01*
X0076357Y0090036D02*
X0077825Y0091504D01*
X0079293Y0090036D01*
X0079293Y0087100D01*
X0080961Y0087100D02*
X0082429Y0087100D01*
X0081695Y0087100D02*
X0081695Y0091504D01*
X0080961Y0091504D02*
X0082429Y0091504D01*
X0079293Y0089302D02*
X0076357Y0089302D01*
X0076357Y0090036D02*
X0076357Y0087100D01*
X0071753Y0087100D02*
X0071753Y0091504D01*
X0060877Y0090770D02*
X0060877Y0087834D01*
X0060143Y0087100D01*
X0058675Y0087100D01*
X0057941Y0087834D01*
X0060877Y0090770D01*
X0060143Y0091504D01*
X0058675Y0091504D01*
X0057941Y0090770D01*
X0057941Y0087834D01*
X0056373Y0087834D02*
X0056373Y0087100D01*
X0055639Y0087100D01*
X0055639Y0087834D01*
X0056373Y0087834D01*
X0053971Y0089302D02*
X0051035Y0089302D01*
X0053237Y0091504D01*
X0053237Y0087100D01*
X0044763Y0087100D02*
X0044763Y0090036D01*
X0043295Y0091504D01*
X0041827Y0090036D01*
X0041827Y0087100D01*
X0040159Y0087834D02*
X0040159Y0088568D01*
X0039425Y0089302D01*
X0037958Y0089302D01*
X0037224Y0090036D01*
X0037224Y0090770D01*
X0037958Y0091504D01*
X0039425Y0091504D01*
X0040159Y0090770D01*
X0041827Y0089302D02*
X0044763Y0089302D01*
X0040159Y0087834D02*
X0039425Y0087100D01*
X0037958Y0087100D01*
X0037224Y0087834D01*
X0035555Y0089302D02*
X0032620Y0089302D01*
X0030952Y0090770D02*
X0030952Y0091504D01*
X0030952Y0090770D02*
X0029484Y0089302D01*
X0029484Y0087100D01*
X0029484Y0089302D02*
X0028016Y0090770D01*
X0028016Y0091504D01*
X0026348Y0090770D02*
X0026348Y0090036D01*
X0025614Y0089302D01*
X0023412Y0089302D01*
X0021744Y0089302D02*
X0018808Y0089302D01*
X0017140Y0090770D02*
X0016406Y0091504D01*
X0014938Y0091504D01*
X0014204Y0090770D01*
X0014204Y0087834D01*
X0014938Y0087100D01*
X0016406Y0087100D01*
X0017140Y0087834D01*
X0012536Y0087834D02*
X0011802Y0087100D01*
X0010334Y0087100D01*
X0009600Y0087834D01*
X0009600Y0090770D01*
X0010334Y0091504D01*
X0011802Y0091504D01*
X0012536Y0090770D01*
X0023412Y0091504D02*
X0023412Y0087100D01*
X0025614Y0087100D01*
X0026348Y0087834D01*
X0026348Y0088568D01*
X0025614Y0089302D01*
X0026348Y0090770D02*
X0025614Y0091504D01*
X0023412Y0091504D01*
X0009000Y0123672D02*
X0009000Y0126608D01*
X0009000Y0125140D02*
X0004596Y0125140D01*
X0006064Y0123672D01*
X0006798Y0128276D02*
X0004596Y0128276D01*
X0004596Y0131212D01*
X0006064Y0130478D02*
X0006798Y0131212D01*
X0008266Y0131212D01*
X0009000Y0130478D01*
X0009000Y0129010D01*
X0008266Y0128276D01*
X0006798Y0128276D02*
X0006064Y0129744D01*
X0006064Y0130478D01*
X0004596Y0132880D02*
X0009000Y0132880D01*
X0007532Y0132880D02*
X0009000Y0135082D01*
X0007532Y0132880D02*
X0006064Y0135082D01*
X0006064Y0141320D02*
X0009000Y0144256D01*
X0010300Y0144300D02*
X0010300Y0145800D01*
X0010302Y0145860D01*
X0010307Y0145921D01*
X0010316Y0145980D01*
X0010329Y0146039D01*
X0010345Y0146098D01*
X0010365Y0146155D01*
X0010388Y0146210D01*
X0010415Y0146265D01*
X0010444Y0146317D01*
X0010477Y0146368D01*
X0010513Y0146417D01*
X0010551Y0146463D01*
X0010593Y0146507D01*
X0010637Y0146549D01*
X0010683Y0146587D01*
X0010732Y0146623D01*
X0010783Y0146656D01*
X0010835Y0146685D01*
X0010890Y0146712D01*
X0010945Y0146735D01*
X0011002Y0146755D01*
X0011061Y0146771D01*
X0011120Y0146784D01*
X0011179Y0146793D01*
X0011240Y0146798D01*
X0011300Y0146800D01*
X0017300Y0146800D01*
X0017360Y0146798D01*
X0017421Y0146793D01*
X0017480Y0146784D01*
X0017539Y0146771D01*
X0017598Y0146755D01*
X0017655Y0146735D01*
X0017710Y0146712D01*
X0017765Y0146685D01*
X0017817Y0146656D01*
X0017868Y0146623D01*
X0017917Y0146587D01*
X0017963Y0146549D01*
X0018007Y0146507D01*
X0018049Y0146463D01*
X0018087Y0146417D01*
X0018123Y0146368D01*
X0018156Y0146317D01*
X0018185Y0146265D01*
X0018212Y0146210D01*
X0018235Y0146155D01*
X0018255Y0146098D01*
X0018271Y0146039D01*
X0018284Y0145980D01*
X0018293Y0145921D01*
X0018298Y0145860D01*
X0018300Y0145800D01*
X0018300Y0144300D01*
X0017800Y0143800D01*
X0017800Y0129800D01*
X0018300Y0129300D01*
X0018300Y0127800D01*
X0018298Y0127740D01*
X0018293Y0127679D01*
X0018284Y0127620D01*
X0018271Y0127561D01*
X0018255Y0127502D01*
X0018235Y0127445D01*
X0018212Y0127390D01*
X0018185Y0127335D01*
X0018156Y0127283D01*
X0018123Y0127232D01*
X0018087Y0127183D01*
X0018049Y0127137D01*
X0018007Y0127093D01*
X0017963Y0127051D01*
X0017917Y0127013D01*
X0017868Y0126977D01*
X0017817Y0126944D01*
X0017765Y0126915D01*
X0017710Y0126888D01*
X0017655Y0126865D01*
X0017598Y0126845D01*
X0017539Y0126829D01*
X0017480Y0126816D01*
X0017421Y0126807D01*
X0017360Y0126802D01*
X0017300Y0126800D01*
X0011300Y0126800D01*
X0011240Y0126802D01*
X0011179Y0126807D01*
X0011120Y0126816D01*
X0011061Y0126829D01*
X0011002Y0126845D01*
X0010945Y0126865D01*
X0010890Y0126888D01*
X0010835Y0126915D01*
X0010783Y0126944D01*
X0010732Y0126977D01*
X0010683Y0127013D01*
X0010637Y0127051D01*
X0010593Y0127093D01*
X0010551Y0127137D01*
X0010513Y0127183D01*
X0010477Y0127232D01*
X0010444Y0127283D01*
X0010415Y0127335D01*
X0010388Y0127390D01*
X0010365Y0127445D01*
X0010345Y0127502D01*
X0010329Y0127561D01*
X0010316Y0127620D01*
X0010307Y0127679D01*
X0010302Y0127740D01*
X0010300Y0127800D01*
X0010300Y0129300D01*
X0010800Y0129800D01*
X0010800Y0143800D01*
X0010300Y0144300D01*
X0008266Y0145924D02*
X0009000Y0146658D01*
X0009000Y0148126D01*
X0008266Y0148860D01*
X0005330Y0148860D01*
X0004596Y0148126D01*
X0004596Y0146658D01*
X0005330Y0145924D01*
X0006064Y0145924D01*
X0006798Y0146658D01*
X0006798Y0148860D01*
X0006064Y0144256D02*
X0009000Y0141320D01*
X0020300Y0144300D02*
X0020300Y0145800D01*
X0020302Y0145860D01*
X0020307Y0145921D01*
X0020316Y0145980D01*
X0020329Y0146039D01*
X0020345Y0146098D01*
X0020365Y0146155D01*
X0020388Y0146210D01*
X0020415Y0146265D01*
X0020444Y0146317D01*
X0020477Y0146368D01*
X0020513Y0146417D01*
X0020551Y0146463D01*
X0020593Y0146507D01*
X0020637Y0146549D01*
X0020683Y0146587D01*
X0020732Y0146623D01*
X0020783Y0146656D01*
X0020835Y0146685D01*
X0020890Y0146712D01*
X0020945Y0146735D01*
X0021002Y0146755D01*
X0021061Y0146771D01*
X0021120Y0146784D01*
X0021179Y0146793D01*
X0021240Y0146798D01*
X0021300Y0146800D01*
X0027300Y0146800D01*
X0027360Y0146798D01*
X0027421Y0146793D01*
X0027480Y0146784D01*
X0027539Y0146771D01*
X0027598Y0146755D01*
X0027655Y0146735D01*
X0027710Y0146712D01*
X0027765Y0146685D01*
X0027817Y0146656D01*
X0027868Y0146623D01*
X0027917Y0146587D01*
X0027963Y0146549D01*
X0028007Y0146507D01*
X0028049Y0146463D01*
X0028087Y0146417D01*
X0028123Y0146368D01*
X0028156Y0146317D01*
X0028185Y0146265D01*
X0028212Y0146210D01*
X0028235Y0146155D01*
X0028255Y0146098D01*
X0028271Y0146039D01*
X0028284Y0145980D01*
X0028293Y0145921D01*
X0028298Y0145860D01*
X0028300Y0145800D01*
X0028300Y0144300D01*
X0027800Y0143800D01*
X0027800Y0129800D01*
X0028300Y0129300D01*
X0028300Y0127800D01*
X0028298Y0127740D01*
X0028293Y0127679D01*
X0028284Y0127620D01*
X0028271Y0127561D01*
X0028255Y0127502D01*
X0028235Y0127445D01*
X0028212Y0127390D01*
X0028185Y0127335D01*
X0028156Y0127283D01*
X0028123Y0127232D01*
X0028087Y0127183D01*
X0028049Y0127137D01*
X0028007Y0127093D01*
X0027963Y0127051D01*
X0027917Y0127013D01*
X0027868Y0126977D01*
X0027817Y0126944D01*
X0027765Y0126915D01*
X0027710Y0126888D01*
X0027655Y0126865D01*
X0027598Y0126845D01*
X0027539Y0126829D01*
X0027480Y0126816D01*
X0027421Y0126807D01*
X0027360Y0126802D01*
X0027300Y0126800D01*
X0021300Y0126800D01*
X0021240Y0126802D01*
X0021179Y0126807D01*
X0021120Y0126816D01*
X0021061Y0126829D01*
X0021002Y0126845D01*
X0020945Y0126865D01*
X0020890Y0126888D01*
X0020835Y0126915D01*
X0020783Y0126944D01*
X0020732Y0126977D01*
X0020683Y0127013D01*
X0020637Y0127051D01*
X0020593Y0127093D01*
X0020551Y0127137D01*
X0020513Y0127183D01*
X0020477Y0127232D01*
X0020444Y0127283D01*
X0020415Y0127335D01*
X0020388Y0127390D01*
X0020365Y0127445D01*
X0020345Y0127502D01*
X0020329Y0127561D01*
X0020316Y0127620D01*
X0020307Y0127679D01*
X0020302Y0127740D01*
X0020300Y0127800D01*
X0020300Y0129300D01*
X0020800Y0129800D01*
X0020800Y0143800D01*
X0020300Y0144300D01*
X0030300Y0144300D02*
X0030300Y0145800D01*
X0030302Y0145860D01*
X0030307Y0145921D01*
X0030316Y0145980D01*
X0030329Y0146039D01*
X0030345Y0146098D01*
X0030365Y0146155D01*
X0030388Y0146210D01*
X0030415Y0146265D01*
X0030444Y0146317D01*
X0030477Y0146368D01*
X0030513Y0146417D01*
X0030551Y0146463D01*
X0030593Y0146507D01*
X0030637Y0146549D01*
X0030683Y0146587D01*
X0030732Y0146623D01*
X0030783Y0146656D01*
X0030835Y0146685D01*
X0030890Y0146712D01*
X0030945Y0146735D01*
X0031002Y0146755D01*
X0031061Y0146771D01*
X0031120Y0146784D01*
X0031179Y0146793D01*
X0031240Y0146798D01*
X0031300Y0146800D01*
X0037300Y0146800D01*
X0037360Y0146798D01*
X0037421Y0146793D01*
X0037480Y0146784D01*
X0037539Y0146771D01*
X0037598Y0146755D01*
X0037655Y0146735D01*
X0037710Y0146712D01*
X0037765Y0146685D01*
X0037817Y0146656D01*
X0037868Y0146623D01*
X0037917Y0146587D01*
X0037963Y0146549D01*
X0038007Y0146507D01*
X0038049Y0146463D01*
X0038087Y0146417D01*
X0038123Y0146368D01*
X0038156Y0146317D01*
X0038185Y0146265D01*
X0038212Y0146210D01*
X0038235Y0146155D01*
X0038255Y0146098D01*
X0038271Y0146039D01*
X0038284Y0145980D01*
X0038293Y0145921D01*
X0038298Y0145860D01*
X0038300Y0145800D01*
X0038300Y0144300D01*
X0037800Y0143800D01*
X0037800Y0129800D01*
X0038300Y0129300D01*
X0038300Y0127800D01*
X0038298Y0127740D01*
X0038293Y0127679D01*
X0038284Y0127620D01*
X0038271Y0127561D01*
X0038255Y0127502D01*
X0038235Y0127445D01*
X0038212Y0127390D01*
X0038185Y0127335D01*
X0038156Y0127283D01*
X0038123Y0127232D01*
X0038087Y0127183D01*
X0038049Y0127137D01*
X0038007Y0127093D01*
X0037963Y0127051D01*
X0037917Y0127013D01*
X0037868Y0126977D01*
X0037817Y0126944D01*
X0037765Y0126915D01*
X0037710Y0126888D01*
X0037655Y0126865D01*
X0037598Y0126845D01*
X0037539Y0126829D01*
X0037480Y0126816D01*
X0037421Y0126807D01*
X0037360Y0126802D01*
X0037300Y0126800D01*
X0031300Y0126800D01*
X0031240Y0126802D01*
X0031179Y0126807D01*
X0031120Y0126816D01*
X0031061Y0126829D01*
X0031002Y0126845D01*
X0030945Y0126865D01*
X0030890Y0126888D01*
X0030835Y0126915D01*
X0030783Y0126944D01*
X0030732Y0126977D01*
X0030683Y0127013D01*
X0030637Y0127051D01*
X0030593Y0127093D01*
X0030551Y0127137D01*
X0030513Y0127183D01*
X0030477Y0127232D01*
X0030444Y0127283D01*
X0030415Y0127335D01*
X0030388Y0127390D01*
X0030365Y0127445D01*
X0030345Y0127502D01*
X0030329Y0127561D01*
X0030316Y0127620D01*
X0030307Y0127679D01*
X0030302Y0127740D01*
X0030300Y0127800D01*
X0030300Y0129300D01*
X0030800Y0129800D01*
X0030800Y0143800D01*
X0030300Y0144300D01*
X0040300Y0144300D02*
X0040300Y0145800D01*
X0040302Y0145860D01*
X0040307Y0145921D01*
X0040316Y0145980D01*
X0040329Y0146039D01*
X0040345Y0146098D01*
X0040365Y0146155D01*
X0040388Y0146210D01*
X0040415Y0146265D01*
X0040444Y0146317D01*
X0040477Y0146368D01*
X0040513Y0146417D01*
X0040551Y0146463D01*
X0040593Y0146507D01*
X0040637Y0146549D01*
X0040683Y0146587D01*
X0040732Y0146623D01*
X0040783Y0146656D01*
X0040835Y0146685D01*
X0040890Y0146712D01*
X0040945Y0146735D01*
X0041002Y0146755D01*
X0041061Y0146771D01*
X0041120Y0146784D01*
X0041179Y0146793D01*
X0041240Y0146798D01*
X0041300Y0146800D01*
X0047300Y0146800D01*
X0047360Y0146798D01*
X0047421Y0146793D01*
X0047480Y0146784D01*
X0047539Y0146771D01*
X0047598Y0146755D01*
X0047655Y0146735D01*
X0047710Y0146712D01*
X0047765Y0146685D01*
X0047817Y0146656D01*
X0047868Y0146623D01*
X0047917Y0146587D01*
X0047963Y0146549D01*
X0048007Y0146507D01*
X0048049Y0146463D01*
X0048087Y0146417D01*
X0048123Y0146368D01*
X0048156Y0146317D01*
X0048185Y0146265D01*
X0048212Y0146210D01*
X0048235Y0146155D01*
X0048255Y0146098D01*
X0048271Y0146039D01*
X0048284Y0145980D01*
X0048293Y0145921D01*
X0048298Y0145860D01*
X0048300Y0145800D01*
X0048300Y0144300D01*
X0047800Y0143800D01*
X0047800Y0129800D01*
X0048300Y0129300D01*
X0048300Y0127800D01*
X0048298Y0127740D01*
X0048293Y0127679D01*
X0048284Y0127620D01*
X0048271Y0127561D01*
X0048255Y0127502D01*
X0048235Y0127445D01*
X0048212Y0127390D01*
X0048185Y0127335D01*
X0048156Y0127283D01*
X0048123Y0127232D01*
X0048087Y0127183D01*
X0048049Y0127137D01*
X0048007Y0127093D01*
X0047963Y0127051D01*
X0047917Y0127013D01*
X0047868Y0126977D01*
X0047817Y0126944D01*
X0047765Y0126915D01*
X0047710Y0126888D01*
X0047655Y0126865D01*
X0047598Y0126845D01*
X0047539Y0126829D01*
X0047480Y0126816D01*
X0047421Y0126807D01*
X0047360Y0126802D01*
X0047300Y0126800D01*
X0041300Y0126800D01*
X0041240Y0126802D01*
X0041179Y0126807D01*
X0041120Y0126816D01*
X0041061Y0126829D01*
X0041002Y0126845D01*
X0040945Y0126865D01*
X0040890Y0126888D01*
X0040835Y0126915D01*
X0040783Y0126944D01*
X0040732Y0126977D01*
X0040683Y0127013D01*
X0040637Y0127051D01*
X0040593Y0127093D01*
X0040551Y0127137D01*
X0040513Y0127183D01*
X0040477Y0127232D01*
X0040444Y0127283D01*
X0040415Y0127335D01*
X0040388Y0127390D01*
X0040365Y0127445D01*
X0040345Y0127502D01*
X0040329Y0127561D01*
X0040316Y0127620D01*
X0040307Y0127679D01*
X0040302Y0127740D01*
X0040300Y0127800D01*
X0040300Y0129300D01*
X0040800Y0129800D01*
X0040800Y0143800D01*
X0040300Y0144300D01*
X0050300Y0144300D02*
X0050300Y0145800D01*
X0050302Y0145860D01*
X0050307Y0145921D01*
X0050316Y0145980D01*
X0050329Y0146039D01*
X0050345Y0146098D01*
X0050365Y0146155D01*
X0050388Y0146210D01*
X0050415Y0146265D01*
X0050444Y0146317D01*
X0050477Y0146368D01*
X0050513Y0146417D01*
X0050551Y0146463D01*
X0050593Y0146507D01*
X0050637Y0146549D01*
X0050683Y0146587D01*
X0050732Y0146623D01*
X0050783Y0146656D01*
X0050835Y0146685D01*
X0050890Y0146712D01*
X0050945Y0146735D01*
X0051002Y0146755D01*
X0051061Y0146771D01*
X0051120Y0146784D01*
X0051179Y0146793D01*
X0051240Y0146798D01*
X0051300Y0146800D01*
X0057300Y0146800D01*
X0057360Y0146798D01*
X0057421Y0146793D01*
X0057480Y0146784D01*
X0057539Y0146771D01*
X0057598Y0146755D01*
X0057655Y0146735D01*
X0057710Y0146712D01*
X0057765Y0146685D01*
X0057817Y0146656D01*
X0057868Y0146623D01*
X0057917Y0146587D01*
X0057963Y0146549D01*
X0058007Y0146507D01*
X0058049Y0146463D01*
X0058087Y0146417D01*
X0058123Y0146368D01*
X0058156Y0146317D01*
X0058185Y0146265D01*
X0058212Y0146210D01*
X0058235Y0146155D01*
X0058255Y0146098D01*
X0058271Y0146039D01*
X0058284Y0145980D01*
X0058293Y0145921D01*
X0058298Y0145860D01*
X0058300Y0145800D01*
X0058300Y0144300D01*
X0057800Y0143800D01*
X0057800Y0129800D01*
X0058300Y0129300D01*
X0058300Y0127800D01*
X0058298Y0127740D01*
X0058293Y0127679D01*
X0058284Y0127620D01*
X0058271Y0127561D01*
X0058255Y0127502D01*
X0058235Y0127445D01*
X0058212Y0127390D01*
X0058185Y0127335D01*
X0058156Y0127283D01*
X0058123Y0127232D01*
X0058087Y0127183D01*
X0058049Y0127137D01*
X0058007Y0127093D01*
X0057963Y0127051D01*
X0057917Y0127013D01*
X0057868Y0126977D01*
X0057817Y0126944D01*
X0057765Y0126915D01*
X0057710Y0126888D01*
X0057655Y0126865D01*
X0057598Y0126845D01*
X0057539Y0126829D01*
X0057480Y0126816D01*
X0057421Y0126807D01*
X0057360Y0126802D01*
X0057300Y0126800D01*
X0051300Y0126800D01*
X0051240Y0126802D01*
X0051179Y0126807D01*
X0051120Y0126816D01*
X0051061Y0126829D01*
X0051002Y0126845D01*
X0050945Y0126865D01*
X0050890Y0126888D01*
X0050835Y0126915D01*
X0050783Y0126944D01*
X0050732Y0126977D01*
X0050683Y0127013D01*
X0050637Y0127051D01*
X0050593Y0127093D01*
X0050551Y0127137D01*
X0050513Y0127183D01*
X0050477Y0127232D01*
X0050444Y0127283D01*
X0050415Y0127335D01*
X0050388Y0127390D01*
X0050365Y0127445D01*
X0050345Y0127502D01*
X0050329Y0127561D01*
X0050316Y0127620D01*
X0050307Y0127679D01*
X0050302Y0127740D01*
X0050300Y0127800D01*
X0050300Y0129300D01*
X0050800Y0129800D01*
X0050800Y0143800D01*
X0050300Y0144300D01*
X0060300Y0144300D02*
X0060300Y0145800D01*
X0060302Y0145860D01*
X0060307Y0145921D01*
X0060316Y0145980D01*
X0060329Y0146039D01*
X0060345Y0146098D01*
X0060365Y0146155D01*
X0060388Y0146210D01*
X0060415Y0146265D01*
X0060444Y0146317D01*
X0060477Y0146368D01*
X0060513Y0146417D01*
X0060551Y0146463D01*
X0060593Y0146507D01*
X0060637Y0146549D01*
X0060683Y0146587D01*
X0060732Y0146623D01*
X0060783Y0146656D01*
X0060835Y0146685D01*
X0060890Y0146712D01*
X0060945Y0146735D01*
X0061002Y0146755D01*
X0061061Y0146771D01*
X0061120Y0146784D01*
X0061179Y0146793D01*
X0061240Y0146798D01*
X0061300Y0146800D01*
X0067300Y0146800D01*
X0067360Y0146798D01*
X0067421Y0146793D01*
X0067480Y0146784D01*
X0067539Y0146771D01*
X0067598Y0146755D01*
X0067655Y0146735D01*
X0067710Y0146712D01*
X0067765Y0146685D01*
X0067817Y0146656D01*
X0067868Y0146623D01*
X0067917Y0146587D01*
X0067963Y0146549D01*
X0068007Y0146507D01*
X0068049Y0146463D01*
X0068087Y0146417D01*
X0068123Y0146368D01*
X0068156Y0146317D01*
X0068185Y0146265D01*
X0068212Y0146210D01*
X0068235Y0146155D01*
X0068255Y0146098D01*
X0068271Y0146039D01*
X0068284Y0145980D01*
X0068293Y0145921D01*
X0068298Y0145860D01*
X0068300Y0145800D01*
X0068300Y0144300D01*
X0067800Y0143800D01*
X0067800Y0129800D01*
X0068300Y0129300D01*
X0068300Y0127800D01*
X0068298Y0127740D01*
X0068293Y0127679D01*
X0068284Y0127620D01*
X0068271Y0127561D01*
X0068255Y0127502D01*
X0068235Y0127445D01*
X0068212Y0127390D01*
X0068185Y0127335D01*
X0068156Y0127283D01*
X0068123Y0127232D01*
X0068087Y0127183D01*
X0068049Y0127137D01*
X0068007Y0127093D01*
X0067963Y0127051D01*
X0067917Y0127013D01*
X0067868Y0126977D01*
X0067817Y0126944D01*
X0067765Y0126915D01*
X0067710Y0126888D01*
X0067655Y0126865D01*
X0067598Y0126845D01*
X0067539Y0126829D01*
X0067480Y0126816D01*
X0067421Y0126807D01*
X0067360Y0126802D01*
X0067300Y0126800D01*
X0061300Y0126800D01*
X0061240Y0126802D01*
X0061179Y0126807D01*
X0061120Y0126816D01*
X0061061Y0126829D01*
X0061002Y0126845D01*
X0060945Y0126865D01*
X0060890Y0126888D01*
X0060835Y0126915D01*
X0060783Y0126944D01*
X0060732Y0126977D01*
X0060683Y0127013D01*
X0060637Y0127051D01*
X0060593Y0127093D01*
X0060551Y0127137D01*
X0060513Y0127183D01*
X0060477Y0127232D01*
X0060444Y0127283D01*
X0060415Y0127335D01*
X0060388Y0127390D01*
X0060365Y0127445D01*
X0060345Y0127502D01*
X0060329Y0127561D01*
X0060316Y0127620D01*
X0060307Y0127679D01*
X0060302Y0127740D01*
X0060300Y0127800D01*
X0060300Y0129300D01*
X0060800Y0129800D01*
X0060800Y0143800D01*
X0060300Y0144300D01*
X0070300Y0144300D02*
X0070300Y0145800D01*
X0070302Y0145860D01*
X0070307Y0145921D01*
X0070316Y0145980D01*
X0070329Y0146039D01*
X0070345Y0146098D01*
X0070365Y0146155D01*
X0070388Y0146210D01*
X0070415Y0146265D01*
X0070444Y0146317D01*
X0070477Y0146368D01*
X0070513Y0146417D01*
X0070551Y0146463D01*
X0070593Y0146507D01*
X0070637Y0146549D01*
X0070683Y0146587D01*
X0070732Y0146623D01*
X0070783Y0146656D01*
X0070835Y0146685D01*
X0070890Y0146712D01*
X0070945Y0146735D01*
X0071002Y0146755D01*
X0071061Y0146771D01*
X0071120Y0146784D01*
X0071179Y0146793D01*
X0071240Y0146798D01*
X0071300Y0146800D01*
X0077300Y0146800D01*
X0077360Y0146798D01*
X0077421Y0146793D01*
X0077480Y0146784D01*
X0077539Y0146771D01*
X0077598Y0146755D01*
X0077655Y0146735D01*
X0077710Y0146712D01*
X0077765Y0146685D01*
X0077817Y0146656D01*
X0077868Y0146623D01*
X0077917Y0146587D01*
X0077963Y0146549D01*
X0078007Y0146507D01*
X0078049Y0146463D01*
X0078087Y0146417D01*
X0078123Y0146368D01*
X0078156Y0146317D01*
X0078185Y0146265D01*
X0078212Y0146210D01*
X0078235Y0146155D01*
X0078255Y0146098D01*
X0078271Y0146039D01*
X0078284Y0145980D01*
X0078293Y0145921D01*
X0078298Y0145860D01*
X0078300Y0145800D01*
X0078300Y0144300D01*
X0077800Y0143800D01*
X0077800Y0129800D01*
X0078300Y0129300D01*
X0078300Y0127800D01*
X0078298Y0127740D01*
X0078293Y0127679D01*
X0078284Y0127620D01*
X0078271Y0127561D01*
X0078255Y0127502D01*
X0078235Y0127445D01*
X0078212Y0127390D01*
X0078185Y0127335D01*
X0078156Y0127283D01*
X0078123Y0127232D01*
X0078087Y0127183D01*
X0078049Y0127137D01*
X0078007Y0127093D01*
X0077963Y0127051D01*
X0077917Y0127013D01*
X0077868Y0126977D01*
X0077817Y0126944D01*
X0077765Y0126915D01*
X0077710Y0126888D01*
X0077655Y0126865D01*
X0077598Y0126845D01*
X0077539Y0126829D01*
X0077480Y0126816D01*
X0077421Y0126807D01*
X0077360Y0126802D01*
X0077300Y0126800D01*
X0071300Y0126800D01*
X0071240Y0126802D01*
X0071179Y0126807D01*
X0071120Y0126816D01*
X0071061Y0126829D01*
X0071002Y0126845D01*
X0070945Y0126865D01*
X0070890Y0126888D01*
X0070835Y0126915D01*
X0070783Y0126944D01*
X0070732Y0126977D01*
X0070683Y0127013D01*
X0070637Y0127051D01*
X0070593Y0127093D01*
X0070551Y0127137D01*
X0070513Y0127183D01*
X0070477Y0127232D01*
X0070444Y0127283D01*
X0070415Y0127335D01*
X0070388Y0127390D01*
X0070365Y0127445D01*
X0070345Y0127502D01*
X0070329Y0127561D01*
X0070316Y0127620D01*
X0070307Y0127679D01*
X0070302Y0127740D01*
X0070300Y0127800D01*
X0070300Y0129300D01*
X0070800Y0129800D01*
X0070800Y0143800D01*
X0070300Y0144300D01*
X0080300Y0144300D02*
X0080300Y0145800D01*
X0080302Y0145860D01*
X0080307Y0145921D01*
X0080316Y0145980D01*
X0080329Y0146039D01*
X0080345Y0146098D01*
X0080365Y0146155D01*
X0080388Y0146210D01*
X0080415Y0146265D01*
X0080444Y0146317D01*
X0080477Y0146368D01*
X0080513Y0146417D01*
X0080551Y0146463D01*
X0080593Y0146507D01*
X0080637Y0146549D01*
X0080683Y0146587D01*
X0080732Y0146623D01*
X0080783Y0146656D01*
X0080835Y0146685D01*
X0080890Y0146712D01*
X0080945Y0146735D01*
X0081002Y0146755D01*
X0081061Y0146771D01*
X0081120Y0146784D01*
X0081179Y0146793D01*
X0081240Y0146798D01*
X0081300Y0146800D01*
X0087300Y0146800D01*
X0087360Y0146798D01*
X0087421Y0146793D01*
X0087480Y0146784D01*
X0087539Y0146771D01*
X0087598Y0146755D01*
X0087655Y0146735D01*
X0087710Y0146712D01*
X0087765Y0146685D01*
X0087817Y0146656D01*
X0087868Y0146623D01*
X0087917Y0146587D01*
X0087963Y0146549D01*
X0088007Y0146507D01*
X0088049Y0146463D01*
X0088087Y0146417D01*
X0088123Y0146368D01*
X0088156Y0146317D01*
X0088185Y0146265D01*
X0088212Y0146210D01*
X0088235Y0146155D01*
X0088255Y0146098D01*
X0088271Y0146039D01*
X0088284Y0145980D01*
X0088293Y0145921D01*
X0088298Y0145860D01*
X0088300Y0145800D01*
X0088300Y0144300D01*
X0087800Y0143800D01*
X0087800Y0129800D01*
X0088300Y0129300D01*
X0088300Y0127800D01*
X0088298Y0127740D01*
X0088293Y0127679D01*
X0088284Y0127620D01*
X0088271Y0127561D01*
X0088255Y0127502D01*
X0088235Y0127445D01*
X0088212Y0127390D01*
X0088185Y0127335D01*
X0088156Y0127283D01*
X0088123Y0127232D01*
X0088087Y0127183D01*
X0088049Y0127137D01*
X0088007Y0127093D01*
X0087963Y0127051D01*
X0087917Y0127013D01*
X0087868Y0126977D01*
X0087817Y0126944D01*
X0087765Y0126915D01*
X0087710Y0126888D01*
X0087655Y0126865D01*
X0087598Y0126845D01*
X0087539Y0126829D01*
X0087480Y0126816D01*
X0087421Y0126807D01*
X0087360Y0126802D01*
X0087300Y0126800D01*
X0081300Y0126800D01*
X0081240Y0126802D01*
X0081179Y0126807D01*
X0081120Y0126816D01*
X0081061Y0126829D01*
X0081002Y0126845D01*
X0080945Y0126865D01*
X0080890Y0126888D01*
X0080835Y0126915D01*
X0080783Y0126944D01*
X0080732Y0126977D01*
X0080683Y0127013D01*
X0080637Y0127051D01*
X0080593Y0127093D01*
X0080551Y0127137D01*
X0080513Y0127183D01*
X0080477Y0127232D01*
X0080444Y0127283D01*
X0080415Y0127335D01*
X0080388Y0127390D01*
X0080365Y0127445D01*
X0080345Y0127502D01*
X0080329Y0127561D01*
X0080316Y0127620D01*
X0080307Y0127679D01*
X0080302Y0127740D01*
X0080300Y0127800D01*
X0080300Y0129300D01*
X0080800Y0129800D01*
X0080800Y0143800D01*
X0080300Y0144300D01*
X0090300Y0144300D02*
X0090300Y0145800D01*
X0090302Y0145860D01*
X0090307Y0145921D01*
X0090316Y0145980D01*
X0090329Y0146039D01*
X0090345Y0146098D01*
X0090365Y0146155D01*
X0090388Y0146210D01*
X0090415Y0146265D01*
X0090444Y0146317D01*
X0090477Y0146368D01*
X0090513Y0146417D01*
X0090551Y0146463D01*
X0090593Y0146507D01*
X0090637Y0146549D01*
X0090683Y0146587D01*
X0090732Y0146623D01*
X0090783Y0146656D01*
X0090835Y0146685D01*
X0090890Y0146712D01*
X0090945Y0146735D01*
X0091002Y0146755D01*
X0091061Y0146771D01*
X0091120Y0146784D01*
X0091179Y0146793D01*
X0091240Y0146798D01*
X0091300Y0146800D01*
X0097300Y0146800D01*
X0097360Y0146798D01*
X0097421Y0146793D01*
X0097480Y0146784D01*
X0097539Y0146771D01*
X0097598Y0146755D01*
X0097655Y0146735D01*
X0097710Y0146712D01*
X0097765Y0146685D01*
X0097817Y0146656D01*
X0097868Y0146623D01*
X0097917Y0146587D01*
X0097963Y0146549D01*
X0098007Y0146507D01*
X0098049Y0146463D01*
X0098087Y0146417D01*
X0098123Y0146368D01*
X0098156Y0146317D01*
X0098185Y0146265D01*
X0098212Y0146210D01*
X0098235Y0146155D01*
X0098255Y0146098D01*
X0098271Y0146039D01*
X0098284Y0145980D01*
X0098293Y0145921D01*
X0098298Y0145860D01*
X0098300Y0145800D01*
X0098300Y0144300D01*
X0097800Y0143800D01*
X0097800Y0129800D01*
X0098300Y0129300D01*
X0098300Y0127800D01*
X0098298Y0127740D01*
X0098293Y0127679D01*
X0098284Y0127620D01*
X0098271Y0127561D01*
X0098255Y0127502D01*
X0098235Y0127445D01*
X0098212Y0127390D01*
X0098185Y0127335D01*
X0098156Y0127283D01*
X0098123Y0127232D01*
X0098087Y0127183D01*
X0098049Y0127137D01*
X0098007Y0127093D01*
X0097963Y0127051D01*
X0097917Y0127013D01*
X0097868Y0126977D01*
X0097817Y0126944D01*
X0097765Y0126915D01*
X0097710Y0126888D01*
X0097655Y0126865D01*
X0097598Y0126845D01*
X0097539Y0126829D01*
X0097480Y0126816D01*
X0097421Y0126807D01*
X0097360Y0126802D01*
X0097300Y0126800D01*
X0091300Y0126800D01*
X0091240Y0126802D01*
X0091179Y0126807D01*
X0091120Y0126816D01*
X0091061Y0126829D01*
X0091002Y0126845D01*
X0090945Y0126865D01*
X0090890Y0126888D01*
X0090835Y0126915D01*
X0090783Y0126944D01*
X0090732Y0126977D01*
X0090683Y0127013D01*
X0090637Y0127051D01*
X0090593Y0127093D01*
X0090551Y0127137D01*
X0090513Y0127183D01*
X0090477Y0127232D01*
X0090444Y0127283D01*
X0090415Y0127335D01*
X0090388Y0127390D01*
X0090365Y0127445D01*
X0090345Y0127502D01*
X0090329Y0127561D01*
X0090316Y0127620D01*
X0090307Y0127679D01*
X0090302Y0127740D01*
X0090300Y0127800D01*
X0090300Y0129300D01*
X0090800Y0129800D01*
X0090800Y0143800D01*
X0090300Y0144300D01*
X0105590Y0142536D02*
X0107058Y0144004D01*
X0107058Y0139600D01*
X0105590Y0139600D02*
X0108526Y0139600D01*
X0110194Y0140334D02*
X0113130Y0143270D01*
X0113130Y0140334D01*
X0112396Y0139600D01*
X0110928Y0139600D01*
X0110194Y0140334D01*
X0110194Y0143270D01*
X0110928Y0144004D01*
X0112396Y0144004D01*
X0113130Y0143270D01*
X0114798Y0143270D02*
X0115532Y0144004D01*
X0117000Y0144004D01*
X0117734Y0143270D01*
X0114798Y0140334D01*
X0115532Y0139600D01*
X0117000Y0139600D01*
X0117734Y0140334D01*
X0117734Y0143270D01*
X0119402Y0142536D02*
X0121604Y0142536D01*
X0122338Y0141802D01*
X0122338Y0139600D01*
X0124006Y0139600D02*
X0124006Y0144004D01*
X0126942Y0144004D01*
X0125474Y0141802D02*
X0124006Y0141802D01*
X0119402Y0142536D02*
X0119402Y0139600D01*
X0125300Y0136800D02*
X0108300Y0136800D01*
X0108240Y0136798D01*
X0108179Y0136793D01*
X0108120Y0136784D01*
X0108061Y0136771D01*
X0108002Y0136755D01*
X0107945Y0136735D01*
X0107890Y0136712D01*
X0107835Y0136685D01*
X0107783Y0136656D01*
X0107732Y0136623D01*
X0107683Y0136587D01*
X0107637Y0136549D01*
X0107593Y0136507D01*
X0107551Y0136463D01*
X0107513Y0136417D01*
X0107477Y0136368D01*
X0107444Y0136317D01*
X0107415Y0136265D01*
X0107388Y0136210D01*
X0107365Y0136155D01*
X0107345Y0136098D01*
X0107329Y0136039D01*
X0107316Y0135980D01*
X0107307Y0135921D01*
X0107302Y0135860D01*
X0107300Y0135800D01*
X0107300Y0127800D01*
X0107302Y0127740D01*
X0107307Y0127679D01*
X0107316Y0127620D01*
X0107329Y0127561D01*
X0107345Y0127502D01*
X0107365Y0127445D01*
X0107388Y0127390D01*
X0107415Y0127335D01*
X0107444Y0127283D01*
X0107477Y0127232D01*
X0107513Y0127183D01*
X0107551Y0127137D01*
X0107593Y0127093D01*
X0107637Y0127051D01*
X0107683Y0127013D01*
X0107732Y0126977D01*
X0107783Y0126944D01*
X0107835Y0126915D01*
X0107890Y0126888D01*
X0107945Y0126865D01*
X0108002Y0126845D01*
X0108061Y0126829D01*
X0108120Y0126816D01*
X0108179Y0126807D01*
X0108240Y0126802D01*
X0108300Y0126800D01*
X0125300Y0126800D01*
X0124640Y0126504D02*
X0121704Y0126504D01*
X0121704Y0122100D01*
X0120036Y0122100D02*
X0120036Y0124302D01*
X0119302Y0125036D01*
X0117100Y0125036D01*
X0117100Y0122100D01*
X0115432Y0122834D02*
X0114698Y0122100D01*
X0113230Y0122100D01*
X0112496Y0122834D01*
X0115432Y0125770D01*
X0115432Y0122834D01*
X0115432Y0125770D02*
X0114698Y0126504D01*
X0113230Y0126504D01*
X0112496Y0125770D01*
X0112496Y0122834D01*
X0110828Y0122100D02*
X0107892Y0122100D01*
X0109360Y0122100D02*
X0109360Y0126504D01*
X0107892Y0125036D01*
X0115300Y0131800D02*
X0115800Y0131800D01*
X0117800Y0131800D02*
X0118300Y0131800D01*
X0125300Y0126800D02*
X0125360Y0126802D01*
X0125421Y0126807D01*
X0125480Y0126816D01*
X0125539Y0126829D01*
X0125598Y0126845D01*
X0125655Y0126865D01*
X0125710Y0126888D01*
X0125765Y0126915D01*
X0125817Y0126944D01*
X0125868Y0126977D01*
X0125917Y0127013D01*
X0125963Y0127051D01*
X0126007Y0127093D01*
X0126049Y0127137D01*
X0126087Y0127183D01*
X0126123Y0127232D01*
X0126156Y0127283D01*
X0126185Y0127335D01*
X0126212Y0127390D01*
X0126235Y0127445D01*
X0126255Y0127502D01*
X0126271Y0127561D01*
X0126284Y0127620D01*
X0126293Y0127679D01*
X0126298Y0127740D01*
X0126300Y0127800D01*
X0126300Y0135800D01*
X0126298Y0135860D01*
X0126293Y0135921D01*
X0126284Y0135980D01*
X0126271Y0136039D01*
X0126255Y0136098D01*
X0126235Y0136155D01*
X0126212Y0136210D01*
X0126185Y0136265D01*
X0126156Y0136317D01*
X0126123Y0136368D01*
X0126087Y0136417D01*
X0126049Y0136463D01*
X0126007Y0136507D01*
X0125963Y0136549D01*
X0125917Y0136587D01*
X0125868Y0136623D01*
X0125817Y0136656D01*
X0125765Y0136685D01*
X0125710Y0136712D01*
X0125655Y0136735D01*
X0125598Y0136755D01*
X0125539Y0136771D01*
X0125480Y0136784D01*
X0125421Y0136793D01*
X0125360Y0136798D01*
X0125300Y0136800D01*
X0133428Y0129004D02*
X0132694Y0128270D01*
X0132694Y0125334D01*
X0133428Y0124600D01*
X0134896Y0124600D01*
X0135630Y0125334D01*
X0135630Y0126802D01*
X0134162Y0126802D01*
X0135630Y0128270D02*
X0134896Y0129004D01*
X0133428Y0129004D01*
X0137298Y0129004D02*
X0137298Y0124600D01*
X0140234Y0124600D02*
X0140234Y0129004D01*
X0141902Y0129004D02*
X0144104Y0129004D01*
X0144838Y0128270D01*
X0144838Y0125334D01*
X0144104Y0124600D01*
X0141902Y0124600D01*
X0141902Y0129004D01*
X0137298Y0129004D02*
X0140234Y0124600D01*
X0141800Y0121800D02*
X0136800Y0121800D01*
X0134300Y0119300D01*
X0134300Y0114300D01*
X0136800Y0111800D01*
X0141800Y0111800D01*
X0144300Y0114300D01*
X0144300Y0119300D01*
X0141800Y0121800D01*
X0141800Y0111800D02*
X0144300Y0109300D01*
X0144300Y0104300D01*
X0141800Y0101800D01*
X0136800Y0101800D01*
X0134300Y0104300D01*
X0134300Y0109300D01*
X0136800Y0111800D01*
X0135630Y0099004D02*
X0135630Y0096068D01*
X0134162Y0094600D01*
X0132694Y0096068D01*
X0132694Y0099004D01*
X0137298Y0098270D02*
X0137298Y0095334D01*
X0138032Y0094600D01*
X0139500Y0094600D01*
X0140234Y0095334D01*
X0141902Y0095334D02*
X0142636Y0094600D01*
X0144104Y0094600D01*
X0144838Y0095334D01*
X0141902Y0095334D02*
X0141902Y0098270D01*
X0142636Y0099004D01*
X0144104Y0099004D01*
X0144838Y0098270D01*
X0140234Y0098270D02*
X0139500Y0099004D01*
X0138032Y0099004D01*
X0137298Y0098270D01*
X0121495Y0090770D02*
X0121495Y0089302D01*
X0120761Y0088568D01*
X0118560Y0088568D01*
X0120027Y0088568D02*
X0121495Y0087100D01*
X0118560Y0087100D02*
X0118560Y0091504D01*
X0120761Y0091504D01*
X0121495Y0090770D01*
X0116891Y0091504D02*
X0113956Y0091504D01*
X0113956Y0087100D01*
X0116891Y0087100D01*
X0115424Y0089302D02*
X0113956Y0089302D01*
X0112288Y0087834D02*
X0112288Y0090770D01*
X0111554Y0091504D01*
X0109352Y0091504D01*
X0109352Y0087100D01*
X0111554Y0087100D01*
X0112288Y0087834D01*
X0107684Y0087100D02*
X0107684Y0090036D01*
X0106216Y0091504D01*
X0104748Y0090036D01*
X0104748Y0087100D01*
X0103080Y0087834D02*
X0103080Y0088568D01*
X0102346Y0089302D01*
X0100144Y0089302D01*
X0102346Y0089302D02*
X0103080Y0090036D01*
X0103080Y0090770D01*
X0102346Y0091504D01*
X0100144Y0091504D01*
X0100144Y0087100D01*
X0102346Y0087100D01*
X0103080Y0087834D01*
X0104748Y0089302D02*
X0107684Y0089302D01*
X0093972Y0087834D02*
X0093972Y0087100D01*
X0093238Y0087100D01*
X0093238Y0087834D01*
X0093972Y0087834D01*
X0091570Y0087834D02*
X0090836Y0087100D01*
X0089368Y0087100D01*
X0088634Y0087834D01*
X0088634Y0090770D01*
X0089368Y0091504D01*
X0090836Y0091504D01*
X0091570Y0090770D01*
X0121704Y0124302D02*
X0123172Y0124302D01*
X0114798Y0140334D02*
X0114798Y0143270D01*
X0108300Y0151800D02*
X0108303Y0152009D01*
X0108310Y0152217D01*
X0108323Y0152425D01*
X0108341Y0152633D01*
X0108364Y0152840D01*
X0108392Y0153047D01*
X0108425Y0153253D01*
X0108463Y0153458D01*
X0108507Y0153662D01*
X0108555Y0153865D01*
X0108608Y0154067D01*
X0108666Y0154267D01*
X0108729Y0154466D01*
X0108797Y0154664D01*
X0108870Y0154859D01*
X0108947Y0155053D01*
X0109029Y0155245D01*
X0109116Y0155434D01*
X0109208Y0155622D01*
X0109304Y0155807D01*
X0109404Y0155990D01*
X0109509Y0156170D01*
X0109619Y0156347D01*
X0109733Y0156522D01*
X0109851Y0156694D01*
X0109973Y0156863D01*
X0110099Y0157029D01*
X0110229Y0157192D01*
X0110364Y0157352D01*
X0110502Y0157508D01*
X0110644Y0157661D01*
X0110790Y0157810D01*
X0110939Y0157956D01*
X0111092Y0158098D01*
X0111248Y0158236D01*
X0111408Y0158371D01*
X0111571Y0158501D01*
X0111737Y0158627D01*
X0111906Y0158749D01*
X0112078Y0158867D01*
X0112253Y0158981D01*
X0112430Y0159091D01*
X0112610Y0159196D01*
X0112793Y0159296D01*
X0112978Y0159392D01*
X0113166Y0159484D01*
X0113355Y0159571D01*
X0113547Y0159653D01*
X0113741Y0159730D01*
X0113936Y0159803D01*
X0114134Y0159871D01*
X0114333Y0159934D01*
X0114533Y0159992D01*
X0114735Y0160045D01*
X0114938Y0160093D01*
X0115142Y0160137D01*
X0115347Y0160175D01*
X0115553Y0160208D01*
X0115760Y0160236D01*
X0115967Y0160259D01*
X0116175Y0160277D01*
X0116383Y0160290D01*
X0116591Y0160297D01*
X0116800Y0160300D01*
X0117009Y0160297D01*
X0117217Y0160290D01*
X0117425Y0160277D01*
X0117633Y0160259D01*
X0117840Y0160236D01*
X0118047Y0160208D01*
X0118253Y0160175D01*
X0118458Y0160137D01*
X0118662Y0160093D01*
X0118865Y0160045D01*
X0119067Y0159992D01*
X0119267Y0159934D01*
X0119466Y0159871D01*
X0119664Y0159803D01*
X0119859Y0159730D01*
X0120053Y0159653D01*
X0120245Y0159571D01*
X0120434Y0159484D01*
X0120622Y0159392D01*
X0120807Y0159296D01*
X0120990Y0159196D01*
X0121170Y0159091D01*
X0121347Y0158981D01*
X0121522Y0158867D01*
X0121694Y0158749D01*
X0121863Y0158627D01*
X0122029Y0158501D01*
X0122192Y0158371D01*
X0122352Y0158236D01*
X0122508Y0158098D01*
X0122661Y0157956D01*
X0122810Y0157810D01*
X0122956Y0157661D01*
X0123098Y0157508D01*
X0123236Y0157352D01*
X0123371Y0157192D01*
X0123501Y0157029D01*
X0123627Y0156863D01*
X0123749Y0156694D01*
X0123867Y0156522D01*
X0123981Y0156347D01*
X0124091Y0156170D01*
X0124196Y0155990D01*
X0124296Y0155807D01*
X0124392Y0155622D01*
X0124484Y0155434D01*
X0124571Y0155245D01*
X0124653Y0155053D01*
X0124730Y0154859D01*
X0124803Y0154664D01*
X0124871Y0154466D01*
X0124934Y0154267D01*
X0124992Y0154067D01*
X0125045Y0153865D01*
X0125093Y0153662D01*
X0125137Y0153458D01*
X0125175Y0153253D01*
X0125208Y0153047D01*
X0125236Y0152840D01*
X0125259Y0152633D01*
X0125277Y0152425D01*
X0125290Y0152217D01*
X0125297Y0152009D01*
X0125300Y0151800D01*
X0125297Y0151591D01*
X0125290Y0151383D01*
X0125277Y0151175D01*
X0125259Y0150967D01*
X0125236Y0150760D01*
X0125208Y0150553D01*
X0125175Y0150347D01*
X0125137Y0150142D01*
X0125093Y0149938D01*
X0125045Y0149735D01*
X0124992Y0149533D01*
X0124934Y0149333D01*
X0124871Y0149134D01*
X0124803Y0148936D01*
X0124730Y0148741D01*
X0124653Y0148547D01*
X0124571Y0148355D01*
X0124484Y0148166D01*
X0124392Y0147978D01*
X0124296Y0147793D01*
X0124196Y0147610D01*
X0124091Y0147430D01*
X0123981Y0147253D01*
X0123867Y0147078D01*
X0123749Y0146906D01*
X0123627Y0146737D01*
X0123501Y0146571D01*
X0123371Y0146408D01*
X0123236Y0146248D01*
X0123098Y0146092D01*
X0122956Y0145939D01*
X0122810Y0145790D01*
X0122661Y0145644D01*
X0122508Y0145502D01*
X0122352Y0145364D01*
X0122192Y0145229D01*
X0122029Y0145099D01*
X0121863Y0144973D01*
X0121694Y0144851D01*
X0121522Y0144733D01*
X0121347Y0144619D01*
X0121170Y0144509D01*
X0120990Y0144404D01*
X0120807Y0144304D01*
X0120622Y0144208D01*
X0120434Y0144116D01*
X0120245Y0144029D01*
X0120053Y0143947D01*
X0119859Y0143870D01*
X0119664Y0143797D01*
X0119466Y0143729D01*
X0119267Y0143666D01*
X0119067Y0143608D01*
X0118865Y0143555D01*
X0118662Y0143507D01*
X0118458Y0143463D01*
X0118253Y0143425D01*
X0118047Y0143392D01*
X0117840Y0143364D01*
X0117633Y0143341D01*
X0117425Y0143323D01*
X0117217Y0143310D01*
X0117009Y0143303D01*
X0116800Y0143300D01*
X0116591Y0143303D01*
X0116383Y0143310D01*
X0116175Y0143323D01*
X0115967Y0143341D01*
X0115760Y0143364D01*
X0115553Y0143392D01*
X0115347Y0143425D01*
X0115142Y0143463D01*
X0114938Y0143507D01*
X0114735Y0143555D01*
X0114533Y0143608D01*
X0114333Y0143666D01*
X0114134Y0143729D01*
X0113936Y0143797D01*
X0113741Y0143870D01*
X0113547Y0143947D01*
X0113355Y0144029D01*
X0113166Y0144116D01*
X0112978Y0144208D01*
X0112793Y0144304D01*
X0112610Y0144404D01*
X0112430Y0144509D01*
X0112253Y0144619D01*
X0112078Y0144733D01*
X0111906Y0144851D01*
X0111737Y0144973D01*
X0111571Y0145099D01*
X0111408Y0145229D01*
X0111248Y0145364D01*
X0111092Y0145502D01*
X0110939Y0145644D01*
X0110790Y0145790D01*
X0110644Y0145939D01*
X0110502Y0146092D01*
X0110364Y0146248D01*
X0110229Y0146408D01*
X0110099Y0146571D01*
X0109973Y0146737D01*
X0109851Y0146906D01*
X0109733Y0147078D01*
X0109619Y0147253D01*
X0109509Y0147430D01*
X0109404Y0147610D01*
X0109304Y0147793D01*
X0109208Y0147978D01*
X0109116Y0148166D01*
X0109029Y0148355D01*
X0108947Y0148547D01*
X0108870Y0148741D01*
X0108797Y0148936D01*
X0108729Y0149134D01*
X0108666Y0149333D01*
X0108608Y0149533D01*
X0108555Y0149735D01*
X0108507Y0149938D01*
X0108463Y0150142D01*
X0108425Y0150347D01*
X0108392Y0150553D01*
X0108364Y0150760D01*
X0108341Y0150967D01*
X0108323Y0151175D01*
X0108310Y0151383D01*
X0108303Y0151591D01*
X0108300Y0151800D01*
X0113800Y0157800D02*
X0115800Y0157800D01*
X0114800Y0156800D02*
X0114800Y0158800D01*
X0118300Y0157800D02*
X0120300Y0157800D01*
X0124300Y0165300D02*
X0125800Y0165300D01*
X0125860Y0165302D01*
X0125921Y0165307D01*
X0125980Y0165316D01*
X0126039Y0165329D01*
X0126098Y0165345D01*
X0126155Y0165365D01*
X0126210Y0165388D01*
X0126265Y0165415D01*
X0126317Y0165444D01*
X0126368Y0165477D01*
X0126417Y0165513D01*
X0126463Y0165551D01*
X0126507Y0165593D01*
X0126549Y0165637D01*
X0126587Y0165683D01*
X0126623Y0165732D01*
X0126656Y0165783D01*
X0126685Y0165835D01*
X0126712Y0165890D01*
X0126735Y0165945D01*
X0126755Y0166002D01*
X0126771Y0166061D01*
X0126784Y0166120D01*
X0126793Y0166179D01*
X0126798Y0166240D01*
X0126800Y0166300D01*
X0126800Y0172300D01*
X0126798Y0172360D01*
X0126793Y0172421D01*
X0126784Y0172480D01*
X0126771Y0172539D01*
X0126755Y0172598D01*
X0126735Y0172655D01*
X0126712Y0172710D01*
X0126685Y0172765D01*
X0126656Y0172817D01*
X0126623Y0172868D01*
X0126587Y0172917D01*
X0126549Y0172963D01*
X0126507Y0173007D01*
X0126463Y0173049D01*
X0126417Y0173087D01*
X0126368Y0173123D01*
X0126317Y0173156D01*
X0126265Y0173185D01*
X0126210Y0173212D01*
X0126155Y0173235D01*
X0126098Y0173255D01*
X0126039Y0173271D01*
X0125980Y0173284D01*
X0125921Y0173293D01*
X0125860Y0173298D01*
X0125800Y0173300D01*
X0124300Y0173300D01*
X0123800Y0172800D01*
X0109800Y0172800D01*
X0109300Y0173300D01*
X0107800Y0173300D01*
X0107740Y0173298D01*
X0107679Y0173293D01*
X0107620Y0173284D01*
X0107561Y0173271D01*
X0107502Y0173255D01*
X0107445Y0173235D01*
X0107390Y0173212D01*
X0107335Y0173185D01*
X0107283Y0173156D01*
X0107232Y0173123D01*
X0107183Y0173087D01*
X0107137Y0173049D01*
X0107093Y0173007D01*
X0107051Y0172963D01*
X0107013Y0172917D01*
X0106977Y0172868D01*
X0106944Y0172817D01*
X0106915Y0172765D01*
X0106888Y0172710D01*
X0106865Y0172655D01*
X0106845Y0172598D01*
X0106829Y0172539D01*
X0106816Y0172480D01*
X0106807Y0172421D01*
X0106802Y0172360D01*
X0106800Y0172300D01*
X0106800Y0166300D01*
X0106802Y0166240D01*
X0106807Y0166179D01*
X0106816Y0166120D01*
X0106829Y0166061D01*
X0106845Y0166002D01*
X0106865Y0165945D01*
X0106888Y0165890D01*
X0106915Y0165835D01*
X0106944Y0165783D01*
X0106977Y0165732D01*
X0107013Y0165683D01*
X0107051Y0165637D01*
X0107093Y0165593D01*
X0107137Y0165551D01*
X0107183Y0165513D01*
X0107232Y0165477D01*
X0107283Y0165444D01*
X0107335Y0165415D01*
X0107390Y0165388D01*
X0107445Y0165365D01*
X0107502Y0165345D01*
X0107561Y0165329D01*
X0107620Y0165316D01*
X0107679Y0165307D01*
X0107740Y0165302D01*
X0107800Y0165300D01*
X0109300Y0165300D01*
X0109800Y0165800D01*
X0123800Y0165800D01*
X0124300Y0165300D01*
X0123239Y0167100D02*
X0124706Y0168568D01*
X0124706Y0170036D01*
X0123239Y0171504D01*
X0121637Y0170036D02*
X0120169Y0170036D01*
X0120903Y0170770D02*
X0120903Y0167834D01*
X0121637Y0167100D01*
X0118501Y0167834D02*
X0117767Y0167100D01*
X0115565Y0167100D01*
X0115565Y0165632D02*
X0115565Y0170036D01*
X0117767Y0170036D01*
X0118501Y0169302D01*
X0118501Y0167834D01*
X0113897Y0167834D02*
X0113897Y0169302D01*
X0113163Y0170036D01*
X0111695Y0170036D01*
X0110961Y0169302D01*
X0110961Y0167834D01*
X0111695Y0167100D01*
X0113163Y0167100D01*
X0113897Y0167834D01*
X0109360Y0167100D02*
X0107892Y0168568D01*
X0107892Y0170036D01*
X0109360Y0171504D01*
X0103266Y0180194D02*
X0100330Y0180194D01*
X0099596Y0180928D01*
X0099596Y0182396D01*
X0100330Y0183130D01*
X0101798Y0183130D02*
X0101798Y0181662D01*
X0101798Y0183130D02*
X0103266Y0183130D01*
X0104000Y0182396D01*
X0104000Y0180928D01*
X0103266Y0180194D01*
X0106800Y0184300D02*
X0106800Y0189300D01*
X0109300Y0191800D01*
X0114300Y0191800D01*
X0116800Y0189300D01*
X0119300Y0191800D01*
X0124300Y0191800D01*
X0126800Y0189300D01*
X0126800Y0184300D01*
X0124300Y0181800D01*
X0119300Y0181800D01*
X0116800Y0184300D01*
X0114300Y0181800D01*
X0109300Y0181800D01*
X0106800Y0184300D01*
X0104000Y0184798D02*
X0099596Y0184798D01*
X0104000Y0187734D01*
X0099596Y0187734D01*
X0099596Y0189402D02*
X0099596Y0191604D01*
X0100330Y0192338D01*
X0103266Y0192338D01*
X0104000Y0191604D01*
X0104000Y0189402D01*
X0099596Y0189402D01*
X0093300Y0185800D02*
X0093300Y0184300D01*
X0092800Y0183800D01*
X0092800Y0169800D01*
X0093300Y0169300D01*
X0093300Y0167800D01*
X0093298Y0167740D01*
X0093293Y0167679D01*
X0093284Y0167620D01*
X0093271Y0167561D01*
X0093255Y0167502D01*
X0093235Y0167445D01*
X0093212Y0167390D01*
X0093185Y0167335D01*
X0093156Y0167283D01*
X0093123Y0167232D01*
X0093087Y0167183D01*
X0093049Y0167137D01*
X0093007Y0167093D01*
X0092963Y0167051D01*
X0092917Y0167013D01*
X0092868Y0166977D01*
X0092817Y0166944D01*
X0092765Y0166915D01*
X0092710Y0166888D01*
X0092655Y0166865D01*
X0092598Y0166845D01*
X0092539Y0166829D01*
X0092480Y0166816D01*
X0092421Y0166807D01*
X0092360Y0166802D01*
X0092300Y0166800D01*
X0086300Y0166800D01*
X0086240Y0166802D01*
X0086179Y0166807D01*
X0086120Y0166816D01*
X0086061Y0166829D01*
X0086002Y0166845D01*
X0085945Y0166865D01*
X0085890Y0166888D01*
X0085835Y0166915D01*
X0085783Y0166944D01*
X0085732Y0166977D01*
X0085683Y0167013D01*
X0085637Y0167051D01*
X0085593Y0167093D01*
X0085551Y0167137D01*
X0085513Y0167183D01*
X0085477Y0167232D01*
X0085444Y0167283D01*
X0085415Y0167335D01*
X0085388Y0167390D01*
X0085365Y0167445D01*
X0085345Y0167502D01*
X0085329Y0167561D01*
X0085316Y0167620D01*
X0085307Y0167679D01*
X0085302Y0167740D01*
X0085300Y0167800D01*
X0085300Y0169300D01*
X0085800Y0169800D01*
X0085800Y0183800D01*
X0085300Y0184300D01*
X0085300Y0185800D01*
X0085302Y0185860D01*
X0085307Y0185921D01*
X0085316Y0185980D01*
X0085329Y0186039D01*
X0085345Y0186098D01*
X0085365Y0186155D01*
X0085388Y0186210D01*
X0085415Y0186265D01*
X0085444Y0186317D01*
X0085477Y0186368D01*
X0085513Y0186417D01*
X0085551Y0186463D01*
X0085593Y0186507D01*
X0085637Y0186549D01*
X0085683Y0186587D01*
X0085732Y0186623D01*
X0085783Y0186656D01*
X0085835Y0186685D01*
X0085890Y0186712D01*
X0085945Y0186735D01*
X0086002Y0186755D01*
X0086061Y0186771D01*
X0086120Y0186784D01*
X0086179Y0186793D01*
X0086240Y0186798D01*
X0086300Y0186800D01*
X0092300Y0186800D01*
X0092360Y0186798D01*
X0092421Y0186793D01*
X0092480Y0186784D01*
X0092539Y0186771D01*
X0092598Y0186755D01*
X0092655Y0186735D01*
X0092710Y0186712D01*
X0092765Y0186685D01*
X0092817Y0186656D01*
X0092868Y0186623D01*
X0092917Y0186587D01*
X0092963Y0186549D01*
X0093007Y0186507D01*
X0093049Y0186463D01*
X0093087Y0186417D01*
X0093123Y0186368D01*
X0093156Y0186317D01*
X0093185Y0186265D01*
X0093212Y0186210D01*
X0093235Y0186155D01*
X0093255Y0186098D01*
X0093271Y0186039D01*
X0093284Y0185980D01*
X0093293Y0185921D01*
X0093298Y0185860D01*
X0093300Y0185800D01*
X0083300Y0185800D02*
X0083300Y0184300D01*
X0082800Y0183800D01*
X0082800Y0169800D01*
X0083300Y0169300D01*
X0083300Y0167800D01*
X0083298Y0167740D01*
X0083293Y0167679D01*
X0083284Y0167620D01*
X0083271Y0167561D01*
X0083255Y0167502D01*
X0083235Y0167445D01*
X0083212Y0167390D01*
X0083185Y0167335D01*
X0083156Y0167283D01*
X0083123Y0167232D01*
X0083087Y0167183D01*
X0083049Y0167137D01*
X0083007Y0167093D01*
X0082963Y0167051D01*
X0082917Y0167013D01*
X0082868Y0166977D01*
X0082817Y0166944D01*
X0082765Y0166915D01*
X0082710Y0166888D01*
X0082655Y0166865D01*
X0082598Y0166845D01*
X0082539Y0166829D01*
X0082480Y0166816D01*
X0082421Y0166807D01*
X0082360Y0166802D01*
X0082300Y0166800D01*
X0076300Y0166800D01*
X0076240Y0166802D01*
X0076179Y0166807D01*
X0076120Y0166816D01*
X0076061Y0166829D01*
X0076002Y0166845D01*
X0075945Y0166865D01*
X0075890Y0166888D01*
X0075835Y0166915D01*
X0075783Y0166944D01*
X0075732Y0166977D01*
X0075683Y0167013D01*
X0075637Y0167051D01*
X0075593Y0167093D01*
X0075551Y0167137D01*
X0075513Y0167183D01*
X0075477Y0167232D01*
X0075444Y0167283D01*
X0075415Y0167335D01*
X0075388Y0167390D01*
X0075365Y0167445D01*
X0075345Y0167502D01*
X0075329Y0167561D01*
X0075316Y0167620D01*
X0075307Y0167679D01*
X0075302Y0167740D01*
X0075300Y0167800D01*
X0075300Y0169300D01*
X0075800Y0169800D01*
X0075800Y0183800D01*
X0075300Y0184300D01*
X0075300Y0185800D01*
X0075302Y0185860D01*
X0075307Y0185921D01*
X0075316Y0185980D01*
X0075329Y0186039D01*
X0075345Y0186098D01*
X0075365Y0186155D01*
X0075388Y0186210D01*
X0075415Y0186265D01*
X0075444Y0186317D01*
X0075477Y0186368D01*
X0075513Y0186417D01*
X0075551Y0186463D01*
X0075593Y0186507D01*
X0075637Y0186549D01*
X0075683Y0186587D01*
X0075732Y0186623D01*
X0075783Y0186656D01*
X0075835Y0186685D01*
X0075890Y0186712D01*
X0075945Y0186735D01*
X0076002Y0186755D01*
X0076061Y0186771D01*
X0076120Y0186784D01*
X0076179Y0186793D01*
X0076240Y0186798D01*
X0076300Y0186800D01*
X0082300Y0186800D01*
X0082360Y0186798D01*
X0082421Y0186793D01*
X0082480Y0186784D01*
X0082539Y0186771D01*
X0082598Y0186755D01*
X0082655Y0186735D01*
X0082710Y0186712D01*
X0082765Y0186685D01*
X0082817Y0186656D01*
X0082868Y0186623D01*
X0082917Y0186587D01*
X0082963Y0186549D01*
X0083007Y0186507D01*
X0083049Y0186463D01*
X0083087Y0186417D01*
X0083123Y0186368D01*
X0083156Y0186317D01*
X0083185Y0186265D01*
X0083212Y0186210D01*
X0083235Y0186155D01*
X0083255Y0186098D01*
X0083271Y0186039D01*
X0083284Y0185980D01*
X0083293Y0185921D01*
X0083298Y0185860D01*
X0083300Y0185800D01*
X0073300Y0185800D02*
X0073300Y0184300D01*
X0072800Y0183800D01*
X0072800Y0169800D01*
X0073300Y0169300D01*
X0073300Y0167800D01*
X0073298Y0167740D01*
X0073293Y0167679D01*
X0073284Y0167620D01*
X0073271Y0167561D01*
X0073255Y0167502D01*
X0073235Y0167445D01*
X0073212Y0167390D01*
X0073185Y0167335D01*
X0073156Y0167283D01*
X0073123Y0167232D01*
X0073087Y0167183D01*
X0073049Y0167137D01*
X0073007Y0167093D01*
X0072963Y0167051D01*
X0072917Y0167013D01*
X0072868Y0166977D01*
X0072817Y0166944D01*
X0072765Y0166915D01*
X0072710Y0166888D01*
X0072655Y0166865D01*
X0072598Y0166845D01*
X0072539Y0166829D01*
X0072480Y0166816D01*
X0072421Y0166807D01*
X0072360Y0166802D01*
X0072300Y0166800D01*
X0066300Y0166800D01*
X0066240Y0166802D01*
X0066179Y0166807D01*
X0066120Y0166816D01*
X0066061Y0166829D01*
X0066002Y0166845D01*
X0065945Y0166865D01*
X0065890Y0166888D01*
X0065835Y0166915D01*
X0065783Y0166944D01*
X0065732Y0166977D01*
X0065683Y0167013D01*
X0065637Y0167051D01*
X0065593Y0167093D01*
X0065551Y0167137D01*
X0065513Y0167183D01*
X0065477Y0167232D01*
X0065444Y0167283D01*
X0065415Y0167335D01*
X0065388Y0167390D01*
X0065365Y0167445D01*
X0065345Y0167502D01*
X0065329Y0167561D01*
X0065316Y0167620D01*
X0065307Y0167679D01*
X0065302Y0167740D01*
X0065300Y0167800D01*
X0065300Y0169300D01*
X0065800Y0169800D01*
X0065800Y0183800D01*
X0065300Y0184300D01*
X0065300Y0185800D01*
X0065302Y0185860D01*
X0065307Y0185921D01*
X0065316Y0185980D01*
X0065329Y0186039D01*
X0065345Y0186098D01*
X0065365Y0186155D01*
X0065388Y0186210D01*
X0065415Y0186265D01*
X0065444Y0186317D01*
X0065477Y0186368D01*
X0065513Y0186417D01*
X0065551Y0186463D01*
X0065593Y0186507D01*
X0065637Y0186549D01*
X0065683Y0186587D01*
X0065732Y0186623D01*
X0065783Y0186656D01*
X0065835Y0186685D01*
X0065890Y0186712D01*
X0065945Y0186735D01*
X0066002Y0186755D01*
X0066061Y0186771D01*
X0066120Y0186784D01*
X0066179Y0186793D01*
X0066240Y0186798D01*
X0066300Y0186800D01*
X0072300Y0186800D01*
X0072360Y0186798D01*
X0072421Y0186793D01*
X0072480Y0186784D01*
X0072539Y0186771D01*
X0072598Y0186755D01*
X0072655Y0186735D01*
X0072710Y0186712D01*
X0072765Y0186685D01*
X0072817Y0186656D01*
X0072868Y0186623D01*
X0072917Y0186587D01*
X0072963Y0186549D01*
X0073007Y0186507D01*
X0073049Y0186463D01*
X0073087Y0186417D01*
X0073123Y0186368D01*
X0073156Y0186317D01*
X0073185Y0186265D01*
X0073212Y0186210D01*
X0073235Y0186155D01*
X0073255Y0186098D01*
X0073271Y0186039D01*
X0073284Y0185980D01*
X0073293Y0185921D01*
X0073298Y0185860D01*
X0073300Y0185800D01*
X0063300Y0185800D02*
X0063300Y0184300D01*
X0062800Y0183800D01*
X0062800Y0169800D01*
X0063300Y0169300D01*
X0063300Y0167800D01*
X0063298Y0167740D01*
X0063293Y0167679D01*
X0063284Y0167620D01*
X0063271Y0167561D01*
X0063255Y0167502D01*
X0063235Y0167445D01*
X0063212Y0167390D01*
X0063185Y0167335D01*
X0063156Y0167283D01*
X0063123Y0167232D01*
X0063087Y0167183D01*
X0063049Y0167137D01*
X0063007Y0167093D01*
X0062963Y0167051D01*
X0062917Y0167013D01*
X0062868Y0166977D01*
X0062817Y0166944D01*
X0062765Y0166915D01*
X0062710Y0166888D01*
X0062655Y0166865D01*
X0062598Y0166845D01*
X0062539Y0166829D01*
X0062480Y0166816D01*
X0062421Y0166807D01*
X0062360Y0166802D01*
X0062300Y0166800D01*
X0056300Y0166800D01*
X0056240Y0166802D01*
X0056179Y0166807D01*
X0056120Y0166816D01*
X0056061Y0166829D01*
X0056002Y0166845D01*
X0055945Y0166865D01*
X0055890Y0166888D01*
X0055835Y0166915D01*
X0055783Y0166944D01*
X0055732Y0166977D01*
X0055683Y0167013D01*
X0055637Y0167051D01*
X0055593Y0167093D01*
X0055551Y0167137D01*
X0055513Y0167183D01*
X0055477Y0167232D01*
X0055444Y0167283D01*
X0055415Y0167335D01*
X0055388Y0167390D01*
X0055365Y0167445D01*
X0055345Y0167502D01*
X0055329Y0167561D01*
X0055316Y0167620D01*
X0055307Y0167679D01*
X0055302Y0167740D01*
X0055300Y0167800D01*
X0055300Y0169300D01*
X0055800Y0169800D01*
X0055800Y0183800D01*
X0055300Y0184300D01*
X0055300Y0185800D01*
X0055302Y0185860D01*
X0055307Y0185921D01*
X0055316Y0185980D01*
X0055329Y0186039D01*
X0055345Y0186098D01*
X0055365Y0186155D01*
X0055388Y0186210D01*
X0055415Y0186265D01*
X0055444Y0186317D01*
X0055477Y0186368D01*
X0055513Y0186417D01*
X0055551Y0186463D01*
X0055593Y0186507D01*
X0055637Y0186549D01*
X0055683Y0186587D01*
X0055732Y0186623D01*
X0055783Y0186656D01*
X0055835Y0186685D01*
X0055890Y0186712D01*
X0055945Y0186735D01*
X0056002Y0186755D01*
X0056061Y0186771D01*
X0056120Y0186784D01*
X0056179Y0186793D01*
X0056240Y0186798D01*
X0056300Y0186800D01*
X0062300Y0186800D01*
X0062360Y0186798D01*
X0062421Y0186793D01*
X0062480Y0186784D01*
X0062539Y0186771D01*
X0062598Y0186755D01*
X0062655Y0186735D01*
X0062710Y0186712D01*
X0062765Y0186685D01*
X0062817Y0186656D01*
X0062868Y0186623D01*
X0062917Y0186587D01*
X0062963Y0186549D01*
X0063007Y0186507D01*
X0063049Y0186463D01*
X0063087Y0186417D01*
X0063123Y0186368D01*
X0063156Y0186317D01*
X0063185Y0186265D01*
X0063212Y0186210D01*
X0063235Y0186155D01*
X0063255Y0186098D01*
X0063271Y0186039D01*
X0063284Y0185980D01*
X0063293Y0185921D01*
X0063298Y0185860D01*
X0063300Y0185800D01*
X0053300Y0185800D02*
X0053300Y0184300D01*
X0052800Y0183800D01*
X0052800Y0169800D01*
X0053300Y0169300D01*
X0053300Y0167800D01*
X0053298Y0167740D01*
X0053293Y0167679D01*
X0053284Y0167620D01*
X0053271Y0167561D01*
X0053255Y0167502D01*
X0053235Y0167445D01*
X0053212Y0167390D01*
X0053185Y0167335D01*
X0053156Y0167283D01*
X0053123Y0167232D01*
X0053087Y0167183D01*
X0053049Y0167137D01*
X0053007Y0167093D01*
X0052963Y0167051D01*
X0052917Y0167013D01*
X0052868Y0166977D01*
X0052817Y0166944D01*
X0052765Y0166915D01*
X0052710Y0166888D01*
X0052655Y0166865D01*
X0052598Y0166845D01*
X0052539Y0166829D01*
X0052480Y0166816D01*
X0052421Y0166807D01*
X0052360Y0166802D01*
X0052300Y0166800D01*
X0046300Y0166800D01*
X0046240Y0166802D01*
X0046179Y0166807D01*
X0046120Y0166816D01*
X0046061Y0166829D01*
X0046002Y0166845D01*
X0045945Y0166865D01*
X0045890Y0166888D01*
X0045835Y0166915D01*
X0045783Y0166944D01*
X0045732Y0166977D01*
X0045683Y0167013D01*
X0045637Y0167051D01*
X0045593Y0167093D01*
X0045551Y0167137D01*
X0045513Y0167183D01*
X0045477Y0167232D01*
X0045444Y0167283D01*
X0045415Y0167335D01*
X0045388Y0167390D01*
X0045365Y0167445D01*
X0045345Y0167502D01*
X0045329Y0167561D01*
X0045316Y0167620D01*
X0045307Y0167679D01*
X0045302Y0167740D01*
X0045300Y0167800D01*
X0045300Y0169300D01*
X0045800Y0169800D01*
X0045800Y0183800D01*
X0045300Y0184300D01*
X0045300Y0185800D01*
X0045302Y0185860D01*
X0045307Y0185921D01*
X0045316Y0185980D01*
X0045329Y0186039D01*
X0045345Y0186098D01*
X0045365Y0186155D01*
X0045388Y0186210D01*
X0045415Y0186265D01*
X0045444Y0186317D01*
X0045477Y0186368D01*
X0045513Y0186417D01*
X0045551Y0186463D01*
X0045593Y0186507D01*
X0045637Y0186549D01*
X0045683Y0186587D01*
X0045732Y0186623D01*
X0045783Y0186656D01*
X0045835Y0186685D01*
X0045890Y0186712D01*
X0045945Y0186735D01*
X0046002Y0186755D01*
X0046061Y0186771D01*
X0046120Y0186784D01*
X0046179Y0186793D01*
X0046240Y0186798D01*
X0046300Y0186800D01*
X0052300Y0186800D01*
X0052360Y0186798D01*
X0052421Y0186793D01*
X0052480Y0186784D01*
X0052539Y0186771D01*
X0052598Y0186755D01*
X0052655Y0186735D01*
X0052710Y0186712D01*
X0052765Y0186685D01*
X0052817Y0186656D01*
X0052868Y0186623D01*
X0052917Y0186587D01*
X0052963Y0186549D01*
X0053007Y0186507D01*
X0053049Y0186463D01*
X0053087Y0186417D01*
X0053123Y0186368D01*
X0053156Y0186317D01*
X0053185Y0186265D01*
X0053212Y0186210D01*
X0053235Y0186155D01*
X0053255Y0186098D01*
X0053271Y0186039D01*
X0053284Y0185980D01*
X0053293Y0185921D01*
X0053298Y0185860D01*
X0053300Y0185800D01*
X0043300Y0185800D02*
X0043300Y0184300D01*
X0042800Y0183800D01*
X0042800Y0169800D01*
X0043300Y0169300D01*
X0043300Y0167800D01*
X0043298Y0167740D01*
X0043293Y0167679D01*
X0043284Y0167620D01*
X0043271Y0167561D01*
X0043255Y0167502D01*
X0043235Y0167445D01*
X0043212Y0167390D01*
X0043185Y0167335D01*
X0043156Y0167283D01*
X0043123Y0167232D01*
X0043087Y0167183D01*
X0043049Y0167137D01*
X0043007Y0167093D01*
X0042963Y0167051D01*
X0042917Y0167013D01*
X0042868Y0166977D01*
X0042817Y0166944D01*
X0042765Y0166915D01*
X0042710Y0166888D01*
X0042655Y0166865D01*
X0042598Y0166845D01*
X0042539Y0166829D01*
X0042480Y0166816D01*
X0042421Y0166807D01*
X0042360Y0166802D01*
X0042300Y0166800D01*
X0036300Y0166800D01*
X0036240Y0166802D01*
X0036179Y0166807D01*
X0036120Y0166816D01*
X0036061Y0166829D01*
X0036002Y0166845D01*
X0035945Y0166865D01*
X0035890Y0166888D01*
X0035835Y0166915D01*
X0035783Y0166944D01*
X0035732Y0166977D01*
X0035683Y0167013D01*
X0035637Y0167051D01*
X0035593Y0167093D01*
X0035551Y0167137D01*
X0035513Y0167183D01*
X0035477Y0167232D01*
X0035444Y0167283D01*
X0035415Y0167335D01*
X0035388Y0167390D01*
X0035365Y0167445D01*
X0035345Y0167502D01*
X0035329Y0167561D01*
X0035316Y0167620D01*
X0035307Y0167679D01*
X0035302Y0167740D01*
X0035300Y0167800D01*
X0035300Y0169300D01*
X0035800Y0169800D01*
X0035800Y0183800D01*
X0035300Y0184300D01*
X0035300Y0185800D01*
X0035302Y0185860D01*
X0035307Y0185921D01*
X0035316Y0185980D01*
X0035329Y0186039D01*
X0035345Y0186098D01*
X0035365Y0186155D01*
X0035388Y0186210D01*
X0035415Y0186265D01*
X0035444Y0186317D01*
X0035477Y0186368D01*
X0035513Y0186417D01*
X0035551Y0186463D01*
X0035593Y0186507D01*
X0035637Y0186549D01*
X0035683Y0186587D01*
X0035732Y0186623D01*
X0035783Y0186656D01*
X0035835Y0186685D01*
X0035890Y0186712D01*
X0035945Y0186735D01*
X0036002Y0186755D01*
X0036061Y0186771D01*
X0036120Y0186784D01*
X0036179Y0186793D01*
X0036240Y0186798D01*
X0036300Y0186800D01*
X0042300Y0186800D01*
X0042360Y0186798D01*
X0042421Y0186793D01*
X0042480Y0186784D01*
X0042539Y0186771D01*
X0042598Y0186755D01*
X0042655Y0186735D01*
X0042710Y0186712D01*
X0042765Y0186685D01*
X0042817Y0186656D01*
X0042868Y0186623D01*
X0042917Y0186587D01*
X0042963Y0186549D01*
X0043007Y0186507D01*
X0043049Y0186463D01*
X0043087Y0186417D01*
X0043123Y0186368D01*
X0043156Y0186317D01*
X0043185Y0186265D01*
X0043212Y0186210D01*
X0043235Y0186155D01*
X0043255Y0186098D01*
X0043271Y0186039D01*
X0043284Y0185980D01*
X0043293Y0185921D01*
X0043298Y0185860D01*
X0043300Y0185800D01*
X0033300Y0185800D02*
X0033300Y0184300D01*
X0032800Y0183800D01*
X0032800Y0169800D01*
X0033300Y0169300D01*
X0033300Y0167800D01*
X0033298Y0167740D01*
X0033293Y0167679D01*
X0033284Y0167620D01*
X0033271Y0167561D01*
X0033255Y0167502D01*
X0033235Y0167445D01*
X0033212Y0167390D01*
X0033185Y0167335D01*
X0033156Y0167283D01*
X0033123Y0167232D01*
X0033087Y0167183D01*
X0033049Y0167137D01*
X0033007Y0167093D01*
X0032963Y0167051D01*
X0032917Y0167013D01*
X0032868Y0166977D01*
X0032817Y0166944D01*
X0032765Y0166915D01*
X0032710Y0166888D01*
X0032655Y0166865D01*
X0032598Y0166845D01*
X0032539Y0166829D01*
X0032480Y0166816D01*
X0032421Y0166807D01*
X0032360Y0166802D01*
X0032300Y0166800D01*
X0026300Y0166800D01*
X0026240Y0166802D01*
X0026179Y0166807D01*
X0026120Y0166816D01*
X0026061Y0166829D01*
X0026002Y0166845D01*
X0025945Y0166865D01*
X0025890Y0166888D01*
X0025835Y0166915D01*
X0025783Y0166944D01*
X0025732Y0166977D01*
X0025683Y0167013D01*
X0025637Y0167051D01*
X0025593Y0167093D01*
X0025551Y0167137D01*
X0025513Y0167183D01*
X0025477Y0167232D01*
X0025444Y0167283D01*
X0025415Y0167335D01*
X0025388Y0167390D01*
X0025365Y0167445D01*
X0025345Y0167502D01*
X0025329Y0167561D01*
X0025316Y0167620D01*
X0025307Y0167679D01*
X0025302Y0167740D01*
X0025300Y0167800D01*
X0025300Y0169300D01*
X0025800Y0169800D01*
X0025800Y0183800D01*
X0025300Y0184300D01*
X0025300Y0185800D01*
X0025302Y0185860D01*
X0025307Y0185921D01*
X0025316Y0185980D01*
X0025329Y0186039D01*
X0025345Y0186098D01*
X0025365Y0186155D01*
X0025388Y0186210D01*
X0025415Y0186265D01*
X0025444Y0186317D01*
X0025477Y0186368D01*
X0025513Y0186417D01*
X0025551Y0186463D01*
X0025593Y0186507D01*
X0025637Y0186549D01*
X0025683Y0186587D01*
X0025732Y0186623D01*
X0025783Y0186656D01*
X0025835Y0186685D01*
X0025890Y0186712D01*
X0025945Y0186735D01*
X0026002Y0186755D01*
X0026061Y0186771D01*
X0026120Y0186784D01*
X0026179Y0186793D01*
X0026240Y0186798D01*
X0026300Y0186800D01*
X0032300Y0186800D01*
X0032360Y0186798D01*
X0032421Y0186793D01*
X0032480Y0186784D01*
X0032539Y0186771D01*
X0032598Y0186755D01*
X0032655Y0186735D01*
X0032710Y0186712D01*
X0032765Y0186685D01*
X0032817Y0186656D01*
X0032868Y0186623D01*
X0032917Y0186587D01*
X0032963Y0186549D01*
X0033007Y0186507D01*
X0033049Y0186463D01*
X0033087Y0186417D01*
X0033123Y0186368D01*
X0033156Y0186317D01*
X0033185Y0186265D01*
X0033212Y0186210D01*
X0033235Y0186155D01*
X0033255Y0186098D01*
X0033271Y0186039D01*
X0033284Y0185980D01*
X0033293Y0185921D01*
X0033298Y0185860D01*
X0033300Y0185800D01*
X0023300Y0185800D02*
X0023300Y0184300D01*
X0022800Y0183800D01*
X0022800Y0169800D01*
X0023300Y0169300D01*
X0023300Y0167800D01*
X0023298Y0167740D01*
X0023293Y0167679D01*
X0023284Y0167620D01*
X0023271Y0167561D01*
X0023255Y0167502D01*
X0023235Y0167445D01*
X0023212Y0167390D01*
X0023185Y0167335D01*
X0023156Y0167283D01*
X0023123Y0167232D01*
X0023087Y0167183D01*
X0023049Y0167137D01*
X0023007Y0167093D01*
X0022963Y0167051D01*
X0022917Y0167013D01*
X0022868Y0166977D01*
X0022817Y0166944D01*
X0022765Y0166915D01*
X0022710Y0166888D01*
X0022655Y0166865D01*
X0022598Y0166845D01*
X0022539Y0166829D01*
X0022480Y0166816D01*
X0022421Y0166807D01*
X0022360Y0166802D01*
X0022300Y0166800D01*
X0016300Y0166800D01*
X0016240Y0166802D01*
X0016179Y0166807D01*
X0016120Y0166816D01*
X0016061Y0166829D01*
X0016002Y0166845D01*
X0015945Y0166865D01*
X0015890Y0166888D01*
X0015835Y0166915D01*
X0015783Y0166944D01*
X0015732Y0166977D01*
X0015683Y0167013D01*
X0015637Y0167051D01*
X0015593Y0167093D01*
X0015551Y0167137D01*
X0015513Y0167183D01*
X0015477Y0167232D01*
X0015444Y0167283D01*
X0015415Y0167335D01*
X0015388Y0167390D01*
X0015365Y0167445D01*
X0015345Y0167502D01*
X0015329Y0167561D01*
X0015316Y0167620D01*
X0015307Y0167679D01*
X0015302Y0167740D01*
X0015300Y0167800D01*
X0015300Y0169300D01*
X0015800Y0169800D01*
X0015800Y0183800D01*
X0015300Y0184300D01*
X0015300Y0185800D01*
X0015302Y0185860D01*
X0015307Y0185921D01*
X0015316Y0185980D01*
X0015329Y0186039D01*
X0015345Y0186098D01*
X0015365Y0186155D01*
X0015388Y0186210D01*
X0015415Y0186265D01*
X0015444Y0186317D01*
X0015477Y0186368D01*
X0015513Y0186417D01*
X0015551Y0186463D01*
X0015593Y0186507D01*
X0015637Y0186549D01*
X0015683Y0186587D01*
X0015732Y0186623D01*
X0015783Y0186656D01*
X0015835Y0186685D01*
X0015890Y0186712D01*
X0015945Y0186735D01*
X0016002Y0186755D01*
X0016061Y0186771D01*
X0016120Y0186784D01*
X0016179Y0186793D01*
X0016240Y0186798D01*
X0016300Y0186800D01*
X0022300Y0186800D01*
X0022360Y0186798D01*
X0022421Y0186793D01*
X0022480Y0186784D01*
X0022539Y0186771D01*
X0022598Y0186755D01*
X0022655Y0186735D01*
X0022710Y0186712D01*
X0022765Y0186685D01*
X0022817Y0186656D01*
X0022868Y0186623D01*
X0022917Y0186587D01*
X0022963Y0186549D01*
X0023007Y0186507D01*
X0023049Y0186463D01*
X0023087Y0186417D01*
X0023123Y0186368D01*
X0023156Y0186317D01*
X0023185Y0186265D01*
X0023212Y0186210D01*
X0023235Y0186155D01*
X0023255Y0186098D01*
X0023271Y0186039D01*
X0023284Y0185980D01*
X0023293Y0185921D01*
X0023298Y0185860D01*
X0023300Y0185800D01*
X0014000Y0186658D02*
X0013266Y0185924D01*
X0012532Y0185924D01*
X0011798Y0186658D01*
X0011798Y0188126D01*
X0012532Y0188860D01*
X0013266Y0188860D01*
X0014000Y0188126D01*
X0014000Y0186658D01*
X0011798Y0186658D02*
X0011064Y0185924D01*
X0010330Y0185924D01*
X0009596Y0186658D01*
X0009596Y0188126D01*
X0010330Y0188860D01*
X0011064Y0188860D01*
X0011798Y0188126D01*
X0011064Y0184256D02*
X0014000Y0181320D01*
X0011064Y0181320D02*
X0014000Y0184256D01*
X0013266Y0175048D02*
X0011798Y0175048D01*
X0011064Y0174314D01*
X0011064Y0173580D01*
X0011798Y0172112D01*
X0009596Y0172112D01*
X0009596Y0175048D01*
X0013266Y0175048D02*
X0014000Y0174314D01*
X0014000Y0172846D01*
X0013266Y0172112D01*
X0014000Y0170478D02*
X0012532Y0168276D01*
X0011064Y0170478D01*
X0009596Y0168276D02*
X0014000Y0168276D01*
X0010330Y0166608D02*
X0013266Y0163672D01*
X0014000Y0163672D01*
X0009596Y0163672D02*
X0009596Y0166608D01*
X0010330Y0166608D01*
X0116800Y0184300D02*
X0116800Y0189300D01*
X0129596Y0189402D02*
X0134000Y0189402D01*
X0132532Y0189402D02*
X0129596Y0192338D01*
X0131798Y0190136D02*
X0134000Y0192338D01*
X0131798Y0187734D02*
X0132532Y0187000D01*
X0132532Y0184798D01*
X0134000Y0184798D02*
X0129596Y0184798D01*
X0129596Y0187000D01*
X0130330Y0187734D01*
X0131798Y0187734D01*
X0132532Y0183130D02*
X0133266Y0183130D01*
X0134000Y0182396D01*
X0134000Y0180928D01*
X0133266Y0180194D01*
X0131798Y0180928D02*
X0131798Y0182396D01*
X0132532Y0183130D01*
X0130330Y0183130D02*
X0129596Y0182396D01*
X0129596Y0180928D01*
X0130330Y0180194D01*
X0131064Y0180194D01*
X0131798Y0180928D01*
X0058266Y0032140D02*
X0059000Y0031406D01*
X0059000Y0029938D01*
X0058266Y0029204D01*
X0058266Y0027536D02*
X0055330Y0027536D01*
X0054596Y0026802D01*
X0054596Y0024600D01*
X0059000Y0024600D01*
X0059000Y0026802D01*
X0058266Y0027536D01*
X0055330Y0029204D02*
X0054596Y0029938D01*
X0054596Y0031406D01*
X0055330Y0032140D01*
X0056064Y0032140D01*
X0056798Y0031406D01*
X0057532Y0032140D01*
X0058266Y0032140D01*
X0056798Y0031406D02*
X0056798Y0030672D01*
X0049000Y0031406D02*
X0044596Y0031406D01*
X0046798Y0029204D01*
X0046798Y0032140D01*
X0045330Y0027536D02*
X0044596Y0026802D01*
X0044596Y0024600D01*
X0049000Y0024600D01*
X0049000Y0026802D01*
X0048266Y0027536D01*
X0045330Y0027536D01*
X0039000Y0026802D02*
X0039000Y0024600D01*
X0034596Y0024600D01*
X0034596Y0026802D01*
X0035330Y0027536D01*
X0038266Y0027536D01*
X0039000Y0026802D01*
X0038266Y0029204D02*
X0039000Y0029938D01*
X0039000Y0031406D01*
X0038266Y0032140D01*
X0036798Y0032140D01*
X0036064Y0031406D01*
X0036064Y0030672D01*
X0036798Y0029204D01*
X0034596Y0029204D01*
X0034596Y0032140D01*
X0051800Y0019300D02*
X0051800Y0014300D01*
X0045127Y0009004D02*
X0046595Y0007536D01*
X0045127Y0009004D02*
X0043659Y0007536D01*
D12*
X0096800Y0176800D02*
X0096800Y0196800D01*
X0136800Y0196800D01*
X0136800Y0176800D01*
X0096800Y0176800D01*
D13*
X0115800Y0134800D02*
X0115800Y0131800D01*
X0115800Y0128800D01*
X0117800Y0128800D02*
X0117800Y0131800D01*
X0117800Y0134800D01*
D14*
X0094300Y0126050D03*
X0084300Y0126050D03*
X0074300Y0126050D03*
X0064300Y0126050D03*
X0054300Y0126050D03*
X0044300Y0126050D03*
X0034300Y0126050D03*
X0024300Y0126050D03*
X0014300Y0126050D03*
X0014300Y0147550D03*
X0024300Y0147550D03*
X0034300Y0147550D03*
X0044300Y0147550D03*
X0054300Y0147550D03*
X0064300Y0147550D03*
X0074300Y0147550D03*
X0084300Y0147550D03*
X0094300Y0147550D03*
X0089300Y0166050D03*
X0079300Y0166050D03*
X0069300Y0166050D03*
X0059300Y0166050D03*
X0049300Y0166050D03*
X0039300Y0166050D03*
X0029300Y0166050D03*
X0019300Y0166050D03*
X0019300Y0187550D03*
X0029300Y0187550D03*
X0039300Y0187550D03*
X0049300Y0187550D03*
X0059300Y0187550D03*
X0069300Y0187550D03*
X0079300Y0187550D03*
X0089300Y0187550D03*
D15*
X0106050Y0169300D03*
X0127550Y0169300D03*
D16*
X0065800Y0117800D03*
X0065800Y0117300D03*
X0065800Y0116800D03*
X0065800Y0104300D03*
X0065800Y0103800D03*
X0065800Y0095300D03*
X0065800Y0094800D03*
X0065800Y0094300D03*
D17*
X0065800Y0094466D03*
X0065800Y0094634D03*
X0065800Y0094966D03*
X0065800Y0095134D03*
X0065800Y0095466D03*
X0065800Y0095634D03*
X0065800Y0103966D03*
X0065800Y0104134D03*
X0065800Y0116466D03*
X0065800Y0116634D03*
X0065800Y0116966D03*
X0065800Y0117134D03*
X0065800Y0117466D03*
X0065800Y0117634D03*
D18*
X0048715Y0098800D03*
X0037885Y0099800D03*
X0037885Y0097300D03*
X0033385Y0096300D03*
X0033385Y0100800D03*
X0013885Y0098800D03*
X0008885Y0095800D03*
X0008885Y0108800D03*
X0008885Y0111800D03*
X0084215Y0097800D03*
X0100215Y0105800D03*
X0103385Y0107800D03*
X0122715Y0115300D03*
X0122715Y0097300D03*
D19*
X0104050Y0108300D03*
X0076050Y0111800D03*
X0066550Y0097800D03*
X0016550Y0095800D03*
X0009050Y0108300D03*
D20*
X0023800Y0095800D03*
X0061470Y0095800D03*
X0111970Y0095800D03*
X0120130Y0108800D03*
D21*
X0120800Y0112800D03*
X0033800Y0115300D03*
X0033300Y0095800D03*
D22*
X0033465Y0100300D03*
X0039635Y0095800D03*
X0045465Y0097300D03*
X0020465Y0101300D03*
X0016965Y0100300D03*
X0013135Y0100800D03*
X0105135Y0100800D03*
D23*
X0105550Y0100300D03*
X0105880Y0095800D03*
X0097050Y0097300D03*
X0097050Y0099800D03*
X0111220Y0108800D03*
X0056220Y0102800D03*
X0050050Y0101300D03*
X0049720Y0100300D03*
X0041880Y0100300D03*
X0042380Y0095800D03*
X0017380Y0099800D03*
D24*
X0022885Y0099800D03*
X0032385Y0106800D03*
X0037885Y0098800D03*
X0037885Y0098300D03*
X0046215Y0095800D03*
X0061715Y0096300D03*
X0104715Y0111800D03*
X0110885Y0099800D03*
D25*
X0111215Y0107300D03*
X0105715Y0110800D03*
X0056215Y0101800D03*
X0052385Y0095800D03*
D26*
X0041550Y0100800D03*
X0017550Y0101300D03*
X0068050Y0095800D03*
X0108550Y0101300D03*
D27*
X0104380Y0101300D03*
X0099050Y0105300D03*
X0104550Y0108800D03*
X0111220Y0107800D03*
X0117050Y0099300D03*
X0117050Y0097800D03*
X0122380Y0114800D03*
X0122380Y0116300D03*
X0077880Y0113800D03*
X0075720Y0111300D03*
X0066550Y0100800D03*
X0066550Y0100300D03*
X0066550Y0099800D03*
X0066550Y0099300D03*
X0066550Y0098800D03*
X0066550Y0098300D03*
X0072220Y0095800D03*
X0056220Y0102300D03*
X0037880Y0099300D03*
X0037880Y0097800D03*
X0033380Y0106300D03*
X0023550Y0100300D03*
X0009220Y0112800D03*
D28*
X0009800Y0113800D03*
X0077800Y0101300D03*
X0078300Y0095800D03*
D29*
X0088385Y0095800D03*
X0111215Y0113800D03*
X0056215Y0101300D03*
X0030215Y0097800D03*
D30*
X0033380Y0101300D03*
X0048050Y0102300D03*
X0056220Y0098300D03*
X0059550Y0107800D03*
X0074880Y0108300D03*
X0097050Y0101300D03*
X0097050Y0095800D03*
X0120880Y0107800D03*
X0010720Y0114800D03*
D31*
X0103300Y0095800D03*
D32*
X0121215Y0095800D03*
X0077215Y0097300D03*
X0074885Y0108800D03*
X0010385Y0106300D03*
D33*
X0008720Y0109466D03*
X0008720Y0109634D03*
X0008720Y0109966D03*
X0008720Y0110134D03*
X0008720Y0110466D03*
X0008720Y0110634D03*
X0008720Y0110966D03*
X0008720Y0111134D03*
X0008720Y0103466D03*
X0008720Y0103134D03*
X0008720Y0102966D03*
X0008720Y0102634D03*
X0008720Y0102466D03*
X0008720Y0102134D03*
X0008720Y0101966D03*
X0008720Y0101634D03*
X0008720Y0101466D03*
X0008720Y0101134D03*
X0008720Y0100966D03*
X0008720Y0100634D03*
X0008720Y0100466D03*
X0008720Y0100134D03*
X0008720Y0099966D03*
X0008720Y0099634D03*
X0008720Y0099466D03*
X0008720Y0099134D03*
X0008720Y0098966D03*
X0008720Y0098634D03*
X0008720Y0098466D03*
X0008720Y0098134D03*
X0008720Y0097966D03*
X0008720Y0097634D03*
X0008720Y0097466D03*
X0008720Y0097134D03*
X0008720Y0096966D03*
X0008720Y0096634D03*
X0008720Y0096466D03*
X0008720Y0096134D03*
X0008720Y0095966D03*
X0013720Y0097134D03*
X0013720Y0099134D03*
X0029050Y0097134D03*
X0046050Y0100966D03*
X0048880Y0098466D03*
X0056880Y0113634D03*
X0084050Y0099134D03*
X0088050Y0100634D03*
X0101380Y0106466D03*
X0101720Y0106634D03*
X0102220Y0106966D03*
X0102720Y0113466D03*
X0101720Y0114134D03*
X0101050Y0114466D03*
X0111220Y0112634D03*
X0111220Y0108134D03*
X0122880Y0105134D03*
X0122880Y0104966D03*
X0122880Y0103466D03*
X0122880Y0103134D03*
X0122880Y0102966D03*
X0122880Y0102634D03*
X0122880Y0102466D03*
X0122880Y0102134D03*
X0122880Y0101966D03*
X0122880Y0101634D03*
X0122880Y0101466D03*
X0122880Y0101134D03*
X0122880Y0100966D03*
X0122880Y0100634D03*
X0122880Y0100466D03*
X0122880Y0100134D03*
X0122880Y0099966D03*
X0122880Y0099634D03*
X0122880Y0099466D03*
X0122880Y0099134D03*
X0122880Y0098966D03*
X0122880Y0098634D03*
X0122880Y0098466D03*
X0122880Y0098134D03*
X0122880Y0097966D03*
X0122880Y0115466D03*
X0122880Y0115634D03*
X0122880Y0115966D03*
D34*
X0087715Y0100134D03*
X0083715Y0101466D03*
X0083715Y0101634D03*
X0083715Y0101966D03*
X0056215Y0102634D03*
X0045715Y0100634D03*
X0037885Y0100134D03*
X0037885Y0096966D03*
X0033385Y0096634D03*
X0032885Y0097134D03*
X0033385Y0100466D03*
X0016885Y0095966D03*
X0013385Y0101466D03*
X0013385Y0101634D03*
X0013385Y0101966D03*
X0013385Y0102134D03*
D35*
X0023465Y0095966D03*
X0048135Y0102466D03*
X0059465Y0107634D03*
X0077135Y0103634D03*
X0111635Y0095966D03*
D36*
X0110635Y0097134D03*
X0066965Y0110634D03*
X0061635Y0096134D03*
X0033465Y0095966D03*
X0022635Y0096966D03*
X0022635Y0097134D03*
D37*
X0020130Y0101134D03*
X0017630Y0096966D03*
X0033470Y0099466D03*
X0039970Y0095966D03*
X0062130Y0098134D03*
X0066970Y0107634D03*
X0088300Y0097466D03*
X0103630Y0095966D03*
X0105800Y0099634D03*
D38*
X0105885Y0099466D03*
X0108215Y0101134D03*
X0110385Y0100466D03*
X0105885Y0095966D03*
X0119215Y0101134D03*
X0111215Y0108966D03*
X0088215Y0097634D03*
X0070715Y0100634D03*
X0070715Y0101134D03*
X0062215Y0100966D03*
X0062215Y0098634D03*
X0062215Y0098466D03*
X0056215Y0096634D03*
X0050215Y0100966D03*
X0042215Y0099634D03*
X0042215Y0099466D03*
X0042385Y0095966D03*
X0037885Y0100466D03*
X0017715Y0099134D03*
X0017715Y0097134D03*
D39*
X0032885Y0114134D03*
X0037885Y0099634D03*
X0037885Y0097466D03*
X0046215Y0095966D03*
X0061715Y0096466D03*
X0059215Y0110134D03*
X0055715Y0114466D03*
X0076215Y0111966D03*
X0076715Y0112634D03*
X0088385Y0096134D03*
X0099385Y0105466D03*
X0104215Y0108466D03*
X0111215Y0107966D03*
D40*
X0104635Y0111966D03*
X0111135Y0099966D03*
X0077965Y0113966D03*
X0075635Y0110966D03*
X0066965Y0109966D03*
X0066465Y0101134D03*
X0051965Y0095966D03*
X0033465Y0096134D03*
X0028965Y0098966D03*
D41*
X0047635Y0101466D03*
X0061465Y0095966D03*
X0066965Y0111134D03*
X0097965Y0115966D03*
X0105965Y0110466D03*
D42*
X0101465Y0100466D03*
X0101465Y0096634D03*
X0105965Y0096634D03*
X0105965Y0096466D03*
X0105965Y0096134D03*
X0105965Y0096966D03*
X0105965Y0097134D03*
X0105965Y0097466D03*
X0105965Y0097634D03*
X0105965Y0097966D03*
X0105965Y0098134D03*
X0105965Y0098466D03*
X0105965Y0098634D03*
X0105965Y0098966D03*
X0105965Y0099134D03*
X0092635Y0100466D03*
X0092635Y0096634D03*
X0088135Y0097966D03*
X0088135Y0098134D03*
X0088135Y0098466D03*
X0088135Y0098634D03*
X0070635Y0100966D03*
X0068465Y0095966D03*
X0066965Y0107466D03*
X0044635Y0099634D03*
X0033465Y0099134D03*
X0033465Y0098966D03*
X0033465Y0098634D03*
X0033465Y0098466D03*
X0028965Y0096634D03*
X0028965Y0100466D03*
D43*
X0037885Y0099966D03*
X0037885Y0097134D03*
X0045885Y0096634D03*
X0049215Y0098134D03*
X0049385Y0097966D03*
X0049715Y0097634D03*
X0051215Y0096466D03*
X0058215Y0112134D03*
X0057885Y0112466D03*
X0057715Y0112634D03*
X0057385Y0113134D03*
X0071885Y0095966D03*
X0083885Y0096966D03*
X0104715Y0101134D03*
X0113715Y0101134D03*
X0111215Y0112466D03*
D44*
X0104970Y0111634D03*
X0104970Y0109134D03*
X0098800Y0105134D03*
X0101470Y0098966D03*
X0101470Y0098634D03*
X0101470Y0098466D03*
X0101470Y0098134D03*
X0092630Y0098134D03*
X0092630Y0098466D03*
X0092630Y0098634D03*
X0092630Y0098966D03*
X0078300Y0095966D03*
X0066970Y0110134D03*
X0059470Y0109466D03*
X0075300Y0110466D03*
X0098800Y0115634D03*
X0110630Y0099466D03*
X0110470Y0099134D03*
X0110470Y0098966D03*
X0022630Y0099466D03*
X0022470Y0099134D03*
X0022300Y0098634D03*
X0022300Y0098466D03*
X0009470Y0107466D03*
D45*
X0022385Y0098966D03*
X0022385Y0098134D03*
X0022385Y0097966D03*
X0037885Y0098466D03*
X0037885Y0098634D03*
X0056215Y0102134D03*
X0054715Y0115134D03*
X0075215Y0110134D03*
X0078715Y0114466D03*
X0088385Y0095966D03*
X0110385Y0097966D03*
X0110385Y0098134D03*
X0110385Y0098466D03*
X0110385Y0098634D03*
X0111215Y0107634D03*
X0111215Y0113134D03*
D46*
X0105380Y0111134D03*
X0105380Y0109634D03*
X0097050Y0101134D03*
X0097050Y0095966D03*
X0077880Y0100634D03*
X0075220Y0109966D03*
X0067050Y0110466D03*
X0059550Y0108966D03*
X0056220Y0097466D03*
X0033380Y0101134D03*
X0121880Y0096134D03*
D47*
X0121630Y0095966D03*
X0059630Y0108634D03*
X0054130Y0115466D03*
D48*
X0017050Y0100634D03*
X0013050Y0102634D03*
X0017050Y0096134D03*
D49*
X0023300Y0096134D03*
X0030470Y0097466D03*
X0047800Y0101966D03*
X0066970Y0111466D03*
X0077130Y0103134D03*
X0077130Y0102966D03*
X0077130Y0102634D03*
X0077130Y0102466D03*
X0077130Y0102134D03*
X0077130Y0101966D03*
X0077130Y0101634D03*
X0077130Y0101466D03*
X0077130Y0100134D03*
X0077130Y0099966D03*
X0077130Y0099634D03*
X0077130Y0099466D03*
X0077130Y0099134D03*
X0077130Y0098966D03*
X0077130Y0098634D03*
X0077130Y0098466D03*
X0077130Y0098134D03*
X0077130Y0097966D03*
X0077130Y0097634D03*
X0121130Y0107466D03*
D50*
X0111220Y0109134D03*
X0111220Y0111634D03*
X0108050Y0100966D03*
X0117050Y0096634D03*
X0097050Y0098466D03*
X0097050Y0098634D03*
X0066550Y0096634D03*
X0040220Y0096134D03*
X0037880Y0096634D03*
X0017880Y0097966D03*
X0017880Y0098134D03*
X0017880Y0098466D03*
D51*
X0017800Y0098634D03*
X0017800Y0098966D03*
X0017800Y0097634D03*
X0017800Y0097466D03*
X0022300Y0100466D03*
X0042300Y0099134D03*
X0042300Y0098966D03*
X0042300Y0098634D03*
X0042300Y0098466D03*
X0042300Y0098134D03*
X0042300Y0097966D03*
X0042300Y0097634D03*
X0042300Y0097466D03*
X0042300Y0097134D03*
X0042300Y0096966D03*
X0042300Y0096634D03*
X0042300Y0096466D03*
X0042300Y0096134D03*
X0062300Y0098966D03*
X0062300Y0099134D03*
X0062300Y0099466D03*
X0062300Y0099634D03*
X0062300Y0099966D03*
X0062300Y0100134D03*
X0062300Y0100466D03*
X0062300Y0100634D03*
D52*
X0056215Y0102466D03*
X0056215Y0096966D03*
X0051715Y0096134D03*
X0046215Y0096134D03*
X0046215Y0101134D03*
X0056215Y0114134D03*
X0084215Y0098634D03*
X0084215Y0098466D03*
X0084215Y0097966D03*
X0084215Y0097634D03*
X0100215Y0114966D03*
X0103385Y0112966D03*
X0122715Y0116134D03*
X0122715Y0104634D03*
X0013885Y0098634D03*
X0013885Y0097634D03*
X0013885Y0097466D03*
X0008885Y0108966D03*
X0008885Y0111966D03*
D53*
X0068715Y0096134D03*
D54*
X0071635Y0096134D03*
X0083635Y0101134D03*
X0083635Y0102134D03*
X0092635Y0100134D03*
X0092635Y0096966D03*
X0101465Y0096966D03*
X0101465Y0100134D03*
X0104965Y0100966D03*
X0066965Y0108634D03*
X0045635Y0096966D03*
X0033135Y0096966D03*
X0028965Y0096966D03*
X0028965Y0100134D03*
D55*
X0009300Y0112966D03*
X0078300Y0096134D03*
X0111300Y0100134D03*
X0122300Y0104466D03*
D56*
X0122380Y0105966D03*
X0117050Y0099466D03*
X0117050Y0097634D03*
X0122380Y0096634D03*
X0111220Y0112966D03*
X0104380Y0112134D03*
X0104380Y0108634D03*
X0099050Y0115466D03*
X0097050Y0100966D03*
X0097050Y0096134D03*
X0075720Y0111134D03*
X0066550Y0100966D03*
X0066550Y0100634D03*
X0066550Y0100466D03*
X0066550Y0100134D03*
X0066550Y0099966D03*
X0066550Y0099634D03*
X0066550Y0099466D03*
X0066550Y0099134D03*
X0066550Y0098966D03*
X0066550Y0098634D03*
X0066550Y0098466D03*
X0056220Y0097134D03*
X0037880Y0097634D03*
X0037880Y0099466D03*
X0033380Y0100966D03*
X0023220Y0100134D03*
X0009220Y0107966D03*
X0022880Y0114966D03*
X0033380Y0114466D03*
X0055550Y0114634D03*
D57*
X0103800Y0096134D03*
D58*
X0111385Y0096134D03*
X0077215Y0103466D03*
X0074885Y0108466D03*
X0056215Y0098134D03*
X0047885Y0102134D03*
X0030385Y0097634D03*
X0030215Y0097966D03*
X0030215Y0098134D03*
D59*
X0046050Y0096300D03*
X0049050Y0098300D03*
X0058720Y0111300D03*
X0066550Y0097300D03*
X0084050Y0097300D03*
X0088380Y0096300D03*
X0101050Y0106300D03*
X0101880Y0106800D03*
X0102720Y0107300D03*
X0102220Y0113800D03*
X0101380Y0114300D03*
X0122880Y0115800D03*
X0122880Y0105300D03*
X0122880Y0104800D03*
X0122880Y0103300D03*
X0122880Y0102800D03*
X0122880Y0102300D03*
X0122880Y0101800D03*
X0122880Y0101300D03*
X0122880Y0100800D03*
X0122880Y0100300D03*
X0122880Y0099800D03*
X0122880Y0099300D03*
X0122880Y0098800D03*
X0122880Y0098300D03*
X0122880Y0097800D03*
X0008720Y0097800D03*
X0008720Y0097300D03*
X0008720Y0096800D03*
X0008720Y0096300D03*
X0008720Y0098300D03*
X0008720Y0098800D03*
X0008720Y0099300D03*
X0008720Y0099800D03*
X0008720Y0100300D03*
X0008720Y0100800D03*
X0008720Y0101300D03*
X0008720Y0101800D03*
X0008720Y0102300D03*
X0008720Y0102800D03*
X0008720Y0103300D03*
X0008720Y0109800D03*
X0008720Y0110300D03*
X0008720Y0110800D03*
X0008720Y0111300D03*
D60*
X0012885Y0102800D03*
X0017215Y0096300D03*
X0037885Y0096800D03*
X0071215Y0097300D03*
X0071215Y0097800D03*
X0071215Y0098300D03*
X0071215Y0098800D03*
X0071215Y0099300D03*
X0071215Y0099800D03*
X0071215Y0100300D03*
X0083215Y0102800D03*
X0087885Y0099800D03*
X0118715Y0101300D03*
D61*
X0111135Y0096300D03*
X0097965Y0104800D03*
X0105965Y0110300D03*
X0044635Y0114800D03*
X0023135Y0096300D03*
D62*
X0019800Y0100800D03*
X0040470Y0096300D03*
X0103970Y0096300D03*
X0107800Y0100800D03*
X0119630Y0100800D03*
D63*
X0062300Y0100300D03*
X0062300Y0099800D03*
X0062300Y0099300D03*
X0042300Y0099300D03*
X0042300Y0098800D03*
X0042300Y0098300D03*
X0042300Y0097800D03*
X0042300Y0097300D03*
X0042300Y0096800D03*
X0042300Y0096300D03*
X0017800Y0097800D03*
X0017800Y0098800D03*
D64*
X0013635Y0099300D03*
X0051465Y0096300D03*
X0057135Y0113300D03*
X0087635Y0100300D03*
D65*
X0068885Y0096300D03*
X0044215Y0099300D03*
X0111215Y0109300D03*
D66*
X0111220Y0112300D03*
X0097050Y0100300D03*
X0097050Y0096800D03*
X0071550Y0096300D03*
D67*
X0078300Y0096300D03*
X0059300Y0109800D03*
X0055300Y0114800D03*
X0009300Y0107800D03*
D68*
X0097050Y0100800D03*
X0097050Y0096300D03*
X0117050Y0097300D03*
X0117050Y0099800D03*
D69*
X0105965Y0098800D03*
X0105965Y0098300D03*
X0105965Y0097800D03*
X0105965Y0097300D03*
X0105965Y0096800D03*
X0105965Y0096300D03*
X0088135Y0098300D03*
X0088135Y0098800D03*
X0070635Y0100800D03*
X0044965Y0098300D03*
X0033465Y0098800D03*
D70*
X0022470Y0099300D03*
X0022300Y0098800D03*
X0022300Y0098300D03*
X0009470Y0113300D03*
X0059470Y0109300D03*
X0075300Y0110300D03*
X0078470Y0114300D03*
X0092630Y0098800D03*
X0092630Y0098300D03*
X0101470Y0098300D03*
X0101470Y0098800D03*
X0110470Y0098800D03*
X0117130Y0098800D03*
X0122130Y0096300D03*
X0122130Y0106300D03*
D71*
X0111220Y0111966D03*
X0088220Y0097134D03*
X0067050Y0107966D03*
X0045050Y0097966D03*
X0017380Y0096466D03*
D72*
X0022965Y0096466D03*
X0066965Y0110966D03*
X0074965Y0109134D03*
X0121465Y0107134D03*
D73*
X0117135Y0099966D03*
X0102465Y0107134D03*
X0102465Y0113634D03*
X0101965Y0113966D03*
X0101465Y0099966D03*
X0101465Y0097134D03*
X0092635Y0097134D03*
X0092635Y0099966D03*
X0083965Y0097134D03*
X0066965Y0109134D03*
X0058635Y0111466D03*
X0058465Y0111634D03*
X0056965Y0113466D03*
X0045965Y0096466D03*
X0033465Y0096466D03*
X0033465Y0100634D03*
X0028965Y0099966D03*
X0025635Y0101134D03*
D74*
X0040550Y0096466D03*
D75*
X0016965Y0100466D03*
X0013135Y0096634D03*
X0066965Y0108466D03*
X0071465Y0096466D03*
X0083465Y0102466D03*
D76*
X0078215Y0096466D03*
X0075385Y0110634D03*
X0078215Y0114134D03*
X0059385Y0109634D03*
X0037885Y0099134D03*
X0037885Y0098966D03*
X0037885Y0098134D03*
X0037885Y0097966D03*
X0022715Y0099634D03*
X0009385Y0107634D03*
X0009385Y0113134D03*
X0104715Y0108966D03*
X0110715Y0099634D03*
X0122215Y0096466D03*
X0122215Y0106134D03*
X0122215Y0114634D03*
D77*
X0088300Y0096466D03*
X0083800Y0099466D03*
X0066470Y0097134D03*
X0066970Y0108966D03*
X0050970Y0096634D03*
X0050470Y0096966D03*
X0050300Y0097134D03*
X0049970Y0097466D03*
X0048970Y0099634D03*
X0041130Y0101134D03*
X0013470Y0099466D03*
D78*
X0013550Y0096966D03*
X0057550Y0112966D03*
X0097050Y0100634D03*
X0097050Y0096466D03*
X0117050Y0097134D03*
D79*
X0104135Y0096466D03*
X0045135Y0098634D03*
X0019635Y0100634D03*
D80*
X0010220Y0106466D03*
X0044720Y0105966D03*
X0056220Y0101634D03*
X0074880Y0108966D03*
X0111050Y0096466D03*
X0121380Y0113634D03*
D81*
X0105635Y0100134D03*
X0087965Y0099466D03*
X0044965Y0099966D03*
X0041965Y0100134D03*
X0017465Y0099634D03*
X0017465Y0096634D03*
D82*
X0022885Y0096634D03*
X0056215Y0097634D03*
X0079715Y0115134D03*
X0105715Y0109966D03*
X0111215Y0113466D03*
X0110885Y0096634D03*
D83*
X0122800Y0097466D03*
X0122800Y0097634D03*
X0122800Y0103634D03*
X0122800Y0105466D03*
X0100800Y0106134D03*
X0100800Y0114634D03*
X0061800Y0096634D03*
X0048800Y0098634D03*
X0058800Y0110966D03*
X0058800Y0111134D03*
X0013800Y0098966D03*
X0008800Y0103634D03*
X0008800Y0109134D03*
X0008800Y0111466D03*
X0008800Y0111634D03*
D84*
X0049385Y0099966D03*
X0071385Y0096634D03*
X0083385Y0096634D03*
X0083385Y0102634D03*
D85*
X0077715Y0096634D03*
X0079385Y0114966D03*
X0098385Y0104966D03*
X0111215Y0107466D03*
X0110715Y0096966D03*
X0121715Y0113966D03*
X0056215Y0101966D03*
X0033715Y0114966D03*
X0009885Y0113966D03*
D86*
X0013220Y0102466D03*
X0013220Y0100966D03*
X0013220Y0099634D03*
X0025550Y0100966D03*
X0045550Y0100466D03*
X0045550Y0097134D03*
X0061880Y0097134D03*
X0066550Y0096966D03*
X0083550Y0099634D03*
X0083550Y0100966D03*
X0088380Y0096634D03*
X0111220Y0108466D03*
X0113720Y0100966D03*
D87*
X0117050Y0100134D03*
X0117050Y0096966D03*
X0097050Y0096634D03*
X0097050Y0100466D03*
D88*
X0083715Y0101800D03*
X0083715Y0096800D03*
X0056215Y0096800D03*
X0013385Y0096800D03*
X0013385Y0101300D03*
X0013385Y0101800D03*
D89*
X0017550Y0096800D03*
X0088050Y0099300D03*
D90*
X0074970Y0109300D03*
X0066970Y0110800D03*
X0022800Y0096800D03*
X0110800Y0096800D03*
D91*
X0113470Y0100800D03*
X0117130Y0100300D03*
X0101470Y0100300D03*
X0101470Y0096800D03*
X0092630Y0096800D03*
X0092630Y0100300D03*
X0088300Y0096800D03*
X0071300Y0096800D03*
X0066970Y0108300D03*
X0045300Y0100300D03*
X0037800Y0100300D03*
X0028970Y0100300D03*
X0028970Y0096800D03*
X0025470Y0100800D03*
X0017130Y0100800D03*
D92*
X0013300Y0102300D03*
X0033300Y0096800D03*
D93*
X0045800Y0096800D03*
X0050130Y0097300D03*
X0050800Y0096800D03*
D94*
X0045885Y0100800D03*
X0058385Y0111800D03*
X0057715Y0112800D03*
X0061715Y0096800D03*
X0083885Y0099300D03*
X0111215Y0108300D03*
D95*
X0117050Y0096800D03*
X0066550Y0096800D03*
D96*
X0077465Y0096800D03*
X0079965Y0115300D03*
D97*
X0066965Y0109800D03*
X0046465Y0101300D03*
X0111635Y0100300D03*
X0122465Y0096800D03*
X0122465Y0105800D03*
D98*
X0061800Y0096966D03*
X0041300Y0100966D03*
X0013300Y0101134D03*
D99*
X0012885Y0100634D03*
X0017215Y0100966D03*
X0045215Y0097634D03*
X0061885Y0097466D03*
X0071215Y0097466D03*
X0071215Y0097634D03*
X0071215Y0097966D03*
X0071215Y0098134D03*
X0071215Y0098466D03*
X0071215Y0098634D03*
X0071215Y0098966D03*
X0071215Y0099134D03*
X0071215Y0099466D03*
X0071215Y0099634D03*
X0071215Y0099966D03*
X0071215Y0100134D03*
X0071215Y0097134D03*
X0071215Y0096966D03*
X0083215Y0100634D03*
X0111215Y0108634D03*
X0111215Y0112134D03*
X0113385Y0100634D03*
D100*
X0121300Y0113466D03*
X0077300Y0096966D03*
D101*
X0088300Y0096966D03*
X0041800Y0100466D03*
X0025300Y0100634D03*
X0017300Y0099966D03*
D102*
X0017130Y0100134D03*
X0017300Y0101134D03*
X0033470Y0100134D03*
X0041630Y0100634D03*
X0045300Y0097466D03*
X0097130Y0096966D03*
X0105300Y0100634D03*
D103*
X0101550Y0099634D03*
X0101550Y0097466D03*
X0092550Y0099634D03*
X0104050Y0112466D03*
X0117050Y0099634D03*
X0117050Y0097466D03*
X0122550Y0096966D03*
X0077050Y0113134D03*
X0076550Y0112466D03*
X0067050Y0109634D03*
X0029050Y0099634D03*
X0009050Y0112466D03*
D104*
X0010385Y0114466D03*
X0033715Y0115134D03*
X0033715Y0105634D03*
X0047715Y0101634D03*
X0056215Y0101466D03*
X0056215Y0097966D03*
X0074885Y0108634D03*
X0080385Y0115466D03*
X0077215Y0100466D03*
X0077215Y0097466D03*
X0077215Y0097134D03*
X0111215Y0107134D03*
X0111215Y0113634D03*
D105*
X0097050Y0100134D03*
X0097050Y0099966D03*
X0097050Y0097134D03*
X0049550Y0100134D03*
D106*
X0048470Y0099134D03*
X0048470Y0098966D03*
X0059130Y0110466D03*
X0066970Y0109466D03*
X0076300Y0112134D03*
X0076970Y0112966D03*
X0084300Y0098134D03*
X0092630Y0097466D03*
X0099800Y0105634D03*
X0103800Y0108134D03*
X0103800Y0112634D03*
X0099800Y0115134D03*
X0122630Y0115134D03*
X0122630Y0105634D03*
X0122630Y0097134D03*
X0066470Y0097634D03*
X0013970Y0097966D03*
X0013970Y0098134D03*
X0013970Y0098466D03*
X0008970Y0108466D03*
X0008970Y0108634D03*
X0008970Y0112134D03*
D107*
X0008800Y0109300D03*
X0013800Y0097300D03*
X0088300Y0100800D03*
D108*
X0088215Y0097800D03*
X0105885Y0099300D03*
X0111215Y0111800D03*
X0062215Y0100800D03*
X0062215Y0098800D03*
X0050215Y0100800D03*
X0033385Y0099300D03*
X0033385Y0098300D03*
X0017715Y0097300D03*
D109*
X0022550Y0097300D03*
X0110550Y0097300D03*
D110*
X0121130Y0113300D03*
X0077130Y0103300D03*
X0077130Y0102800D03*
X0077130Y0102300D03*
X0077130Y0101800D03*
X0077130Y0100300D03*
X0077130Y0099800D03*
X0077130Y0099300D03*
X0077130Y0098800D03*
X0077130Y0098300D03*
X0077130Y0097800D03*
X0053470Y0115800D03*
X0047800Y0101800D03*
X0030630Y0097300D03*
D111*
X0022385Y0097800D03*
X0056215Y0097300D03*
X0110385Y0097800D03*
X0110385Y0098300D03*
X0113715Y0101300D03*
D112*
X0083385Y0100800D03*
X0061885Y0097300D03*
D113*
X0088215Y0097300D03*
D114*
X0084135Y0098800D03*
X0092635Y0099800D03*
X0092635Y0097300D03*
X0101465Y0097300D03*
X0101465Y0099800D03*
X0102965Y0113300D03*
X0100465Y0114800D03*
X0066965Y0109300D03*
X0058965Y0110800D03*
X0056635Y0113800D03*
X0048635Y0099300D03*
X0028965Y0099800D03*
D115*
X0022465Y0097634D03*
X0022465Y0097466D03*
X0033635Y0105966D03*
X0009635Y0107134D03*
X0009635Y0113634D03*
X0059465Y0109134D03*
X0077965Y0101134D03*
X0077965Y0100966D03*
X0078965Y0114634D03*
X0110465Y0097634D03*
X0110465Y0097466D03*
X0121965Y0106466D03*
D116*
X0103550Y0107966D03*
X0088550Y0100966D03*
X0066550Y0097466D03*
X0059050Y0110634D03*
D117*
X0056465Y0113966D03*
X0084135Y0098966D03*
X0084135Y0097466D03*
X0100465Y0105966D03*
X0102965Y0107466D03*
X0103135Y0107634D03*
X0103135Y0113134D03*
D118*
X0097050Y0099634D03*
X0097050Y0099466D03*
X0097050Y0097634D03*
X0097050Y0097466D03*
X0062050Y0097966D03*
X0042050Y0099966D03*
X0017550Y0099466D03*
D119*
X0025135Y0100466D03*
X0033465Y0099966D03*
X0045135Y0100134D03*
X0061965Y0097634D03*
X0071135Y0100466D03*
X0066965Y0108134D03*
X0087965Y0099634D03*
X0105465Y0100466D03*
X0113135Y0100466D03*
D120*
X0101465Y0099466D03*
X0101465Y0097634D03*
X0092635Y0097634D03*
X0092635Y0099466D03*
X0077635Y0113634D03*
X0077465Y0113466D03*
X0075965Y0111634D03*
X0066465Y0098134D03*
X0066465Y0097966D03*
X0044635Y0114966D03*
X0033135Y0106466D03*
X0032465Y0113966D03*
X0028965Y0099466D03*
X0009135Y0108134D03*
X0009135Y0112634D03*
X0122465Y0114966D03*
D121*
X0103630Y0112800D03*
X0084300Y0098300D03*
X0055970Y0114300D03*
X0040630Y0101300D03*
X0013970Y0098300D03*
X0013970Y0097800D03*
X0008970Y0112300D03*
D122*
X0045135Y0097800D03*
D123*
X0049550Y0097800D03*
X0058050Y0112300D03*
D124*
X0059550Y0108300D03*
X0056220Y0097800D03*
X0010220Y0114300D03*
D125*
X0033465Y0099800D03*
X0061965Y0097800D03*
X0070635Y0101300D03*
X0066965Y0107800D03*
D126*
X0092635Y0099300D03*
X0092635Y0097800D03*
X0101465Y0097800D03*
X0101465Y0099300D03*
X0028965Y0099300D03*
D127*
X0097050Y0099300D03*
X0097050Y0097800D03*
D128*
X0092550Y0097966D03*
X0092550Y0099134D03*
X0101550Y0099134D03*
X0101550Y0097966D03*
X0117050Y0097966D03*
X0117050Y0098134D03*
X0117050Y0098966D03*
X0117050Y0099134D03*
X0055050Y0114966D03*
X0033550Y0114634D03*
X0033550Y0106134D03*
X0029050Y0099134D03*
X0023050Y0099966D03*
D129*
X0050050Y0100634D03*
X0088050Y0099134D03*
X0088050Y0098966D03*
X0097050Y0098966D03*
X0097050Y0099134D03*
X0097050Y0098134D03*
X0097050Y0097966D03*
X0117050Y0100466D03*
D130*
X0105715Y0099966D03*
X0062215Y0101134D03*
X0050215Y0101134D03*
X0049885Y0100466D03*
X0044885Y0098134D03*
X0033385Y0099634D03*
D131*
X0017880Y0098300D03*
X0097050Y0098300D03*
X0097050Y0098800D03*
D132*
X0105800Y0099800D03*
X0062130Y0098300D03*
X0044800Y0099800D03*
X0042130Y0099800D03*
X0017630Y0099300D03*
D133*
X0075550Y0110800D03*
X0110550Y0099300D03*
X0117050Y0098300D03*
D134*
X0067050Y0107134D03*
X0045050Y0098466D03*
D135*
X0056220Y0098466D03*
X0056220Y0101134D03*
X0010720Y0105966D03*
X0120880Y0112966D03*
D136*
X0122050Y0114466D03*
X0117050Y0098634D03*
X0117050Y0098466D03*
X0105050Y0111466D03*
X0009550Y0113466D03*
D137*
X0010885Y0114966D03*
X0033715Y0105466D03*
X0048215Y0102634D03*
X0056215Y0100966D03*
X0056215Y0098634D03*
X0074885Y0108134D03*
X0111215Y0113966D03*
D138*
X0111215Y0106800D03*
X0056215Y0100800D03*
X0056215Y0098800D03*
X0010885Y0105800D03*
D139*
X0022885Y0114634D03*
X0056215Y0100634D03*
X0056215Y0100466D03*
X0056215Y0100134D03*
X0056215Y0099134D03*
X0056215Y0098966D03*
X0074885Y0107966D03*
D140*
X0056215Y0100300D03*
X0056215Y0099300D03*
X0048385Y0102800D03*
D141*
X0044465Y0099466D03*
X0019965Y0100966D03*
X0119465Y0100966D03*
D142*
X0087800Y0100466D03*
X0058300Y0111966D03*
X0048800Y0099466D03*
D143*
X0056135Y0099466D03*
X0011135Y0105634D03*
X0011135Y0115134D03*
X0120465Y0112466D03*
D144*
X0120380Y0108466D03*
X0111220Y0106634D03*
X0111220Y0114134D03*
X0056220Y0099966D03*
X0056220Y0099634D03*
X0048550Y0102966D03*
D145*
X0049135Y0099800D03*
X0083635Y0101300D03*
X0083635Y0102300D03*
D146*
X0056220Y0099800D03*
X0120380Y0112300D03*
D147*
X0087800Y0099966D03*
D148*
X0107715Y0100634D03*
X0111215Y0111466D03*
X0119715Y0100634D03*
D149*
X0121965Y0114300D03*
X0077965Y0100800D03*
X0066465Y0101300D03*
X0066965Y0110300D03*
X0054465Y0115300D03*
X0033635Y0114800D03*
X0025635Y0101300D03*
D150*
X0032800Y0106634D03*
X0059300Y0109966D03*
X0075800Y0111466D03*
X0088800Y0101134D03*
X0090300Y0114966D03*
D151*
X0062300Y0101300D03*
D152*
X0089300Y0101300D03*
X0105300Y0111300D03*
D153*
X0029550Y0102134D03*
X0029550Y0101966D03*
X0029550Y0101634D03*
X0029550Y0101466D03*
D154*
X0012300Y0104966D03*
X0066800Y0101466D03*
X0119300Y0110966D03*
D155*
X0103215Y0101966D03*
X0103215Y0101634D03*
X0103215Y0101466D03*
D156*
X0075215Y0106634D03*
X0066715Y0101634D03*
D157*
X0029550Y0101800D03*
D158*
X0066630Y0101800D03*
X0096800Y0116300D03*
X0119130Y0110800D03*
D159*
X0103215Y0101800D03*
D160*
X0119130Y0109966D03*
X0066970Y0113966D03*
X0066630Y0101966D03*
D161*
X0066465Y0102134D03*
X0058965Y0106134D03*
X0066965Y0114134D03*
X0044635Y0114134D03*
X0044635Y0106634D03*
D162*
X0103130Y0102134D03*
D163*
X0029465Y0102300D03*
D164*
X0012720Y0104800D03*
X0066380Y0102300D03*
X0118880Y0110300D03*
D165*
X0103130Y0102300D03*
D166*
X0029465Y0102466D03*
D167*
X0058800Y0105966D03*
X0066300Y0102466D03*
D168*
X0103050Y0102466D03*
X0103050Y0102634D03*
D169*
X0029380Y0102634D03*
D170*
X0066215Y0102634D03*
D171*
X0029300Y0102800D03*
D172*
X0066050Y0102800D03*
D173*
X0102965Y0102800D03*
D174*
X0029215Y0102966D03*
D175*
X0013220Y0116134D03*
X0065880Y0102966D03*
X0111220Y0115466D03*
D176*
X0102880Y0102966D03*
D177*
X0029130Y0103134D03*
D178*
X0033715Y0115466D03*
X0048715Y0103134D03*
X0011385Y0105466D03*
X0111215Y0106466D03*
X0120215Y0108634D03*
X0120215Y0112134D03*
D179*
X0065715Y0103134D03*
D180*
X0102800Y0103134D03*
D181*
X0028965Y0103300D03*
D182*
X0044635Y0106300D03*
X0048965Y0103300D03*
X0066965Y0112800D03*
X0074965Y0107300D03*
X0119965Y0111800D03*
X0011635Y0105300D03*
D183*
X0065465Y0103300D03*
X0066965Y0115300D03*
X0082635Y0116300D03*
D184*
X0102630Y0103300D03*
D185*
X0028800Y0103466D03*
D186*
X0049130Y0103466D03*
X0075130Y0106966D03*
X0111130Y0106134D03*
D187*
X0111215Y0104966D03*
X0075885Y0105634D03*
X0065215Y0103466D03*
D188*
X0102465Y0103466D03*
D189*
X0028635Y0103634D03*
D190*
X0049550Y0103634D03*
X0119050Y0110134D03*
X0119050Y0110634D03*
D191*
X0064800Y0103634D03*
D192*
X0102215Y0103634D03*
D193*
X0044635Y0107634D03*
X0044635Y0113134D03*
X0014635Y0104466D03*
D194*
X0033715Y0104466D03*
D195*
X0055880Y0104466D03*
D196*
X0078550Y0104466D03*
D197*
X0105050Y0104466D03*
D198*
X0013300Y0104634D03*
D199*
X0033720Y0104634D03*
D200*
X0025385Y0106966D03*
X0056885Y0104634D03*
D201*
X0044630Y0110134D03*
X0044630Y0110466D03*
X0044630Y0110634D03*
X0022800Y0110634D03*
X0022800Y0110466D03*
X0022800Y0110134D03*
X0077630Y0104634D03*
X0090300Y0109966D03*
X0090300Y0110134D03*
X0090300Y0110466D03*
X0090300Y0110634D03*
D202*
X0097550Y0104634D03*
X0067050Y0112134D03*
D203*
X0111215Y0116134D03*
X0111215Y0104634D03*
D204*
X0075715Y0105800D03*
X0033715Y0104800D03*
D205*
X0057300Y0104800D03*
D206*
X0077135Y0104800D03*
D207*
X0058215Y0105300D03*
X0044715Y0107300D03*
X0111215Y0104800D03*
D208*
X0111220Y0105634D03*
X0118880Y0110466D03*
X0111220Y0115134D03*
X0033720Y0104966D03*
X0012720Y0115966D03*
D209*
X0057635Y0104966D03*
X0076465Y0105134D03*
D210*
X0076800Y0104966D03*
X0090300Y0108134D03*
X0090300Y0112634D03*
D211*
X0111215Y0114634D03*
X0119715Y0111466D03*
X0059215Y0106634D03*
X0033715Y0115634D03*
X0011885Y0115634D03*
X0011885Y0105134D03*
D212*
X0033715Y0105134D03*
D213*
X0044635Y0107466D03*
X0057965Y0105134D03*
X0066965Y0116134D03*
D214*
X0111215Y0115634D03*
X0111215Y0105134D03*
D215*
X0111215Y0114300D03*
X0033715Y0105300D03*
X0011385Y0115300D03*
D216*
X0076300Y0105300D03*
D217*
X0111135Y0105300D03*
D218*
X0067050Y0115466D03*
X0058380Y0105466D03*
D219*
X0076050Y0105466D03*
D220*
X0090215Y0113966D03*
X0111215Y0105466D03*
X0044715Y0113966D03*
D221*
X0058550Y0105634D03*
D222*
X0059215Y0110300D03*
X0044715Y0105800D03*
X0033215Y0114300D03*
X0022885Y0105800D03*
X0076385Y0112300D03*
X0076885Y0112800D03*
X0090215Y0105800D03*
X0099385Y0115300D03*
X0104215Y0112300D03*
X0111215Y0112800D03*
D223*
X0111215Y0113300D03*
X0121715Y0106800D03*
X0098385Y0115800D03*
X0033715Y0105800D03*
X0009885Y0106800D03*
D224*
X0044715Y0106800D03*
X0058715Y0105800D03*
X0090215Y0106800D03*
X0111215Y0115300D03*
D225*
X0111215Y0105800D03*
D226*
X0105800Y0110134D03*
X0105800Y0110634D03*
X0090300Y0105966D03*
X0053800Y0115634D03*
X0022800Y0105966D03*
D227*
X0066965Y0114966D03*
X0075635Y0105966D03*
D228*
X0111220Y0105966D03*
D229*
X0121050Y0107634D03*
X0121050Y0113134D03*
X0059550Y0107966D03*
X0010550Y0106134D03*
X0010550Y0114634D03*
D230*
X0022800Y0106134D03*
X0044630Y0106134D03*
X0044630Y0114634D03*
X0053130Y0115966D03*
X0059470Y0107466D03*
X0066970Y0111966D03*
X0090300Y0114634D03*
X0097630Y0116134D03*
X0090300Y0106134D03*
X0120630Y0108134D03*
X0120630Y0112634D03*
D231*
X0075550Y0106134D03*
X0067050Y0114634D03*
D232*
X0059300Y0106800D03*
X0090300Y0106300D03*
X0022800Y0106300D03*
D233*
X0059050Y0106300D03*
X0067050Y0113800D03*
D234*
X0075385Y0106300D03*
D235*
X0111220Y0106300D03*
D236*
X0090300Y0106466D03*
X0081800Y0116134D03*
X0022800Y0106466D03*
D237*
X0044635Y0106466D03*
X0059135Y0106466D03*
X0066965Y0113466D03*
X0119465Y0111134D03*
X0119465Y0109634D03*
D238*
X0090300Y0106634D03*
X0090300Y0114134D03*
X0075300Y0106466D03*
X0022800Y0106634D03*
X0022800Y0114134D03*
D239*
X0010050Y0114134D03*
X0010050Y0106634D03*
X0059550Y0108466D03*
X0121550Y0106966D03*
D240*
X0121800Y0106634D03*
X0121800Y0114134D03*
X0009800Y0106966D03*
D241*
X0023050Y0106800D03*
X0051880Y0116300D03*
D242*
X0066965Y0106800D03*
D243*
X0075135Y0106800D03*
X0044635Y0114300D03*
D244*
X0044630Y0106966D03*
X0033800Y0115966D03*
X0066970Y0115134D03*
X0090300Y0106966D03*
D245*
X0059385Y0106966D03*
D246*
X0066970Y0106966D03*
D247*
X0066965Y0111634D03*
X0080635Y0115634D03*
X0111135Y0106966D03*
D248*
X0025050Y0107134D03*
X0025050Y0113634D03*
D249*
X0044635Y0113634D03*
X0044635Y0107134D03*
X0066965Y0115634D03*
D250*
X0066965Y0112466D03*
X0059465Y0107134D03*
X0074965Y0107634D03*
D251*
X0074965Y0107134D03*
X0066965Y0113134D03*
D252*
X0090300Y0113634D03*
X0090300Y0107134D03*
D253*
X0105050Y0109300D03*
X0009550Y0107300D03*
D254*
X0024885Y0107300D03*
X0025385Y0113800D03*
D255*
X0059465Y0107300D03*
X0066965Y0112300D03*
X0074965Y0107800D03*
X0120465Y0108300D03*
D256*
X0066965Y0107300D03*
D257*
X0090300Y0107300D03*
D258*
X0090300Y0114800D03*
X0121300Y0107300D03*
X0022800Y0114800D03*
D259*
X0024635Y0107466D03*
X0044635Y0109134D03*
X0044635Y0111634D03*
D260*
X0066970Y0112634D03*
X0074970Y0107466D03*
X0081300Y0115966D03*
X0120130Y0111966D03*
D261*
X0090300Y0107466D03*
D262*
X0044720Y0111466D03*
X0024380Y0113134D03*
X0024220Y0112966D03*
X0024380Y0107634D03*
D263*
X0090300Y0107634D03*
X0090300Y0113134D03*
D264*
X0024220Y0107800D03*
D265*
X0044715Y0107800D03*
X0090215Y0107800D03*
D266*
X0044635Y0109466D03*
X0044635Y0109634D03*
X0044635Y0111134D03*
X0023965Y0107966D03*
X0023465Y0108466D03*
X0023635Y0112466D03*
D267*
X0044715Y0107966D03*
D268*
X0090300Y0107966D03*
D269*
X0120800Y0107966D03*
D270*
X0090300Y0109466D03*
X0090300Y0109634D03*
X0090300Y0111134D03*
X0023800Y0112634D03*
X0023300Y0111966D03*
X0023800Y0108134D03*
D271*
X0044635Y0108134D03*
X0044635Y0112634D03*
D272*
X0059550Y0108134D03*
D273*
X0044635Y0111300D03*
X0023965Y0112800D03*
X0023465Y0112300D03*
X0023635Y0108300D03*
D274*
X0044630Y0108300D03*
X0090300Y0108300D03*
D275*
X0044635Y0108466D03*
D276*
X0090300Y0108466D03*
D277*
X0090215Y0110966D03*
X0044715Y0110966D03*
X0044715Y0109966D03*
X0023385Y0108634D03*
X0023215Y0108966D03*
X0022885Y0109466D03*
X0022885Y0109634D03*
X0022885Y0109966D03*
X0022885Y0110966D03*
X0022885Y0111134D03*
X0023385Y0112134D03*
D278*
X0044635Y0112134D03*
X0044635Y0108634D03*
D279*
X0090300Y0108634D03*
X0090300Y0112134D03*
D280*
X0090300Y0111300D03*
X0090300Y0109800D03*
X0023300Y0108800D03*
D281*
X0044715Y0108800D03*
X0090215Y0108800D03*
D282*
X0105550Y0109800D03*
X0059550Y0108800D03*
D283*
X0067050Y0108800D03*
D284*
X0044630Y0108966D03*
X0090300Y0108966D03*
X0090300Y0111966D03*
D285*
X0119965Y0108966D03*
X0052635Y0116134D03*
X0044635Y0114466D03*
X0011635Y0115466D03*
D286*
X0023050Y0111634D03*
X0023050Y0111466D03*
X0023050Y0109134D03*
D287*
X0024800Y0113466D03*
X0090300Y0111634D03*
X0090300Y0111466D03*
X0090300Y0109134D03*
D288*
X0119800Y0109134D03*
X0119800Y0111634D03*
D289*
X0023050Y0109300D03*
D290*
X0024635Y0113300D03*
X0044635Y0109300D03*
D291*
X0090300Y0109300D03*
D292*
X0119715Y0109300D03*
D293*
X0105550Y0110966D03*
X0075050Y0109634D03*
X0075050Y0109466D03*
D294*
X0105300Y0109466D03*
D295*
X0119550Y0109466D03*
D296*
X0044715Y0109800D03*
X0044715Y0110800D03*
X0023215Y0111800D03*
X0022885Y0111300D03*
X0022885Y0110800D03*
X0022885Y0109800D03*
D297*
X0075135Y0109800D03*
X0079135Y0114800D03*
D298*
X0119300Y0109800D03*
X0012300Y0115800D03*
D299*
X0022800Y0110300D03*
X0044630Y0110300D03*
X0090300Y0110300D03*
X0090300Y0110800D03*
D300*
X0067050Y0111300D03*
D301*
X0119550Y0111300D03*
D302*
X0090300Y0111800D03*
X0044630Y0111800D03*
D303*
X0066965Y0111800D03*
D304*
X0044715Y0111966D03*
D305*
X0044635Y0112300D03*
D306*
X0090300Y0112300D03*
D307*
X0090300Y0112466D03*
X0044630Y0112466D03*
D308*
X0044635Y0112800D03*
D309*
X0090300Y0112800D03*
D310*
X0090215Y0112966D03*
X0044715Y0112966D03*
D311*
X0067050Y0112966D03*
X0111220Y0114466D03*
D312*
X0090215Y0113300D03*
X0044715Y0113300D03*
X0014385Y0116300D03*
D313*
X0066970Y0113300D03*
D314*
X0077300Y0113300D03*
D315*
X0044715Y0113466D03*
X0111215Y0115966D03*
D316*
X0090300Y0113466D03*
D317*
X0066965Y0113634D03*
D318*
X0044630Y0113800D03*
X0090300Y0113800D03*
D319*
X0121550Y0113800D03*
D320*
X0022965Y0113966D03*
D321*
X0022800Y0114300D03*
X0090300Y0114300D03*
D322*
X0066965Y0114300D03*
D323*
X0090300Y0114466D03*
X0022800Y0114466D03*
D324*
X0066970Y0114466D03*
D325*
X0066965Y0114800D03*
D326*
X0111220Y0114800D03*
D327*
X0111215Y0114966D03*
D328*
X0033800Y0115800D03*
D329*
X0066970Y0115800D03*
D330*
X0080970Y0115800D03*
D331*
X0111215Y0115800D03*
D332*
X0066965Y0115966D03*
D333*
X0033715Y0116134D03*
D334*
X0033800Y0116300D03*
D335*
X0066970Y0116300D03*
X0111130Y0116300D03*
D336*
X0157863Y0121249D02*
X0157863Y0129517D01*
X0160619Y0129517D01*
X0179123Y0129517D02*
X0199989Y0129517D01*
X0199989Y0094083D01*
X0157863Y0094083D01*
X0157863Y0102351D01*
M02*
