%
M48
M72
T01C0.0200
T02C0.0240
T03C0.0320
T04C0.0400
T05C0.0512
T06C0.0551
%
T01
X5760Y2760
X5220Y6000
X5220Y7080
X5520Y8700
X7680Y9060
X6720Y11100
X10620Y9480
X10980Y9840
X12720Y9480
X12960Y8640
X10200Y7080
X10200Y6240
X12120Y4860
X11340Y4140
X9840Y3240
X1320Y6360
X600Y7080
T02
X680Y680
X7680Y3680
X8680Y3680
X12180Y10430
X9430Y10930
X5180Y10930
X3680Y10930
X2180Y10930
X680Y19430
X19430Y19430
X19430Y680
T03
X1680Y4680
X2680Y4680
X3680Y4680
X4680Y4680
X5680Y4680
X6680Y4680
X7680Y4680
X8680Y4680
X9680Y4680
X10680Y4680
X12680Y4680
X13680Y4680
X14680Y4680
X15680Y4680
X16680Y4680
X17680Y4680
X18680Y4680
X18680Y7680
X17680Y7680
X16680Y7680
X15680Y7680
X14680Y7680
X13680Y7680
X12680Y7680
X10680Y7680
X9680Y7680
X8680Y7680
X7680Y7680
X6680Y7680
X5680Y7680
X4680Y7680
X3680Y7680
X2680Y7680
X1680Y7680
X1430Y12180
X2430Y12180
X3430Y12180
X4430Y12180
X5430Y12180
X6430Y12180
X7430Y12180
X8430Y12180
X9430Y12180
X11180Y13180
X12180Y13180
X12080Y15180
X11280Y15180
X9430Y15180
X8430Y15180
X7430Y15180
X6430Y15180
X5430Y15180
X4430Y15180
X3430Y15180
X2430Y15180
X1430Y15180
X1930Y16180
X2930Y16180
X3930Y16180
X4930Y16180
X5930Y16180
X6930Y16180
X7930Y16180
X8930Y16180
X10180Y16930
X8930Y19180
X7930Y19180
X6930Y19180
X5930Y19180
X4930Y19180
X3930Y19180
X2930Y19180
X1930Y19180
X13180Y16930
T04
X11180Y18680
X12180Y18680
X13930Y11680
X13930Y10680
X13180Y1680
X12180Y1680
X11180Y1680
X8680Y1680
X7680Y1680
X6680Y1680
X5680Y1680
X4680Y1680
X3680Y1680
X2680Y1680
X1680Y1680
X15680Y1680
X16680Y1680
X17680Y1680
X18680Y1680
T05
X15786Y10865
X15786Y11180
X15786Y11495
X16652Y13030
X16967Y13030
X17282Y13030
X18149Y11495
X18149Y11180
X18149Y10865
T06
X14601Y18550
X16373Y15912
X15704Y14928
X18971Y16897
X17593Y18668
M30
