G75*
%MOIN*%
%OFA0B0*%
%FSLAX25Y25*%
%IPPOS*%
%LPD*%
%AMOC8*
5,1,8,0,0,1.08239X$1,22.5*
%
%ADD10C,0.00000*%
%ADD11OC8,0.05200*%
%ADD12C,0.05200*%
%ADD13C,0.05200*%
%ADD14C,0.06000*%
%ADD15C,0.09449*%
%ADD16OC8,0.15748*%
%ADD17C,0.07677*%
%ADD18C,0.01600*%
%ADD19C,0.03600*%
%ADD20C,0.01200*%
%ADD21C,0.03200*%
D10*
X0001800Y0001800D02*
X0001800Y0198650D01*
X0198650Y0198650D01*
X0198650Y0001800D01*
X0001800Y0001800D01*
D11*
X0014300Y0121800D03*
X0024300Y0121800D03*
X0034300Y0121800D03*
X0044300Y0121800D03*
X0054300Y0121800D03*
X0064300Y0121800D03*
X0074300Y0121800D03*
X0084300Y0121800D03*
X0094300Y0121800D03*
X0111800Y0131800D03*
X0121800Y0131800D03*
X0120800Y0151800D03*
X0131800Y0169300D03*
X0101800Y0169300D03*
X0089300Y0161800D03*
X0079300Y0161800D03*
X0069300Y0161800D03*
X0059300Y0161800D03*
X0049300Y0161800D03*
X0039300Y0161800D03*
X0029300Y0161800D03*
X0019300Y0161800D03*
X0014300Y0151800D03*
X0024300Y0151800D03*
X0034300Y0151800D03*
X0044300Y0151800D03*
X0054300Y0151800D03*
X0064300Y0151800D03*
X0074300Y0151800D03*
X0084300Y0151800D03*
X0094300Y0151800D03*
X0089300Y0191800D03*
X0079300Y0191800D03*
X0069300Y0191800D03*
X0059300Y0191800D03*
X0049300Y0191800D03*
X0039300Y0191800D03*
X0029300Y0191800D03*
X0019300Y0191800D03*
D12*
X0112800Y0151800D03*
D13*
X0106800Y0079400D02*
X0106800Y0074200D01*
X0096800Y0074200D02*
X0096800Y0079400D01*
X0086800Y0079400D02*
X0086800Y0074200D01*
X0076800Y0074200D02*
X0076800Y0079400D01*
X0066800Y0079400D02*
X0066800Y0074200D01*
X0056800Y0074200D02*
X0056800Y0079400D01*
X0046800Y0079400D02*
X0046800Y0074200D01*
X0036800Y0074200D02*
X0036800Y0079400D01*
X0026800Y0079400D02*
X0026800Y0074200D01*
X0016800Y0074200D02*
X0016800Y0079400D01*
X0016800Y0049400D02*
X0016800Y0044200D01*
X0026800Y0044200D02*
X0026800Y0049400D01*
X0036800Y0049400D02*
X0036800Y0044200D01*
X0046800Y0044200D02*
X0046800Y0049400D01*
X0056800Y0049400D02*
X0056800Y0044200D01*
X0066800Y0044200D02*
X0066800Y0049400D01*
X0076800Y0049400D02*
X0076800Y0044200D01*
X0086800Y0044200D02*
X0086800Y0049400D01*
X0096800Y0049400D02*
X0096800Y0044200D01*
X0106800Y0044200D02*
X0106800Y0049400D01*
X0126800Y0049400D02*
X0126800Y0044200D01*
X0136800Y0044200D02*
X0136800Y0049400D01*
X0146800Y0049400D02*
X0146800Y0044200D01*
X0156800Y0044200D02*
X0156800Y0049400D01*
X0166800Y0049400D02*
X0166800Y0044200D01*
X0176800Y0044200D02*
X0176800Y0049400D01*
X0186800Y0049400D02*
X0186800Y0044200D01*
X0186800Y0074200D02*
X0186800Y0079400D01*
X0176800Y0079400D02*
X0176800Y0074200D01*
X0166800Y0074200D02*
X0166800Y0079400D01*
X0156800Y0079400D02*
X0156800Y0074200D01*
X0146800Y0074200D02*
X0146800Y0079400D01*
X0136800Y0079400D02*
X0136800Y0074200D01*
X0126800Y0074200D02*
X0126800Y0079400D01*
D14*
X0136300Y0106800D02*
X0142300Y0106800D01*
X0142300Y0116800D02*
X0136300Y0116800D01*
X0121800Y0183800D02*
X0121800Y0189800D01*
X0111800Y0189800D02*
X0111800Y0183800D01*
X0111800Y0019800D02*
X0111800Y0013800D01*
X0121800Y0013800D02*
X0121800Y0019800D01*
X0131800Y0019800D02*
X0131800Y0013800D01*
X0156800Y0013800D02*
X0156800Y0019800D01*
X0166800Y0019800D02*
X0166800Y0013800D01*
X0176800Y0013800D02*
X0176800Y0019800D01*
X0186800Y0019800D02*
X0186800Y0013800D01*
X0086800Y0013800D02*
X0086800Y0019800D01*
X0076800Y0019800D02*
X0076800Y0013800D01*
X0066800Y0013800D02*
X0066800Y0019800D01*
X0056800Y0019800D02*
X0056800Y0013800D01*
X0046800Y0013800D02*
X0046800Y0019800D01*
X0036800Y0019800D02*
X0036800Y0013800D01*
X0026800Y0013800D02*
X0026800Y0019800D01*
X0016800Y0019800D02*
X0016800Y0013800D01*
D15*
X0157036Y0149280D03*
X0163729Y0159123D03*
X0189713Y0168965D03*
X0175934Y0186682D03*
X0146013Y0185501D03*
D16*
X0169674Y0130304D03*
X0157863Y0111800D03*
X0181485Y0111800D03*
D17*
X0181485Y0108650D03*
X0181485Y0114950D03*
X0172824Y0130304D03*
X0166524Y0130304D03*
X0157863Y0114950D03*
X0157863Y0108650D03*
D18*
X0162533Y0102506D02*
X0177098Y0102506D01*
X0177478Y0102126D02*
X0171811Y0107793D01*
X0171811Y0111320D01*
X0176517Y0111320D01*
X0176662Y0111606D01*
X0176804Y0111800D01*
X0176662Y0111994D01*
X0176517Y0112280D01*
X0171811Y0112280D01*
X0171811Y0115807D01*
X0177478Y0121474D01*
X0181005Y0121474D01*
X0181005Y0115429D01*
X0181965Y0115429D01*
X0181965Y0121474D01*
X0185492Y0121474D01*
X0191159Y0115807D01*
X0191159Y0112280D01*
X0186453Y0112280D01*
X0186308Y0111994D01*
X0186166Y0111800D01*
X0186308Y0111606D01*
X0186453Y0111320D01*
X0191159Y0111320D01*
X0191159Y0107793D01*
X0185492Y0102126D01*
X0181965Y0102126D01*
X0181965Y0108171D01*
X0181005Y0108171D01*
X0181005Y0102126D01*
X0177478Y0102126D01*
X0175499Y0104105D02*
X0164132Y0104105D01*
X0165730Y0105703D02*
X0173901Y0105703D01*
X0172302Y0107302D02*
X0167329Y0107302D01*
X0167737Y0107710D02*
X0161953Y0101926D01*
X0153773Y0101926D01*
X0147989Y0107710D01*
X0147989Y0115890D01*
X0153773Y0121674D01*
X0161953Y0121674D01*
X0167737Y0115890D01*
X0167737Y0107710D01*
X0167737Y0108900D02*
X0171811Y0108900D01*
X0171811Y0110499D02*
X0167737Y0110499D01*
X0167737Y0112097D02*
X0176610Y0112097D01*
X0181005Y0112280D02*
X0181005Y0114470D01*
X0181965Y0114470D01*
X0181965Y0112280D01*
X0181005Y0112280D01*
X0181005Y0111320D02*
X0181005Y0109130D01*
X0181965Y0109130D01*
X0181965Y0111320D01*
X0181005Y0111320D01*
X0181005Y0110499D02*
X0181965Y0110499D01*
X0181965Y0113696D02*
X0181005Y0113696D01*
X0181005Y0116893D02*
X0181965Y0116893D01*
X0181965Y0118491D02*
X0181005Y0118491D01*
X0181005Y0120090D02*
X0181965Y0120090D01*
X0176094Y0120090D02*
X0163537Y0120090D01*
X0164608Y0121688D02*
X0098900Y0121688D01*
X0098900Y0120090D02*
X0132802Y0120090D01*
X0132639Y0119927D02*
X0132195Y0119316D01*
X0131852Y0118643D01*
X0131618Y0117924D01*
X0131500Y0117178D01*
X0131500Y0117000D01*
X0139100Y0117000D01*
X0139100Y0121600D01*
X0135922Y0121600D01*
X0135176Y0121482D01*
X0134457Y0121248D01*
X0133784Y0120905D01*
X0133173Y0120461D01*
X0132639Y0119927D01*
X0131803Y0118491D02*
X0097497Y0118491D01*
X0096205Y0117200D02*
X0098900Y0119895D01*
X0098900Y0123705D01*
X0096205Y0126400D01*
X0092395Y0126400D01*
X0089700Y0123705D01*
X0089700Y0119895D01*
X0092395Y0117200D01*
X0096205Y0117200D01*
X0091103Y0118491D02*
X0087497Y0118491D01*
X0086205Y0117200D02*
X0088900Y0119895D01*
X0088900Y0123705D01*
X0086205Y0126400D01*
X0082395Y0126400D01*
X0079700Y0123705D01*
X0079700Y0119895D01*
X0082395Y0117200D01*
X0086205Y0117200D01*
X0088900Y0120090D02*
X0089700Y0120090D01*
X0089700Y0121688D02*
X0088900Y0121688D01*
X0088900Y0123287D02*
X0089700Y0123287D01*
X0090880Y0124885D02*
X0087720Y0124885D01*
X0080880Y0124885D02*
X0077720Y0124885D01*
X0078900Y0123705D02*
X0076205Y0126400D01*
X0072395Y0126400D01*
X0069700Y0123705D01*
X0069700Y0119895D01*
X0072395Y0117200D01*
X0076205Y0117200D01*
X0078900Y0119895D01*
X0078900Y0123705D01*
X0078900Y0123287D02*
X0079700Y0123287D01*
X0079700Y0121688D02*
X0078900Y0121688D01*
X0078900Y0120090D02*
X0079700Y0120090D01*
X0081103Y0118491D02*
X0077497Y0118491D01*
X0071103Y0118491D02*
X0067497Y0118491D01*
X0066205Y0117200D02*
X0068900Y0119895D01*
X0068900Y0123705D01*
X0066205Y0126400D01*
X0062395Y0126400D01*
X0059700Y0123705D01*
X0059700Y0119895D01*
X0062395Y0117200D01*
X0066205Y0117200D01*
X0066484Y0114600D02*
X0065161Y0114052D01*
X0064148Y0113039D01*
X0063940Y0112537D01*
X0060404Y0116073D01*
X0059673Y0116804D01*
X0058717Y0117200D01*
X0052077Y0117200D01*
X0048900Y0120377D01*
X0048900Y0123705D01*
X0046205Y0126400D01*
X0042395Y0126400D01*
X0039700Y0123705D01*
X0039700Y0119895D01*
X0042395Y0117200D01*
X0044723Y0117200D01*
X0049527Y0112396D01*
X0050483Y0112000D01*
X0057123Y0112000D01*
X0075263Y0093860D01*
X0074761Y0093652D01*
X0074309Y0093200D01*
X0036083Y0093200D01*
X0035127Y0092804D01*
X0034396Y0092073D01*
X0026323Y0084000D01*
X0025885Y0084000D01*
X0024194Y0083300D01*
X0022900Y0082006D01*
X0022200Y0080315D01*
X0022200Y0073285D01*
X0022900Y0071594D01*
X0024194Y0070300D01*
X0025885Y0069600D01*
X0027715Y0069600D01*
X0029406Y0070300D01*
X0030700Y0071594D01*
X0031400Y0073285D01*
X0031400Y0080315D01*
X0030988Y0081311D01*
X0037677Y0088000D01*
X0041123Y0088000D01*
X0037123Y0084000D01*
X0035885Y0084000D01*
X0034194Y0083300D01*
X0032900Y0082006D01*
X0032200Y0080315D01*
X0032200Y0073285D01*
X0032261Y0073138D01*
X0018723Y0059600D01*
X0013283Y0059600D01*
X0012327Y0059204D01*
X0008127Y0055004D01*
X0007396Y0054273D01*
X0007000Y0053317D01*
X0007000Y0026483D01*
X0007396Y0025527D01*
X0011896Y0021027D01*
X0011800Y0020795D01*
X0011800Y0012805D01*
X0012561Y0010968D01*
X0013968Y0009561D01*
X0015805Y0008800D01*
X0017795Y0008800D01*
X0019632Y0009561D01*
X0021039Y0010968D01*
X0021800Y0012805D01*
X0022561Y0010968D01*
X0023968Y0009561D01*
X0025805Y0008800D01*
X0027795Y0008800D01*
X0029632Y0009561D01*
X0031039Y0010968D01*
X0031800Y0012805D01*
X0031800Y0020795D01*
X0031039Y0022632D01*
X0029632Y0024039D01*
X0027795Y0024800D01*
X0025805Y0024800D01*
X0023968Y0024039D01*
X0022561Y0022632D01*
X0021800Y0020795D01*
X0021800Y0012805D01*
X0021800Y0020795D01*
X0021039Y0022632D01*
X0019632Y0024039D01*
X0017795Y0024800D01*
X0015805Y0024800D01*
X0015573Y0024704D01*
X0012200Y0028077D01*
X0012200Y0051723D01*
X0014877Y0054400D01*
X0020317Y0054400D01*
X0021273Y0054796D01*
X0022004Y0055527D01*
X0036077Y0069600D01*
X0037715Y0069600D01*
X0039406Y0070300D01*
X0040700Y0071594D01*
X0041400Y0073285D01*
X0041400Y0080315D01*
X0041222Y0080745D01*
X0044877Y0084400D01*
X0052709Y0084400D01*
X0053161Y0083948D01*
X0054460Y0083410D01*
X0054194Y0083300D01*
X0052900Y0082006D01*
X0052200Y0080315D01*
X0052200Y0074400D01*
X0051484Y0074400D01*
X0051400Y0074365D01*
X0051400Y0080315D01*
X0050700Y0082006D01*
X0049406Y0083300D01*
X0047715Y0084000D01*
X0045885Y0084000D01*
X0044194Y0083300D01*
X0042900Y0082006D01*
X0042200Y0080315D01*
X0042200Y0073285D01*
X0042900Y0071594D01*
X0044194Y0070300D01*
X0045885Y0069600D01*
X0047715Y0069600D01*
X0048641Y0069984D01*
X0049148Y0068761D01*
X0049600Y0068309D01*
X0049600Y0062491D01*
X0049148Y0062039D01*
X0048600Y0060716D01*
X0048600Y0059284D01*
X0049148Y0057961D01*
X0050161Y0056948D01*
X0051484Y0056400D01*
X0052916Y0056400D01*
X0053611Y0056688D01*
X0050727Y0053804D01*
X0049996Y0053073D01*
X0049889Y0052816D01*
X0049406Y0053300D01*
X0047715Y0054000D01*
X0045885Y0054000D01*
X0044194Y0053300D01*
X0042900Y0052006D01*
X0042200Y0050315D01*
X0042200Y0043285D01*
X0042900Y0041594D01*
X0044194Y0040300D01*
X0045885Y0039600D01*
X0047715Y0039600D01*
X0047817Y0039642D01*
X0048196Y0038727D01*
X0048823Y0038100D01*
X0036927Y0026204D01*
X0036196Y0025473D01*
X0035917Y0024800D01*
X0035805Y0024800D01*
X0033968Y0024039D01*
X0032561Y0022632D01*
X0031800Y0020795D01*
X0031800Y0012805D01*
X0032561Y0010968D01*
X0033968Y0009561D01*
X0035805Y0008800D01*
X0037795Y0008800D01*
X0039632Y0009561D01*
X0041039Y0010968D01*
X0041800Y0012805D01*
X0042561Y0010968D01*
X0043968Y0009561D01*
X0045805Y0008800D01*
X0047795Y0008800D01*
X0049632Y0009561D01*
X0051039Y0010968D01*
X0051800Y0012805D01*
X0052561Y0010968D01*
X0053968Y0009561D01*
X0055805Y0008800D01*
X0057795Y0008800D01*
X0059632Y0009561D01*
X0061039Y0010968D01*
X0061800Y0012805D01*
X0061800Y0020795D01*
X0061039Y0022632D01*
X0059632Y0024039D01*
X0059021Y0024292D01*
X0059639Y0024548D01*
X0060091Y0025000D01*
X0076523Y0025000D01*
X0076323Y0024800D01*
X0075805Y0024800D01*
X0073968Y0024039D01*
X0072561Y0022632D01*
X0071800Y0020795D01*
X0071800Y0012805D01*
X0072561Y0010968D01*
X0073968Y0009561D01*
X0075805Y0008800D01*
X0077795Y0008800D01*
X0079632Y0009561D01*
X0081039Y0010968D01*
X0081800Y0012805D01*
X0082561Y0010968D01*
X0083968Y0009561D01*
X0085805Y0008800D01*
X0087795Y0008800D01*
X0089632Y0009561D01*
X0091039Y0010968D01*
X0091800Y0012805D01*
X0091800Y0015400D01*
X0093517Y0015400D01*
X0094473Y0015796D01*
X0095204Y0016527D01*
X0103677Y0025000D01*
X0131317Y0025000D01*
X0132273Y0025396D01*
X0133004Y0026127D01*
X0146477Y0039600D01*
X0147715Y0039600D01*
X0149406Y0040300D01*
X0150700Y0041594D01*
X0151400Y0043285D01*
X0151400Y0050315D01*
X0150700Y0052006D01*
X0149406Y0053300D01*
X0147715Y0054000D01*
X0145885Y0054000D01*
X0144194Y0053300D01*
X0142900Y0052006D01*
X0142200Y0050315D01*
X0142200Y0043285D01*
X0142378Y0042855D01*
X0129723Y0030200D01*
X0111277Y0030200D01*
X0119204Y0038127D01*
X0119600Y0039083D01*
X0119600Y0043323D01*
X0121277Y0045000D01*
X0121916Y0045000D01*
X0122200Y0045118D01*
X0122200Y0043285D01*
X0122900Y0041594D01*
X0124194Y0040300D01*
X0125885Y0039600D01*
X0127715Y0039600D01*
X0129406Y0040300D01*
X0130700Y0041594D01*
X0131400Y0043285D01*
X0131400Y0050315D01*
X0130700Y0052006D01*
X0129406Y0053300D01*
X0127715Y0054000D01*
X0125885Y0054000D01*
X0124194Y0053300D01*
X0122900Y0052006D01*
X0122825Y0051824D01*
X0121916Y0052200D01*
X0120484Y0052200D01*
X0119161Y0051652D01*
X0118148Y0050639D01*
X0117600Y0049316D01*
X0117600Y0048677D01*
X0116600Y0047677D01*
X0116600Y0070117D01*
X0116204Y0071073D01*
X0115473Y0071804D01*
X0111400Y0075877D01*
X0111400Y0080315D01*
X0110700Y0082006D01*
X0109406Y0083300D01*
X0107715Y0084000D01*
X0105885Y0084000D01*
X0104194Y0083300D01*
X0102900Y0082006D01*
X0102200Y0080315D01*
X0102200Y0074400D01*
X0101400Y0074400D01*
X0101400Y0080315D01*
X0100700Y0082006D01*
X0099406Y0083300D01*
X0097715Y0084000D01*
X0095885Y0084000D01*
X0094194Y0083300D01*
X0093569Y0082674D01*
X0093404Y0083073D01*
X0087877Y0088600D01*
X0104523Y0088600D01*
X0111400Y0081723D01*
X0111400Y0080483D01*
X0111796Y0079527D01*
X0112527Y0078796D01*
X0117400Y0073923D01*
X0117400Y0073883D01*
X0117796Y0072927D01*
X0118527Y0072196D01*
X0123327Y0067396D01*
X0124283Y0067000D01*
X0130117Y0067000D01*
X0131073Y0067396D01*
X0131804Y0068127D01*
X0131804Y0068127D01*
X0134086Y0070409D01*
X0134194Y0070300D01*
X0135885Y0069600D01*
X0137715Y0069600D01*
X0139406Y0070300D01*
X0140700Y0071594D01*
X0141400Y0073285D01*
X0141400Y0080315D01*
X0140700Y0082006D01*
X0139406Y0083300D01*
X0137715Y0084000D01*
X0135885Y0084000D01*
X0134194Y0083300D01*
X0132900Y0082006D01*
X0132200Y0080315D01*
X0132200Y0075877D01*
X0131400Y0075077D01*
X0131400Y0080315D01*
X0130700Y0082006D01*
X0129905Y0082800D01*
X0130316Y0082800D01*
X0131639Y0083348D01*
X0132652Y0084361D01*
X0133200Y0085684D01*
X0133200Y0087116D01*
X0132652Y0088439D01*
X0131639Y0089452D01*
X0130316Y0090000D01*
X0129677Y0090000D01*
X0128313Y0091364D01*
X0129239Y0091748D01*
X0129691Y0092200D01*
X0130923Y0092200D01*
X0142378Y0080745D01*
X0142200Y0080315D01*
X0142200Y0073285D01*
X0142900Y0071594D01*
X0144194Y0070300D01*
X0145885Y0069600D01*
X0147715Y0069600D01*
X0149406Y0070300D01*
X0150700Y0071594D01*
X0151400Y0073285D01*
X0151400Y0080315D01*
X0150700Y0082006D01*
X0149406Y0083300D01*
X0147715Y0084000D01*
X0146477Y0084000D01*
X0134677Y0095800D01*
X0138123Y0095800D01*
X0152612Y0081311D01*
X0152200Y0080315D01*
X0152200Y0073285D01*
X0152900Y0071594D01*
X0154194Y0070300D01*
X0155885Y0069600D01*
X0157715Y0069600D01*
X0159406Y0070300D01*
X0160700Y0071594D01*
X0161400Y0073285D01*
X0161400Y0080315D01*
X0160700Y0082006D01*
X0159406Y0083300D01*
X0157715Y0084000D01*
X0157277Y0084000D01*
X0141404Y0099873D01*
X0140673Y0100604D01*
X0139717Y0101000D01*
X0112291Y0101000D01*
X0111839Y0101452D01*
X0110516Y0102000D01*
X0109084Y0102000D01*
X0107761Y0101452D01*
X0106748Y0100439D01*
X0106200Y0099116D01*
X0106200Y0098400D01*
X0105484Y0098400D01*
X0104161Y0097852D01*
X0103148Y0096839D01*
X0102600Y0095516D01*
X0102600Y0094084D01*
X0102718Y0093800D01*
X0088077Y0093800D01*
X0070800Y0111077D01*
X0070800Y0111716D01*
X0070252Y0113039D01*
X0069239Y0114052D01*
X0067916Y0114600D01*
X0066484Y0114600D01*
X0064805Y0113696D02*
X0062781Y0113696D01*
X0061183Y0115294D02*
X0131742Y0115294D01*
X0131852Y0114957D02*
X0132195Y0114284D01*
X0132639Y0113673D01*
X0133173Y0113139D01*
X0133784Y0112695D01*
X0134457Y0112352D01*
X0135176Y0112118D01*
X0135922Y0112000D01*
X0139100Y0112000D01*
X0139100Y0116600D01*
X0139500Y0116600D01*
X0139500Y0117000D01*
X0139100Y0117000D01*
X0139100Y0116600D01*
X0131500Y0116600D01*
X0131500Y0116422D01*
X0131618Y0115676D01*
X0131852Y0114957D01*
X0132622Y0113696D02*
X0069595Y0113696D01*
X0070642Y0112097D02*
X0135308Y0112097D01*
X0135305Y0111800D02*
X0133468Y0111039D01*
X0132061Y0109632D01*
X0131300Y0107795D01*
X0131300Y0105805D01*
X0132061Y0103968D01*
X0133468Y0102561D01*
X0135305Y0101800D01*
X0143295Y0101800D01*
X0145132Y0102561D01*
X0146539Y0103968D01*
X0147300Y0105805D01*
X0147300Y0107795D01*
X0146539Y0109632D01*
X0145132Y0111039D01*
X0143295Y0111800D01*
X0135305Y0111800D01*
X0132928Y0110499D02*
X0071378Y0110499D01*
X0072977Y0108900D02*
X0131758Y0108900D01*
X0131300Y0107302D02*
X0074575Y0107302D01*
X0076174Y0105703D02*
X0131342Y0105703D01*
X0132004Y0104105D02*
X0077772Y0104105D01*
X0079371Y0102506D02*
X0133600Y0102506D01*
X0139940Y0100908D02*
X0196850Y0100908D01*
X0196850Y0102506D02*
X0185872Y0102506D01*
X0187471Y0104105D02*
X0196850Y0104105D01*
X0196850Y0105703D02*
X0189069Y0105703D01*
X0190668Y0107302D02*
X0196850Y0107302D01*
X0196850Y0108900D02*
X0191159Y0108900D01*
X0191159Y0110499D02*
X0196850Y0110499D01*
X0196850Y0112097D02*
X0186360Y0112097D01*
X0181965Y0107302D02*
X0181005Y0107302D01*
X0181005Y0105703D02*
X0181965Y0105703D01*
X0181965Y0104105D02*
X0181005Y0104105D01*
X0181005Y0102506D02*
X0181965Y0102506D01*
X0191159Y0113696D02*
X0196850Y0113696D01*
X0196850Y0115294D02*
X0191159Y0115294D01*
X0190073Y0116893D02*
X0196850Y0116893D01*
X0196850Y0118491D02*
X0188475Y0118491D01*
X0186876Y0120090D02*
X0196850Y0120090D01*
X0196850Y0121688D02*
X0174740Y0121688D01*
X0173681Y0120630D02*
X0179348Y0126297D01*
X0179348Y0129824D01*
X0173303Y0129824D01*
X0173303Y0130783D01*
X0179348Y0130783D01*
X0179348Y0134311D01*
X0173681Y0139978D01*
X0170154Y0139978D01*
X0170154Y0135272D01*
X0169868Y0135126D01*
X0169674Y0134985D01*
X0169480Y0135126D01*
X0169194Y0135272D01*
X0169194Y0139978D01*
X0165667Y0139978D01*
X0160000Y0134311D01*
X0160000Y0130783D01*
X0166045Y0130783D01*
X0166045Y0129824D01*
X0160000Y0129824D01*
X0160000Y0126297D01*
X0165667Y0120630D01*
X0169194Y0120630D01*
X0169194Y0125336D01*
X0169480Y0125481D01*
X0169674Y0125623D01*
X0169868Y0125481D01*
X0170154Y0125336D01*
X0170154Y0120630D01*
X0173681Y0120630D01*
X0174495Y0118491D02*
X0165136Y0118491D01*
X0166734Y0116893D02*
X0172897Y0116893D01*
X0171811Y0115294D02*
X0167737Y0115294D01*
X0167737Y0113696D02*
X0171811Y0113696D01*
X0170154Y0121688D02*
X0169194Y0121688D01*
X0169194Y0123287D02*
X0170154Y0123287D01*
X0170154Y0124885D02*
X0169194Y0124885D01*
X0169194Y0129824D02*
X0167004Y0129824D01*
X0167004Y0130783D01*
X0169194Y0130783D01*
X0169194Y0129824D01*
X0170154Y0129824D02*
X0172344Y0129824D01*
X0172344Y0130783D01*
X0170154Y0130783D01*
X0170154Y0129824D01*
X0170154Y0136075D02*
X0169194Y0136075D01*
X0169194Y0137673D02*
X0170154Y0137673D01*
X0170154Y0139272D02*
X0169194Y0139272D01*
X0164961Y0139272D02*
X0003600Y0139272D01*
X0003600Y0140870D02*
X0196850Y0140870D01*
X0196850Y0139272D02*
X0174387Y0139272D01*
X0175986Y0137673D02*
X0196850Y0137673D01*
X0196850Y0136075D02*
X0177584Y0136075D01*
X0179183Y0134476D02*
X0196850Y0134476D01*
X0196850Y0132878D02*
X0179348Y0132878D01*
X0179348Y0131279D02*
X0196850Y0131279D01*
X0196850Y0129681D02*
X0179348Y0129681D01*
X0179348Y0128082D02*
X0196850Y0128082D01*
X0196850Y0126484D02*
X0179348Y0126484D01*
X0177937Y0124885D02*
X0196850Y0124885D01*
X0196850Y0123287D02*
X0176338Y0123287D01*
X0163010Y0123287D02*
X0098900Y0123287D01*
X0097720Y0124885D02*
X0161411Y0124885D01*
X0160000Y0126484D02*
X0003600Y0126484D01*
X0003600Y0128082D02*
X0109295Y0128082D01*
X0109977Y0127400D02*
X0111800Y0127400D01*
X0113623Y0127400D01*
X0116200Y0129977D01*
X0116200Y0131800D01*
X0116200Y0133623D01*
X0113623Y0136200D01*
X0111800Y0136200D01*
X0111800Y0131800D01*
X0116200Y0131800D01*
X0111800Y0131800D01*
X0111800Y0131800D01*
X0111800Y0131800D01*
X0111800Y0127400D01*
X0111800Y0131800D01*
X0111800Y0131800D01*
X0111800Y0131800D01*
X0107400Y0131800D01*
X0107400Y0133623D01*
X0109977Y0136200D01*
X0111800Y0136200D01*
X0111800Y0131800D01*
X0107400Y0131800D01*
X0107400Y0129977D01*
X0109977Y0127400D01*
X0111800Y0128082D02*
X0111800Y0128082D01*
X0111800Y0129681D02*
X0111800Y0129681D01*
X0111800Y0131279D02*
X0111800Y0131279D01*
X0111800Y0132878D02*
X0111800Y0132878D01*
X0111800Y0134476D02*
X0111800Y0134476D01*
X0111800Y0136075D02*
X0111800Y0136075D01*
X0113748Y0136075D02*
X0119570Y0136075D01*
X0119895Y0136400D02*
X0117200Y0133705D01*
X0117200Y0129895D01*
X0119895Y0127200D01*
X0123705Y0127200D01*
X0126400Y0129895D01*
X0126400Y0133705D01*
X0123705Y0136400D01*
X0119895Y0136400D01*
X0117971Y0134476D02*
X0115346Y0134476D01*
X0116200Y0132878D02*
X0117200Y0132878D01*
X0117200Y0131279D02*
X0116200Y0131279D01*
X0115903Y0129681D02*
X0117414Y0129681D01*
X0119012Y0128082D02*
X0114305Y0128082D01*
X0107697Y0129681D02*
X0003600Y0129681D01*
X0003600Y0131279D02*
X0107400Y0131279D01*
X0107400Y0132878D02*
X0003600Y0132878D01*
X0003600Y0134476D02*
X0108254Y0134476D01*
X0109852Y0136075D02*
X0003600Y0136075D01*
X0003600Y0137673D02*
X0163362Y0137673D01*
X0161764Y0136075D02*
X0124030Y0136075D01*
X0125629Y0134476D02*
X0160165Y0134476D01*
X0160000Y0132878D02*
X0126400Y0132878D01*
X0126400Y0131279D02*
X0160000Y0131279D01*
X0160000Y0129681D02*
X0126186Y0129681D01*
X0124588Y0128082D02*
X0160000Y0128082D01*
X0152189Y0120090D02*
X0145798Y0120090D01*
X0145961Y0119927D02*
X0145427Y0120461D01*
X0144816Y0120905D01*
X0144143Y0121248D01*
X0143424Y0121482D01*
X0142678Y0121600D01*
X0139500Y0121600D01*
X0139500Y0117000D01*
X0147100Y0117000D01*
X0147100Y0117178D01*
X0146982Y0117924D01*
X0146748Y0118643D01*
X0146405Y0119316D01*
X0145961Y0119927D01*
X0146797Y0118491D02*
X0150590Y0118491D01*
X0148992Y0116893D02*
X0139500Y0116893D01*
X0139500Y0116600D02*
X0147100Y0116600D01*
X0147100Y0116422D01*
X0146982Y0115676D01*
X0146748Y0114957D01*
X0146405Y0114284D01*
X0145961Y0113673D01*
X0145427Y0113139D01*
X0144816Y0112695D01*
X0144143Y0112352D01*
X0143424Y0112118D01*
X0142678Y0112000D01*
X0139500Y0112000D01*
X0139500Y0116600D01*
X0139100Y0116893D02*
X0059459Y0116893D01*
X0060404Y0116073D02*
X0060404Y0116073D01*
X0061103Y0118491D02*
X0057497Y0118491D01*
X0056205Y0117200D02*
X0058900Y0119895D01*
X0058900Y0123705D01*
X0056205Y0126400D01*
X0052395Y0126400D01*
X0049700Y0123705D01*
X0049700Y0119895D01*
X0052395Y0117200D01*
X0056205Y0117200D01*
X0058900Y0120090D02*
X0059700Y0120090D01*
X0059700Y0121688D02*
X0058900Y0121688D01*
X0058900Y0123287D02*
X0059700Y0123287D01*
X0060880Y0124885D02*
X0057720Y0124885D01*
X0050880Y0124885D02*
X0047720Y0124885D01*
X0048900Y0123287D02*
X0049700Y0123287D01*
X0049700Y0121688D02*
X0048900Y0121688D01*
X0049187Y0120090D02*
X0049700Y0120090D01*
X0050786Y0118491D02*
X0051103Y0118491D01*
X0046629Y0115294D02*
X0003600Y0115294D01*
X0003600Y0113696D02*
X0048227Y0113696D01*
X0050248Y0112097D02*
X0003600Y0112097D01*
X0003600Y0110499D02*
X0058624Y0110499D01*
X0060223Y0108900D02*
X0003600Y0108900D01*
X0003600Y0107302D02*
X0061821Y0107302D01*
X0063420Y0105703D02*
X0003600Y0105703D01*
X0003600Y0104105D02*
X0065018Y0104105D01*
X0066617Y0102506D02*
X0003600Y0102506D01*
X0003600Y0100908D02*
X0068215Y0100908D01*
X0069814Y0099309D02*
X0003600Y0099309D01*
X0003600Y0097711D02*
X0071412Y0097711D01*
X0073011Y0096112D02*
X0003600Y0096112D01*
X0003600Y0094514D02*
X0074609Y0094514D01*
X0080969Y0100908D02*
X0107217Y0100908D01*
X0106280Y0099309D02*
X0082568Y0099309D01*
X0084166Y0097711D02*
X0104020Y0097711D01*
X0102847Y0096112D02*
X0085765Y0096112D01*
X0087363Y0094514D02*
X0102600Y0094514D01*
X0105003Y0088120D02*
X0088357Y0088120D01*
X0089956Y0086521D02*
X0106602Y0086521D01*
X0108200Y0084923D02*
X0091554Y0084923D01*
X0093153Y0083324D02*
X0094253Y0083324D01*
X0099347Y0083324D02*
X0104253Y0083324D01*
X0102784Y0081726D02*
X0100816Y0081726D01*
X0101400Y0080127D02*
X0102200Y0080127D01*
X0102200Y0078529D02*
X0101400Y0078529D01*
X0101400Y0076930D02*
X0102200Y0076930D01*
X0102200Y0075332D02*
X0101400Y0075332D01*
X0098471Y0069913D02*
X0098948Y0068761D01*
X0099400Y0068309D01*
X0099400Y0064891D01*
X0098948Y0064439D01*
X0098400Y0063116D01*
X0098400Y0061684D01*
X0098948Y0060361D01*
X0099961Y0059348D01*
X0101284Y0058800D01*
X0102716Y0058800D01*
X0104039Y0059348D01*
X0105052Y0060361D01*
X0105600Y0061684D01*
X0105600Y0063116D01*
X0105052Y0064439D01*
X0104600Y0064891D01*
X0104600Y0068309D01*
X0105052Y0068761D01*
X0105471Y0069772D01*
X0105885Y0069600D01*
X0107715Y0069600D01*
X0109406Y0070300D01*
X0109514Y0070409D01*
X0111400Y0068523D01*
X0111400Y0044468D01*
X0111361Y0044452D01*
X0111200Y0044291D01*
X0111200Y0046800D01*
X0111200Y0049746D01*
X0111092Y0050430D01*
X0110878Y0051089D01*
X0110563Y0051706D01*
X0110156Y0052266D01*
X0109666Y0052756D01*
X0109106Y0053163D01*
X0108489Y0053478D01*
X0107830Y0053692D01*
X0107146Y0053800D01*
X0106800Y0053800D01*
X0106800Y0046800D01*
X0111200Y0046800D01*
X0106800Y0046800D01*
X0106800Y0046800D01*
X0106800Y0046800D01*
X0106800Y0039800D01*
X0107146Y0039800D01*
X0107830Y0039908D01*
X0108489Y0040122D01*
X0109106Y0040437D01*
X0109666Y0040844D01*
X0109800Y0040977D01*
X0109800Y0040684D01*
X0110348Y0039361D01*
X0111361Y0038348D01*
X0111863Y0038140D01*
X0106323Y0032600D01*
X0102000Y0032600D01*
X0102000Y0033116D01*
X0101452Y0034439D01*
X0100439Y0035452D01*
X0099116Y0036000D01*
X0097684Y0036000D01*
X0096361Y0035452D01*
X0095909Y0035000D01*
X0083483Y0035000D01*
X0082527Y0034604D01*
X0081796Y0033873D01*
X0078123Y0030200D01*
X0060091Y0030200D01*
X0059639Y0030652D01*
X0059137Y0030860D01*
X0064004Y0035727D01*
X0064400Y0036683D01*
X0064400Y0039517D01*
X0064004Y0040473D01*
X0063977Y0040500D01*
X0063986Y0040509D01*
X0064194Y0040300D01*
X0065885Y0039600D01*
X0067715Y0039600D01*
X0069406Y0040300D01*
X0070700Y0041594D01*
X0071400Y0043285D01*
X0071400Y0050315D01*
X0071222Y0050745D01*
X0084477Y0064000D01*
X0086317Y0064000D01*
X0087273Y0064396D01*
X0093404Y0070527D01*
X0093569Y0070925D01*
X0094194Y0070300D01*
X0095885Y0069600D01*
X0097715Y0069600D01*
X0098471Y0069913D01*
X0098875Y0068937D02*
X0091814Y0068937D01*
X0093408Y0070536D02*
X0093959Y0070536D01*
X0090216Y0067339D02*
X0099400Y0067339D01*
X0099400Y0065740D02*
X0088617Y0065740D01*
X0086660Y0064142D02*
X0098825Y0064142D01*
X0098400Y0062543D02*
X0083020Y0062543D01*
X0081422Y0060945D02*
X0098706Y0060945D01*
X0099965Y0059346D02*
X0079823Y0059346D01*
X0078225Y0057748D02*
X0111400Y0057748D01*
X0111400Y0059346D02*
X0104035Y0059346D01*
X0105294Y0060945D02*
X0111400Y0060945D01*
X0111400Y0062543D02*
X0105600Y0062543D01*
X0105175Y0064142D02*
X0111400Y0064142D01*
X0111400Y0065740D02*
X0104600Y0065740D01*
X0104600Y0067339D02*
X0111400Y0067339D01*
X0110986Y0068937D02*
X0105125Y0068937D01*
X0111945Y0075332D02*
X0115992Y0075332D01*
X0117462Y0073733D02*
X0113544Y0073733D01*
X0115142Y0072134D02*
X0118589Y0072134D01*
X0120187Y0070536D02*
X0116427Y0070536D01*
X0116600Y0068937D02*
X0121786Y0068937D01*
X0123464Y0067339D02*
X0116600Y0067339D01*
X0116600Y0065740D02*
X0196850Y0065740D01*
X0196850Y0064142D02*
X0116600Y0064142D01*
X0116600Y0062543D02*
X0196850Y0062543D01*
X0196850Y0060945D02*
X0116600Y0060945D01*
X0116600Y0059346D02*
X0196850Y0059346D01*
X0196850Y0057748D02*
X0116600Y0057748D01*
X0116600Y0056149D02*
X0196850Y0056149D01*
X0196850Y0054551D02*
X0116600Y0054551D01*
X0116600Y0052952D02*
X0123847Y0052952D01*
X0129753Y0052952D02*
X0133847Y0052952D01*
X0134194Y0053300D02*
X0132900Y0052006D01*
X0132200Y0050315D01*
X0132200Y0043285D01*
X0132900Y0041594D01*
X0134194Y0040300D01*
X0135885Y0039600D01*
X0137715Y0039600D01*
X0139406Y0040300D01*
X0140700Y0041594D01*
X0141400Y0043285D01*
X0141400Y0050315D01*
X0140700Y0052006D01*
X0139406Y0053300D01*
X0137715Y0054000D01*
X0135885Y0054000D01*
X0134194Y0053300D01*
X0132630Y0051354D02*
X0130970Y0051354D01*
X0131400Y0049755D02*
X0132200Y0049755D01*
X0132200Y0048157D02*
X0131400Y0048157D01*
X0131400Y0046558D02*
X0132200Y0046558D01*
X0132200Y0044960D02*
X0131400Y0044960D01*
X0131400Y0043361D02*
X0132200Y0043361D01*
X0132831Y0041763D02*
X0130769Y0041763D01*
X0129077Y0040164D02*
X0134523Y0040164D01*
X0138089Y0038566D02*
X0119386Y0038566D01*
X0119600Y0040164D02*
X0124523Y0040164D01*
X0122831Y0041763D02*
X0119600Y0041763D01*
X0119638Y0043361D02*
X0122200Y0043361D01*
X0122200Y0044960D02*
X0121237Y0044960D01*
X0117080Y0048157D02*
X0116600Y0048157D01*
X0116600Y0049755D02*
X0117782Y0049755D01*
X0118863Y0051354D02*
X0116600Y0051354D01*
X0111400Y0051354D02*
X0110743Y0051354D01*
X0111199Y0049755D02*
X0111400Y0049755D01*
X0111400Y0048157D02*
X0111200Y0048157D01*
X0111200Y0046558D02*
X0111400Y0046558D01*
X0111400Y0044960D02*
X0111200Y0044960D01*
X0106800Y0044960D02*
X0106800Y0044960D01*
X0106800Y0046558D02*
X0106800Y0046558D01*
X0106800Y0046800D02*
X0106800Y0046800D01*
X0106800Y0046800D01*
X0102400Y0046800D01*
X0102400Y0049746D01*
X0102508Y0050430D01*
X0102722Y0051089D01*
X0103037Y0051706D01*
X0103444Y0052266D01*
X0103934Y0052756D01*
X0104494Y0053163D01*
X0105111Y0053478D01*
X0105770Y0053692D01*
X0106454Y0053800D01*
X0106800Y0053800D01*
X0106800Y0046800D01*
X0106800Y0039800D01*
X0106454Y0039800D01*
X0105770Y0039908D01*
X0105111Y0040122D01*
X0104494Y0040437D01*
X0103934Y0040844D01*
X0103444Y0041334D01*
X0103037Y0041894D01*
X0102722Y0042511D01*
X0102508Y0043170D01*
X0102400Y0043854D01*
X0102400Y0046800D01*
X0106800Y0046800D01*
X0106800Y0048157D02*
X0106800Y0048157D01*
X0106800Y0049755D02*
X0106800Y0049755D01*
X0106800Y0051354D02*
X0106800Y0051354D01*
X0106800Y0052952D02*
X0106800Y0052952D01*
X0104204Y0052952D02*
X0099753Y0052952D01*
X0099406Y0053300D02*
X0100700Y0052006D01*
X0101400Y0050315D01*
X0101400Y0043285D01*
X0100700Y0041594D01*
X0099406Y0040300D01*
X0097715Y0039600D01*
X0095885Y0039600D01*
X0094194Y0040300D01*
X0092900Y0041594D01*
X0092200Y0043285D01*
X0092200Y0050315D01*
X0092900Y0052006D01*
X0094194Y0053300D01*
X0095885Y0054000D01*
X0097715Y0054000D01*
X0099406Y0053300D01*
X0100970Y0051354D02*
X0102857Y0051354D01*
X0102401Y0049755D02*
X0101400Y0049755D01*
X0101400Y0048157D02*
X0102400Y0048157D01*
X0102400Y0046558D02*
X0101400Y0046558D01*
X0101400Y0044960D02*
X0102400Y0044960D01*
X0102478Y0043361D02*
X0101400Y0043361D01*
X0100769Y0041763D02*
X0103132Y0041763D01*
X0105029Y0040164D02*
X0099077Y0040164D01*
X0094523Y0040164D02*
X0089077Y0040164D01*
X0089406Y0040300D02*
X0090700Y0041594D01*
X0091400Y0043285D01*
X0091400Y0050315D01*
X0090700Y0052006D01*
X0089406Y0053300D01*
X0087715Y0054000D01*
X0085885Y0054000D01*
X0084194Y0053300D01*
X0082900Y0052006D01*
X0082200Y0050315D01*
X0082200Y0043285D01*
X0082900Y0041594D01*
X0084194Y0040300D01*
X0085885Y0039600D01*
X0087715Y0039600D01*
X0089406Y0040300D01*
X0090769Y0041763D02*
X0092831Y0041763D01*
X0092200Y0043361D02*
X0091400Y0043361D01*
X0091400Y0044960D02*
X0092200Y0044960D01*
X0092200Y0046558D02*
X0091400Y0046558D01*
X0091400Y0048157D02*
X0092200Y0048157D01*
X0092200Y0049755D02*
X0091400Y0049755D01*
X0090970Y0051354D02*
X0092630Y0051354D01*
X0093847Y0052952D02*
X0089753Y0052952D01*
X0083847Y0052952D02*
X0079753Y0052952D01*
X0079406Y0053300D02*
X0077715Y0054000D01*
X0075885Y0054000D01*
X0074194Y0053300D01*
X0072900Y0052006D01*
X0072200Y0050315D01*
X0072200Y0043285D01*
X0072900Y0041594D01*
X0074194Y0040300D01*
X0075885Y0039600D01*
X0077715Y0039600D01*
X0079406Y0040300D01*
X0080700Y0041594D01*
X0081400Y0043285D01*
X0081400Y0050315D01*
X0080700Y0052006D01*
X0079406Y0053300D01*
X0080970Y0051354D02*
X0082630Y0051354D01*
X0082200Y0049755D02*
X0081400Y0049755D01*
X0081400Y0048157D02*
X0082200Y0048157D01*
X0082200Y0046558D02*
X0081400Y0046558D01*
X0081400Y0044960D02*
X0082200Y0044960D01*
X0082200Y0043361D02*
X0081400Y0043361D01*
X0080769Y0041763D02*
X0082831Y0041763D01*
X0084523Y0040164D02*
X0079077Y0040164D01*
X0074523Y0040164D02*
X0069077Y0040164D01*
X0070769Y0041763D02*
X0072831Y0041763D01*
X0072200Y0043361D02*
X0071400Y0043361D01*
X0071400Y0044960D02*
X0072200Y0044960D01*
X0072200Y0046558D02*
X0071400Y0046558D01*
X0071400Y0048157D02*
X0072200Y0048157D01*
X0072200Y0049755D02*
X0071400Y0049755D01*
X0071831Y0051354D02*
X0072630Y0051354D01*
X0073429Y0052952D02*
X0073847Y0052952D01*
X0075028Y0054551D02*
X0111400Y0054551D01*
X0111400Y0056149D02*
X0076626Y0056149D01*
X0064523Y0040164D02*
X0064132Y0040164D01*
X0064400Y0038566D02*
X0111143Y0038566D01*
X0110690Y0036967D02*
X0064400Y0036967D01*
X0063646Y0035369D02*
X0096278Y0035369D01*
X0100522Y0035369D02*
X0109092Y0035369D01*
X0107493Y0033770D02*
X0101729Y0033770D01*
X0106800Y0040164D02*
X0106800Y0040164D01*
X0106800Y0041763D02*
X0106800Y0041763D01*
X0106800Y0043361D02*
X0106800Y0043361D01*
X0108571Y0040164D02*
X0110015Y0040164D01*
X0116446Y0035369D02*
X0134892Y0035369D01*
X0136490Y0036967D02*
X0118044Y0036967D01*
X0114847Y0033770D02*
X0133293Y0033770D01*
X0131695Y0032172D02*
X0113249Y0032172D01*
X0111650Y0030573D02*
X0130096Y0030573D01*
X0134253Y0027376D02*
X0146699Y0027376D01*
X0145101Y0025778D02*
X0132655Y0025778D01*
X0132795Y0024800D02*
X0130805Y0024800D01*
X0128968Y0024039D01*
X0127561Y0022632D01*
X0126800Y0020795D01*
X0126800Y0012805D01*
X0127561Y0010968D01*
X0128968Y0009561D01*
X0130805Y0008800D01*
X0132795Y0008800D01*
X0134632Y0009561D01*
X0136039Y0010968D01*
X0136800Y0012805D01*
X0136800Y0020795D01*
X0136039Y0022632D01*
X0134632Y0024039D01*
X0132795Y0024800D01*
X0134293Y0024179D02*
X0143502Y0024179D01*
X0141904Y0022581D02*
X0136060Y0022581D01*
X0136722Y0020982D02*
X0140305Y0020982D01*
X0138707Y0019384D02*
X0136800Y0019384D01*
X0137596Y0018273D02*
X0137200Y0017317D01*
X0137200Y0011877D01*
X0134523Y0009200D01*
X0133883Y0009200D01*
X0132927Y0008804D01*
X0132723Y0008600D01*
X0130677Y0008600D01*
X0130473Y0008804D01*
X0129517Y0009200D01*
X0124283Y0009200D01*
X0123327Y0008804D01*
X0123123Y0008600D01*
X0120477Y0008600D01*
X0120273Y0008804D01*
X0119317Y0009200D01*
X0113483Y0009200D01*
X0112527Y0008804D01*
X0112323Y0008600D01*
X0111477Y0008600D01*
X0111273Y0008804D01*
X0110317Y0009200D01*
X0088883Y0009200D01*
X0087927Y0008804D01*
X0087723Y0008600D01*
X0085677Y0008600D01*
X0085473Y0008804D01*
X0084517Y0009200D01*
X0079283Y0009200D01*
X0078327Y0008804D01*
X0078123Y0008600D01*
X0075477Y0008600D01*
X0075273Y0008804D01*
X0074317Y0009200D01*
X0074277Y0009200D01*
X0071469Y0012007D01*
X0071800Y0012805D01*
X0071800Y0020795D01*
X0071039Y0022632D01*
X0069632Y0024039D01*
X0067795Y0024800D01*
X0065805Y0024800D01*
X0063968Y0024039D01*
X0062561Y0022632D01*
X0061800Y0020795D01*
X0061800Y0012805D01*
X0062561Y0010968D01*
X0063968Y0009561D01*
X0065805Y0008800D01*
X0067323Y0008800D01*
X0071727Y0004396D01*
X0072683Y0004000D01*
X0072723Y0004000D01*
X0072927Y0003796D01*
X0073400Y0003600D01*
X0003600Y0003600D01*
X0003600Y0068109D01*
X0003961Y0067748D01*
X0005284Y0067200D01*
X0005923Y0067200D01*
X0009600Y0063523D01*
X0009600Y0062884D01*
X0010148Y0061561D01*
X0011161Y0060548D01*
X0012484Y0060000D01*
X0013916Y0060000D01*
X0015239Y0060548D01*
X0016252Y0061561D01*
X0016800Y0062884D01*
X0016800Y0064316D01*
X0016252Y0065639D01*
X0015239Y0066652D01*
X0013916Y0067200D01*
X0013277Y0067200D01*
X0009600Y0070877D01*
X0009600Y0071516D01*
X0009052Y0072839D01*
X0008039Y0073852D01*
X0006716Y0074400D01*
X0005284Y0074400D01*
X0003961Y0073852D01*
X0003600Y0073491D01*
X0003600Y0196850D01*
X0196850Y0196850D01*
X0196850Y0003600D01*
X0134800Y0003600D01*
X0135273Y0003796D01*
X0135477Y0004000D01*
X0136117Y0004000D01*
X0137073Y0004396D01*
X0137804Y0005127D01*
X0142004Y0009327D01*
X0142400Y0010283D01*
X0142400Y0015723D01*
X0166277Y0039600D01*
X0167715Y0039600D01*
X0169406Y0040300D01*
X0170700Y0041594D01*
X0171400Y0043285D01*
X0171400Y0050315D01*
X0170700Y0052006D01*
X0169406Y0053300D01*
X0167715Y0054000D01*
X0165885Y0054000D01*
X0164194Y0053300D01*
X0162900Y0052006D01*
X0162200Y0050315D01*
X0162200Y0043285D01*
X0162320Y0042996D01*
X0138327Y0019004D01*
X0137596Y0018273D01*
X0137394Y0017785D02*
X0136800Y0017785D01*
X0136800Y0016187D02*
X0137200Y0016187D01*
X0137200Y0014588D02*
X0136800Y0014588D01*
X0136800Y0012990D02*
X0137200Y0012990D01*
X0136714Y0011391D02*
X0136214Y0011391D01*
X0135116Y0009793D02*
X0134864Y0009793D01*
X0139272Y0006596D02*
X0196850Y0006596D01*
X0196850Y0008194D02*
X0140871Y0008194D01*
X0142197Y0009793D02*
X0153736Y0009793D01*
X0153968Y0009561D02*
X0152561Y0010968D01*
X0151800Y0012805D01*
X0151800Y0020795D01*
X0152561Y0022632D01*
X0153968Y0024039D01*
X0155805Y0024800D01*
X0157795Y0024800D01*
X0159632Y0024039D01*
X0161039Y0022632D01*
X0161800Y0020795D01*
X0162561Y0022632D01*
X0163968Y0024039D01*
X0165805Y0024800D01*
X0167795Y0024800D01*
X0169632Y0024039D01*
X0171039Y0022632D01*
X0171800Y0020795D01*
X0172561Y0022632D01*
X0173968Y0024039D01*
X0175805Y0024800D01*
X0177795Y0024800D01*
X0179632Y0024039D01*
X0181039Y0022632D01*
X0181800Y0020795D01*
X0182561Y0022632D01*
X0183968Y0024039D01*
X0185805Y0024800D01*
X0187795Y0024800D01*
X0189632Y0024039D01*
X0191039Y0022632D01*
X0191800Y0020795D01*
X0191800Y0012805D01*
X0191039Y0010968D01*
X0189632Y0009561D01*
X0187795Y0008800D01*
X0185805Y0008800D01*
X0183968Y0009561D01*
X0182561Y0010968D01*
X0181800Y0012805D01*
X0181800Y0020795D01*
X0181800Y0012805D01*
X0181039Y0010968D01*
X0179632Y0009561D01*
X0177795Y0008800D01*
X0175805Y0008800D01*
X0173968Y0009561D01*
X0172561Y0010968D01*
X0171800Y0012805D01*
X0171800Y0020795D01*
X0171800Y0012805D01*
X0171039Y0010968D01*
X0169632Y0009561D01*
X0167795Y0008800D01*
X0165805Y0008800D01*
X0163968Y0009561D01*
X0162561Y0010968D01*
X0161800Y0012805D01*
X0161800Y0020795D01*
X0161800Y0012805D01*
X0161039Y0010968D01*
X0159632Y0009561D01*
X0157795Y0008800D01*
X0155805Y0008800D01*
X0153968Y0009561D01*
X0152386Y0011391D02*
X0142400Y0011391D01*
X0142400Y0012990D02*
X0151800Y0012990D01*
X0151800Y0014588D02*
X0142400Y0014588D01*
X0142864Y0016187D02*
X0151800Y0016187D01*
X0151800Y0017785D02*
X0144462Y0017785D01*
X0146061Y0019384D02*
X0151800Y0019384D01*
X0151878Y0020982D02*
X0147659Y0020982D01*
X0149258Y0022581D02*
X0152540Y0022581D01*
X0150856Y0024179D02*
X0154307Y0024179D01*
X0152455Y0025778D02*
X0196850Y0025778D01*
X0196850Y0027376D02*
X0154053Y0027376D01*
X0155652Y0028975D02*
X0196850Y0028975D01*
X0196850Y0030573D02*
X0157250Y0030573D01*
X0158849Y0032172D02*
X0196850Y0032172D01*
X0196850Y0033770D02*
X0160447Y0033770D01*
X0162046Y0035369D02*
X0196850Y0035369D01*
X0196850Y0036967D02*
X0163644Y0036967D01*
X0165243Y0038566D02*
X0196850Y0038566D01*
X0196850Y0040164D02*
X0188571Y0040164D01*
X0188489Y0040122D02*
X0189106Y0040437D01*
X0189666Y0040844D01*
X0190156Y0041334D01*
X0190563Y0041894D01*
X0190878Y0042511D01*
X0191092Y0043170D01*
X0191200Y0043854D01*
X0191200Y0046800D01*
X0191200Y0049746D01*
X0191092Y0050430D01*
X0190878Y0051089D01*
X0190563Y0051706D01*
X0190156Y0052266D01*
X0189666Y0052756D01*
X0189106Y0053163D01*
X0188489Y0053478D01*
X0187830Y0053692D01*
X0187146Y0053800D01*
X0186800Y0053800D01*
X0186800Y0046800D01*
X0191200Y0046800D01*
X0186800Y0046800D01*
X0186800Y0046800D01*
X0186800Y0046800D01*
X0186800Y0039800D01*
X0187146Y0039800D01*
X0187830Y0039908D01*
X0188489Y0040122D01*
X0186800Y0040164D02*
X0186800Y0040164D01*
X0186800Y0039800D02*
X0186800Y0046800D01*
X0186800Y0046800D01*
X0186800Y0046800D01*
X0182400Y0046800D01*
X0182400Y0049746D01*
X0182508Y0050430D01*
X0182722Y0051089D01*
X0183037Y0051706D01*
X0183444Y0052266D01*
X0183934Y0052756D01*
X0184494Y0053163D01*
X0185111Y0053478D01*
X0185770Y0053692D01*
X0186454Y0053800D01*
X0186800Y0053800D01*
X0186800Y0046800D01*
X0182400Y0046800D01*
X0182400Y0043854D01*
X0182508Y0043170D01*
X0182722Y0042511D01*
X0183037Y0041894D01*
X0183444Y0041334D01*
X0183934Y0040844D01*
X0184494Y0040437D01*
X0185111Y0040122D01*
X0185770Y0039908D01*
X0186454Y0039800D01*
X0186800Y0039800D01*
X0185029Y0040164D02*
X0179077Y0040164D01*
X0179406Y0040300D02*
X0180700Y0041594D01*
X0181400Y0043285D01*
X0181400Y0050315D01*
X0180700Y0052006D01*
X0179406Y0053300D01*
X0177715Y0054000D01*
X0175885Y0054000D01*
X0174194Y0053300D01*
X0172900Y0052006D01*
X0172200Y0050315D01*
X0172200Y0043285D01*
X0172900Y0041594D01*
X0174194Y0040300D01*
X0175885Y0039600D01*
X0177715Y0039600D01*
X0179406Y0040300D01*
X0180769Y0041763D02*
X0183132Y0041763D01*
X0182478Y0043361D02*
X0181400Y0043361D01*
X0181400Y0044960D02*
X0182400Y0044960D01*
X0182400Y0046558D02*
X0181400Y0046558D01*
X0181400Y0048157D02*
X0182400Y0048157D01*
X0182401Y0049755D02*
X0181400Y0049755D01*
X0180970Y0051354D02*
X0182857Y0051354D01*
X0184204Y0052952D02*
X0179753Y0052952D01*
X0173847Y0052952D02*
X0169753Y0052952D01*
X0170970Y0051354D02*
X0172630Y0051354D01*
X0172200Y0049755D02*
X0171400Y0049755D01*
X0171400Y0048157D02*
X0172200Y0048157D01*
X0172200Y0046558D02*
X0171400Y0046558D01*
X0171400Y0044960D02*
X0172200Y0044960D01*
X0172200Y0043361D02*
X0171400Y0043361D01*
X0170769Y0041763D02*
X0172831Y0041763D01*
X0174523Y0040164D02*
X0169077Y0040164D01*
X0162200Y0043361D02*
X0161400Y0043361D01*
X0161400Y0043285D02*
X0161400Y0050315D01*
X0160700Y0052006D01*
X0159406Y0053300D01*
X0157715Y0054000D01*
X0155885Y0054000D01*
X0154194Y0053300D01*
X0152900Y0052006D01*
X0152200Y0050315D01*
X0152200Y0043285D01*
X0152900Y0041594D01*
X0154194Y0040300D01*
X0155885Y0039600D01*
X0157715Y0039600D01*
X0159406Y0040300D01*
X0160700Y0041594D01*
X0161400Y0043285D01*
X0161086Y0041763D02*
X0160769Y0041763D01*
X0159487Y0040164D02*
X0159077Y0040164D01*
X0157889Y0038566D02*
X0145443Y0038566D01*
X0143844Y0036967D02*
X0156290Y0036967D01*
X0154692Y0035369D02*
X0142246Y0035369D01*
X0140647Y0033770D02*
X0153093Y0033770D01*
X0151495Y0032172D02*
X0139049Y0032172D01*
X0137450Y0030573D02*
X0149896Y0030573D01*
X0148298Y0028975D02*
X0135852Y0028975D01*
X0129307Y0024179D02*
X0124293Y0024179D01*
X0124632Y0024039D02*
X0122795Y0024800D01*
X0120805Y0024800D01*
X0118968Y0024039D01*
X0117561Y0022632D01*
X0116800Y0020795D01*
X0116800Y0012805D01*
X0117561Y0010968D01*
X0118968Y0009561D01*
X0120805Y0008800D01*
X0122795Y0008800D01*
X0124632Y0009561D01*
X0126039Y0010968D01*
X0126800Y0012805D01*
X0126800Y0020795D01*
X0126039Y0022632D01*
X0124632Y0024039D01*
X0126060Y0022581D02*
X0127540Y0022581D01*
X0126878Y0020982D02*
X0126722Y0020982D01*
X0126800Y0019384D02*
X0126800Y0019384D01*
X0126800Y0017785D02*
X0126800Y0017785D01*
X0126800Y0016187D02*
X0126800Y0016187D01*
X0126800Y0014588D02*
X0126800Y0014588D01*
X0126800Y0012990D02*
X0126800Y0012990D01*
X0126214Y0011391D02*
X0127386Y0011391D01*
X0128736Y0009793D02*
X0124864Y0009793D01*
X0118736Y0009793D02*
X0114450Y0009793D01*
X0114316Y0009695D02*
X0114927Y0010139D01*
X0115461Y0010673D01*
X0115905Y0011284D01*
X0116248Y0011957D01*
X0116482Y0012676D01*
X0116600Y0013422D01*
X0116600Y0016600D01*
X0112000Y0016600D01*
X0112000Y0017000D01*
X0116600Y0017000D01*
X0116600Y0020178D01*
X0116482Y0020924D01*
X0116248Y0021643D01*
X0115905Y0022316D01*
X0115461Y0022927D01*
X0114927Y0023461D01*
X0114316Y0023905D01*
X0113643Y0024248D01*
X0112924Y0024482D01*
X0112178Y0024600D01*
X0112000Y0024600D01*
X0112000Y0017000D01*
X0111600Y0017000D01*
X0111600Y0024600D01*
X0111422Y0024600D01*
X0110676Y0024482D01*
X0109957Y0024248D01*
X0109284Y0023905D01*
X0108673Y0023461D01*
X0108139Y0022927D01*
X0107695Y0022316D01*
X0107352Y0021643D01*
X0107118Y0020924D01*
X0107000Y0020178D01*
X0107000Y0017000D01*
X0111600Y0017000D01*
X0111600Y0016600D01*
X0112000Y0016600D01*
X0112000Y0009000D01*
X0112178Y0009000D01*
X0112924Y0009118D01*
X0113643Y0009352D01*
X0114316Y0009695D01*
X0112000Y0009793D02*
X0111600Y0009793D01*
X0111600Y0009000D02*
X0111600Y0016600D01*
X0107000Y0016600D01*
X0107000Y0013422D01*
X0107118Y0012676D01*
X0107352Y0011957D01*
X0107695Y0011284D01*
X0108139Y0010673D01*
X0108673Y0010139D01*
X0109284Y0009695D01*
X0109957Y0009352D01*
X0110676Y0009118D01*
X0111422Y0009000D01*
X0111600Y0009000D01*
X0111600Y0011391D02*
X0112000Y0011391D01*
X0112000Y0012990D02*
X0111600Y0012990D01*
X0111600Y0014588D02*
X0112000Y0014588D01*
X0112000Y0016187D02*
X0111600Y0016187D01*
X0111600Y0017785D02*
X0112000Y0017785D01*
X0112000Y0019384D02*
X0111600Y0019384D01*
X0111600Y0020982D02*
X0112000Y0020982D01*
X0112000Y0022581D02*
X0111600Y0022581D01*
X0111600Y0024179D02*
X0112000Y0024179D01*
X0113778Y0024179D02*
X0119307Y0024179D01*
X0117540Y0022581D02*
X0115713Y0022581D01*
X0116463Y0020982D02*
X0116878Y0020982D01*
X0116800Y0019384D02*
X0116600Y0019384D01*
X0116600Y0017785D02*
X0116800Y0017785D01*
X0116800Y0016187D02*
X0116600Y0016187D01*
X0116600Y0014588D02*
X0116800Y0014588D01*
X0116800Y0012990D02*
X0116531Y0012990D01*
X0115960Y0011391D02*
X0117386Y0011391D01*
X0109150Y0009793D02*
X0089864Y0009793D01*
X0091214Y0011391D02*
X0107640Y0011391D01*
X0107069Y0012990D02*
X0091800Y0012990D01*
X0091800Y0014588D02*
X0107000Y0014588D01*
X0107000Y0016187D02*
X0094864Y0016187D01*
X0096462Y0017785D02*
X0107000Y0017785D01*
X0107000Y0019384D02*
X0098061Y0019384D01*
X0099659Y0020982D02*
X0107137Y0020982D01*
X0107887Y0022581D02*
X0101258Y0022581D01*
X0102856Y0024179D02*
X0109822Y0024179D01*
X0096323Y0025000D02*
X0091923Y0020600D01*
X0091800Y0020600D01*
X0091800Y0020795D01*
X0091039Y0022632D01*
X0089632Y0024039D01*
X0087795Y0024800D01*
X0085805Y0024800D01*
X0083968Y0024039D01*
X0082561Y0022632D01*
X0081800Y0020795D01*
X0081800Y0012805D01*
X0081800Y0020795D01*
X0081177Y0022300D01*
X0083877Y0025000D01*
X0096323Y0025000D01*
X0095502Y0024179D02*
X0089293Y0024179D01*
X0091060Y0022581D02*
X0093904Y0022581D01*
X0092305Y0020982D02*
X0091722Y0020982D01*
X0084307Y0024179D02*
X0083056Y0024179D01*
X0082540Y0022581D02*
X0081458Y0022581D01*
X0081722Y0020982D02*
X0081878Y0020982D01*
X0081800Y0019384D02*
X0081800Y0019384D01*
X0081800Y0017785D02*
X0081800Y0017785D01*
X0081800Y0016187D02*
X0081800Y0016187D01*
X0081800Y0014588D02*
X0081800Y0014588D01*
X0081800Y0012990D02*
X0081800Y0012990D01*
X0081214Y0011391D02*
X0082386Y0011391D01*
X0083736Y0009793D02*
X0079864Y0009793D01*
X0073736Y0009793D02*
X0073684Y0009793D01*
X0072386Y0011391D02*
X0072086Y0011391D01*
X0071800Y0012990D02*
X0071800Y0012990D01*
X0071800Y0014588D02*
X0071800Y0014588D01*
X0071800Y0016187D02*
X0071800Y0016187D01*
X0071800Y0017785D02*
X0071800Y0017785D01*
X0071800Y0019384D02*
X0071800Y0019384D01*
X0071722Y0020982D02*
X0071878Y0020982D01*
X0072540Y0022581D02*
X0071060Y0022581D01*
X0069293Y0024179D02*
X0074307Y0024179D01*
X0078496Y0030573D02*
X0059718Y0030573D01*
X0060449Y0032172D02*
X0080095Y0032172D01*
X0081693Y0033770D02*
X0062047Y0033770D01*
X0057890Y0036967D02*
X0054200Y0036967D01*
X0054200Y0036683D02*
X0054200Y0039517D01*
X0053804Y0040473D01*
X0053477Y0040800D01*
X0053586Y0040909D01*
X0054194Y0040300D01*
X0055885Y0039600D01*
X0057715Y0039600D01*
X0058000Y0039718D01*
X0058000Y0039683D01*
X0058396Y0038727D01*
X0059023Y0038100D01*
X0046527Y0025604D01*
X0045796Y0024873D01*
X0045757Y0024780D01*
X0043968Y0024039D01*
X0042561Y0022632D01*
X0041800Y0020795D01*
X0041800Y0012805D01*
X0041800Y0020795D01*
X0041039Y0022632D01*
X0040938Y0022733D01*
X0041000Y0022883D01*
X0041000Y0022923D01*
X0053804Y0035727D01*
X0054200Y0036683D01*
X0053446Y0035369D02*
X0056292Y0035369D01*
X0054693Y0033770D02*
X0051847Y0033770D01*
X0053095Y0032172D02*
X0050249Y0032172D01*
X0051496Y0030573D02*
X0048650Y0030573D01*
X0049898Y0028975D02*
X0047052Y0028975D01*
X0048299Y0027376D02*
X0045453Y0027376D01*
X0046701Y0025778D02*
X0043855Y0025778D01*
X0044307Y0024179D02*
X0042256Y0024179D01*
X0042540Y0022581D02*
X0041060Y0022581D01*
X0041722Y0020982D02*
X0041878Y0020982D01*
X0041800Y0019384D02*
X0041800Y0019384D01*
X0041800Y0017785D02*
X0041800Y0017785D01*
X0041800Y0016187D02*
X0041800Y0016187D01*
X0041800Y0014588D02*
X0041800Y0014588D01*
X0041800Y0012990D02*
X0041800Y0012990D01*
X0041214Y0011391D02*
X0042386Y0011391D01*
X0043736Y0009793D02*
X0039864Y0009793D01*
X0033736Y0009793D02*
X0029864Y0009793D01*
X0031214Y0011391D02*
X0032386Y0011391D01*
X0031800Y0012990D02*
X0031800Y0012990D01*
X0031800Y0014588D02*
X0031800Y0014588D01*
X0031800Y0016187D02*
X0031800Y0016187D01*
X0031800Y0017785D02*
X0031800Y0017785D01*
X0031800Y0019384D02*
X0031800Y0019384D01*
X0031722Y0020982D02*
X0031878Y0020982D01*
X0032540Y0022581D02*
X0031060Y0022581D01*
X0029293Y0024179D02*
X0034307Y0024179D01*
X0036501Y0025778D02*
X0014499Y0025778D01*
X0012901Y0027376D02*
X0038099Y0027376D01*
X0039698Y0028975D02*
X0012200Y0028975D01*
X0012200Y0030573D02*
X0041296Y0030573D01*
X0042895Y0032172D02*
X0012200Y0032172D01*
X0012200Y0033770D02*
X0044493Y0033770D01*
X0046092Y0035369D02*
X0012200Y0035369D01*
X0012200Y0036967D02*
X0047690Y0036967D01*
X0048357Y0038566D02*
X0012200Y0038566D01*
X0012200Y0040164D02*
X0014523Y0040164D01*
X0014194Y0040300D02*
X0015885Y0039600D01*
X0017715Y0039600D01*
X0019406Y0040300D01*
X0020700Y0041594D01*
X0021400Y0043285D01*
X0021400Y0050315D01*
X0020700Y0052006D01*
X0019406Y0053300D01*
X0017715Y0054000D01*
X0015885Y0054000D01*
X0014194Y0053300D01*
X0012900Y0052006D01*
X0012200Y0050315D01*
X0012200Y0043285D01*
X0012900Y0041594D01*
X0014194Y0040300D01*
X0012831Y0041763D02*
X0012200Y0041763D01*
X0012200Y0043361D02*
X0012200Y0043361D01*
X0012200Y0044960D02*
X0012200Y0044960D01*
X0012200Y0046558D02*
X0012200Y0046558D01*
X0012200Y0048157D02*
X0012200Y0048157D01*
X0012200Y0049755D02*
X0012200Y0049755D01*
X0012200Y0051354D02*
X0012630Y0051354D01*
X0013429Y0052952D02*
X0013847Y0052952D01*
X0009272Y0056149D02*
X0003600Y0056149D01*
X0003600Y0054551D02*
X0007674Y0054551D01*
X0007000Y0052952D02*
X0003600Y0052952D01*
X0003600Y0051354D02*
X0007000Y0051354D01*
X0007000Y0049755D02*
X0003600Y0049755D01*
X0003600Y0048157D02*
X0007000Y0048157D01*
X0007000Y0046558D02*
X0003600Y0046558D01*
X0003600Y0044960D02*
X0007000Y0044960D01*
X0007000Y0043361D02*
X0003600Y0043361D01*
X0003600Y0041763D02*
X0007000Y0041763D01*
X0007000Y0040164D02*
X0003600Y0040164D01*
X0003600Y0038566D02*
X0007000Y0038566D01*
X0007000Y0036967D02*
X0003600Y0036967D01*
X0003600Y0035369D02*
X0007000Y0035369D01*
X0007000Y0033770D02*
X0003600Y0033770D01*
X0003600Y0032172D02*
X0007000Y0032172D01*
X0007000Y0030573D02*
X0003600Y0030573D01*
X0003600Y0028975D02*
X0007000Y0028975D01*
X0007000Y0027376D02*
X0003600Y0027376D01*
X0003600Y0025778D02*
X0007292Y0025778D01*
X0008744Y0024179D02*
X0003600Y0024179D01*
X0003600Y0022581D02*
X0010342Y0022581D01*
X0011878Y0020982D02*
X0003600Y0020982D01*
X0003600Y0019384D02*
X0011800Y0019384D01*
X0011800Y0017785D02*
X0003600Y0017785D01*
X0003600Y0016187D02*
X0011800Y0016187D01*
X0011800Y0014588D02*
X0003600Y0014588D01*
X0003600Y0012990D02*
X0011800Y0012990D01*
X0012386Y0011391D02*
X0003600Y0011391D01*
X0003600Y0009793D02*
X0013736Y0009793D01*
X0019864Y0009793D02*
X0023736Y0009793D01*
X0022386Y0011391D02*
X0021214Y0011391D01*
X0021800Y0012990D02*
X0021800Y0012990D01*
X0021800Y0014588D02*
X0021800Y0014588D01*
X0021800Y0016187D02*
X0021800Y0016187D01*
X0021800Y0017785D02*
X0021800Y0017785D01*
X0021800Y0019384D02*
X0021800Y0019384D01*
X0021722Y0020982D02*
X0021878Y0020982D01*
X0022540Y0022581D02*
X0021060Y0022581D01*
X0019293Y0024179D02*
X0024307Y0024179D01*
X0025885Y0039600D02*
X0027715Y0039600D01*
X0029406Y0040300D01*
X0030700Y0041594D01*
X0031400Y0043285D01*
X0031400Y0050315D01*
X0030700Y0052006D01*
X0029406Y0053300D01*
X0027715Y0054000D01*
X0025885Y0054000D01*
X0024194Y0053300D01*
X0022900Y0052006D01*
X0022200Y0050315D01*
X0022200Y0043285D01*
X0022900Y0041594D01*
X0024194Y0040300D01*
X0025885Y0039600D01*
X0024523Y0040164D02*
X0019077Y0040164D01*
X0020769Y0041763D02*
X0022831Y0041763D01*
X0022200Y0043361D02*
X0021400Y0043361D01*
X0021400Y0044960D02*
X0022200Y0044960D01*
X0022200Y0046558D02*
X0021400Y0046558D01*
X0021400Y0048157D02*
X0022200Y0048157D01*
X0022200Y0049755D02*
X0021400Y0049755D01*
X0020970Y0051354D02*
X0022630Y0051354D01*
X0023847Y0052952D02*
X0019753Y0052952D01*
X0020681Y0054551D02*
X0051474Y0054551D01*
X0049946Y0052952D02*
X0049753Y0052952D01*
X0053072Y0056149D02*
X0022626Y0056149D01*
X0024225Y0057748D02*
X0049361Y0057748D01*
X0048600Y0059346D02*
X0025823Y0059346D01*
X0027422Y0060945D02*
X0048695Y0060945D01*
X0049600Y0062543D02*
X0029020Y0062543D01*
X0030619Y0064142D02*
X0049600Y0064142D01*
X0049600Y0065740D02*
X0032217Y0065740D01*
X0033816Y0067339D02*
X0049600Y0067339D01*
X0049075Y0068937D02*
X0035414Y0068937D01*
X0039641Y0070536D02*
X0043959Y0070536D01*
X0042677Y0072134D02*
X0040923Y0072134D01*
X0041400Y0073733D02*
X0042200Y0073733D01*
X0042200Y0075332D02*
X0041400Y0075332D01*
X0041400Y0076930D02*
X0042200Y0076930D01*
X0042200Y0078529D02*
X0041400Y0078529D01*
X0041400Y0080127D02*
X0042200Y0080127D01*
X0042202Y0081726D02*
X0042784Y0081726D01*
X0043801Y0083324D02*
X0044253Y0083324D01*
X0049347Y0083324D02*
X0054253Y0083324D01*
X0052784Y0081726D02*
X0050816Y0081726D01*
X0051400Y0080127D02*
X0052200Y0080127D01*
X0052200Y0078529D02*
X0051400Y0078529D01*
X0051400Y0076930D02*
X0052200Y0076930D01*
X0052200Y0075332D02*
X0051400Y0075332D01*
X0039644Y0086521D02*
X0036198Y0086521D01*
X0034600Y0084923D02*
X0038046Y0084923D01*
X0034253Y0083324D02*
X0033001Y0083324D01*
X0032784Y0081726D02*
X0031402Y0081726D01*
X0031400Y0080127D02*
X0032200Y0080127D01*
X0032200Y0078529D02*
X0031400Y0078529D01*
X0031400Y0076930D02*
X0032200Y0076930D01*
X0032200Y0075332D02*
X0031400Y0075332D01*
X0031400Y0073733D02*
X0032200Y0073733D01*
X0031258Y0072134D02*
X0030923Y0072134D01*
X0029659Y0070536D02*
X0029641Y0070536D01*
X0028061Y0068937D02*
X0011539Y0068937D01*
X0013138Y0067339D02*
X0026462Y0067339D01*
X0024864Y0065740D02*
X0016151Y0065740D01*
X0016800Y0064142D02*
X0023265Y0064142D01*
X0021666Y0062543D02*
X0016659Y0062543D01*
X0015636Y0060945D02*
X0020068Y0060945D01*
X0012671Y0059346D02*
X0003600Y0059346D01*
X0003600Y0057748D02*
X0010871Y0057748D01*
X0010764Y0060945D02*
X0003600Y0060945D01*
X0003600Y0062543D02*
X0009741Y0062543D01*
X0008981Y0064142D02*
X0003600Y0064142D01*
X0003600Y0065740D02*
X0007383Y0065740D01*
X0004948Y0067339D02*
X0003600Y0067339D01*
X0003600Y0073733D02*
X0003842Y0073733D01*
X0003600Y0075332D02*
X0012200Y0075332D01*
X0012200Y0076930D02*
X0003600Y0076930D01*
X0003600Y0078529D02*
X0012200Y0078529D01*
X0012200Y0080127D02*
X0003600Y0080127D01*
X0003600Y0081726D02*
X0012784Y0081726D01*
X0012900Y0082006D02*
X0012200Y0080315D01*
X0012200Y0073285D01*
X0012900Y0071594D01*
X0014194Y0070300D01*
X0015885Y0069600D01*
X0017715Y0069600D01*
X0019406Y0070300D01*
X0020700Y0071594D01*
X0021400Y0073285D01*
X0021400Y0080315D01*
X0020700Y0082006D01*
X0019406Y0083300D01*
X0017715Y0084000D01*
X0015885Y0084000D01*
X0014194Y0083300D01*
X0012900Y0082006D01*
X0014253Y0083324D02*
X0003600Y0083324D01*
X0003600Y0084923D02*
X0027246Y0084923D01*
X0028844Y0086521D02*
X0003600Y0086521D01*
X0003600Y0088120D02*
X0030443Y0088120D01*
X0032041Y0089718D02*
X0003600Y0089718D01*
X0003600Y0091317D02*
X0033640Y0091317D01*
X0035395Y0092915D02*
X0003600Y0092915D01*
X0019347Y0083324D02*
X0024253Y0083324D01*
X0022784Y0081726D02*
X0020816Y0081726D01*
X0021400Y0080127D02*
X0022200Y0080127D01*
X0022200Y0078529D02*
X0021400Y0078529D01*
X0021400Y0076930D02*
X0022200Y0076930D01*
X0022200Y0075332D02*
X0021400Y0075332D01*
X0021400Y0073733D02*
X0022200Y0073733D01*
X0022677Y0072134D02*
X0020923Y0072134D01*
X0019641Y0070536D02*
X0023959Y0070536D01*
X0013959Y0070536D02*
X0009941Y0070536D01*
X0009344Y0072134D02*
X0012677Y0072134D01*
X0012200Y0073733D02*
X0008158Y0073733D01*
X0029753Y0052952D02*
X0033847Y0052952D01*
X0034194Y0053300D02*
X0032900Y0052006D01*
X0032200Y0050315D01*
X0032200Y0043285D01*
X0032900Y0041594D01*
X0034194Y0040300D01*
X0035885Y0039600D01*
X0037715Y0039600D01*
X0039406Y0040300D01*
X0040700Y0041594D01*
X0041400Y0043285D01*
X0041400Y0050315D01*
X0040700Y0052006D01*
X0039406Y0053300D01*
X0037715Y0054000D01*
X0035885Y0054000D01*
X0034194Y0053300D01*
X0032630Y0051354D02*
X0030970Y0051354D01*
X0031400Y0049755D02*
X0032200Y0049755D01*
X0032200Y0048157D02*
X0031400Y0048157D01*
X0031400Y0046558D02*
X0032200Y0046558D01*
X0032200Y0044960D02*
X0031400Y0044960D01*
X0031400Y0043361D02*
X0032200Y0043361D01*
X0032831Y0041763D02*
X0030769Y0041763D01*
X0029077Y0040164D02*
X0034523Y0040164D01*
X0039077Y0040164D02*
X0044523Y0040164D01*
X0042831Y0041763D02*
X0040769Y0041763D01*
X0041400Y0043361D02*
X0042200Y0043361D01*
X0042200Y0044960D02*
X0041400Y0044960D01*
X0041400Y0046558D02*
X0042200Y0046558D01*
X0042200Y0048157D02*
X0041400Y0048157D01*
X0041400Y0049755D02*
X0042200Y0049755D01*
X0042630Y0051354D02*
X0040970Y0051354D01*
X0039753Y0052952D02*
X0043847Y0052952D01*
X0053932Y0040164D02*
X0054523Y0040164D01*
X0054200Y0038566D02*
X0058557Y0038566D01*
X0054340Y0026063D02*
X0054548Y0025561D01*
X0055454Y0024655D01*
X0053968Y0024039D01*
X0052561Y0022632D01*
X0051800Y0020795D01*
X0051800Y0012805D01*
X0051800Y0020795D01*
X0051039Y0022632D01*
X0050974Y0022697D01*
X0054340Y0026063D01*
X0054458Y0025778D02*
X0054055Y0025778D01*
X0054307Y0024179D02*
X0052456Y0024179D01*
X0052540Y0022581D02*
X0051060Y0022581D01*
X0051722Y0020982D02*
X0051878Y0020982D01*
X0051800Y0019384D02*
X0051800Y0019384D01*
X0051800Y0017785D02*
X0051800Y0017785D01*
X0051800Y0016187D02*
X0051800Y0016187D01*
X0051800Y0014588D02*
X0051800Y0014588D01*
X0051800Y0012990D02*
X0051800Y0012990D01*
X0051214Y0011391D02*
X0052386Y0011391D01*
X0053736Y0009793D02*
X0049864Y0009793D01*
X0059864Y0009793D02*
X0063736Y0009793D01*
X0062386Y0011391D02*
X0061214Y0011391D01*
X0061800Y0012990D02*
X0061800Y0012990D01*
X0061800Y0014588D02*
X0061800Y0014588D01*
X0061800Y0016187D02*
X0061800Y0016187D01*
X0061800Y0017785D02*
X0061800Y0017785D01*
X0061800Y0019384D02*
X0061800Y0019384D01*
X0061722Y0020982D02*
X0061878Y0020982D01*
X0062540Y0022581D02*
X0061060Y0022581D01*
X0059293Y0024179D02*
X0064307Y0024179D01*
X0067929Y0008194D02*
X0003600Y0008194D01*
X0003600Y0006596D02*
X0069528Y0006596D01*
X0071126Y0004997D02*
X0003600Y0004997D01*
X0109396Y0052952D02*
X0111400Y0052952D01*
X0130935Y0067339D02*
X0196850Y0067339D01*
X0196850Y0068937D02*
X0132614Y0068937D01*
X0131655Y0075332D02*
X0131400Y0075332D01*
X0131400Y0076930D02*
X0132200Y0076930D01*
X0132200Y0078529D02*
X0131400Y0078529D01*
X0131400Y0080127D02*
X0132200Y0080127D01*
X0132784Y0081726D02*
X0130816Y0081726D01*
X0131581Y0083324D02*
X0134253Y0083324D01*
X0132885Y0084923D02*
X0138200Y0084923D01*
X0139347Y0083324D02*
X0139799Y0083324D01*
X0140816Y0081726D02*
X0141397Y0081726D01*
X0141400Y0080127D02*
X0142200Y0080127D01*
X0142200Y0078529D02*
X0141400Y0078529D01*
X0141400Y0076930D02*
X0142200Y0076930D01*
X0142200Y0075332D02*
X0141400Y0075332D01*
X0141400Y0073733D02*
X0142200Y0073733D01*
X0142677Y0072134D02*
X0140923Y0072134D01*
X0139641Y0070536D02*
X0143959Y0070536D01*
X0149641Y0070536D02*
X0153959Y0070536D01*
X0152677Y0072134D02*
X0150923Y0072134D01*
X0151400Y0073733D02*
X0152200Y0073733D01*
X0152200Y0075332D02*
X0151400Y0075332D01*
X0151400Y0076930D02*
X0152200Y0076930D01*
X0152200Y0078529D02*
X0151400Y0078529D01*
X0151400Y0080127D02*
X0152200Y0080127D01*
X0152197Y0081726D02*
X0150816Y0081726D01*
X0150599Y0083324D02*
X0149347Y0083324D01*
X0149000Y0084923D02*
X0145554Y0084923D01*
X0143956Y0086521D02*
X0147402Y0086521D01*
X0145803Y0088120D02*
X0142357Y0088120D01*
X0140759Y0089718D02*
X0144205Y0089718D01*
X0142606Y0091317D02*
X0139160Y0091317D01*
X0137562Y0092915D02*
X0141008Y0092915D01*
X0139409Y0094514D02*
X0135963Y0094514D01*
X0131806Y0091317D02*
X0128360Y0091317D01*
X0130997Y0089718D02*
X0133405Y0089718D01*
X0132784Y0088120D02*
X0135003Y0088120D01*
X0136602Y0086521D02*
X0133200Y0086521D01*
X0143566Y0097711D02*
X0196850Y0097711D01*
X0196850Y0099309D02*
X0141968Y0099309D01*
X0144999Y0102506D02*
X0153193Y0102506D01*
X0151594Y0104105D02*
X0146596Y0104105D01*
X0147258Y0105703D02*
X0149996Y0105703D01*
X0148397Y0107302D02*
X0147300Y0107302D01*
X0146842Y0108900D02*
X0147989Y0108900D01*
X0147989Y0110499D02*
X0145672Y0110499D01*
X0147989Y0112097D02*
X0143292Y0112097D01*
X0145978Y0113696D02*
X0147989Y0113696D01*
X0147989Y0115294D02*
X0146858Y0115294D01*
X0139500Y0115294D02*
X0139100Y0115294D01*
X0139100Y0113696D02*
X0139500Y0113696D01*
X0139500Y0112097D02*
X0139100Y0112097D01*
X0139100Y0118491D02*
X0139500Y0118491D01*
X0139500Y0120090D02*
X0139100Y0120090D01*
X0145165Y0096112D02*
X0196850Y0096112D01*
X0196850Y0094514D02*
X0146763Y0094514D01*
X0148362Y0092915D02*
X0196850Y0092915D01*
X0196850Y0091317D02*
X0149960Y0091317D01*
X0151559Y0089718D02*
X0196850Y0089718D01*
X0196850Y0088120D02*
X0153157Y0088120D01*
X0154756Y0086521D02*
X0196850Y0086521D01*
X0196850Y0084923D02*
X0156354Y0084923D01*
X0159347Y0083324D02*
X0164253Y0083324D01*
X0164194Y0083300D02*
X0162900Y0082006D01*
X0162200Y0080315D01*
X0162200Y0073285D01*
X0162900Y0071594D01*
X0164194Y0070300D01*
X0165885Y0069600D01*
X0167715Y0069600D01*
X0169406Y0070300D01*
X0170700Y0071594D01*
X0171400Y0073285D01*
X0171400Y0080315D01*
X0170700Y0082006D01*
X0169406Y0083300D01*
X0167715Y0084000D01*
X0165885Y0084000D01*
X0164194Y0083300D01*
X0162784Y0081726D02*
X0160816Y0081726D01*
X0161400Y0080127D02*
X0162200Y0080127D01*
X0162200Y0078529D02*
X0161400Y0078529D01*
X0161400Y0076930D02*
X0162200Y0076930D01*
X0162200Y0075332D02*
X0161400Y0075332D01*
X0161400Y0073733D02*
X0162200Y0073733D01*
X0162677Y0072134D02*
X0160923Y0072134D01*
X0159641Y0070536D02*
X0163959Y0070536D01*
X0169641Y0070536D02*
X0173959Y0070536D01*
X0174194Y0070300D02*
X0175885Y0069600D01*
X0177715Y0069600D01*
X0179406Y0070300D01*
X0180700Y0071594D01*
X0181400Y0073285D01*
X0181400Y0080315D01*
X0180700Y0082006D01*
X0179406Y0083300D01*
X0177715Y0084000D01*
X0175885Y0084000D01*
X0174194Y0083300D01*
X0172900Y0082006D01*
X0172200Y0080315D01*
X0172200Y0073285D01*
X0172900Y0071594D01*
X0174194Y0070300D01*
X0172677Y0072134D02*
X0170923Y0072134D01*
X0171400Y0073733D02*
X0172200Y0073733D01*
X0172200Y0075332D02*
X0171400Y0075332D01*
X0171400Y0076930D02*
X0172200Y0076930D01*
X0172200Y0078529D02*
X0171400Y0078529D01*
X0171400Y0080127D02*
X0172200Y0080127D01*
X0172784Y0081726D02*
X0170816Y0081726D01*
X0169347Y0083324D02*
X0174253Y0083324D01*
X0179347Y0083324D02*
X0184253Y0083324D01*
X0184194Y0083300D02*
X0182900Y0082006D01*
X0182200Y0080315D01*
X0182200Y0073285D01*
X0182900Y0071594D01*
X0184194Y0070300D01*
X0185885Y0069600D01*
X0187715Y0069600D01*
X0189406Y0070300D01*
X0190700Y0071594D01*
X0191400Y0073285D01*
X0191400Y0080315D01*
X0190700Y0082006D01*
X0189406Y0083300D01*
X0187715Y0084000D01*
X0185885Y0084000D01*
X0184194Y0083300D01*
X0182784Y0081726D02*
X0180816Y0081726D01*
X0181400Y0080127D02*
X0182200Y0080127D01*
X0182200Y0078529D02*
X0181400Y0078529D01*
X0181400Y0076930D02*
X0182200Y0076930D01*
X0182200Y0075332D02*
X0181400Y0075332D01*
X0181400Y0073733D02*
X0182200Y0073733D01*
X0182677Y0072134D02*
X0180923Y0072134D01*
X0179641Y0070536D02*
X0183959Y0070536D01*
X0189641Y0070536D02*
X0196850Y0070536D01*
X0196850Y0072134D02*
X0190923Y0072134D01*
X0191400Y0073733D02*
X0196850Y0073733D01*
X0196850Y0075332D02*
X0191400Y0075332D01*
X0191400Y0076930D02*
X0196850Y0076930D01*
X0196850Y0078529D02*
X0191400Y0078529D01*
X0191400Y0080127D02*
X0196850Y0080127D01*
X0196850Y0081726D02*
X0190816Y0081726D01*
X0189347Y0083324D02*
X0196850Y0083324D01*
X0196850Y0052952D02*
X0189396Y0052952D01*
X0190743Y0051354D02*
X0196850Y0051354D01*
X0196850Y0049755D02*
X0191199Y0049755D01*
X0191200Y0048157D02*
X0196850Y0048157D01*
X0196850Y0046558D02*
X0191200Y0046558D01*
X0191200Y0044960D02*
X0196850Y0044960D01*
X0196850Y0043361D02*
X0191122Y0043361D01*
X0190468Y0041763D02*
X0196850Y0041763D01*
X0186800Y0041763D02*
X0186800Y0041763D01*
X0186800Y0043361D02*
X0186800Y0043361D01*
X0186800Y0044960D02*
X0186800Y0044960D01*
X0186800Y0046558D02*
X0186800Y0046558D01*
X0186800Y0048157D02*
X0186800Y0048157D01*
X0186800Y0049755D02*
X0186800Y0049755D01*
X0186800Y0051354D02*
X0186800Y0051354D01*
X0186800Y0052952D02*
X0186800Y0052952D01*
X0163847Y0052952D02*
X0159753Y0052952D01*
X0160970Y0051354D02*
X0162630Y0051354D01*
X0162200Y0049755D02*
X0161400Y0049755D01*
X0161400Y0048157D02*
X0162200Y0048157D01*
X0162200Y0046558D02*
X0161400Y0046558D01*
X0161400Y0044960D02*
X0162200Y0044960D01*
X0154523Y0040164D02*
X0149077Y0040164D01*
X0150769Y0041763D02*
X0152831Y0041763D01*
X0152200Y0043361D02*
X0151400Y0043361D01*
X0151400Y0044960D02*
X0152200Y0044960D01*
X0152200Y0046558D02*
X0151400Y0046558D01*
X0151400Y0048157D02*
X0152200Y0048157D01*
X0152200Y0049755D02*
X0151400Y0049755D01*
X0150970Y0051354D02*
X0152630Y0051354D01*
X0153847Y0052952D02*
X0149753Y0052952D01*
X0143847Y0052952D02*
X0139753Y0052952D01*
X0140970Y0051354D02*
X0142630Y0051354D01*
X0142200Y0049755D02*
X0141400Y0049755D01*
X0141400Y0048157D02*
X0142200Y0048157D01*
X0142200Y0046558D02*
X0141400Y0046558D01*
X0141400Y0044960D02*
X0142200Y0044960D01*
X0142200Y0043361D02*
X0141400Y0043361D01*
X0141286Y0041763D02*
X0140769Y0041763D01*
X0139687Y0040164D02*
X0139077Y0040164D01*
X0159293Y0024179D02*
X0164307Y0024179D01*
X0162540Y0022581D02*
X0161060Y0022581D01*
X0161722Y0020982D02*
X0161878Y0020982D01*
X0161800Y0019384D02*
X0161800Y0019384D01*
X0161800Y0017785D02*
X0161800Y0017785D01*
X0161800Y0016187D02*
X0161800Y0016187D01*
X0161800Y0014588D02*
X0161800Y0014588D01*
X0161800Y0012990D02*
X0161800Y0012990D01*
X0161214Y0011391D02*
X0162386Y0011391D01*
X0163736Y0009793D02*
X0159864Y0009793D01*
X0169864Y0009793D02*
X0173736Y0009793D01*
X0172386Y0011391D02*
X0171214Y0011391D01*
X0171800Y0012990D02*
X0171800Y0012990D01*
X0171800Y0014588D02*
X0171800Y0014588D01*
X0171800Y0016187D02*
X0171800Y0016187D01*
X0171800Y0017785D02*
X0171800Y0017785D01*
X0171800Y0019384D02*
X0171800Y0019384D01*
X0171722Y0020982D02*
X0171878Y0020982D01*
X0172540Y0022581D02*
X0171060Y0022581D01*
X0169293Y0024179D02*
X0174307Y0024179D01*
X0179293Y0024179D02*
X0184307Y0024179D01*
X0182540Y0022581D02*
X0181060Y0022581D01*
X0181722Y0020982D02*
X0181878Y0020982D01*
X0181800Y0019384D02*
X0181800Y0019384D01*
X0181800Y0017785D02*
X0181800Y0017785D01*
X0181800Y0016187D02*
X0181800Y0016187D01*
X0181800Y0014588D02*
X0181800Y0014588D01*
X0181800Y0012990D02*
X0181800Y0012990D01*
X0181214Y0011391D02*
X0182386Y0011391D01*
X0183736Y0009793D02*
X0179864Y0009793D01*
X0189864Y0009793D02*
X0196850Y0009793D01*
X0196850Y0011391D02*
X0191214Y0011391D01*
X0191800Y0012990D02*
X0196850Y0012990D01*
X0196850Y0014588D02*
X0191800Y0014588D01*
X0191800Y0016187D02*
X0196850Y0016187D01*
X0196850Y0017785D02*
X0191800Y0017785D01*
X0191800Y0019384D02*
X0196850Y0019384D01*
X0196850Y0020982D02*
X0191722Y0020982D01*
X0191060Y0022581D02*
X0196850Y0022581D01*
X0196850Y0024179D02*
X0189293Y0024179D01*
X0196850Y0004997D02*
X0137674Y0004997D01*
X0114393Y0076930D02*
X0111400Y0076930D01*
X0111400Y0078529D02*
X0112795Y0078529D01*
X0111547Y0080127D02*
X0111400Y0080127D01*
X0111397Y0081726D02*
X0110816Y0081726D01*
X0109799Y0083324D02*
X0109347Y0083324D01*
X0069700Y0120090D02*
X0068900Y0120090D01*
X0068900Y0121688D02*
X0069700Y0121688D01*
X0069700Y0123287D02*
X0068900Y0123287D01*
X0067720Y0124885D02*
X0070880Y0124885D01*
X0072395Y0147200D02*
X0076205Y0147200D01*
X0078900Y0149895D01*
X0078900Y0153705D01*
X0076205Y0156400D01*
X0072395Y0156400D01*
X0069700Y0153705D01*
X0069700Y0149895D01*
X0072395Y0147200D01*
X0072330Y0147265D02*
X0066270Y0147265D01*
X0066205Y0147200D02*
X0068900Y0149895D01*
X0068900Y0153705D01*
X0066205Y0156400D01*
X0062395Y0156400D01*
X0059700Y0153705D01*
X0059700Y0149895D01*
X0062395Y0147200D01*
X0066205Y0147200D01*
X0067868Y0148863D02*
X0070732Y0148863D01*
X0069700Y0150462D02*
X0068900Y0150462D01*
X0068900Y0152060D02*
X0069700Y0152060D01*
X0069700Y0153659D02*
X0068900Y0153659D01*
X0067348Y0155257D02*
X0071252Y0155257D01*
X0071205Y0157200D02*
X0067395Y0157200D01*
X0064700Y0159895D01*
X0064700Y0163705D01*
X0067395Y0166400D01*
X0071205Y0166400D01*
X0073900Y0163705D01*
X0073900Y0159895D01*
X0071205Y0157200D01*
X0072459Y0158454D02*
X0076141Y0158454D01*
X0077395Y0157200D02*
X0081205Y0157200D01*
X0083900Y0159895D01*
X0083900Y0163705D01*
X0081205Y0166400D01*
X0077395Y0166400D01*
X0074700Y0163705D01*
X0074700Y0159895D01*
X0077395Y0157200D01*
X0077348Y0155257D02*
X0081252Y0155257D01*
X0082395Y0156400D02*
X0079700Y0153705D01*
X0079700Y0149895D01*
X0082395Y0147200D01*
X0086205Y0147200D01*
X0088900Y0149895D01*
X0088900Y0153705D01*
X0086205Y0156400D01*
X0082395Y0156400D01*
X0082459Y0158454D02*
X0086141Y0158454D01*
X0087395Y0157200D02*
X0084700Y0159895D01*
X0084700Y0163705D01*
X0087395Y0166400D01*
X0091205Y0166400D01*
X0093900Y0163705D01*
X0093900Y0159895D01*
X0091205Y0157200D01*
X0087395Y0157200D01*
X0087348Y0155257D02*
X0091252Y0155257D01*
X0092395Y0156400D02*
X0089700Y0153705D01*
X0089700Y0149895D01*
X0092395Y0147200D01*
X0096205Y0147200D01*
X0098900Y0149895D01*
X0098900Y0153705D01*
X0096205Y0156400D01*
X0092395Y0156400D01*
X0092459Y0158454D02*
X0157005Y0158454D01*
X0157005Y0157785D02*
X0157742Y0156005D01*
X0155699Y0156005D01*
X0153227Y0154981D01*
X0151336Y0153089D01*
X0150312Y0150618D01*
X0150312Y0147943D01*
X0151336Y0145471D01*
X0153227Y0143580D01*
X0155699Y0142556D01*
X0158374Y0142556D01*
X0160845Y0143580D01*
X0162737Y0145471D01*
X0163761Y0147943D01*
X0163761Y0150618D01*
X0163023Y0152398D01*
X0165067Y0152398D01*
X0167538Y0153422D01*
X0169430Y0155314D01*
X0170454Y0157785D01*
X0170454Y0160460D01*
X0169430Y0162932D01*
X0167538Y0164823D01*
X0165067Y0165847D01*
X0162392Y0165847D01*
X0159920Y0164823D01*
X0158028Y0162932D01*
X0157005Y0160460D01*
X0157005Y0157785D01*
X0157390Y0156856D02*
X0003600Y0156856D01*
X0003600Y0158454D02*
X0016141Y0158454D01*
X0017395Y0157200D02*
X0021205Y0157200D01*
X0023900Y0159895D01*
X0023900Y0163705D01*
X0021205Y0166400D01*
X0017395Y0166400D01*
X0014700Y0163705D01*
X0014700Y0159895D01*
X0017395Y0157200D01*
X0016205Y0156400D02*
X0012395Y0156400D01*
X0009700Y0153705D01*
X0009700Y0149895D01*
X0012395Y0147200D01*
X0016205Y0147200D01*
X0018900Y0149895D01*
X0018900Y0153705D01*
X0016205Y0156400D01*
X0017348Y0155257D02*
X0021252Y0155257D01*
X0022395Y0156400D02*
X0019700Y0153705D01*
X0019700Y0149895D01*
X0022395Y0147200D01*
X0026205Y0147200D01*
X0028900Y0149895D01*
X0028900Y0153705D01*
X0026205Y0156400D01*
X0022395Y0156400D01*
X0022459Y0158454D02*
X0026141Y0158454D01*
X0027395Y0157200D02*
X0031205Y0157200D01*
X0033900Y0159895D01*
X0033900Y0163705D01*
X0031205Y0166400D01*
X0027395Y0166400D01*
X0024700Y0163705D01*
X0024700Y0159895D01*
X0027395Y0157200D01*
X0027348Y0155257D02*
X0031252Y0155257D01*
X0032395Y0156400D02*
X0029700Y0153705D01*
X0029700Y0149895D01*
X0032395Y0147200D01*
X0036205Y0147200D01*
X0038900Y0149895D01*
X0038900Y0153705D01*
X0036205Y0156400D01*
X0032395Y0156400D01*
X0032459Y0158454D02*
X0036141Y0158454D01*
X0037395Y0157200D02*
X0034700Y0159895D01*
X0034700Y0163705D01*
X0037395Y0166400D01*
X0041205Y0166400D01*
X0043900Y0163705D01*
X0043900Y0159895D01*
X0041205Y0157200D01*
X0037395Y0157200D01*
X0037348Y0155257D02*
X0041252Y0155257D01*
X0042395Y0156400D02*
X0039700Y0153705D01*
X0039700Y0149895D01*
X0042395Y0147200D01*
X0046205Y0147200D01*
X0048900Y0149895D01*
X0048900Y0153705D01*
X0046205Y0156400D01*
X0042395Y0156400D01*
X0042459Y0158454D02*
X0046141Y0158454D01*
X0047395Y0157200D02*
X0051205Y0157200D01*
X0053900Y0159895D01*
X0053900Y0163705D01*
X0051205Y0166400D01*
X0047395Y0166400D01*
X0044700Y0163705D01*
X0044700Y0159895D01*
X0047395Y0157200D01*
X0047348Y0155257D02*
X0051252Y0155257D01*
X0052395Y0156400D02*
X0049700Y0153705D01*
X0049700Y0149895D01*
X0052395Y0147200D01*
X0056205Y0147200D01*
X0058900Y0149895D01*
X0058900Y0153705D01*
X0056205Y0156400D01*
X0052395Y0156400D01*
X0052459Y0158454D02*
X0056141Y0158454D01*
X0057395Y0157200D02*
X0054700Y0159895D01*
X0054700Y0163705D01*
X0057395Y0166400D01*
X0061205Y0166400D01*
X0063900Y0163705D01*
X0063900Y0159895D01*
X0061205Y0157200D01*
X0057395Y0157200D01*
X0057348Y0155257D02*
X0061252Y0155257D01*
X0059700Y0153659D02*
X0058900Y0153659D01*
X0058900Y0152060D02*
X0059700Y0152060D01*
X0059700Y0150462D02*
X0058900Y0150462D01*
X0057868Y0148863D02*
X0060732Y0148863D01*
X0062330Y0147265D02*
X0056270Y0147265D01*
X0052330Y0147265D02*
X0046270Y0147265D01*
X0047868Y0148863D02*
X0050732Y0148863D01*
X0049700Y0150462D02*
X0048900Y0150462D01*
X0048900Y0152060D02*
X0049700Y0152060D01*
X0049700Y0153659D02*
X0048900Y0153659D01*
X0044700Y0160053D02*
X0043900Y0160053D01*
X0043900Y0161651D02*
X0044700Y0161651D01*
X0044700Y0163250D02*
X0043900Y0163250D01*
X0042757Y0164848D02*
X0045843Y0164848D01*
X0052757Y0164848D02*
X0055843Y0164848D01*
X0054700Y0163250D02*
X0053900Y0163250D01*
X0053900Y0161651D02*
X0054700Y0161651D01*
X0054700Y0160053D02*
X0053900Y0160053D01*
X0062459Y0158454D02*
X0066141Y0158454D01*
X0064700Y0160053D02*
X0063900Y0160053D01*
X0063900Y0161651D02*
X0064700Y0161651D01*
X0064700Y0163250D02*
X0063900Y0163250D01*
X0062757Y0164848D02*
X0065843Y0164848D01*
X0072757Y0164848D02*
X0075843Y0164848D01*
X0074700Y0163250D02*
X0073900Y0163250D01*
X0073900Y0161651D02*
X0074700Y0161651D01*
X0074700Y0160053D02*
X0073900Y0160053D01*
X0078900Y0153659D02*
X0079700Y0153659D01*
X0079700Y0152060D02*
X0078900Y0152060D01*
X0078900Y0150462D02*
X0079700Y0150462D01*
X0080732Y0148863D02*
X0077868Y0148863D01*
X0076270Y0147265D02*
X0082330Y0147265D01*
X0086270Y0147265D02*
X0092330Y0147265D01*
X0090732Y0148863D02*
X0087868Y0148863D01*
X0088900Y0150462D02*
X0089700Y0150462D01*
X0089700Y0152060D02*
X0088900Y0152060D01*
X0088900Y0153659D02*
X0089700Y0153659D01*
X0093900Y0160053D02*
X0157005Y0160053D01*
X0157498Y0161651D02*
X0093900Y0161651D01*
X0093900Y0163250D02*
X0158346Y0163250D01*
X0159980Y0164848D02*
X0133854Y0164848D01*
X0133705Y0164700D02*
X0136400Y0167395D01*
X0136400Y0171205D01*
X0133705Y0173900D01*
X0129895Y0173900D01*
X0127200Y0171205D01*
X0127200Y0167395D01*
X0129895Y0164700D01*
X0133705Y0164700D01*
X0135452Y0166447D02*
X0183695Y0166447D01*
X0183849Y0166073D02*
X0183522Y0166864D01*
X0183301Y0167690D01*
X0183209Y0168387D01*
X0189135Y0168387D01*
X0189135Y0169543D01*
X0183209Y0169543D01*
X0183301Y0170241D01*
X0183522Y0171067D01*
X0183849Y0171857D01*
X0184277Y0172598D01*
X0184798Y0173276D01*
X0185402Y0173881D01*
X0186081Y0174402D01*
X0186822Y0174829D01*
X0187612Y0175157D01*
X0188438Y0175378D01*
X0189135Y0175470D01*
X0189135Y0169543D01*
X0190291Y0169543D01*
X0190291Y0175470D01*
X0190989Y0175378D01*
X0191815Y0175157D01*
X0192605Y0174829D01*
X0193346Y0174402D01*
X0194024Y0173881D01*
X0194629Y0173276D01*
X0195150Y0172598D01*
X0195577Y0171857D01*
X0195905Y0171067D01*
X0196126Y0170241D01*
X0196218Y0169543D01*
X0190291Y0169543D01*
X0190291Y0168387D01*
X0190291Y0162461D01*
X0190989Y0162553D01*
X0191815Y0162774D01*
X0192605Y0163101D01*
X0193346Y0163529D01*
X0194024Y0164050D01*
X0194629Y0164654D01*
X0195150Y0165333D01*
X0195577Y0166073D01*
X0195905Y0166864D01*
X0196126Y0167690D01*
X0196218Y0168387D01*
X0190291Y0168387D01*
X0189135Y0168387D01*
X0189135Y0162461D01*
X0188438Y0162553D01*
X0187612Y0162774D01*
X0186822Y0163101D01*
X0186081Y0163529D01*
X0185402Y0164050D01*
X0184798Y0164654D01*
X0184277Y0165333D01*
X0183849Y0166073D01*
X0184649Y0164848D02*
X0167479Y0164848D01*
X0169112Y0163250D02*
X0186564Y0163250D01*
X0189135Y0163250D02*
X0190291Y0163250D01*
X0190291Y0164848D02*
X0189135Y0164848D01*
X0189135Y0166447D02*
X0190291Y0166447D01*
X0190291Y0168045D02*
X0189135Y0168045D01*
X0189135Y0169644D02*
X0190291Y0169644D01*
X0190291Y0171242D02*
X0189135Y0171242D01*
X0189135Y0172841D02*
X0190291Y0172841D01*
X0190291Y0174439D02*
X0189135Y0174439D01*
X0186146Y0174439D02*
X0003600Y0174439D01*
X0003600Y0172841D02*
X0099118Y0172841D01*
X0099977Y0173700D02*
X0097400Y0171123D01*
X0097400Y0169300D01*
X0101800Y0169300D01*
X0106200Y0169300D01*
X0106200Y0171123D01*
X0103623Y0173700D01*
X0101800Y0173700D01*
X0101800Y0169300D01*
X0101800Y0169300D01*
X0101800Y0169300D01*
X0106200Y0169300D01*
X0106200Y0167477D01*
X0103623Y0164900D01*
X0101800Y0164900D01*
X0101800Y0169300D01*
X0101800Y0169300D01*
X0101800Y0169300D01*
X0101800Y0173700D01*
X0099977Y0173700D01*
X0101800Y0172841D02*
X0101800Y0172841D01*
X0101800Y0171242D02*
X0101800Y0171242D01*
X0101800Y0169644D02*
X0101800Y0169644D01*
X0101800Y0169300D02*
X0097400Y0169300D01*
X0097400Y0167477D01*
X0099977Y0164900D01*
X0101800Y0164900D01*
X0101800Y0169300D01*
X0101800Y0168045D02*
X0101800Y0168045D01*
X0101800Y0166447D02*
X0101800Y0166447D01*
X0098431Y0166447D02*
X0003600Y0166447D01*
X0003600Y0168045D02*
X0097400Y0168045D01*
X0097400Y0169644D02*
X0003600Y0169644D01*
X0003600Y0171242D02*
X0097520Y0171242D01*
X0092757Y0164848D02*
X0129746Y0164848D01*
X0128148Y0166447D02*
X0105169Y0166447D01*
X0106200Y0168045D02*
X0127200Y0168045D01*
X0127200Y0169644D02*
X0106200Y0169644D01*
X0106080Y0171242D02*
X0127237Y0171242D01*
X0128835Y0172841D02*
X0104482Y0172841D01*
X0109284Y0179695D02*
X0109957Y0179352D01*
X0110676Y0179118D01*
X0111422Y0179000D01*
X0111600Y0179000D01*
X0111600Y0186600D01*
X0107000Y0186600D01*
X0107000Y0183422D01*
X0107118Y0182676D01*
X0107352Y0181957D01*
X0107695Y0181284D01*
X0108139Y0180673D01*
X0108673Y0180139D01*
X0109284Y0179695D01*
X0110317Y0179235D02*
X0003600Y0179235D01*
X0003600Y0180833D02*
X0108022Y0180833D01*
X0107198Y0182432D02*
X0003600Y0182432D01*
X0003600Y0184030D02*
X0107000Y0184030D01*
X0107000Y0185629D02*
X0003600Y0185629D01*
X0003600Y0187227D02*
X0017367Y0187227D01*
X0017395Y0187200D02*
X0021205Y0187200D01*
X0023900Y0189895D01*
X0023900Y0193705D01*
X0021205Y0196400D01*
X0017395Y0196400D01*
X0014700Y0193705D01*
X0014700Y0189895D01*
X0017395Y0187200D01*
X0015769Y0188826D02*
X0003600Y0188826D01*
X0003600Y0190424D02*
X0014700Y0190424D01*
X0014700Y0192023D02*
X0003600Y0192023D01*
X0003600Y0193621D02*
X0014700Y0193621D01*
X0016214Y0195220D02*
X0003600Y0195220D01*
X0003600Y0196818D02*
X0196850Y0196818D01*
X0196850Y0195220D02*
X0092385Y0195220D01*
X0091205Y0196400D02*
X0087395Y0196400D01*
X0084700Y0193705D01*
X0084700Y0189895D01*
X0087395Y0187200D01*
X0091205Y0187200D01*
X0093900Y0189895D01*
X0093900Y0193705D01*
X0091205Y0196400D01*
X0093900Y0193621D02*
X0108893Y0193621D01*
X0108673Y0193461D02*
X0108139Y0192927D01*
X0107695Y0192316D01*
X0107352Y0191643D01*
X0107118Y0190924D01*
X0107000Y0190178D01*
X0107000Y0187000D01*
X0111600Y0187000D01*
X0111600Y0194600D01*
X0111422Y0194600D01*
X0110676Y0194482D01*
X0109957Y0194248D01*
X0109284Y0193905D01*
X0108673Y0193461D01*
X0107545Y0192023D02*
X0093900Y0192023D01*
X0093900Y0190424D02*
X0107039Y0190424D01*
X0107000Y0188826D02*
X0092831Y0188826D01*
X0091233Y0187227D02*
X0107000Y0187227D01*
X0111600Y0187227D02*
X0112000Y0187227D01*
X0112000Y0187000D02*
X0111600Y0187000D01*
X0111600Y0186600D01*
X0112000Y0186600D01*
X0112000Y0187000D01*
X0112000Y0194600D01*
X0112178Y0194600D01*
X0112924Y0194482D01*
X0113643Y0194248D01*
X0114316Y0193905D01*
X0114927Y0193461D01*
X0115461Y0192927D01*
X0115905Y0192316D01*
X0116248Y0191643D01*
X0116482Y0190924D01*
X0116600Y0190178D01*
X0116600Y0187000D01*
X0112000Y0187000D01*
X0112000Y0186600D02*
X0116600Y0186600D01*
X0116600Y0183422D01*
X0116482Y0182676D01*
X0116248Y0181957D01*
X0115905Y0181284D01*
X0115461Y0180673D01*
X0114927Y0180139D01*
X0114316Y0179695D01*
X0113643Y0179352D01*
X0112924Y0179118D01*
X0112178Y0179000D01*
X0112000Y0179000D01*
X0112000Y0186600D01*
X0112000Y0185629D02*
X0111600Y0185629D01*
X0111600Y0184030D02*
X0112000Y0184030D01*
X0112000Y0182432D02*
X0111600Y0182432D01*
X0111600Y0180833D02*
X0112000Y0180833D01*
X0112000Y0179235D02*
X0111600Y0179235D01*
X0113283Y0179235D02*
X0119756Y0179235D01*
X0118968Y0179561D02*
X0120805Y0178800D01*
X0122795Y0178800D01*
X0124632Y0179561D01*
X0126039Y0180968D01*
X0126800Y0182805D01*
X0126800Y0190795D01*
X0126039Y0192632D01*
X0124632Y0194039D01*
X0122795Y0194800D01*
X0120805Y0194800D01*
X0118968Y0194039D01*
X0117561Y0192632D01*
X0116800Y0190795D01*
X0116800Y0182805D01*
X0117561Y0180968D01*
X0118968Y0179561D01*
X0117696Y0180833D02*
X0115578Y0180833D01*
X0116402Y0182432D02*
X0116955Y0182432D01*
X0116800Y0184030D02*
X0116600Y0184030D01*
X0116600Y0185629D02*
X0116800Y0185629D01*
X0116800Y0187227D02*
X0116600Y0187227D01*
X0116600Y0188826D02*
X0116800Y0188826D01*
X0116800Y0190424D02*
X0116561Y0190424D01*
X0116055Y0192023D02*
X0117309Y0192023D01*
X0118550Y0193621D02*
X0114707Y0193621D01*
X0112000Y0193621D02*
X0111600Y0193621D01*
X0111600Y0192023D02*
X0112000Y0192023D01*
X0112000Y0190424D02*
X0111600Y0190424D01*
X0111600Y0188826D02*
X0112000Y0188826D01*
X0125050Y0193621D02*
X0196850Y0193621D01*
X0196850Y0192023D02*
X0180103Y0192023D01*
X0179743Y0192383D02*
X0181635Y0190491D01*
X0182658Y0188019D01*
X0182658Y0185344D01*
X0181635Y0182873D01*
X0179743Y0180981D01*
X0177271Y0179957D01*
X0174596Y0179957D01*
X0172125Y0180981D01*
X0170233Y0182873D01*
X0169209Y0185344D01*
X0169209Y0188019D01*
X0170233Y0190491D01*
X0172125Y0192383D01*
X0174596Y0193406D01*
X0177271Y0193406D01*
X0179743Y0192383D01*
X0181662Y0190424D02*
X0196850Y0190424D01*
X0196850Y0188826D02*
X0182324Y0188826D01*
X0182658Y0187227D02*
X0196850Y0187227D01*
X0196850Y0185629D02*
X0182658Y0185629D01*
X0182114Y0184030D02*
X0196850Y0184030D01*
X0196850Y0182432D02*
X0181193Y0182432D01*
X0179386Y0180833D02*
X0196850Y0180833D01*
X0196850Y0179235D02*
X0148457Y0179235D01*
X0147350Y0178776D02*
X0149822Y0179800D01*
X0151713Y0181692D01*
X0152737Y0184163D01*
X0152737Y0186838D01*
X0151713Y0189310D01*
X0149822Y0191201D01*
X0147350Y0192225D01*
X0144675Y0192225D01*
X0142204Y0191201D01*
X0140312Y0189310D01*
X0139288Y0186838D01*
X0139288Y0184163D01*
X0140312Y0181692D01*
X0142204Y0179800D01*
X0144675Y0178776D01*
X0147350Y0178776D01*
X0143568Y0179235D02*
X0123844Y0179235D01*
X0125904Y0180833D02*
X0141170Y0180833D01*
X0140005Y0182432D02*
X0126645Y0182432D01*
X0126800Y0184030D02*
X0139343Y0184030D01*
X0139288Y0185629D02*
X0126800Y0185629D01*
X0126800Y0187227D02*
X0139449Y0187227D01*
X0140111Y0188826D02*
X0126800Y0188826D01*
X0126800Y0190424D02*
X0141426Y0190424D01*
X0144187Y0192023D02*
X0126291Y0192023D01*
X0134765Y0172841D02*
X0184463Y0172841D01*
X0183595Y0171242D02*
X0136363Y0171242D01*
X0136400Y0169644D02*
X0183222Y0169644D01*
X0183254Y0168045D02*
X0136400Y0168045D01*
X0123848Y0155257D02*
X0153894Y0155257D01*
X0151905Y0153659D02*
X0125400Y0153659D01*
X0125400Y0153705D02*
X0122705Y0156400D01*
X0118895Y0156400D01*
X0116758Y0154264D01*
X0116700Y0154406D01*
X0115406Y0155700D01*
X0113715Y0156400D01*
X0111885Y0156400D01*
X0110194Y0155700D01*
X0108900Y0154406D01*
X0108200Y0152715D01*
X0108200Y0150885D01*
X0108900Y0149194D01*
X0110194Y0147900D01*
X0111885Y0147200D01*
X0113715Y0147200D01*
X0115406Y0147900D01*
X0116700Y0149194D01*
X0116758Y0149336D01*
X0118895Y0147200D01*
X0122705Y0147200D01*
X0125400Y0149895D01*
X0125400Y0153705D01*
X0125400Y0152060D02*
X0150909Y0152060D01*
X0150312Y0150462D02*
X0125400Y0150462D01*
X0124368Y0148863D02*
X0150312Y0148863D01*
X0150593Y0147265D02*
X0122770Y0147265D01*
X0118830Y0147265D02*
X0113871Y0147265D01*
X0111729Y0147265D02*
X0096270Y0147265D01*
X0097868Y0148863D02*
X0109232Y0148863D01*
X0108375Y0150462D02*
X0098900Y0150462D01*
X0098900Y0152060D02*
X0108200Y0152060D01*
X0108591Y0153659D02*
X0098900Y0153659D01*
X0097348Y0155257D02*
X0109752Y0155257D01*
X0115848Y0155257D02*
X0117752Y0155257D01*
X0117232Y0148863D02*
X0116368Y0148863D01*
X0084700Y0160053D02*
X0083900Y0160053D01*
X0083900Y0161651D02*
X0084700Y0161651D01*
X0084700Y0163250D02*
X0083900Y0163250D01*
X0082757Y0164848D02*
X0085843Y0164848D01*
X0087367Y0187227D02*
X0081233Y0187227D01*
X0081205Y0187200D02*
X0083900Y0189895D01*
X0083900Y0193705D01*
X0081205Y0196400D01*
X0077395Y0196400D01*
X0074700Y0193705D01*
X0074700Y0189895D01*
X0077395Y0187200D01*
X0081205Y0187200D01*
X0082831Y0188826D02*
X0085769Y0188826D01*
X0084700Y0190424D02*
X0083900Y0190424D01*
X0083900Y0192023D02*
X0084700Y0192023D01*
X0084700Y0193621D02*
X0083900Y0193621D01*
X0082385Y0195220D02*
X0086214Y0195220D01*
X0076214Y0195220D02*
X0072385Y0195220D01*
X0071205Y0196400D02*
X0073900Y0193705D01*
X0073900Y0189895D01*
X0071205Y0187200D01*
X0067395Y0187200D01*
X0064700Y0189895D01*
X0064700Y0193705D01*
X0067395Y0196400D01*
X0071205Y0196400D01*
X0073900Y0193621D02*
X0074700Y0193621D01*
X0074700Y0192023D02*
X0073900Y0192023D01*
X0073900Y0190424D02*
X0074700Y0190424D01*
X0075769Y0188826D02*
X0072831Y0188826D01*
X0071233Y0187227D02*
X0077367Y0187227D01*
X0067367Y0187227D02*
X0061233Y0187227D01*
X0061205Y0187200D02*
X0063900Y0189895D01*
X0063900Y0193705D01*
X0061205Y0196400D01*
X0057395Y0196400D01*
X0054700Y0193705D01*
X0054700Y0189895D01*
X0057395Y0187200D01*
X0061205Y0187200D01*
X0062831Y0188826D02*
X0065769Y0188826D01*
X0064700Y0190424D02*
X0063900Y0190424D01*
X0063900Y0192023D02*
X0064700Y0192023D01*
X0064700Y0193621D02*
X0063900Y0193621D01*
X0062385Y0195220D02*
X0066214Y0195220D01*
X0057367Y0187227D02*
X0051233Y0187227D01*
X0051205Y0187200D02*
X0053900Y0189895D01*
X0053900Y0193705D01*
X0051205Y0196400D01*
X0047395Y0196400D01*
X0044700Y0193705D01*
X0044700Y0189895D01*
X0047395Y0187200D01*
X0051205Y0187200D01*
X0052831Y0188826D02*
X0055769Y0188826D01*
X0054700Y0190424D02*
X0053900Y0190424D01*
X0053900Y0192023D02*
X0054700Y0192023D01*
X0054700Y0193621D02*
X0053900Y0193621D01*
X0052385Y0195220D02*
X0056214Y0195220D01*
X0046214Y0195220D02*
X0042385Y0195220D01*
X0041205Y0196400D02*
X0037395Y0196400D01*
X0034700Y0193705D01*
X0034700Y0189895D01*
X0037395Y0187200D01*
X0041205Y0187200D01*
X0043900Y0189895D01*
X0043900Y0193705D01*
X0041205Y0196400D01*
X0043900Y0193621D02*
X0044700Y0193621D01*
X0044700Y0192023D02*
X0043900Y0192023D01*
X0043900Y0190424D02*
X0044700Y0190424D01*
X0045769Y0188826D02*
X0042831Y0188826D01*
X0041233Y0187227D02*
X0047367Y0187227D01*
X0037367Y0187227D02*
X0031233Y0187227D01*
X0031205Y0187200D02*
X0033900Y0189895D01*
X0033900Y0193705D01*
X0031205Y0196400D01*
X0027395Y0196400D01*
X0024700Y0193705D01*
X0024700Y0189895D01*
X0027395Y0187200D01*
X0031205Y0187200D01*
X0032831Y0188826D02*
X0035769Y0188826D01*
X0034700Y0190424D02*
X0033900Y0190424D01*
X0033900Y0192023D02*
X0034700Y0192023D01*
X0034700Y0193621D02*
X0033900Y0193621D01*
X0032385Y0195220D02*
X0036214Y0195220D01*
X0026214Y0195220D02*
X0022385Y0195220D01*
X0023900Y0193621D02*
X0024700Y0193621D01*
X0024700Y0192023D02*
X0023900Y0192023D01*
X0023900Y0190424D02*
X0024700Y0190424D01*
X0025769Y0188826D02*
X0022831Y0188826D01*
X0021233Y0187227D02*
X0027367Y0187227D01*
X0025843Y0164848D02*
X0022757Y0164848D01*
X0023900Y0163250D02*
X0024700Y0163250D01*
X0024700Y0161651D02*
X0023900Y0161651D01*
X0023900Y0160053D02*
X0024700Y0160053D01*
X0028900Y0153659D02*
X0029700Y0153659D01*
X0029700Y0152060D02*
X0028900Y0152060D01*
X0028900Y0150462D02*
X0029700Y0150462D01*
X0030732Y0148863D02*
X0027868Y0148863D01*
X0026270Y0147265D02*
X0032330Y0147265D01*
X0036270Y0147265D02*
X0042330Y0147265D01*
X0040732Y0148863D02*
X0037868Y0148863D01*
X0038900Y0150462D02*
X0039700Y0150462D01*
X0039700Y0152060D02*
X0038900Y0152060D01*
X0038900Y0153659D02*
X0039700Y0153659D01*
X0034700Y0160053D02*
X0033900Y0160053D01*
X0033900Y0161651D02*
X0034700Y0161651D01*
X0034700Y0163250D02*
X0033900Y0163250D01*
X0032757Y0164848D02*
X0035843Y0164848D01*
X0019700Y0153659D02*
X0018900Y0153659D01*
X0018900Y0152060D02*
X0019700Y0152060D01*
X0019700Y0150462D02*
X0018900Y0150462D01*
X0017868Y0148863D02*
X0020732Y0148863D01*
X0022330Y0147265D02*
X0016270Y0147265D01*
X0012330Y0147265D02*
X0003600Y0147265D01*
X0003600Y0148863D02*
X0010732Y0148863D01*
X0009700Y0150462D02*
X0003600Y0150462D01*
X0003600Y0152060D02*
X0009700Y0152060D01*
X0009700Y0153659D02*
X0003600Y0153659D01*
X0003600Y0155257D02*
X0011252Y0155257D01*
X0014700Y0160053D02*
X0003600Y0160053D01*
X0003600Y0161651D02*
X0014700Y0161651D01*
X0014700Y0163250D02*
X0003600Y0163250D01*
X0003600Y0164848D02*
X0015843Y0164848D01*
X0003600Y0176038D02*
X0196850Y0176038D01*
X0196850Y0177636D02*
X0003600Y0177636D01*
X0003600Y0145666D02*
X0151255Y0145666D01*
X0152739Y0144068D02*
X0003600Y0144068D01*
X0003600Y0142469D02*
X0196850Y0142469D01*
X0196850Y0144068D02*
X0161333Y0144068D01*
X0162818Y0145666D02*
X0196850Y0145666D01*
X0196850Y0147265D02*
X0163480Y0147265D01*
X0163761Y0148863D02*
X0196850Y0148863D01*
X0196850Y0150462D02*
X0163761Y0150462D01*
X0163163Y0152060D02*
X0196850Y0152060D01*
X0196850Y0153659D02*
X0167775Y0153659D01*
X0169373Y0155257D02*
X0196850Y0155257D01*
X0196850Y0156856D02*
X0170068Y0156856D01*
X0170454Y0158454D02*
X0196850Y0158454D01*
X0196850Y0160053D02*
X0170454Y0160053D01*
X0169960Y0161651D02*
X0196850Y0161651D01*
X0196850Y0163250D02*
X0192862Y0163250D01*
X0194778Y0164848D02*
X0196850Y0164848D01*
X0196850Y0166447D02*
X0195732Y0166447D01*
X0196173Y0168045D02*
X0196850Y0168045D01*
X0196850Y0169644D02*
X0196205Y0169644D01*
X0195832Y0171242D02*
X0196850Y0171242D01*
X0196850Y0172841D02*
X0194964Y0172841D01*
X0193281Y0174439D02*
X0196850Y0174439D01*
X0172482Y0180833D02*
X0150855Y0180833D01*
X0152020Y0182432D02*
X0170674Y0182432D01*
X0169754Y0184030D02*
X0152682Y0184030D01*
X0152737Y0185629D02*
X0169209Y0185629D01*
X0169209Y0187227D02*
X0152576Y0187227D01*
X0151914Y0188826D02*
X0169543Y0188826D01*
X0170206Y0190424D02*
X0150599Y0190424D01*
X0147839Y0192023D02*
X0171765Y0192023D01*
X0045030Y0116893D02*
X0003600Y0116893D01*
X0003600Y0118491D02*
X0011386Y0118491D01*
X0012477Y0117400D02*
X0009900Y0119977D01*
X0009900Y0121800D01*
X0014300Y0121800D01*
X0014300Y0121800D01*
X0014300Y0126200D01*
X0016123Y0126200D01*
X0018700Y0123623D01*
X0018700Y0121800D01*
X0014300Y0121800D01*
X0014300Y0121800D01*
X0014300Y0121800D01*
X0014300Y0126200D01*
X0012477Y0126200D01*
X0009900Y0123623D01*
X0009900Y0121800D01*
X0014300Y0121800D01*
X0018700Y0121800D01*
X0018700Y0119977D01*
X0016123Y0117400D01*
X0014300Y0117400D01*
X0014300Y0121800D01*
X0014300Y0121800D01*
X0014300Y0117400D01*
X0012477Y0117400D01*
X0014300Y0118491D02*
X0014300Y0118491D01*
X0014300Y0120090D02*
X0014300Y0120090D01*
X0014300Y0121688D02*
X0014300Y0121688D01*
X0014300Y0123287D02*
X0014300Y0123287D01*
X0014300Y0124885D02*
X0014300Y0124885D01*
X0011163Y0124885D02*
X0003600Y0124885D01*
X0003600Y0123287D02*
X0009900Y0123287D01*
X0009900Y0121688D02*
X0003600Y0121688D01*
X0003600Y0120090D02*
X0009900Y0120090D01*
X0017214Y0118491D02*
X0021103Y0118491D01*
X0022395Y0117200D02*
X0019700Y0119895D01*
X0019700Y0123705D01*
X0022395Y0126400D01*
X0026205Y0126400D01*
X0028900Y0123705D01*
X0028900Y0119895D01*
X0026205Y0117200D01*
X0022395Y0117200D01*
X0019700Y0120090D02*
X0018700Y0120090D01*
X0018700Y0121688D02*
X0019700Y0121688D01*
X0019700Y0123287D02*
X0018700Y0123287D01*
X0017437Y0124885D02*
X0020880Y0124885D01*
X0027720Y0124885D02*
X0030880Y0124885D01*
X0029700Y0123705D02*
X0029700Y0119895D01*
X0032395Y0117200D01*
X0036205Y0117200D01*
X0038900Y0119895D01*
X0038900Y0123705D01*
X0036205Y0126400D01*
X0032395Y0126400D01*
X0029700Y0123705D01*
X0029700Y0123287D02*
X0028900Y0123287D01*
X0028900Y0121688D02*
X0029700Y0121688D01*
X0029700Y0120090D02*
X0028900Y0120090D01*
X0027497Y0118491D02*
X0031103Y0118491D01*
X0037497Y0118491D02*
X0041103Y0118491D01*
X0039700Y0120090D02*
X0038900Y0120090D01*
X0038900Y0121688D02*
X0039700Y0121688D01*
X0039700Y0123287D02*
X0038900Y0123287D01*
X0037720Y0124885D02*
X0040880Y0124885D01*
D19*
X0036800Y0109300D03*
X0021800Y0109300D03*
X0051800Y0109300D03*
X0094300Y0109300D03*
X0121800Y0104300D03*
X0086800Y0036800D03*
X0076800Y0036800D03*
X0006800Y0006800D03*
X0194300Y0006800D03*
X0194300Y0194300D03*
X0006800Y0194300D03*
D20*
X0043800Y0121800D02*
X0044300Y0121800D01*
X0043800Y0121800D02*
X0051000Y0114600D01*
X0058200Y0114600D01*
X0091200Y0081600D01*
X0091200Y0072000D01*
X0085800Y0066600D01*
X0083400Y0066600D01*
X0067200Y0050400D01*
X0067200Y0046800D01*
X0066800Y0046800D01*
X0062400Y0042600D02*
X0060600Y0040800D01*
X0060600Y0040200D01*
X0061800Y0039000D01*
X0061800Y0037200D01*
X0048000Y0023400D01*
X0048000Y0022800D01*
X0046800Y0021600D01*
X0046800Y0016800D01*
X0038400Y0023400D02*
X0036600Y0021600D01*
X0036600Y0016800D01*
X0036800Y0016800D01*
X0038400Y0023400D02*
X0038400Y0024000D01*
X0051600Y0037200D01*
X0051600Y0039000D01*
X0050400Y0040200D01*
X0050400Y0041400D01*
X0052200Y0043200D01*
X0052200Y0051600D01*
X0057600Y0057000D01*
X0060000Y0057000D01*
X0076800Y0073800D01*
X0076800Y0076800D01*
X0086400Y0076800D02*
X0086400Y0073200D01*
X0070200Y0057000D01*
X0067800Y0057000D01*
X0062400Y0051600D01*
X0062400Y0042600D01*
X0057600Y0027600D02*
X0079200Y0027600D01*
X0084000Y0032400D01*
X0098400Y0032400D01*
X0101400Y0030000D02*
X0099000Y0027600D01*
X0082800Y0027600D01*
X0076800Y0021600D01*
X0076800Y0016800D01*
X0067200Y0016800D02*
X0067200Y0012600D01*
X0073200Y0006600D01*
X0073800Y0006600D01*
X0074400Y0006000D01*
X0079200Y0006000D01*
X0079800Y0006600D01*
X0084000Y0006600D01*
X0084600Y0006000D01*
X0088800Y0006000D01*
X0089400Y0006600D01*
X0109800Y0006600D01*
X0110400Y0006000D01*
X0113400Y0006000D01*
X0114000Y0006600D01*
X0118800Y0006600D01*
X0119400Y0006000D01*
X0124200Y0006000D01*
X0124800Y0006600D01*
X0129000Y0006600D01*
X0129600Y0006000D01*
X0133800Y0006000D01*
X0134400Y0006600D01*
X0135600Y0006600D01*
X0139800Y0010800D01*
X0139800Y0016800D01*
X0166800Y0043800D01*
X0166800Y0046800D01*
X0146800Y0046800D02*
X0146400Y0046800D01*
X0146400Y0043200D01*
X0130800Y0027600D01*
X0102600Y0027600D01*
X0093000Y0018000D01*
X0088200Y0018000D01*
X0087000Y0016800D01*
X0086800Y0016800D01*
X0101400Y0030000D02*
X0107400Y0030000D01*
X0117000Y0039600D01*
X0117000Y0044400D01*
X0121200Y0048600D01*
X0114000Y0042000D02*
X0113400Y0041400D01*
X0114000Y0042000D02*
X0114000Y0069600D01*
X0106800Y0076800D01*
X0102000Y0070800D02*
X0102000Y0062400D01*
X0086800Y0076800D02*
X0086400Y0076800D01*
X0087000Y0091200D02*
X0067200Y0111000D01*
X0076800Y0090600D02*
X0036600Y0090600D01*
X0027000Y0081000D01*
X0027000Y0076800D01*
X0026800Y0076800D01*
X0036600Y0076800D02*
X0036600Y0073800D01*
X0019800Y0057000D01*
X0013800Y0057000D01*
X0009600Y0052800D01*
X0009600Y0027000D01*
X0016800Y0019800D01*
X0016800Y0016800D01*
X0052200Y0060000D02*
X0052200Y0070800D01*
X0037200Y0076800D02*
X0036800Y0076800D01*
X0036600Y0076800D01*
X0037200Y0076800D02*
X0037200Y0080400D01*
X0043800Y0087000D01*
X0055200Y0087000D01*
X0087000Y0091200D02*
X0105600Y0091200D01*
X0114000Y0082800D01*
X0114000Y0081000D01*
X0120000Y0075000D01*
X0120000Y0074400D01*
X0124800Y0069600D01*
X0129600Y0069600D01*
X0136800Y0076800D01*
X0146400Y0076800D02*
X0146800Y0076800D01*
X0146400Y0076800D02*
X0146400Y0080400D01*
X0132000Y0094800D01*
X0127200Y0094800D01*
X0121200Y0094800D02*
X0106200Y0094800D01*
X0109800Y0098400D02*
X0139200Y0098400D01*
X0156600Y0081000D01*
X0156600Y0076800D01*
X0156800Y0076800D01*
X0129600Y0086400D02*
X0121200Y0094800D01*
X0067200Y0016800D02*
X0066800Y0016800D01*
X0013200Y0063600D02*
X0006000Y0070800D01*
D21*
X0006000Y0070800D03*
X0013200Y0063600D03*
X0052200Y0060000D03*
X0052200Y0070800D03*
X0055200Y0087000D03*
X0076800Y0090600D03*
X0067200Y0111000D03*
X0106200Y0094800D03*
X0109800Y0098400D03*
X0127200Y0094800D03*
X0129600Y0086400D03*
X0102000Y0070800D03*
X0102000Y0062400D03*
X0121200Y0048600D03*
X0113400Y0041400D03*
X0098400Y0032400D03*
X0057600Y0027600D03*
M02*
